<svg width="441" height="888" viewBox="0 0 441 888" fill="none" xmlns="http://www.w3.org/2000/svg">
<g filter="url(#filter0_i_409_18842)">
<rect x="3.5" width="434" height="888" rx="62" fill="#1A1A1A"/>
</g>
<rect x="4" y="0.5" width="433" height="887" rx="61.5" stroke="url(#paint0_linear_409_18842)" stroke-opacity="0.5"/>
<rect x="7.5" y="4" width="426" height="880" rx="58" fill="black"/>
<g filter="url(#filter1_i_409_18842)">
<path d="M0.5 145.6C0.5 145.04 0.5 144.76 0.608993 144.546C0.704867 144.358 0.857847 144.205 1.04601 144.109C1.25992 144 1.53995 144 2.1 144H3.5V174H2.1C1.53995 174 1.25992 174 1.04601 173.891C0.857847 173.795 0.704867 173.642 0.608993 173.454C0.5 173.24 0.5 172.96 0.5 172.4V145.6Z" fill="#333333"/>
</g>
<g filter="url(#filter2_i_409_18842)">
<path d="M0.5 207.6C0.5 207.04 0.5 206.76 0.608993 206.546C0.704867 206.358 0.857847 206.205 1.04601 206.109C1.25992 206 1.53995 206 2.1 206H3.5V269H2.1C1.53995 269 1.25992 269 1.04601 268.891C0.857847 268.795 0.704867 268.642 0.608993 268.454C0.5 268.24 0.5 267.96 0.5 267.4V207.6Z" fill="#333333"/>
</g>
<g filter="url(#filter3_i_409_18842)">
<path d="M0.5 287.6C0.5 287.04 0.5 286.76 0.608993 286.546C0.704867 286.358 0.857847 286.205 1.04601 286.109C1.25992 286 1.53995 286 2.1 286H3.5V349H2.1C1.53995 349 1.25992 349 1.04601 348.891C0.857847 348.795 0.704867 348.642 0.608993 348.454C0.5 348.24 0.5 347.96 0.5 347.4V287.6Z" fill="#333333"/>
</g>
<g filter="url(#filter4_i_409_18842)">
<path d="M437.5 228H438.9C439.46 228 439.74 228 439.954 228.109C440.142 228.205 440.295 228.358 440.391 228.546C440.5 228.76 440.5 229.04 440.5 229.6V330.4C440.5 330.96 440.5 331.24 440.391 331.454C440.295 331.642 440.142 331.795 439.954 331.891C439.74 332 439.46 332 438.9 332H437.5V228Z" fill="#333333"/>
</g>
<g clip-path="url(#clip0_409_18842)">
<rect x="25.5" y="22" width="390" height="844" rx="40" fill="white"/>
<path d="M25.5 22H415.5V866.48H25.5V22Z" fill="#00BBB4"/>
<path d="M179.472 794.191C179.458 786.899 173.532 780.969 166.255 780.969C162.258 780.969 158.486 782.808 155.993 785.863C153.499 782.808 149.727 780.969 145.73 780.969C138.445 780.969 132.519 786.899 132.505 794.191C132.498 794.444 132.462 796.074 132.779 798.007C133.155 798.057 135.048 798.376 135.829 799.643H135.886C135.034 797.202 135.135 794.299 135.135 794.27V794.22C135.135 788.369 139.883 783.612 145.722 783.612C149.465 783.612 152.964 785.624 154.857 788.854L155.978 788.196L157.098 788.854C158.992 785.617 162.496 783.612 166.233 783.612C172.072 783.612 176.82 788.369 176.82 794.22V794.27C176.82 794.299 176.922 797.202 176.069 799.643H176.126C176.914 798.375 178.808 798.057 179.176 798.007C179.523 796.074 179.48 794.444 179.473 794.191H179.472Z" fill="white"/>
<path d="M193.595 785.49C193.758 785.508 193.849 785.562 193.849 785.635C193.849 785.671 193.777 785.762 193.668 785.853V787.417H194.741V788.309H193.668V788.345C194.049 789.2 194.523 789.873 195.068 790.418L194.43 791.109C194.14 790.71 193.884 790.309 193.666 789.873V794.892H192.738V790.309C192.719 790.381 192.701 790.436 192.683 790.508C192.465 791.218 192.229 791.908 191.973 792.509L191.045 791.871C191.408 791.343 191.719 790.762 191.973 790.125C192.155 789.726 192.372 789.107 192.61 788.288H191.319V787.397H192.719V785.397L193.593 785.488L193.595 785.49ZM197.107 785.617C197.198 785.635 197.235 785.671 197.235 785.744C197.235 785.816 197.162 785.907 197.035 785.998C196.944 786.234 196.853 786.47 196.781 786.689H201.221V787.581H196.379C196.089 788.163 195.76 788.708 195.415 789.2L194.523 788.855C194.886 788.438 195.215 787.982 195.451 787.492C195.778 786.855 196.034 786.165 196.216 785.383L197.107 785.619V785.617ZM200.511 788.345C200.511 789.272 200.493 790.073 200.493 790.726H201.312V791.49H200.456C200.438 792.146 200.402 792.654 200.366 793.019H201.185V793.819H200.239C200.13 794.329 199.948 794.692 199.71 794.892C199.401 795.164 198.891 795.309 198.144 795.309L197.727 794.382C198.491 794.382 198.927 794.309 199.091 794.146C199.163 794.073 199.218 793.982 199.272 793.837H196.179C196.161 793.874 196.161 793.928 196.161 793.964H195.27C195.415 793.164 195.56 792.345 195.687 791.49H194.923V790.726H195.796C195.905 789.962 195.996 789.161 196.068 788.345H200.509H200.511ZM198.219 793.019C197.929 792.601 197.6 792.218 197.273 791.91L197.82 791.492H196.619C196.528 792.021 196.438 792.529 196.365 793.021H198.221L198.219 793.019ZM199.601 790.728C199.601 790.256 199.619 789.728 199.619 789.145H196.908C196.835 789.692 196.781 790.218 196.726 790.728H199.601V790.728ZM199.109 790.182L198.344 790.692C198.09 790.329 197.797 790 197.489 789.71L198.072 789.238C198.435 789.474 198.764 789.803 199.109 790.184V790.182ZM199.472 793.019C199.508 792.692 199.545 792.182 199.581 791.49H197.943C198.306 791.781 198.671 792.146 199.034 792.563L198.342 793.035H199.47V793.017L199.472 793.019Z" fill="white"/>
<path d="M206.003 786.435C205.694 786.562 205.402 786.671 205.111 786.743V788.671H206.804V789.562H205.385C205.785 790.308 206.241 790.907 206.804 791.399L206.039 792.2C205.694 791.746 205.383 791.236 205.111 790.671V795.254H204.183V791.036C204.092 791.327 204.001 791.565 203.911 791.764C203.675 792.311 203.346 792.891 202.946 793.474L202.091 792.71C202.508 792.238 202.892 791.71 203.2 791.145C203.382 790.819 203.6 790.29 203.838 789.562H202.309V788.671H204.183V786.998C203.802 787.088 203.418 787.179 203.037 787.233L202.399 786.342C203.11 786.306 203.727 786.215 204.237 786.07C204.691 785.979 205.256 785.78 205.93 785.487L206.622 786.179C206.658 786.215 206.695 786.27 206.695 786.342C206.695 786.415 206.658 786.433 206.568 786.433L206.295 786.379C206.204 786.379 206.114 786.397 206.005 786.433L206.003 786.435ZM210.806 785.58C210.988 785.598 211.061 785.653 211.061 785.725C211.061 785.78 210.988 785.87 210.879 785.979V791.381C211.26 791.272 211.625 791.145 211.989 791.036V791.964L210.879 792.272V795.273H209.896V792.544L207.439 793.236C207.33 793.472 207.221 793.581 207.13 793.581C207.058 793.581 207.022 793.526 206.985 793.399L206.64 792.436C207.732 792.218 208.823 791.944 209.896 791.635V785.507L210.806 785.58ZM209.096 790.417L208.422 791.054C207.911 790.526 207.439 790.109 206.965 789.782L207.603 789.181C208.131 789.544 208.621 789.945 209.096 790.417ZM209.368 787.744L208.676 788.381C208.147 787.871 207.639 787.453 207.147 787.145L207.784 786.544C208.331 786.889 208.857 787.29 209.368 787.744Z" fill="white"/>
<path d="M219.05 791.419C218.759 791.71 218.412 791.855 218.013 791.855C217.613 791.855 217.248 791.71 216.976 791.419C216.685 791.129 216.54 790.782 216.54 790.383C216.54 789.984 216.685 789.637 216.976 789.347C217.266 789.056 217.613 788.911 218.013 788.911C218.412 788.911 218.759 789.056 219.05 789.347C219.34 789.637 219.486 789.984 219.486 790.383C219.486 790.782 219.34 791.129 219.05 791.419ZM218.578 789.8C218.414 789.655 218.215 789.564 217.995 789.564C217.759 789.564 217.577 789.655 217.412 789.8C217.248 789.964 217.176 790.163 217.176 790.383C217.176 790.619 217.248 790.8 217.412 790.966C217.557 791.129 217.757 791.202 217.995 791.202C218.213 791.202 218.412 791.129 218.578 790.966C218.723 790.821 218.814 790.621 218.814 790.383C218.814 790.145 218.741 789.966 218.578 789.8Z" fill="white"/>
<path d="M227.783 786.435C227.475 786.562 227.182 786.671 226.892 786.743V788.671H228.584V789.562H227.166C227.566 790.308 228.022 790.907 228.584 791.399L227.82 792.2C227.475 791.746 227.164 791.236 226.892 790.671V795.254H225.964V791.036C225.873 791.327 225.782 791.565 225.691 791.764C225.455 792.311 225.126 792.891 224.727 793.474L223.872 792.71C224.289 792.238 224.673 791.71 224.981 791.145C225.163 790.819 225.381 790.29 225.619 789.562H224.071V788.671H225.964V786.998C225.582 787.088 225.199 787.179 224.818 787.233L224.18 786.342C224.89 786.306 225.508 786.215 226.018 786.07C226.472 785.979 227.037 785.78 227.711 785.487L228.403 786.179C228.439 786.215 228.475 786.27 228.475 786.342C228.475 786.415 228.439 786.433 228.348 786.433L228.076 786.379C227.985 786.379 227.894 786.397 227.786 786.433L227.783 786.435ZM232.587 785.58C232.769 785.598 232.841 785.653 232.841 785.725C232.841 785.78 232.769 785.87 232.66 785.979V791.381C233.041 791.272 233.406 791.145 233.769 791.036V791.964L232.66 792.272V795.273H231.677V792.544L229.22 793.236C229.111 793.472 229.002 793.581 228.911 793.581C228.839 793.581 228.802 793.526 228.766 793.399L228.421 792.436C229.512 792.218 230.604 791.944 231.677 791.635V785.507L232.587 785.58V785.58ZM230.894 790.417L230.221 791.054C229.71 790.526 229.238 790.109 228.764 789.782L229.402 789.181C229.912 789.544 230.402 789.945 230.894 790.417ZM231.149 787.744L230.457 788.381C229.928 787.871 229.42 787.453 228.927 787.145L229.565 786.544C230.112 786.889 230.638 787.29 231.149 787.744V787.744Z" fill="white"/>
<path d="M236.626 787.199V785.326L237.681 785.453C237.808 785.471 237.862 785.526 237.862 785.58C237.862 785.671 237.772 785.762 237.608 785.871V787.197H238.845V788.125H237.608V790.434C238.062 790.234 238.518 790.034 238.972 789.815V790.742L237.608 791.343V794.125C237.608 794.561 237.481 794.872 237.245 795.089C237.045 795.289 236.535 795.398 235.734 795.398L235.353 794.434H236.172C236.462 794.434 236.608 794.289 236.626 793.962V791.817L235.534 792.309C235.425 792.545 235.335 792.654 235.244 792.654C235.171 792.654 235.117 792.599 235.08 792.472L234.735 791.508C235.373 791.309 236.008 791.091 236.646 790.853V788.125H234.99V787.197H236.628L236.626 787.199ZM241.23 786.945V785.326L242.121 785.399C242.303 785.417 242.376 785.471 242.376 785.544C242.376 785.617 242.303 785.689 242.194 785.798V786.943H244.395V787.834H242.194V789.581H243.449C243.558 789.508 243.63 789.454 243.649 789.454C243.721 789.454 243.794 789.49 243.866 789.544L244.359 790.016C244.431 790.089 244.45 790.143 244.45 790.216C244.45 790.288 244.359 790.361 244.159 790.47C243.705 791.778 243.213 792.76 242.666 793.416C243.231 793.851 243.957 794.271 244.831 794.688L244.066 795.489C243.211 795.035 242.501 794.561 241.974 794.089C241.282 794.636 240.39 795.089 239.281 795.434L238.643 794.579C239.372 794.398 239.953 794.216 240.427 793.996C240.772 793.833 241.064 793.652 241.337 793.432C241.209 793.305 241.101 793.178 240.992 793.033C240.463 792.395 240.1 791.522 239.882 790.395H239.372V789.577H241.246V787.83H239.172V786.939H241.228L241.23 786.945ZM241.776 792.601C241.849 792.692 241.903 792.746 241.976 792.819C242.012 792.783 242.049 792.728 242.067 792.692C242.448 792.2 242.813 791.456 243.14 790.438H240.721C240.921 791.347 241.268 792.075 241.776 792.601V792.601Z" fill="white"/>
<path d="M246.469 785.836H249.49V794.202C249.49 794.619 249.272 794.893 248.852 795.02C248.507 795.111 248.16 795.166 247.833 795.166L247.488 794.274L248.253 794.256C248.471 794.238 248.58 794.129 248.58 793.948V791.603H247.288C247.252 792.056 247.216 792.476 247.143 792.875C247.016 793.748 246.835 794.494 246.578 795.166L245.668 794.694C245.941 794.057 246.141 793.403 246.252 792.712C246.379 791.857 246.451 791.002 246.451 790.147V785.838H246.469V785.836ZM248.598 790.764V789.09H247.361V790.163C247.361 790.363 247.343 790.562 247.343 790.764H248.598V790.764ZM248.598 788.254V786.689H247.361V788.254H248.598ZM250.89 785.836H253.983V788C253.983 788.308 254.019 788.471 254.11 788.471H254.675C254.729 788.471 254.783 788.453 254.82 788.381C254.856 788.308 254.911 788.036 254.965 787.58L255.857 787.871C255.711 788.526 255.53 788.925 255.346 789.07C255.147 789.234 254.874 789.306 254.491 789.306H254.019C253.363 789.306 253.054 788.943 253.054 788.197V786.669H251.818V787.342C251.818 787.778 251.727 788.161 251.527 788.542C251.328 788.941 251.055 789.27 250.672 789.56L249.744 789.088C250.143 788.853 250.436 788.578 250.599 788.324C250.799 787.998 250.89 787.669 250.89 787.342V785.832V785.836ZM253.983 789.873C254.11 789.782 254.182 789.746 254.2 789.746C254.273 789.746 254.328 789.782 254.4 789.836L254.911 790.308C254.983 790.363 255.001 790.435 255.001 790.49C255.001 790.562 254.911 790.635 254.711 790.744C254.293 791.98 253.837 792.871 253.347 793.417C253.529 793.545 253.692 793.672 253.876 793.762C254.293 793.998 254.876 794.18 255.605 794.309L254.785 795.2C254.112 794.964 253.531 794.672 253.038 794.345C252.893 794.254 252.748 794.145 252.639 794.037C252.056 794.454 251.33 794.819 250.438 795.109L249.8 794.254C250.438 794.109 250.946 793.946 251.33 793.744C251.566 793.635 251.783 793.508 251.967 793.363C251.876 793.272 251.785 793.163 251.731 793.073C251.386 792.637 251.13 792.145 250.93 791.581C250.821 791.272 250.748 790.962 250.694 790.671H250.038V789.816H253.987V789.871L253.983 789.873ZM251.8 791.51C251.945 791.927 252.199 792.329 252.528 792.71C252.564 792.764 252.601 792.8 252.655 792.837C252.709 792.764 252.746 792.71 252.8 792.655C253.109 792.238 253.42 791.583 253.71 790.746H251.564C251.6 791 251.691 791.256 251.8 791.51V791.51Z" fill="white"/>
<path d="M260.061 785.873C260.152 785.909 260.206 785.963 260.206 786.018C260.206 786.127 260.115 786.217 259.952 786.272C259.607 787 259.296 787.635 259.024 788.163V795.273H258.041V789.726C257.751 790.125 257.458 790.526 257.15 790.926L256.439 790.216C257.041 789.488 257.567 788.742 258.005 787.998C258.404 787.324 258.806 786.469 259.205 785.451L260.061 785.869V785.873ZM262.062 787C262.153 787.036 262.207 787.09 262.207 787.163C262.207 787.199 262.08 787.236 261.862 787.29C261.626 787.964 261.352 788.526 261.043 789.018C260.735 789.49 260.406 789.891 260.025 790.272L259.169 789.708C259.641 789.29 260.025 788.853 260.315 788.399C260.606 787.982 260.88 787.417 261.116 786.689L262.062 786.998V787ZM265.3 789.873C265.3 791.964 265.228 793.275 265.101 793.819C265.01 794.347 264.828 794.71 264.554 794.91C264.263 795.109 263.789 795.218 263.079 795.218L262.661 794.291C263.372 794.291 263.789 794.236 263.916 794.109C264.043 794.019 264.152 793.801 264.225 793.454C264.316 793.109 264.37 792.2 264.407 790.708H262.823C262.75 791.545 262.641 792.218 262.478 792.744C262.278 793.363 262.024 793.853 261.749 794.218C261.459 794.581 261.076 794.928 260.585 795.255L259.657 794.527C260.186 794.273 260.585 793.998 260.84 793.672C261.13 793.345 261.368 792.926 261.532 792.436C261.677 791.982 261.786 791.399 261.84 790.708H260.64V789.853H265.298V789.871L265.3 789.873ZM264.717 785.873C264.79 786.836 265.008 787.601 265.409 788.181C265.663 788.599 266.138 789.109 266.809 789.692L265.954 790.292C265.226 789.619 264.699 788.984 264.37 788.383C264.116 787.947 263.934 787.401 263.842 786.709H262.131V785.854H264.715V785.873H264.717Z" fill="white"/>
<path d="M271.034 786.909C271.252 786.455 271.452 785.963 271.653 785.417L272.418 785.725C272.563 785.762 272.636 785.853 272.636 785.925C272.636 785.998 272.563 786.034 272.436 786.052C272.309 786.361 272.182 786.635 272.073 786.907H277.24V787.762H271.635C271.399 788.216 271.163 788.581 270.943 788.907H275.856V794.255C275.856 794.708 275.62 795.019 275.146 795.146C274.782 795.255 274.399 795.327 274.036 795.327L273.655 794.4L274.546 794.382C274.801 794.363 274.928 794.236 274.928 793.982V793.382H270.798V795.255H269.87V790.2C269.323 790.71 268.724 791.145 268.05 791.508L267.413 790.581C268.232 790.272 269.051 789.671 269.832 788.78C270.086 788.49 270.342 788.161 270.578 787.78H267.667V786.925H271.032V786.907L271.034 786.909ZM274.928 790.764V789.746H270.798V790.764H274.928V790.764ZM274.928 792.565V791.583H270.798V792.565H274.928V792.565Z" fill="white"/>
<path d="M282.459 786.308L281.15 789.109C281.896 789.909 282.259 790.637 282.259 791.309C282.259 792.018 282.06 792.599 281.676 793.037C281.295 793.454 280.803 793.656 280.202 793.656L279.82 792.728C280.458 792.637 280.857 792.456 281.039 792.2C281.22 791.982 281.311 791.672 281.311 791.236C281.311 790.708 280.948 790.036 280.202 789.199L281.239 786.653H279.691V795.4H278.763V785.798H281.529C281.565 785.707 281.62 785.671 281.656 785.671L282.457 786.308H282.459ZM287.517 785.836V790.22H285.788C285.915 790.821 286.079 791.365 286.298 791.803C286.809 791.44 287.227 791.038 287.608 790.657L288.282 791.313C288.318 791.367 288.354 791.421 288.354 791.458C288.354 791.53 288.245 791.549 288.046 791.549C287.61 791.893 287.154 792.222 286.682 792.512C287.045 793.168 287.664 793.821 288.52 794.476L287.537 795.24C287.009 794.676 286.591 794.15 286.264 793.676C285.901 793.111 285.627 792.567 285.427 792.002C285.245 791.567 285.082 790.966 284.935 790.22H283.716V793.821C284.335 793.676 284.953 793.494 285.554 793.275V794.075C284.88 794.329 283.807 794.694 282.37 795.148C282.298 795.257 282.225 795.329 282.153 795.329C282.08 795.329 282.044 795.275 282.025 795.166L281.808 794.22C282.134 794.184 282.463 794.111 282.79 794.039V785.838H287.521L287.517 785.836ZM286.571 787.637V786.655H283.678V787.637H286.571ZM286.571 789.419V788.437H283.678V789.419H286.571Z" fill="white"/>
<path d="M292.741 787.163C292.849 787.199 292.922 787.253 292.922 787.326C292.922 787.417 292.831 787.507 292.632 787.58C292.341 788.399 292.049 789.036 291.758 789.471C291.395 790.036 290.848 790.598 290.138 791.199L289.319 790.508C290.029 789.979 290.556 789.435 290.921 788.87C291.193 788.471 291.449 787.852 291.704 786.997L292.741 787.161V787.163ZM294.288 789.544C294.433 789.58 294.506 789.635 294.506 789.707C294.506 789.762 294.415 789.852 294.252 789.961C293.798 791.107 293.233 792.379 292.523 793.744C293.868 793.671 295.161 793.544 296.38 793.381C295.981 792.798 295.579 792.254 295.161 791.762L295.89 791.161C296.745 792.07 297.582 793.234 298.438 794.635L297.51 795.272C297.31 794.873 297.11 794.526 296.909 794.2L290.741 794.928C290.614 795.109 290.505 795.182 290.396 795.182C290.269 795.182 290.196 795.109 290.196 795L289.797 793.819C290.362 793.819 290.907 793.8 291.435 793.782C291.78 793.145 292.055 792.546 292.254 792C292.672 791.036 293.001 790.09 293.273 789.145L294.292 789.544H294.288ZM296.326 785.87C296.435 787.052 296.761 787.997 297.29 788.707C297.671 789.235 298.327 789.834 299.255 790.562L298.291 791.254C297.272 790.453 296.543 789.671 296.09 788.945C295.69 788.399 295.452 787.673 295.325 786.782H292.722V785.89H296.326V785.872V785.87Z" fill="white"/>
<path d="M309.298 785.927V794.127C309.298 794.637 309.007 794.946 308.424 795.109C307.97 795.218 307.514 795.291 307.06 795.291L306.679 794.272L307.807 794.254C308.134 794.236 308.299 794.109 308.299 793.855V786.854H300.929V785.927H309.3H309.298ZM307.042 787.927V788.818H301.438V787.927H307.042ZM306.532 789.927V793.401H302.801V794.111H301.819V789.911H306.532V789.929V789.927ZM305.604 792.51V790.818H302.801V792.51H305.604Z" fill="white"/>
<rect x="151.34" y="854.92" width="139.36" height="5.2" rx="2.6" fill="black"/>
<path d="M201.771 333.124C202.367 333.124 202.974 333.256 203.593 333.52C204.235 333.784 204.853 334.12 205.449 334.527H205.415C206.011 334.983 206.469 335.583 206.79 336.326C207.111 337.046 207.271 337.885 207.271 338.845V349.063C207.271 351.03 206.652 352.481 205.415 353.417C204.2 354.328 202.986 354.784 201.771 354.784H196.272C195.676 354.784 195.069 354.676 194.45 354.46C193.831 354.244 193.224 353.897 192.628 353.417C191.391 352.505 190.772 351.054 190.772 349.063V338.845C190.772 337.885 190.932 337.046 191.253 336.326C191.574 335.583 192.032 334.983 192.628 334.527H192.594C193.167 334.12 193.774 333.784 194.416 333.52C195.057 333.256 195.676 333.124 196.272 333.124H201.771ZM201.153 351.402C202.001 351.402 202.596 351.15 202.94 350.646C203.307 350.143 203.49 349.603 203.49 349.027V338.881C203.49 338.281 203.307 337.742 202.94 337.262C202.596 336.758 202.001 336.506 201.153 336.506H196.89C196.043 336.506 195.435 336.758 195.069 337.262C194.725 337.742 194.553 338.281 194.553 338.881V349.027C194.553 349.603 194.725 350.143 195.069 350.646C195.435 351.15 196.043 351.402 196.89 351.402H201.153Z" fill="white"/>
<path d="M228.113 349.063C228.113 350.023 227.953 350.874 227.632 351.618C227.311 352.361 226.853 352.961 226.257 353.417H226.292C225.719 353.825 225.111 354.16 224.47 354.424C223.828 354.664 223.209 354.784 222.614 354.784H217.08C216.507 354.784 215.888 354.664 215.223 354.424C214.582 354.16 213.975 353.825 213.402 353.417H213.436C212.84 352.961 212.382 352.361 212.061 351.618C211.74 350.874 211.58 350.023 211.58 349.063V334.635C211.58 333.484 212.21 332.908 213.47 332.908C214.731 332.908 215.361 333.484 215.361 334.635V348.775C215.361 349.447 215.521 350.035 215.842 350.538C216.14 351.114 216.759 351.402 217.698 351.402H221.995C222.912 351.402 223.519 351.114 223.817 350.538L223.782 350.574C224.149 349.999 224.332 349.399 224.332 348.775V334.635C224.332 333.484 224.962 332.908 226.223 332.908C227.483 332.908 228.113 333.484 228.113 334.635V349.063Z" fill="white"/>
<path d="M245.14 336.506H238.506C237.567 336.506 236.948 336.794 236.65 337.37C236.329 337.873 236.169 338.461 236.169 339.133V349.495C236.169 350.119 236.352 350.598 236.719 350.934C237.085 351.246 237.693 351.402 238.541 351.402H242.081C242.906 351.402 243.318 351.966 243.318 353.093C243.318 353.573 243.215 353.981 243.009 354.316C242.826 354.628 242.516 354.784 242.081 354.784H237.922C236.478 354.784 235.195 354.4 234.072 353.633C232.949 352.913 232.388 351.546 232.388 349.531V338.809C232.388 337.825 232.537 336.974 232.835 336.254C233.133 335.535 233.602 334.947 234.244 334.491C235.458 333.58 236.673 333.124 237.887 333.124H245.14V327.727C245.14 326.576 245.77 326 247.031 326C248.291 326 248.921 326.576 248.921 327.727V353.273C248.921 354.424 248.291 355 247.031 355C246.549 355 246.114 354.916 245.725 354.748C245.335 354.556 245.14 354.148 245.14 353.525V336.506Z" fill="white"/>
<path d="M264.43 333.124C265.026 333.124 265.633 333.256 266.252 333.52C266.893 333.784 267.512 334.12 268.108 334.527H268.074C268.669 334.983 269.128 335.583 269.448 336.326C269.769 337.046 269.93 337.885 269.93 338.845V349.063C269.93 351.03 269.311 352.481 268.074 353.417C266.859 354.328 265.645 354.784 264.43 354.784H258.93C258.335 354.784 257.727 354.676 257.109 354.46C256.49 354.244 255.883 353.897 255.287 353.417C254.049 352.505 253.431 351.054 253.431 349.063V338.845C253.431 337.885 253.591 337.046 253.912 336.326C254.233 335.583 254.691 334.983 255.287 334.527H255.252C255.825 334.12 256.433 333.784 257.074 333.52C257.716 333.256 258.335 333.124 258.93 333.124H264.43ZM263.811 351.402C264.659 351.402 265.255 351.15 265.599 350.646C265.965 350.143 266.149 349.603 266.149 349.027V338.881C266.149 338.281 265.965 337.742 265.599 337.262C265.255 336.758 264.659 336.506 263.811 336.506H259.549C258.701 336.506 258.094 336.758 257.727 337.262C257.384 337.742 257.212 338.281 257.212 338.881V349.027C257.212 349.603 257.384 350.143 257.727 350.646C258.094 351.15 258.701 351.402 259.549 351.402H263.811Z" fill="white"/>
<path d="M278.02 353.273C278.02 354.424 277.389 355 276.129 355C274.869 355 274.239 354.424 274.239 353.273V338.809C274.239 337.825 274.387 336.974 274.685 336.254C274.983 335.535 275.453 334.947 276.095 334.491C277.309 333.58 278.524 333.124 279.738 333.124H285.272C286.441 333.124 287.655 333.58 288.916 334.491C290.153 335.403 290.772 336.842 290.772 338.809V353.273C290.772 354.424 290.142 355 288.881 355C287.621 355 286.991 354.424 286.991 353.273V339.133C286.991 338.509 286.808 337.909 286.441 337.334L286.475 337.37C286.177 336.794 285.57 336.506 284.654 336.506H280.357C279.417 336.506 278.799 336.794 278.501 337.37C278.18 337.873 278.02 338.461 278.02 339.133V353.273Z" fill="white"/>
<circle cx="14.8813" cy="14.8813" r="14.8813" transform="matrix(-1 0 0 1 151.535 277)" fill="white"/>
<path fill-rule="evenodd" clip-rule="evenodd" d="M172.368 281.777C178.18 275.965 187.602 275.965 193.413 281.777C199.225 287.588 199.225 297.01 193.413 302.822L174.998 321.238L174.998 340.01C174.998 348.229 168.335 354.891 160.116 354.891C151.898 354.891 145.235 348.229 145.235 340.01V315.275C145.235 312.734 145.872 310.342 146.994 308.25C147.695 306.836 148.633 305.512 149.81 304.335L172.368 281.777Z" fill="white"/>
<path d="M290.788 387.92C290.02 388.184 289.228 388.424 288.436 388.664V383.864H290.596V381.248H288.436V377.024H291.004V374.36H283.084V377.024H285.724V381.248H283.3V383.864H285.724V389.504C284.62 389.816 283.636 390.08 282.796 390.296L283.444 393.2C285.748 392.456 288.628 391.544 291.268 390.608L290.788 387.92ZM294.484 380.672H296.956V382.736H294.484V380.672ZM294.484 376.424H296.956V378.44H294.484V376.424ZM301.732 378.44H299.356V376.424H301.732V378.44ZM301.732 382.736H299.356V380.672H301.732V382.736ZM299.62 392.072V389.792H304.708V387.224H299.62V385.16H304.444V374H291.916V385.16H296.716V387.224H291.748V389.792H296.716V392.072H290.092V394.664H305.524V392.072H299.62Z" fill="white"/>
<path d="M93.244 377.44C92.98 378.112 92.716 378.736 92.476 379.24L94.9 379.744C95.5 378.664 96.22 376.912 96.796 375.4L94.756 374.968L94.348 375.04H86.836C87.004 374.608 87.172 374.176 87.316 373.744L84.7 373.096C84.028 375.16 82.756 377.2 81.244 378.472C81.868 378.88 82.876 379.792 83.332 380.272C84.124 379.504 84.892 378.544 85.564 377.44H93.244ZM91.492 380.92C92.548 382.36 93.748 384.328 94.252 385.6L96.652 384.304C96.1 383.056 94.9 381.208 93.772 379.816L91.492 380.92ZM89.14 390.064C88.54 388.888 87.148 387.256 85.948 386.128L83.764 387.352C84.94 388.576 86.26 390.304 86.788 391.432L89.14 390.064ZM84.652 379.864C84.028 381.328 82.876 382.864 81.676 383.824C82.252 384.232 83.308 385.048 83.788 385.528C85.036 384.328 86.428 382.432 87.22 380.608L84.652 379.864ZM90.844 378.064H88.132V387.016H90.844V378.064ZM77.932 387.112H80.668V376.984C81.412 375.976 82.036 374.92 82.588 373.84L80.068 373C78.796 375.496 76.66 377.968 74.5 379.528C75.028 380.056 75.892 381.256 76.228 381.832C76.78 381.352 77.356 380.824 77.932 380.248V387.112ZM77.404 394.552C78.172 393.04 78.988 390.784 79.54 389.08L76.996 388.024C76.492 389.752 75.58 391.864 74.716 393.28L77.404 394.552ZM84.46 392.488C83.068 392.488 82.828 392.416 82.828 391.648V388.12H79.924V391.72C79.924 394.288 80.812 395.08 84.22 395.08H88.852C91.564 395.08 92.38 394.264 92.74 390.904C91.972 390.76 90.748 390.328 90.124 389.896C90.004 392.176 89.788 392.488 88.636 392.488H84.46ZM91.732 388.504C92.788 390.304 93.796 392.656 94.108 394.144L96.82 393.064C96.46 391.504 95.332 389.248 94.228 387.52L91.732 388.504Z" fill="white"/>
<path d="M346.204 376.728H361.18V379.56H364.108V374.136H355.564C355.324 373.44 354.916 372.648 354.532 372L351.508 372.864C351.7 373.224 351.916 373.68 352.084 374.136H343.396V379.56H346.204V376.728ZM360.244 380.832C359.092 382.008 357.364 383.352 355.708 384.48C355.228 383.448 354.532 382.44 353.596 381.576C354.124 381.24 354.604 380.856 355.036 380.472H360.364V378.048H346.948V380.472H351.076C348.916 381.648 346.084 382.56 343.372 383.112C343.828 383.664 344.548 384.792 344.812 385.344C347.068 384.744 349.396 383.928 351.484 382.824C351.724 383.088 351.94 383.352 352.156 383.616C350.068 385.008 346.132 386.52 343.18 387.144C343.684 387.744 344.284 388.704 344.596 389.352C347.332 388.512 350.836 386.952 353.236 385.44C353.38 385.752 353.5 386.064 353.596 386.352C351.22 388.368 346.612 390.432 342.82 391.248C343.372 391.896 343.996 392.928 344.308 393.624C347.5 392.664 351.268 390.888 354.004 389.016C354.004 390.168 353.716 391.056 353.308 391.44C352.972 391.944 352.588 392.016 352.012 392.016C351.46 392.016 350.692 391.992 349.852 391.896C350.332 392.688 350.572 393.816 350.62 394.608C351.316 394.632 352.036 394.656 352.564 394.632C353.812 394.608 354.58 394.368 355.42 393.504C356.644 392.496 357.22 389.736 356.548 386.856C356.788 386.712 357.052 386.568 357.292 386.4C358.468 389.664 360.364 392.232 363.244 393.6C363.652 392.904 364.492 391.8 365.14 391.272C362.38 390.168 360.46 387.792 359.524 384.96C360.58 384.24 361.66 383.472 362.62 382.728L360.244 380.832Z" fill="white"/>
<path d="M325.276 384.448H327.796L327.316 384.832C327.628 384.952 327.964 385.12 328.3 385.264L325.276 385.288V384.448ZM318.244 382.696V381.784H322.492V382.696H318.244ZM318.244 379.264H322.492V380.152H318.244V379.264ZM329.74 379.264V380.152H325.276V379.264H329.74ZM325.276 382.696V381.784H329.74V382.696H325.276ZM334.852 388.048H329.5V387.088L331.252 387.04C331.636 387.304 331.972 387.592 332.26 387.832L334.012 386.368C333.244 385.792 332.116 385.072 330.916 384.448H332.524V377.536H325.276V376.672H334.036V374.512H325.276V373H322.492V374.512H313.684V376.672H322.492V377.536H315.58V384.448H322.492V385.312C319.252 385.312 316.3 385.336 314.044 385.312L314.116 387.352C317.476 387.328 322.012 387.256 326.74 387.16V388.048H313.036V390.304H317.836L316.828 391.144C318.124 392.032 319.732 393.4 320.428 394.336L322.54 392.512C321.988 391.864 320.98 391.024 319.972 390.304H326.74V392.536C326.74 392.848 326.62 392.92 326.236 392.944C325.852 392.944 324.484 392.944 323.332 392.896C323.668 393.616 324.028 394.624 324.148 395.392C325.972 395.392 327.316 395.368 328.276 395.008C329.26 394.624 329.5 393.952 329.5 392.632V390.304H334.852V388.048Z" fill="white"/>
<path d="M270.148 390.552V391.896H260.02V390.552H270.148ZM268.948 384.048V385.32H260.02V384.048H268.948ZM260.02 387.36H271.732V382.008H257.116V394.656H260.02V394.008H270.148V394.656H273.004V388.464H260.02V387.36ZM266.044 378.888C265.828 378.336 265.492 377.664 265.156 377.16C265.396 377.352 265.636 377.544 265.804 377.712C266.38 377.232 266.98 376.56 267.484 375.84H269.62L268.588 376.728C269.356 377.352 270.364 378.216 270.964 378.888H266.044ZM255.244 378.888C256.036 378.072 256.9 377.04 257.644 375.864H259.06L258.148 376.656C258.916 377.304 259.876 378.24 260.332 378.888H255.244ZM262.54 377.52C262.756 377.928 262.972 378.432 263.164 378.888H260.404L262.156 377.304C261.82 376.896 261.268 376.344 260.716 375.864H263.908L263.692 376.032C264.052 376.248 264.58 376.656 265.012 377.04L262.54 377.52ZM275.452 373.68H268.78C268.948 373.344 269.092 373.008 269.236 372.672L266.644 372C266.116 373.368 265.204 374.712 264.124 375.672V373.68H258.844C259.012 373.368 259.156 373.032 259.276 372.72L256.756 372C256.012 373.896 254.692 375.792 253.252 377.04C253.78 377.448 254.668 378.384 255.1 378.888H254.236V383.064H256.996V381.024H271.804V383.064H274.732V378.888H271.54L273.124 377.472C272.716 377.016 271.996 376.392 271.276 375.84H275.452V373.68Z" fill="white"/>
<path d="M243.076 383.56C243.988 383.56 244.996 383.512 245.5 383.344C245.404 382.696 245.284 381.664 245.236 380.92C244.708 381.04 243.7 381.112 243.028 381.112H239.524C238.756 381.112 238.612 380.776 238.612 379.888V378.304H244.516V375.856H238.612V373.024H235.78V379.84C235.78 382.504 236.548 383.56 239.428 383.56H243.076ZM227.572 386.128C228.484 386.872 229.588 387.808 230.188 388.432L231.34 387.304V388.096C229.9 388.864 228.484 389.584 227.404 390.064C227.524 388.984 227.572 387.904 227.572 386.992V386.128ZM231.34 383.968V386.68C230.62 386.056 229.588 385.216 228.772 384.64L227.572 385.672V383.968H231.34ZM234.028 381.568H224.932V386.968C224.932 389.056 224.836 391.696 223.564 393.568C224.068 393.904 225.148 394.936 225.556 395.488C226.468 394.24 226.996 392.608 227.26 390.976L227.86 392.656C228.94 391.96 230.14 391.144 231.34 390.28V392.728C231.34 393.04 231.244 393.136 230.932 393.136C230.644 393.136 229.708 393.136 228.844 393.088C229.204 393.712 229.588 394.648 229.708 395.32C231.172 395.32 232.252 395.272 233.02 394.912C233.812 394.528 234.028 393.928 234.028 392.752V381.568ZM230.38 375.592C230.692 376.168 231.028 376.84 231.388 377.536L227.884 377.8C228.94 376.6 230.02 375.208 230.836 373.816L227.956 373C227.068 374.896 225.604 376.744 225.124 377.272C224.644 377.8 224.236 378.136 223.804 378.232C224.092 378.952 224.548 380.248 224.692 380.8C225.388 380.512 226.372 380.368 232.444 379.768C232.684 380.344 232.9 380.848 233.044 381.28L235.54 380.272C234.964 378.832 233.692 376.48 232.684 374.752L230.38 375.592ZM239.74 392.728C238.78 392.728 238.612 392.608 238.612 391.768V389.152H244.684V386.632H238.612V384.232H235.78V391.768C235.78 394.384 236.476 395.224 239.308 395.224H242.716C244.996 395.224 245.74 394.288 246.028 391.144C245.284 390.976 244.132 390.544 243.556 390.112C243.436 392.32 243.268 392.728 242.452 392.728H239.74Z" fill="white"/>
<path d="M216.364 376.936C216.052 376.024 215.284 374.704 214.54 373.72L212.644 374.56C213.34 375.568 214.084 376.984 214.348 377.872L216.364 376.936ZM209.284 374.56H203.02V376.768H209.284V374.56ZM199.228 378.304H197.044V376.096H199.228V378.304ZM199.228 382.672H197.044V380.44H199.228V382.672ZM199.228 387.04H197.044V384.784H199.228V387.04ZM201.652 373.84H194.74V389.32H201.652V373.84ZM195.796 389.464C195.34 391.144 194.452 392.872 193.372 394C193.996 394.312 195.028 394.984 195.532 395.416C196.636 394.12 197.716 392.056 198.316 390.04L195.796 389.464ZM208.252 390.808V386.92H210.028V384.784H208.252V381.112H206.068V391.24L204.94 391.456V382.816H202.852V391.84L201.82 392.008C201.46 391.168 200.98 390.256 200.524 389.488L198.508 390.256C199.132 391.48 199.876 393.112 200.14 394.168L202.036 393.352L202.516 394.48C204.82 393.952 207.82 393.256 210.628 392.536L210.412 390.376L208.252 390.808ZM216.1 380.776V378.448H212.644C212.62 376.696 212.62 374.872 212.644 373H210.052C210.076 374.92 210.1 376.72 210.124 378.448H202.108V380.776H210.196C210.484 389.728 211.372 395.296 213.988 395.344C214.828 395.344 215.98 394.504 216.58 390.496C216.172 390.232 215.092 389.464 214.708 388.888C214.612 390.784 214.396 391.912 214.132 391.912C213.412 391.912 212.884 387.208 212.692 380.776H216.1Z" fill="white"/>
<path d="M178.3 388.128V385.968H182.86C181.924 386.808 180.46 387.84 179.308 388.536L178.3 388.128ZM172.732 389.16L174.004 387.744C173.332 387.24 172.18 386.544 171.172 385.968H175.396V388.128L172.732 389.16ZM178.3 382.728H181.468V384.048H178.3V382.728ZM178.3 379.536H181.468V380.76H178.3V379.536ZM184.156 382.944H186.268V380.52H184.156V377.616H178.3V376.608H186.028V374.112H178.204C177.868 373.416 177.436 372.648 177.028 372L174.172 372.696C174.412 373.104 174.676 373.608 174.892 374.112H165.82V381.048C165.82 384.6 165.676 389.568 163.708 393.024C164.332 393.288 165.532 394.08 166.036 394.56C168.172 390.84 168.532 384.96 168.532 381.048V376.608H175.396V377.616H169.948V379.536H175.396V380.76H168.988V382.728H175.396V384.048H169.684V385.968H170.212L169.06 387.168C170.068 387.816 171.46 388.728 172.252 389.328C170.596 389.952 169.108 390.504 168.004 390.888L169.06 393.216C170.884 392.4 173.188 391.344 175.396 390.336V391.872C175.396 392.256 175.252 392.4 174.82 392.4C174.412 392.424 172.948 392.424 171.748 392.376C172.108 393.024 172.492 394.008 172.636 394.704C174.628 394.704 176.02 394.68 176.98 394.32C177.94 393.936 178.3 393.336 178.3 391.92V390.384C180.652 391.416 183.292 392.712 184.756 393.576L186.052 391.584C185.02 391.032 183.388 390.264 181.756 389.544C182.836 388.968 184.06 388.224 185.164 387.48L183.268 385.968H184.156V382.944Z" fill="white"/>
<path d="M153.028 376.72V377.896H151.348V376.72H153.028ZM153.028 381.208H151.348V379.936H153.028V381.208ZM149.02 377.896H145.468V379.936H149.02V381.208H146.428V383.176H149.02V384.328H146.26V386.464H149.02V387.616H145.78V389.824H149.02V392.008H151.348V389.824H155.884V387.616H151.348V386.464H155.26V384.328H151.348V383.176H155.164V379.936H156.604V377.896H155.164V374.752H151.348V373.144H149.02V374.752H146.428V376.72H149.02V377.896ZM144.364 381.424L143.932 381.472H143.116C144.1 379.672 145.132 377.464 145.948 375.256L144.34 374.152L143.596 374.464H140.116V376.888H142.66C141.964 378.736 141.172 380.296 140.86 380.8C140.404 381.568 139.756 382.264 139.276 382.408C139.636 382.888 140.188 383.92 140.38 384.4C140.38 384.16 140.764 383.872 141.172 383.632H143.332C143.14 385.336 142.828 386.8 142.42 388.12C142.036 387.328 141.7 386.416 141.436 385.384L139.468 386.008C139.948 387.928 140.596 389.416 141.364 390.64C140.668 391.84 139.804 392.8 138.796 393.544V378.256C139.396 376.744 139.9 375.208 140.308 373.696L137.74 373C136.948 376.312 135.556 379.624 133.924 381.832C134.356 382.552 135.028 384.232 135.196 384.928C135.58 384.424 135.94 383.896 136.3 383.296V395.32H138.796V393.712C139.348 394.072 140.14 394.888 140.524 395.344C141.484 394.648 142.276 393.712 142.996 392.584C145.084 394.432 147.772 394.912 150.94 394.912H155.764C155.908 394.192 156.292 393.064 156.628 392.488C155.404 392.512 152.068 392.512 151.084 392.512C148.348 392.512 145.924 392.128 144.076 390.4C144.964 388.144 145.564 385.288 145.852 381.736L144.364 381.424Z" fill="white"/>
<path d="M108.028 390.424V385.72H111.844V390.424H108.028ZM111.844 383.248H108.028V379.36H111.844V383.248ZM119.476 376.696C119.836 375.688 120.148 374.68 120.412 373.648L117.676 373.024C116.98 375.832 115.828 378.736 114.436 380.752V376.864H110.716C111.124 375.832 111.556 374.632 111.964 373.432L108.844 373C108.748 374.128 108.46 375.664 108.148 376.864H105.436V394.696H108.028V392.944H114.436V381.736C115.084 382.168 115.9 382.72 116.284 383.08C117.028 382.048 117.772 380.728 118.396 379.288H123.532C123.268 387.76 122.956 391.36 122.26 392.128C121.948 392.44 121.684 392.536 121.204 392.536C120.58 392.536 119.164 392.536 117.628 392.392C118.132 393.184 118.516 394.384 118.564 395.176C119.98 395.224 121.42 395.248 122.332 395.128C123.292 394.96 123.964 394.696 124.636 393.808C125.62 392.536 125.884 388.72 126.196 377.992C126.22 377.656 126.22 376.696 126.22 376.696H119.476ZM122.236 387.64C121.492 386.248 119.908 383.968 118.708 382.312L116.476 383.584C117.652 385.336 119.14 387.688 119.812 389.128L122.236 387.64Z" fill="white"/>
<path d="M201.771 333.124C202.367 333.124 202.974 333.256 203.593 333.52C204.235 333.784 204.853 334.12 205.449 334.527H205.415C206.011 334.983 206.469 335.583 206.79 336.326C207.111 337.046 207.271 337.885 207.271 338.845V349.063C207.271 351.03 206.652 352.481 205.415 353.417C204.2 354.328 202.986 354.784 201.771 354.784H196.272C195.676 354.784 195.069 354.676 194.45 354.46C193.831 354.244 193.224 353.897 192.628 353.417C191.391 352.505 190.772 351.054 190.772 349.063V338.845C190.772 337.885 190.932 337.046 191.253 336.326C191.574 335.583 192.032 334.983 192.628 334.527H192.594C193.167 334.12 193.774 333.784 194.416 333.52C195.057 333.256 195.676 333.124 196.272 333.124H201.771ZM201.153 351.402C202.001 351.402 202.596 351.15 202.94 350.646C203.307 350.143 203.49 349.603 203.49 349.027V338.881C203.49 338.281 203.307 337.742 202.94 337.262C202.596 336.758 202.001 336.506 201.153 336.506H196.89C196.043 336.506 195.435 336.758 195.069 337.262C194.725 337.742 194.553 338.281 194.553 338.881V349.027C194.553 349.603 194.725 350.143 195.069 350.646C195.435 351.15 196.043 351.402 196.89 351.402H201.153Z" fill="white"/>
<path d="M228.113 349.063C228.113 350.023 227.953 350.874 227.632 351.618C227.311 352.361 226.853 352.961 226.257 353.417H226.292C225.719 353.825 225.111 354.16 224.47 354.424C223.828 354.664 223.209 354.784 222.614 354.784H217.08C216.507 354.784 215.888 354.664 215.223 354.424C214.582 354.16 213.975 353.825 213.402 353.417H213.436C212.84 352.961 212.382 352.361 212.061 351.618C211.74 350.874 211.58 350.023 211.58 349.063V334.635C211.58 333.484 212.21 332.908 213.47 332.908C214.731 332.908 215.361 333.484 215.361 334.635V348.775C215.361 349.447 215.521 350.035 215.842 350.538C216.14 351.114 216.759 351.402 217.698 351.402H221.995C222.912 351.402 223.519 351.114 223.817 350.538L223.782 350.574C224.149 349.999 224.332 349.399 224.332 348.775V334.635C224.332 333.484 224.962 332.908 226.223 332.908C227.483 332.908 228.113 333.484 228.113 334.635V349.063Z" fill="white"/>
<path d="M245.14 336.506H238.506C237.567 336.506 236.948 336.794 236.65 337.37C236.329 337.873 236.169 338.461 236.169 339.133V349.495C236.169 350.119 236.352 350.598 236.719 350.934C237.085 351.246 237.693 351.402 238.541 351.402H242.081C242.906 351.402 243.318 351.966 243.318 353.093C243.318 353.573 243.215 353.981 243.009 354.316C242.826 354.628 242.516 354.784 242.081 354.784H237.922C236.478 354.784 235.195 354.4 234.072 353.633C232.949 352.913 232.388 351.546 232.388 349.531V338.809C232.388 337.825 232.537 336.974 232.835 336.254C233.133 335.535 233.602 334.947 234.244 334.491C235.458 333.58 236.673 333.124 237.887 333.124H245.14V327.727C245.14 326.576 245.77 326 247.031 326C248.291 326 248.921 326.576 248.921 327.727V353.273C248.921 354.424 248.291 355 247.031 355C246.549 355 246.114 354.916 245.725 354.748C245.335 354.556 245.14 354.148 245.14 353.525V336.506Z" fill="white"/>
<path d="M264.43 333.124C265.026 333.124 265.633 333.256 266.252 333.52C266.893 333.784 267.512 334.12 268.108 334.527H268.074C268.669 334.983 269.128 335.583 269.448 336.326C269.769 337.046 269.93 337.885 269.93 338.845V349.063C269.93 351.03 269.311 352.481 268.074 353.417C266.859 354.328 265.645 354.784 264.43 354.784H258.93C258.335 354.784 257.727 354.676 257.109 354.46C256.49 354.244 255.883 353.897 255.287 353.417C254.049 352.505 253.431 351.054 253.431 349.063V338.845C253.431 337.885 253.591 337.046 253.912 336.326C254.233 335.583 254.691 334.983 255.287 334.527H255.252C255.825 334.12 256.433 333.784 257.074 333.52C257.716 333.256 258.335 333.124 258.93 333.124H264.43ZM263.811 351.402C264.659 351.402 265.255 351.15 265.599 350.646C265.965 350.143 266.149 349.603 266.149 349.027V338.881C266.149 338.281 265.965 337.742 265.599 337.262C265.255 336.758 264.659 336.506 263.811 336.506H259.549C258.701 336.506 258.094 336.758 257.727 337.262C257.384 337.742 257.212 338.281 257.212 338.881V349.027C257.212 349.603 257.384 350.143 257.727 350.646C258.094 351.15 258.701 351.402 259.549 351.402H263.811Z" fill="white"/>
<path d="M278.02 353.273C278.02 354.424 277.389 355 276.129 355C274.869 355 274.239 354.424 274.239 353.273V338.809C274.239 337.825 274.387 336.974 274.685 336.254C274.983 335.535 275.453 334.947 276.095 334.491C277.309 333.58 278.524 333.124 279.738 333.124H285.272C286.441 333.124 287.655 333.58 288.916 334.491C290.153 335.403 290.772 336.842 290.772 338.809V353.273C290.772 354.424 290.142 355 288.881 355C287.621 355 286.991 354.424 286.991 353.273V339.133C286.991 338.509 286.808 337.909 286.441 337.334L286.475 337.37C286.177 336.794 285.57 336.506 284.654 336.506H280.357C279.417 336.506 278.799 336.794 278.501 337.37C278.18 337.873 278.02 338.461 278.02 339.133V353.273Z" fill="white"/>
<circle cx="14.8813" cy="14.8813" r="14.8813" transform="matrix(-1 0 0 1 151.535 277)" fill="white"/>
<path fill-rule="evenodd" clip-rule="evenodd" d="M172.368 281.777C178.18 275.965 187.602 275.965 193.413 281.777C199.225 287.588 199.225 297.01 193.413 302.822L174.998 321.238L174.998 340.01C174.998 348.229 168.335 354.891 160.116 354.891C151.898 354.891 145.235 348.229 145.235 340.01V315.275C145.235 312.734 145.872 310.342 146.994 308.25C147.695 306.836 148.633 305.512 149.81 304.335L172.368 281.777Z" fill="white"/>
<path d="M290.788 387.92C290.02 388.184 289.228 388.424 288.436 388.664V383.864H290.596V381.248H288.436V377.024H291.004V374.36H283.084V377.024H285.724V381.248H283.3V383.864H285.724V389.504C284.62 389.816 283.636 390.08 282.796 390.296L283.444 393.2C285.748 392.456 288.628 391.544 291.268 390.608L290.788 387.92ZM294.484 380.672H296.956V382.736H294.484V380.672ZM294.484 376.424H296.956V378.44H294.484V376.424ZM301.732 378.44H299.356V376.424H301.732V378.44ZM301.732 382.736H299.356V380.672H301.732V382.736ZM299.62 392.072V389.792H304.708V387.224H299.62V385.16H304.444V374H291.916V385.16H296.716V387.224H291.748V389.792H296.716V392.072H290.092V394.664H305.524V392.072H299.62Z" fill="white"/>
<path d="M93.244 377.44C92.98 378.112 92.716 378.736 92.476 379.24L94.9 379.744C95.5 378.664 96.22 376.912 96.796 375.4L94.756 374.968L94.348 375.04H86.836C87.004 374.608 87.172 374.176 87.316 373.744L84.7 373.096C84.028 375.16 82.756 377.2 81.244 378.472C81.868 378.88 82.876 379.792 83.332 380.272C84.124 379.504 84.892 378.544 85.564 377.44H93.244ZM91.492 380.92C92.548 382.36 93.748 384.328 94.252 385.6L96.652 384.304C96.1 383.056 94.9 381.208 93.772 379.816L91.492 380.92ZM89.14 390.064C88.54 388.888 87.148 387.256 85.948 386.128L83.764 387.352C84.94 388.576 86.26 390.304 86.788 391.432L89.14 390.064ZM84.652 379.864C84.028 381.328 82.876 382.864 81.676 383.824C82.252 384.232 83.308 385.048 83.788 385.528C85.036 384.328 86.428 382.432 87.22 380.608L84.652 379.864ZM90.844 378.064H88.132V387.016H90.844V378.064ZM77.932 387.112H80.668V376.984C81.412 375.976 82.036 374.92 82.588 373.84L80.068 373C78.796 375.496 76.66 377.968 74.5 379.528C75.028 380.056 75.892 381.256 76.228 381.832C76.78 381.352 77.356 380.824 77.932 380.248V387.112ZM77.404 394.552C78.172 393.04 78.988 390.784 79.54 389.08L76.996 388.024C76.492 389.752 75.58 391.864 74.716 393.28L77.404 394.552ZM84.46 392.488C83.068 392.488 82.828 392.416 82.828 391.648V388.12H79.924V391.72C79.924 394.288 80.812 395.08 84.22 395.08H88.852C91.564 395.08 92.38 394.264 92.74 390.904C91.972 390.76 90.748 390.328 90.124 389.896C90.004 392.176 89.788 392.488 88.636 392.488H84.46ZM91.732 388.504C92.788 390.304 93.796 392.656 94.108 394.144L96.82 393.064C96.46 391.504 95.332 389.248 94.228 387.52L91.732 388.504Z" fill="white"/>
<path d="M346.204 376.728H361.18V379.56H364.108V374.136H355.564C355.324 373.44 354.916 372.648 354.532 372L351.508 372.864C351.7 373.224 351.916 373.68 352.084 374.136H343.396V379.56H346.204V376.728ZM360.244 380.832C359.092 382.008 357.364 383.352 355.708 384.48C355.228 383.448 354.532 382.44 353.596 381.576C354.124 381.24 354.604 380.856 355.036 380.472H360.364V378.048H346.948V380.472H351.076C348.916 381.648 346.084 382.56 343.372 383.112C343.828 383.664 344.548 384.792 344.812 385.344C347.068 384.744 349.396 383.928 351.484 382.824C351.724 383.088 351.94 383.352 352.156 383.616C350.068 385.008 346.132 386.52 343.18 387.144C343.684 387.744 344.284 388.704 344.596 389.352C347.332 388.512 350.836 386.952 353.236 385.44C353.38 385.752 353.5 386.064 353.596 386.352C351.22 388.368 346.612 390.432 342.82 391.248C343.372 391.896 343.996 392.928 344.308 393.624C347.5 392.664 351.268 390.888 354.004 389.016C354.004 390.168 353.716 391.056 353.308 391.44C352.972 391.944 352.588 392.016 352.012 392.016C351.46 392.016 350.692 391.992 349.852 391.896C350.332 392.688 350.572 393.816 350.62 394.608C351.316 394.632 352.036 394.656 352.564 394.632C353.812 394.608 354.58 394.368 355.42 393.504C356.644 392.496 357.22 389.736 356.548 386.856C356.788 386.712 357.052 386.568 357.292 386.4C358.468 389.664 360.364 392.232 363.244 393.6C363.652 392.904 364.492 391.8 365.14 391.272C362.38 390.168 360.46 387.792 359.524 384.96C360.58 384.24 361.66 383.472 362.62 382.728L360.244 380.832Z" fill="white"/>
<path d="M325.276 384.448H327.796L327.316 384.832C327.628 384.952 327.964 385.12 328.3 385.264L325.276 385.288V384.448ZM318.244 382.696V381.784H322.492V382.696H318.244ZM318.244 379.264H322.492V380.152H318.244V379.264ZM329.74 379.264V380.152H325.276V379.264H329.74ZM325.276 382.696V381.784H329.74V382.696H325.276ZM334.852 388.048H329.5V387.088L331.252 387.04C331.636 387.304 331.972 387.592 332.26 387.832L334.012 386.368C333.244 385.792 332.116 385.072 330.916 384.448H332.524V377.536H325.276V376.672H334.036V374.512H325.276V373H322.492V374.512H313.684V376.672H322.492V377.536H315.58V384.448H322.492V385.312C319.252 385.312 316.3 385.336 314.044 385.312L314.116 387.352C317.476 387.328 322.012 387.256 326.74 387.16V388.048H313.036V390.304H317.836L316.828 391.144C318.124 392.032 319.732 393.4 320.428 394.336L322.54 392.512C321.988 391.864 320.98 391.024 319.972 390.304H326.74V392.536C326.74 392.848 326.62 392.92 326.236 392.944C325.852 392.944 324.484 392.944 323.332 392.896C323.668 393.616 324.028 394.624 324.148 395.392C325.972 395.392 327.316 395.368 328.276 395.008C329.26 394.624 329.5 393.952 329.5 392.632V390.304H334.852V388.048Z" fill="white"/>
<path d="M270.148 390.552V391.896H260.02V390.552H270.148ZM268.948 384.048V385.32H260.02V384.048H268.948ZM260.02 387.36H271.732V382.008H257.116V394.656H260.02V394.008H270.148V394.656H273.004V388.464H260.02V387.36ZM266.044 378.888C265.828 378.336 265.492 377.664 265.156 377.16C265.396 377.352 265.636 377.544 265.804 377.712C266.38 377.232 266.98 376.56 267.484 375.84H269.62L268.588 376.728C269.356 377.352 270.364 378.216 270.964 378.888H266.044ZM255.244 378.888C256.036 378.072 256.9 377.04 257.644 375.864H259.06L258.148 376.656C258.916 377.304 259.876 378.24 260.332 378.888H255.244ZM262.54 377.52C262.756 377.928 262.972 378.432 263.164 378.888H260.404L262.156 377.304C261.82 376.896 261.268 376.344 260.716 375.864H263.908L263.692 376.032C264.052 376.248 264.58 376.656 265.012 377.04L262.54 377.52ZM275.452 373.68H268.78C268.948 373.344 269.092 373.008 269.236 372.672L266.644 372C266.116 373.368 265.204 374.712 264.124 375.672V373.68H258.844C259.012 373.368 259.156 373.032 259.276 372.72L256.756 372C256.012 373.896 254.692 375.792 253.252 377.04C253.78 377.448 254.668 378.384 255.1 378.888H254.236V383.064H256.996V381.024H271.804V383.064H274.732V378.888H271.54L273.124 377.472C272.716 377.016 271.996 376.392 271.276 375.84H275.452V373.68Z" fill="white"/>
<path d="M243.076 383.56C243.988 383.56 244.996 383.512 245.5 383.344C245.404 382.696 245.284 381.664 245.236 380.92C244.708 381.04 243.7 381.112 243.028 381.112H239.524C238.756 381.112 238.612 380.776 238.612 379.888V378.304H244.516V375.856H238.612V373.024H235.78V379.84C235.78 382.504 236.548 383.56 239.428 383.56H243.076ZM227.572 386.128C228.484 386.872 229.588 387.808 230.188 388.432L231.34 387.304V388.096C229.9 388.864 228.484 389.584 227.404 390.064C227.524 388.984 227.572 387.904 227.572 386.992V386.128ZM231.34 383.968V386.68C230.62 386.056 229.588 385.216 228.772 384.64L227.572 385.672V383.968H231.34ZM234.028 381.568H224.932V386.968C224.932 389.056 224.836 391.696 223.564 393.568C224.068 393.904 225.148 394.936 225.556 395.488C226.468 394.24 226.996 392.608 227.26 390.976L227.86 392.656C228.94 391.96 230.14 391.144 231.34 390.28V392.728C231.34 393.04 231.244 393.136 230.932 393.136C230.644 393.136 229.708 393.136 228.844 393.088C229.204 393.712 229.588 394.648 229.708 395.32C231.172 395.32 232.252 395.272 233.02 394.912C233.812 394.528 234.028 393.928 234.028 392.752V381.568ZM230.38 375.592C230.692 376.168 231.028 376.84 231.388 377.536L227.884 377.8C228.94 376.6 230.02 375.208 230.836 373.816L227.956 373C227.068 374.896 225.604 376.744 225.124 377.272C224.644 377.8 224.236 378.136 223.804 378.232C224.092 378.952 224.548 380.248 224.692 380.8C225.388 380.512 226.372 380.368 232.444 379.768C232.684 380.344 232.9 380.848 233.044 381.28L235.54 380.272C234.964 378.832 233.692 376.48 232.684 374.752L230.38 375.592ZM239.74 392.728C238.78 392.728 238.612 392.608 238.612 391.768V389.152H244.684V386.632H238.612V384.232H235.78V391.768C235.78 394.384 236.476 395.224 239.308 395.224H242.716C244.996 395.224 245.74 394.288 246.028 391.144C245.284 390.976 244.132 390.544 243.556 390.112C243.436 392.32 243.268 392.728 242.452 392.728H239.74Z" fill="white"/>
<path d="M216.364 376.936C216.052 376.024 215.284 374.704 214.54 373.72L212.644 374.56C213.34 375.568 214.084 376.984 214.348 377.872L216.364 376.936ZM209.284 374.56H203.02V376.768H209.284V374.56ZM199.228 378.304H197.044V376.096H199.228V378.304ZM199.228 382.672H197.044V380.44H199.228V382.672ZM199.228 387.04H197.044V384.784H199.228V387.04ZM201.652 373.84H194.74V389.32H201.652V373.84ZM195.796 389.464C195.34 391.144 194.452 392.872 193.372 394C193.996 394.312 195.028 394.984 195.532 395.416C196.636 394.12 197.716 392.056 198.316 390.04L195.796 389.464ZM208.252 390.808V386.92H210.028V384.784H208.252V381.112H206.068V391.24L204.94 391.456V382.816H202.852V391.84L201.82 392.008C201.46 391.168 200.98 390.256 200.524 389.488L198.508 390.256C199.132 391.48 199.876 393.112 200.14 394.168L202.036 393.352L202.516 394.48C204.82 393.952 207.82 393.256 210.628 392.536L210.412 390.376L208.252 390.808ZM216.1 380.776V378.448H212.644C212.62 376.696 212.62 374.872 212.644 373H210.052C210.076 374.92 210.1 376.72 210.124 378.448H202.108V380.776H210.196C210.484 389.728 211.372 395.296 213.988 395.344C214.828 395.344 215.98 394.504 216.58 390.496C216.172 390.232 215.092 389.464 214.708 388.888C214.612 390.784 214.396 391.912 214.132 391.912C213.412 391.912 212.884 387.208 212.692 380.776H216.1Z" fill="white"/>
<path d="M178.3 388.128V385.968H182.86C181.924 386.808 180.46 387.84 179.308 388.536L178.3 388.128ZM172.732 389.16L174.004 387.744C173.332 387.24 172.18 386.544 171.172 385.968H175.396V388.128L172.732 389.16ZM178.3 382.728H181.468V384.048H178.3V382.728ZM178.3 379.536H181.468V380.76H178.3V379.536ZM184.156 382.944H186.268V380.52H184.156V377.616H178.3V376.608H186.028V374.112H178.204C177.868 373.416 177.436 372.648 177.028 372L174.172 372.696C174.412 373.104 174.676 373.608 174.892 374.112H165.82V381.048C165.82 384.6 165.676 389.568 163.708 393.024C164.332 393.288 165.532 394.08 166.036 394.56C168.172 390.84 168.532 384.96 168.532 381.048V376.608H175.396V377.616H169.948V379.536H175.396V380.76H168.988V382.728H175.396V384.048H169.684V385.968H170.212L169.06 387.168C170.068 387.816 171.46 388.728 172.252 389.328C170.596 389.952 169.108 390.504 168.004 390.888L169.06 393.216C170.884 392.4 173.188 391.344 175.396 390.336V391.872C175.396 392.256 175.252 392.4 174.82 392.4C174.412 392.424 172.948 392.424 171.748 392.376C172.108 393.024 172.492 394.008 172.636 394.704C174.628 394.704 176.02 394.68 176.98 394.32C177.94 393.936 178.3 393.336 178.3 391.92V390.384C180.652 391.416 183.292 392.712 184.756 393.576L186.052 391.584C185.02 391.032 183.388 390.264 181.756 389.544C182.836 388.968 184.06 388.224 185.164 387.48L183.268 385.968H184.156V382.944Z" fill="white"/>
<path d="M153.028 376.72V377.896H151.348V376.72H153.028ZM153.028 381.208H151.348V379.936H153.028V381.208ZM149.02 377.896H145.468V379.936H149.02V381.208H146.428V383.176H149.02V384.328H146.26V386.464H149.02V387.616H145.78V389.824H149.02V392.008H151.348V389.824H155.884V387.616H151.348V386.464H155.26V384.328H151.348V383.176H155.164V379.936H156.604V377.896H155.164V374.752H151.348V373.144H149.02V374.752H146.428V376.72H149.02V377.896ZM144.364 381.424L143.932 381.472H143.116C144.1 379.672 145.132 377.464 145.948 375.256L144.34 374.152L143.596 374.464H140.116V376.888H142.66C141.964 378.736 141.172 380.296 140.86 380.8C140.404 381.568 139.756 382.264 139.276 382.408C139.636 382.888 140.188 383.92 140.38 384.4C140.38 384.16 140.764 383.872 141.172 383.632H143.332C143.14 385.336 142.828 386.8 142.42 388.12C142.036 387.328 141.7 386.416 141.436 385.384L139.468 386.008C139.948 387.928 140.596 389.416 141.364 390.64C140.668 391.84 139.804 392.8 138.796 393.544V378.256C139.396 376.744 139.9 375.208 140.308 373.696L137.74 373C136.948 376.312 135.556 379.624 133.924 381.832C134.356 382.552 135.028 384.232 135.196 384.928C135.58 384.424 135.94 383.896 136.3 383.296V395.32H138.796V393.712C139.348 394.072 140.14 394.888 140.524 395.344C141.484 394.648 142.276 393.712 142.996 392.584C145.084 394.432 147.772 394.912 150.94 394.912H155.764C155.908 394.192 156.292 393.064 156.628 392.488C155.404 392.512 152.068 392.512 151.084 392.512C148.348 392.512 145.924 392.128 144.076 390.4C144.964 388.144 145.564 385.288 145.852 381.736L144.364 381.424Z" fill="white"/>
<path d="M108.028 390.424V385.72H111.844V390.424H108.028ZM111.844 383.248H108.028V379.36H111.844V383.248ZM119.476 376.696C119.836 375.688 120.148 374.68 120.412 373.648L117.676 373.024C116.98 375.832 115.828 378.736 114.436 380.752V376.864H110.716C111.124 375.832 111.556 374.632 111.964 373.432L108.844 373C108.748 374.128 108.46 375.664 108.148 376.864H105.436V394.696H108.028V392.944H114.436V381.736C115.084 382.168 115.9 382.72 116.284 383.08C117.028 382.048 117.772 380.728 118.396 379.288H123.532C123.268 387.76 122.956 391.36 122.26 392.128C121.948 392.44 121.684 392.536 121.204 392.536C120.58 392.536 119.164 392.536 117.628 392.392C118.132 393.184 118.516 394.384 118.564 395.176C119.98 395.224 121.42 395.248 122.332 395.128C123.292 394.96 123.964 394.696 124.636 393.808C125.62 392.536 125.884 388.72 126.196 377.992C126.22 377.656 126.22 376.696 126.22 376.696H119.476ZM122.236 387.64C121.492 386.248 119.908 383.968 118.708 382.312L116.476 383.584C117.652 385.336 119.14 387.688 119.812 389.128L122.236 387.64Z" fill="white"/>
</g>
<defs>
<filter id="filter0_i_409_18842" x="3.5" y="0" width="434" height="888" filterUnits="userSpaceOnUse" color-interpolation-filters="sRGB">
<feFlood flood-opacity="0" result="BackgroundImageFix"/>
<feBlend mode="normal" in="SourceGraphic" in2="BackgroundImageFix" result="shape"/>
<feColorMatrix in="SourceAlpha" type="matrix" values="0 0 0 0 0 0 0 0 0 0 0 0 0 0 0 0 0 0 127 0" result="hardAlpha"/>
<feOffset/>
<feGaussianBlur stdDeviation="4"/>
<feComposite in2="hardAlpha" operator="arithmetic" k2="-1" k3="1"/>
<feColorMatrix type="matrix" values="0 0 0 0 1 0 0 0 0 1 0 0 0 0 1 0 0 0 0.9 0"/>
<feBlend mode="normal" in2="shape" result="effect1_innerShadow_409_18842"/>
</filter>
<filter id="filter1_i_409_18842" x="0.5" y="144" width="4" height="30" filterUnits="userSpaceOnUse" color-interpolation-filters="sRGB">
<feFlood flood-opacity="0" result="BackgroundImageFix"/>
<feBlend mode="normal" in="SourceGraphic" in2="BackgroundImageFix" result="shape"/>
<feColorMatrix in="SourceAlpha" type="matrix" values="0 0 0 0 0 0 0 0 0 0 0 0 0 0 0 0 0 0 127 0" result="hardAlpha"/>
<feOffset dx="1"/>
<feGaussianBlur stdDeviation="1"/>
<feComposite in2="hardAlpha" operator="arithmetic" k2="-1" k3="1"/>
<feColorMatrix type="matrix" values="0 0 0 0 1 0 0 0 0 1 0 0 0 0 1 0 0 0 0.5 0"/>
<feBlend mode="normal" in2="shape" result="effect1_innerShadow_409_18842"/>
</filter>
<filter id="filter2_i_409_18842" x="0.5" y="206" width="4" height="63" filterUnits="userSpaceOnUse" color-interpolation-filters="sRGB">
<feFlood flood-opacity="0" result="BackgroundImageFix"/>
<feBlend mode="normal" in="SourceGraphic" in2="BackgroundImageFix" result="shape"/>
<feColorMatrix in="SourceAlpha" type="matrix" values="0 0 0 0 0 0 0 0 0 0 0 0 0 0 0 0 0 0 127 0" result="hardAlpha"/>
<feOffset dx="1"/>
<feGaussianBlur stdDeviation="1"/>
<feComposite in2="hardAlpha" operator="arithmetic" k2="-1" k3="1"/>
<feColorMatrix type="matrix" values="0 0 0 0 1 0 0 0 0 1 0 0 0 0 1 0 0 0 0.5 0"/>
<feBlend mode="normal" in2="shape" result="effect1_innerShadow_409_18842"/>
</filter>
<filter id="filter3_i_409_18842" x="0.5" y="286" width="4" height="63" filterUnits="userSpaceOnUse" color-interpolation-filters="sRGB">
<feFlood flood-opacity="0" result="BackgroundImageFix"/>
<feBlend mode="normal" in="SourceGraphic" in2="BackgroundImageFix" result="shape"/>
<feColorMatrix in="SourceAlpha" type="matrix" values="0 0 0 0 0 0 0 0 0 0 0 0 0 0 0 0 0 0 127 0" result="hardAlpha"/>
<feOffset dx="1"/>
<feGaussianBlur stdDeviation="1"/>
<feComposite in2="hardAlpha" operator="arithmetic" k2="-1" k3="1"/>
<feColorMatrix type="matrix" values="0 0 0 0 1 0 0 0 0 1 0 0 0 0 1 0 0 0 0.5 0"/>
<feBlend mode="normal" in2="shape" result="effect1_innerShadow_409_18842"/>
</filter>
<filter id="filter4_i_409_18842" x="436.5" y="228" width="4" height="104" filterUnits="userSpaceOnUse" color-interpolation-filters="sRGB">
<feFlood flood-opacity="0" result="BackgroundImageFix"/>
<feBlend mode="normal" in="SourceGraphic" in2="BackgroundImageFix" result="shape"/>
<feColorMatrix in="SourceAlpha" type="matrix" values="0 0 0 0 0 0 0 0 0 0 0 0 0 0 0 0 0 0 127 0" result="hardAlpha"/>
<feOffset dx="-1"/>
<feGaussianBlur stdDeviation="1"/>
<feComposite in2="hardAlpha" operator="arithmetic" k2="-1" k3="1"/>
<feColorMatrix type="matrix" values="0 0 0 0 1 0 0 0 0 1 0 0 0 0 1 0 0 0 0.5 0"/>
<feBlend mode="normal" in2="shape" result="effect1_innerShadow_409_18842"/>
</filter>
<linearGradient id="paint0_linear_409_18842" x1="220.5" y1="0" x2="220.5" y2="888" gradientUnits="userSpaceOnUse">
<stop stop-color="white" stop-opacity="0.6"/>
<stop offset="1" stop-color="white" stop-opacity="0.3"/>
</linearGradient>
<clipPath id="clip0_409_18842">
<rect x="25.5" y="22" width="390" height="844" rx="40" fill="white"/>
</clipPath>
</defs>
</svg>
