<svg width="1136" height="89" viewBox="0 0 1136 89" fill="none" xmlns="http://www.w3.org/2000/svg">
<path d="M15.392 49V28.84C15.392 25.352 17.024 23.112 20.48 23.112C21.536 23.112 22.56 23.368 23.36 23.688L22.752 25.928C22.08 25.64 21.408 25.48 20.768 25.48C19.104 25.48 18.304 26.632 18.304 28.904V49H15.392ZM13.024 33.992V31.816L15.552 31.624H22.016V33.992H13.024ZM31.4248 49.448C27.1368 49.448 23.3608 46.088 23.3608 40.36C23.3608 34.536 27.1368 31.208 31.4248 31.208C35.6808 31.208 39.4568 34.536 39.4568 40.36C39.4568 46.088 35.6808 49.448 31.4248 49.448ZM31.4248 47.016C34.4328 47.016 36.4488 44.328 36.4488 40.36C36.4488 36.328 34.4328 33.64 31.4248 33.64C28.3848 33.64 26.3688 36.328 26.3688 40.36C26.3688 44.328 28.3848 47.016 31.4248 47.016ZM43.839 49V31.624H46.207L46.495 34.152H46.591C48.223 32.52 50.015 31.208 52.415 31.208C56.063 31.208 57.727 33.576 57.727 37.992V49H54.783V38.376C54.783 35.112 53.791 33.736 51.487 33.736C49.727 33.736 48.479 34.664 46.751 36.392V49H43.839ZM68.5702 49.448C64.8582 49.448 63.6422 47.112 63.6422 43.656V33.992H61.0502V31.816L63.7702 31.624L64.0902 26.728H66.5542V31.624H71.2582V33.992H66.5542V43.72C66.5542 45.832 67.2262 47.08 69.2422 47.08C69.8502 47.08 70.6502 46.824 71.1942 46.6L71.7702 48.776C70.8102 49.128 69.6582 49.448 68.5702 49.448ZM82.317 49V28.84C82.317 25.352 83.949 23.112 87.405 23.112C88.461 23.112 89.485 23.368 90.285 23.688L89.677 25.928C89.005 25.64 88.333 25.48 87.693 25.48C86.029 25.48 85.229 26.632 85.229 28.904V49H82.317ZM79.949 33.992V31.816L82.477 31.624H88.941V33.992H79.949ZM95.2227 49.448C92.3107 49.448 90.1347 47.624 90.1347 44.488C90.1347 40.712 93.3987 38.824 100.791 37.992C100.791 35.752 100.087 33.608 97.2387 33.608C95.1907 33.608 93.3667 34.568 92.0227 35.496L90.8707 33.448C92.4707 32.424 94.9027 31.208 97.6867 31.208C101.943 31.208 103.735 34.024 103.735 38.344V49H101.335L101.079 46.952H100.951C99.3187 48.328 97.3667 49.448 95.2227 49.448ZM96.0227 47.08C97.7187 47.08 99.1267 46.28 100.791 44.776V39.944C94.9347 40.616 92.9827 42.056 92.9827 44.296C92.9827 46.28 94.3267 47.08 96.0227 47.08ZM109.014 49V31.624H111.382L111.67 34.152H111.766C113.27 32.52 115.094 31.208 117.174 31.208C119.83 31.208 121.27 32.456 121.942 34.504C123.766 32.584 125.59 31.208 127.702 31.208C131.254 31.208 132.982 33.576 132.982 37.992V49H130.07V38.376C130.07 35.112 129.046 33.736 126.806 33.736C125.462 33.736 124.086 34.632 122.454 36.392V49H119.542V38.376C119.542 35.112 118.518 33.736 116.278 33.736C114.966 33.736 113.494 34.632 111.926 36.392V49H109.014ZM138.399 49V31.624H141.311V49H138.399ZM139.871 28.04C138.719 28.04 137.919 27.304 137.919 26.088C137.919 24.968 138.719 24.232 139.871 24.232C140.991 24.232 141.823 24.968 141.823 26.088C141.823 27.304 140.991 28.04 139.871 28.04ZM150.043 49.448C147.835 49.448 146.971 48.04 146.971 45.544V23.56H149.883V45.736C149.883 46.664 150.267 47.016 150.715 47.016C150.843 47.016 150.971 47.016 151.323 46.952L151.707 49.192C151.291 49.32 150.843 49.448 150.043 49.448ZM156.081 56.52C155.281 56.52 154.609 56.392 154.065 56.168L154.641 53.832C154.961 53.96 155.473 54.088 155.953 54.088C157.905 54.088 159.153 52.488 159.889 50.344L160.273 49.032L153.297 31.624H156.305L159.857 41.288C160.401 42.824 160.977 44.584 161.553 46.184H161.713C162.193 44.584 162.705 42.856 163.153 41.288L166.289 31.624H169.137L162.577 50.472C161.361 53.896 159.569 56.52 156.081 56.52Z" fill="black"/>
<path d="M13.6 72V60.272H15.12L19.392 67.664L20.656 70.096H20.736C20.64 68.912 20.528 67.584 20.528 66.368V60.272H21.952V72H20.416L16.16 64.608L14.896 62.192H14.816C14.896 63.376 15.008 64.608 15.008 65.856V72H13.6ZM28.1705 72.224C26.0265 72.224 24.1385 70.544 24.1385 67.68C24.1385 64.768 26.0265 63.104 28.1705 63.104C30.2985 63.104 32.1865 64.768 32.1865 67.68C32.1865 70.544 30.2985 72.224 28.1705 72.224ZM28.1705 71.008C29.6745 71.008 30.6825 69.664 30.6825 67.68C30.6825 65.664 29.6745 64.32 28.1705 64.32C26.6505 64.32 25.6425 65.664 25.6425 67.68C25.6425 69.664 26.6505 71.008 28.1705 71.008ZM36.6339 72.224C34.7779 72.224 34.1699 71.056 34.1699 69.328V64.496H32.8739V63.408L34.2339 63.312L34.3939 60.864H35.6259V63.312H37.9779V64.496H35.6259V69.36C35.6259 70.416 35.9619 71.04 36.9699 71.04C37.2739 71.04 37.6739 70.912 37.9459 70.8L38.2339 71.888C37.7539 72.064 37.1779 72.224 36.6339 72.224ZM42.7999 72.224C40.6559 72.224 38.7679 70.544 38.7679 67.68C38.7679 64.768 40.6559 63.104 42.7999 63.104C44.9279 63.104 46.8159 64.768 46.8159 67.68C46.8159 70.544 44.9279 72.224 42.7999 72.224ZM42.7999 71.008C44.3039 71.008 45.3119 69.664 45.3119 67.68C45.3119 65.664 44.3039 64.32 42.7999 64.32C41.2799 64.32 40.2719 65.664 40.2719 67.68C40.2719 69.664 41.2799 71.008 42.7999 71.008ZM55.6011 72.224C53.9531 72.224 52.5291 71.552 51.5051 70.48L52.3851 69.456C53.2331 70.352 54.4171 70.912 55.6331 70.912C57.1691 70.912 58.0811 70.144 58.0811 69.008C58.0811 67.792 57.2331 67.408 56.1291 66.928L54.4491 66.192C53.3451 65.728 52.0651 64.896 52.0651 63.184C52.0651 61.376 53.6171 60.064 55.7611 60.064C57.1531 60.064 58.3851 60.656 59.2011 61.52L58.4171 62.464C57.6971 61.792 56.8331 61.36 55.7611 61.36C54.4331 61.36 53.5691 62.032 53.5691 63.072C53.5691 64.224 54.5931 64.64 55.5051 65.024L57.1691 65.744C58.5451 66.336 59.5851 67.152 59.5851 68.896C59.5851 70.752 58.0651 72.224 55.6011 72.224ZM63.5164 72.224C62.0604 72.224 60.9724 71.312 60.9724 69.744C60.9724 67.856 62.6044 66.912 66.3004 66.496C66.3004 65.376 65.9484 64.304 64.5244 64.304C63.5004 64.304 62.5884 64.784 61.9164 65.248L61.3404 64.224C62.1404 63.712 63.3564 63.104 64.7484 63.104C66.8764 63.104 67.7724 64.512 67.7724 66.672V72H66.5724L66.4444 70.976H66.3804C65.5644 71.664 64.5884 72.224 63.5164 72.224ZM63.9164 71.04C64.7644 71.04 65.4684 70.64 66.3004 69.888V67.472C63.3724 67.808 62.3964 68.528 62.3964 69.648C62.3964 70.64 63.0684 71.04 63.9164 71.04ZM70.292 72V63.312H71.476L71.62 64.576H71.668C72.484 63.76 73.38 63.104 74.58 63.104C76.404 63.104 77.236 64.288 77.236 66.496V72H75.764V66.688C75.764 65.056 75.268 64.368 74.116 64.368C73.236 64.368 72.612 64.832 71.748 65.696V72H70.292ZM82.0896 72.224C80.8576 72.224 79.6576 71.696 78.8416 71.024L79.5616 70.048C80.3136 70.656 81.0816 71.088 82.1216 71.088C83.2736 71.088 83.8496 70.48 83.8496 69.712C83.8496 68.832 82.8096 68.432 81.8496 68.08C80.6496 67.616 79.3216 67.04 79.3216 65.552C79.3216 64.176 80.4256 63.104 82.3136 63.104C83.3856 63.104 84.3456 63.536 85.0176 64.08L84.3136 65.008C83.7216 64.576 83.0976 64.24 82.3296 64.24C81.2256 64.24 80.7296 64.816 80.7296 65.488C80.7296 66.32 81.6096 66.64 82.6016 66.992C83.8656 67.472 85.2416 67.984 85.2416 69.632C85.2416 71.056 84.1376 72.224 82.0896 72.224ZM92.9601 72V61.52H89.4241V60.272H98.0001V61.52H94.4641V72H92.9601ZM103.83 72.224C100.902 72.224 98.7255 69.952 98.7255 66.144C98.7255 62.368 100.95 60.064 103.926 60.064C105.35 60.064 106.454 60.752 107.142 61.504L106.326 62.464C105.718 61.808 104.934 61.36 103.942 61.36C101.718 61.36 100.246 63.184 100.246 66.112C100.246 69.072 101.654 70.912 103.894 70.912C104.998 70.912 105.862 70.432 106.614 69.6L107.414 70.528C106.486 71.616 105.35 72.224 103.83 72.224Z" fill="#666666"/>
<path d="M196.4 45V27.408H198.632V34.776H206.84V27.408H209.048V45H206.84V36.72H198.632V45H196.4ZM218.685 45.336C215.205 45.336 212.445 42.792 212.445 38.52C212.445 34.272 215.301 31.656 218.301 31.656C221.613 31.656 223.485 34.032 223.485 37.776C223.485 38.232 223.461 38.688 223.389 39.024H214.605C214.773 41.784 216.453 43.584 218.949 43.584C220.197 43.584 221.229 43.176 222.189 42.528L222.981 43.992C221.829 44.736 220.461 45.336 218.685 45.336ZM214.581 37.44H221.565C221.565 34.824 220.389 33.408 218.325 33.408C216.501 33.408 214.869 34.872 214.581 37.44ZM229.033 45.336C226.849 45.336 225.217 43.968 225.217 41.616C225.217 38.784 227.665 37.368 233.209 36.744C233.209 35.064 232.681 33.456 230.545 33.456C229.009 33.456 227.641 34.176 226.633 34.872L225.769 33.336C226.969 32.568 228.793 31.656 230.881 31.656C234.073 31.656 235.417 33.768 235.417 37.008V45H233.617L233.425 43.464H233.329C232.105 44.496 230.641 45.336 229.033 45.336ZM229.633 43.56C230.905 43.56 231.961 42.96 233.209 41.832V38.208C228.817 38.712 227.353 39.792 227.353 41.472C227.353 42.96 228.361 43.56 229.633 43.56ZM243.732 45.336C240.468 45.336 238.356 42.864 238.356 38.52C238.356 34.272 241.044 31.656 244.02 31.656C245.532 31.656 246.54 32.208 247.668 33.168L247.572 30.912V25.92H249.756V45H247.956L247.764 43.464H247.716C246.684 44.496 245.316 45.336 243.732 45.336ZM244.212 43.488C245.436 43.488 246.492 42.888 247.572 41.712V34.872C246.468 33.864 245.46 33.48 244.38 33.48C242.292 33.48 240.636 35.52 240.636 38.496C240.636 41.616 241.932 43.488 244.212 43.488ZM253.959 45V31.968H256.143V45H253.959ZM255.063 29.28C254.199 29.28 253.599 28.728 253.599 27.816C253.599 26.976 254.199 26.424 255.063 26.424C255.903 26.424 256.527 26.976 256.527 27.816C256.527 28.728 255.903 29.28 255.063 29.28ZM260.328 45V31.968H262.104L262.32 33.864H262.392C263.616 32.64 264.96 31.656 266.76 31.656C269.496 31.656 270.744 33.432 270.744 36.744V45H268.536V37.032C268.536 34.584 267.792 33.552 266.064 33.552C264.744 33.552 263.808 34.248 262.512 35.544V45H260.328ZM279.129 51C275.937 51 273.729 49.752 273.729 47.52C273.729 46.416 274.449 45.336 275.649 44.568V44.472C274.977 44.04 274.473 43.344 274.473 42.312C274.473 41.232 275.241 40.392 275.937 39.912V39.816C275.073 39.12 274.209 37.872 274.209 36.312C274.209 33.432 276.465 31.656 279.105 31.656C279.849 31.656 280.497 31.8 280.953 31.968H285.489V33.672H282.825C283.449 34.272 283.881 35.232 283.881 36.36C283.881 39.144 281.769 40.872 279.105 40.872C278.481 40.872 277.761 40.728 277.161 40.44C276.705 40.824 276.321 41.28 276.321 41.976C276.321 42.816 276.873 43.416 278.625 43.416H281.169C284.193 43.416 285.705 44.352 285.705 46.512C285.705 48.936 283.137 51 279.129 51ZM279.105 39.408C280.617 39.408 281.889 38.184 281.889 36.312C281.889 34.392 280.641 33.24 279.105 33.24C277.569 33.24 276.321 34.368 276.321 36.312C276.321 38.184 277.593 39.408 279.105 39.408ZM279.417 49.512C281.937 49.512 283.569 48.192 283.569 46.848C283.569 45.624 282.633 45.216 280.929 45.216H278.673C278.169 45.216 277.569 45.168 276.969 45C276.033 45.672 275.649 46.464 275.649 47.208C275.649 48.624 277.065 49.512 279.417 49.512ZM293.075 45V43.176H296.987V30.576H293.843V29.16C295.427 28.872 296.555 28.464 297.491 27.912H299.171V43.176H302.723V45H293.075Z" fill="black"/>
<path d="M195.288 68V60.398H196.324L196.45 61.784H196.492C197.01 60.818 197.794 60.216 198.648 60.216C198.984 60.216 199.208 60.258 199.46 60.37L199.222 61.49C198.956 61.406 198.788 61.364 198.48 61.364C197.85 61.364 197.066 61.826 196.562 63.128V68H195.288ZM203.35 68.196C201.32 68.196 199.71 66.712 199.71 64.22C199.71 61.742 201.376 60.216 203.126 60.216C205.058 60.216 206.15 61.602 206.15 63.786C206.15 64.052 206.136 64.318 206.094 64.514H200.97C201.068 66.124 202.048 67.174 203.504 67.174C204.232 67.174 204.834 66.936 205.394 66.558L205.856 67.412C205.184 67.846 204.386 68.196 203.35 68.196ZM200.956 63.59H205.03C205.03 62.064 204.344 61.238 203.14 61.238C202.076 61.238 201.124 62.092 200.956 63.59ZM210.167 71.5C208.305 71.5 207.017 70.772 207.017 69.47C207.017 68.826 207.437 68.196 208.137 67.748V67.692C207.745 67.44 207.451 67.034 207.451 66.432C207.451 65.802 207.899 65.312 208.305 65.032V64.976C207.801 64.57 207.297 63.842 207.297 62.932C207.297 61.252 208.613 60.216 210.153 60.216C210.587 60.216 210.965 60.3 211.231 60.398H213.877V61.392H212.323C212.687 61.742 212.939 62.302 212.939 62.96C212.939 64.584 211.707 65.592 210.153 65.592C209.789 65.592 209.369 65.508 209.019 65.34C208.753 65.564 208.529 65.83 208.529 66.236C208.529 66.726 208.851 67.076 209.873 67.076H211.357C213.121 67.076 214.003 67.622 214.003 68.882C214.003 70.296 212.505 71.5 210.167 71.5ZM210.153 64.738C211.035 64.738 211.777 64.024 211.777 62.932C211.777 61.812 211.049 61.14 210.153 61.14C209.257 61.14 208.529 61.798 208.529 62.932C208.529 64.024 209.271 64.738 210.153 64.738ZM210.335 70.632C211.805 70.632 212.757 69.862 212.757 69.078C212.757 68.364 212.211 68.126 211.217 68.126H209.901C209.607 68.126 209.257 68.098 208.907 68C208.361 68.392 208.137 68.854 208.137 69.288C208.137 70.114 208.963 70.632 210.335 70.632ZM217.479 68.196C215.883 68.196 215.155 67.16 215.155 65.214V60.398H216.429V65.06C216.429 66.474 216.863 67.076 217.871 67.076C218.641 67.076 219.201 66.698 219.915 65.802V60.398H221.189V68H220.139L220.027 66.81H219.999C219.285 67.636 218.529 68.196 217.479 68.196ZM224.875 68.196C223.909 68.196 223.531 67.58 223.531 66.488V56.87H224.805V66.572C224.805 66.978 224.973 67.132 225.169 67.132C225.225 67.132 225.281 67.132 225.435 67.104L225.603 68.084C225.421 68.14 225.225 68.196 224.875 68.196ZM229.02 68.196C227.746 68.196 226.794 67.398 226.794 66.026C226.794 64.374 228.222 63.548 231.456 63.184C231.456 62.204 231.148 61.266 229.902 61.266C229.006 61.266 228.208 61.686 227.62 62.092L227.116 61.196C227.816 60.748 228.88 60.216 230.098 60.216C231.96 60.216 232.744 61.448 232.744 63.338V68H231.694L231.582 67.104H231.526C230.812 67.706 229.958 68.196 229.02 68.196ZM229.37 67.16C230.112 67.16 230.728 66.81 231.456 66.152V64.038C228.894 64.332 228.04 64.962 228.04 65.942C228.04 66.81 228.628 67.16 229.37 67.16ZM234.918 68V60.398H235.954L236.08 61.784H236.122C236.64 60.818 237.424 60.216 238.278 60.216C238.614 60.216 238.838 60.258 239.09 60.37L238.852 61.49C238.586 61.406 238.418 61.364 238.11 61.364C237.48 61.364 236.696 61.826 236.192 63.128V68H234.918ZM242.325 68V67.258C245.335 64.262 247.015 62.456 247.015 60.818C247.015 59.684 246.413 58.872 245.139 58.872C244.299 58.872 243.571 59.404 242.997 60.076L242.255 59.348C243.095 58.438 243.991 57.85 245.293 57.85C247.127 57.85 248.275 58.998 248.275 60.776C248.275 62.652 246.553 64.514 244.187 67.006C244.719 66.95 245.349 66.908 245.867 66.908H248.765V68H242.325ZM253.981 68V61.308C253.981 60.79 254.023 59.922 254.065 59.404H253.995C253.743 59.866 253.463 60.314 253.183 60.804L250.845 64.234H256.557V65.242H249.501V64.402L253.771 58.032H255.185V68H253.981ZM258.048 71.206V60.398H259.084L259.21 61.28H259.252C259.938 60.706 260.778 60.216 261.66 60.216C263.634 60.216 264.684 61.742 264.684 64.094C264.684 66.684 263.13 68.196 261.38 68.196C260.694 68.196 259.98 67.874 259.294 67.314L259.322 68.644V71.206H258.048ZM261.184 67.118C262.43 67.118 263.368 65.984 263.368 64.108C263.368 62.414 262.794 61.28 261.352 61.28C260.708 61.28 260.064 61.644 259.322 62.33V66.334C260.008 66.908 260.68 67.118 261.184 67.118ZM265.111 68L267.603 64.038L265.307 60.398H266.679L267.701 62.064C267.939 62.498 268.191 62.918 268.457 63.352H268.513C268.737 62.918 268.961 62.498 269.199 62.064L270.123 60.398H271.453L269.157 64.164L271.649 68H270.263L269.143 66.222C268.877 65.774 268.597 65.298 268.317 64.864H268.247C267.981 65.298 267.729 65.76 267.477 66.222L266.455 68H265.111ZM278.647 68V66.936H280.929V59.586H279.095V58.76C280.019 58.592 280.677 58.354 281.223 58.032H282.203V66.936H284.275V68H278.647ZM286.873 68.196C286.369 68.196 285.963 67.79 285.963 67.216C285.963 66.628 286.369 66.236 286.873 66.236C287.391 66.236 287.811 66.628 287.811 67.216C287.811 67.79 287.391 68.196 286.873 68.196ZM292.252 68.196C290.656 68.196 289.676 67.524 288.976 66.824L289.62 65.984C290.194 66.586 290.95 67.132 292.126 67.132C293.344 67.132 294.31 66.25 294.31 64.85C294.31 63.478 293.47 62.652 292.196 62.652C291.51 62.652 291.076 62.876 290.488 63.268L289.802 62.834L290.124 58.032H295.122V59.124H291.244L290.978 62.092C291.44 61.84 291.902 61.686 292.518 61.686C294.226 61.686 295.612 62.652 295.612 64.808C295.612 66.978 293.974 68.196 292.252 68.196ZM297.411 68V60.398H298.447L298.573 61.784H298.615C299.133 60.818 299.917 60.216 300.771 60.216C301.107 60.216 301.331 60.258 301.583 60.37L301.345 61.49C301.079 61.406 300.911 61.364 300.603 61.364C299.973 61.364 299.189 61.826 298.685 63.128V68H297.411ZM305.473 68.196C303.443 68.196 301.833 66.712 301.833 64.22C301.833 61.742 303.499 60.216 305.249 60.216C307.181 60.216 308.273 61.602 308.273 63.786C308.273 64.052 308.259 64.318 308.217 64.514H303.093C303.191 66.124 304.171 67.174 305.627 67.174C306.355 67.174 306.957 66.936 307.517 66.558L307.979 67.412C307.307 67.846 306.509 68.196 305.473 68.196ZM303.079 63.59H307.153C307.153 62.064 306.467 61.238 305.263 61.238C304.199 61.238 303.247 62.092 303.079 63.59ZM309.919 68V60.398H310.955L311.081 61.504H311.123C311.781 60.79 312.579 60.216 313.489 60.216C314.651 60.216 315.281 60.762 315.575 61.658C316.373 60.818 317.171 60.216 318.095 60.216C319.649 60.216 320.405 61.252 320.405 63.184V68H319.131V63.352C319.131 61.924 318.683 61.322 317.703 61.322C317.115 61.322 316.513 61.714 315.799 62.484V68H314.525V63.352C314.525 61.924 314.077 61.322 313.097 61.322C312.523 61.322 311.879 61.714 311.193 62.484V68H309.919Z" fill="#666666"/>
<path d="M347.8 42.5V29.306H349.474V34.832H355.63V29.306H357.286V42.5H355.63V36.29H349.474V42.5H347.8ZM364.454 42.752C361.844 42.752 359.774 40.844 359.774 37.64C359.774 34.454 361.916 32.492 364.166 32.492C366.65 32.492 368.054 34.274 368.054 37.082C368.054 37.424 368.036 37.766 367.982 38.018H361.394C361.52 40.088 362.78 41.438 364.652 41.438C365.588 41.438 366.362 41.132 367.082 40.646L367.676 41.744C366.812 42.302 365.786 42.752 364.454 42.752ZM361.376 36.83H366.614C366.614 34.868 365.732 33.806 364.184 33.806C362.816 33.806 361.592 34.904 361.376 36.83ZM372.155 42.752C370.517 42.752 369.293 41.726 369.293 39.962C369.293 37.838 371.129 36.776 375.287 36.308C375.287 35.048 374.891 33.842 373.289 33.842C372.137 33.842 371.111 34.382 370.355 34.904L369.707 33.752C370.607 33.176 371.975 32.492 373.541 32.492C375.935 32.492 376.943 34.076 376.943 36.506V42.5H375.593L375.449 41.348H375.377C374.459 42.122 373.361 42.752 372.155 42.752ZM372.605 41.42C373.559 41.42 374.351 40.97 375.287 40.124V37.406C371.993 37.784 370.895 38.594 370.895 39.854C370.895 40.97 371.651 41.42 372.605 41.42ZM383.119 42.752C380.671 42.752 379.087 40.898 379.087 37.64C379.087 34.454 381.103 32.492 383.335 32.492C384.469 32.492 385.225 32.906 386.071 33.626L385.999 31.934V28.19H387.637V42.5H386.287L386.143 41.348H386.107C385.333 42.122 384.307 42.752 383.119 42.752ZM383.479 41.366C384.397 41.366 385.189 40.916 385.999 40.034V34.904C385.171 34.148 384.415 33.86 383.605 33.86C382.039 33.86 380.797 35.39 380.797 37.622C380.797 39.962 381.769 41.366 383.479 41.366ZM390.729 42.5V32.726H392.367V42.5H390.729ZM391.557 30.71C390.909 30.71 390.459 30.296 390.459 29.612C390.459 28.982 390.909 28.568 391.557 28.568C392.187 28.568 392.655 28.982 392.655 29.612C392.655 30.296 392.187 30.71 391.557 30.71ZM395.446 42.5V32.726H396.778L396.94 34.148H396.994C397.912 33.23 398.92 32.492 400.27 32.492C402.322 32.492 403.258 33.824 403.258 36.308V42.5H401.602V36.524C401.602 34.688 401.044 33.914 399.748 33.914C398.758 33.914 398.056 34.436 397.084 35.408V42.5H395.446ZM409.487 47C407.093 47 405.437 46.064 405.437 44.39C405.437 43.562 405.977 42.752 406.877 42.176V42.104C406.373 41.78 405.995 41.258 405.995 40.484C405.995 39.674 406.571 39.044 407.093 38.684V38.612C406.445 38.09 405.797 37.154 405.797 35.984C405.797 33.824 407.489 32.492 409.469 32.492C410.027 32.492 410.513 32.6 410.855 32.726H414.257V34.004H412.259C412.727 34.454 413.051 35.174 413.051 36.02C413.051 38.108 411.467 39.404 409.469 39.404C409.001 39.404 408.461 39.296 408.011 39.08C407.669 39.368 407.381 39.71 407.381 40.232C407.381 40.862 407.795 41.312 409.109 41.312H411.017C413.285 41.312 414.419 42.014 414.419 43.634C414.419 45.452 412.493 47 409.487 47ZM409.469 38.306C410.603 38.306 411.557 37.388 411.557 35.984C411.557 34.544 410.621 33.68 409.469 33.68C408.317 33.68 407.381 34.526 407.381 35.984C407.381 37.388 408.335 38.306 409.469 38.306ZM409.703 45.884C411.593 45.884 412.817 44.894 412.817 43.886C412.817 42.968 412.115 42.662 410.837 42.662H409.145C408.767 42.662 408.317 42.626 407.867 42.5C407.165 43.004 406.877 43.598 406.877 44.156C406.877 45.218 407.939 45.884 409.703 45.884ZM419.034 42.5V41.546C422.904 37.694 425.064 35.372 425.064 33.266C425.064 31.808 424.29 30.764 422.652 30.764C421.572 30.764 420.636 31.448 419.898 32.312L418.944 31.376C420.024 30.206 421.176 29.45 422.85 29.45C425.208 29.45 426.684 30.926 426.684 33.212C426.684 35.624 424.47 38.018 421.428 41.222C422.112 41.15 422.922 41.096 423.588 41.096H427.314V42.5H419.034Z" fill="black"/>
<path d="M347.288 63.5V55.898H348.324L348.45 57.284H348.492C349.01 56.318 349.794 55.716 350.648 55.716C350.984 55.716 351.208 55.758 351.46 55.87L351.222 56.99C350.956 56.906 350.788 56.864 350.48 56.864C349.85 56.864 349.066 57.326 348.562 58.628V63.5H347.288ZM355.35 63.696C353.32 63.696 351.71 62.212 351.71 59.72C351.71 57.242 353.376 55.716 355.126 55.716C357.058 55.716 358.15 57.102 358.15 59.286C358.15 59.552 358.136 59.818 358.094 60.014H352.97C353.068 61.624 354.048 62.674 355.504 62.674C356.232 62.674 356.834 62.436 357.394 62.058L357.856 62.912C357.184 63.346 356.386 63.696 355.35 63.696ZM352.956 59.09H357.03C357.03 57.564 356.344 56.738 355.14 56.738C354.076 56.738 353.124 57.592 352.956 59.09ZM362.167 67C360.305 67 359.017 66.272 359.017 64.97C359.017 64.326 359.437 63.696 360.137 63.248V63.192C359.745 62.94 359.451 62.534 359.451 61.932C359.451 61.302 359.899 60.812 360.305 60.532V60.476C359.801 60.07 359.297 59.342 359.297 58.432C359.297 56.752 360.613 55.716 362.153 55.716C362.587 55.716 362.965 55.8 363.231 55.898H365.877V56.892H364.323C364.687 57.242 364.939 57.802 364.939 58.46C364.939 60.084 363.707 61.092 362.153 61.092C361.789 61.092 361.369 61.008 361.019 60.84C360.753 61.064 360.529 61.33 360.529 61.736C360.529 62.226 360.851 62.576 361.873 62.576H363.357C365.121 62.576 366.003 63.122 366.003 64.382C366.003 65.796 364.505 67 362.167 67ZM362.153 60.238C363.035 60.238 363.777 59.524 363.777 58.432C363.777 57.312 363.049 56.64 362.153 56.64C361.257 56.64 360.529 57.298 360.529 58.432C360.529 59.524 361.271 60.238 362.153 60.238ZM362.335 66.132C363.805 66.132 364.757 65.362 364.757 64.578C364.757 63.864 364.211 63.626 363.217 63.626H361.901C361.607 63.626 361.257 63.598 360.907 63.5C360.361 63.892 360.137 64.354 360.137 64.788C360.137 65.614 360.963 66.132 362.335 66.132ZM369.479 63.696C367.883 63.696 367.155 62.66 367.155 60.714V55.898H368.429V60.56C368.429 61.974 368.863 62.576 369.871 62.576C370.641 62.576 371.201 62.198 371.915 61.302V55.898H373.189V63.5H372.139L372.027 62.31H371.999C371.285 63.136 370.529 63.696 369.479 63.696ZM376.875 63.696C375.909 63.696 375.531 63.08 375.531 61.988V52.37H376.805V62.072C376.805 62.478 376.973 62.632 377.169 62.632C377.225 62.632 377.281 62.632 377.435 62.604L377.603 63.584C377.421 63.64 377.225 63.696 376.875 63.696ZM381.02 63.696C379.746 63.696 378.794 62.898 378.794 61.526C378.794 59.874 380.222 59.048 383.456 58.684C383.456 57.704 383.148 56.766 381.902 56.766C381.006 56.766 380.208 57.186 379.62 57.592L379.116 56.696C379.816 56.248 380.88 55.716 382.098 55.716C383.96 55.716 384.744 56.948 384.744 58.838V63.5H383.694L383.582 62.604H383.526C382.812 63.206 381.958 63.696 381.02 63.696ZM381.37 62.66C382.112 62.66 382.728 62.31 383.456 61.652V59.538C380.894 59.832 380.04 60.462 380.04 61.442C380.04 62.31 380.628 62.66 381.37 62.66ZM386.918 63.5V55.898H387.954L388.08 57.284H388.122C388.64 56.318 389.424 55.716 390.278 55.716C390.614 55.716 390.838 55.758 391.09 55.87L390.852 56.99C390.586 56.906 390.418 56.864 390.11 56.864C389.48 56.864 388.696 57.326 388.192 58.628V63.5H386.918ZM394.941 63.5V62.436H397.223V55.086H395.389V54.26C396.313 54.092 396.971 53.854 397.517 53.532H398.497V62.436H400.569V63.5H394.941ZM405.141 63.696C403.251 63.696 401.865 62.548 401.865 60.966C401.865 59.65 402.817 58.754 403.755 58.264V58.208C403.013 57.69 402.355 56.948 402.355 55.898C402.355 54.358 403.573 53.35 405.183 53.35C406.933 53.35 407.997 54.442 407.997 55.996C407.997 57.046 407.227 57.928 406.625 58.39V58.46C407.507 58.992 408.361 59.692 408.361 61.036C408.361 62.534 407.059 63.696 405.141 63.696ZM405.841 58.068C406.527 57.452 406.905 56.794 406.905 56.052C406.905 55.072 406.261 54.288 405.155 54.288C404.217 54.288 403.531 54.932 403.531 55.898C403.531 57.088 404.637 57.592 405.841 58.068ZM405.169 62.73C406.345 62.73 407.129 62.016 407.129 60.994C407.129 59.692 405.869 59.244 404.427 58.656C403.601 59.188 403.013 59.916 403.013 60.84C403.013 61.932 403.937 62.73 405.169 62.73ZM410.048 66.706V55.898H411.084L411.21 56.78H411.252C411.938 56.206 412.778 55.716 413.66 55.716C415.634 55.716 416.684 57.242 416.684 59.594C416.684 62.184 415.13 63.696 413.38 63.696C412.694 63.696 411.98 63.374 411.294 62.814L411.322 64.144V66.706H410.048ZM413.184 62.618C414.43 62.618 415.368 61.484 415.368 59.608C415.368 57.914 414.794 56.78 413.352 56.78C412.708 56.78 412.064 57.144 411.322 57.83V61.834C412.008 62.408 412.68 62.618 413.184 62.618ZM417.111 63.5L419.603 59.538L417.307 55.898H418.679L419.701 57.564C419.939 57.998 420.191 58.418 420.457 58.852H420.513C420.737 58.418 420.961 57.998 421.199 57.564L422.123 55.898H423.453L421.157 59.664L423.649 63.5H422.263L421.143 61.722C420.877 61.274 420.597 60.798 420.317 60.364H420.247C419.981 60.798 419.729 61.26 419.477 61.722L418.455 63.5H417.111ZM430.647 63.5V62.436H432.929V55.086H431.095V54.26C432.019 54.092 432.677 53.854 433.223 53.532H434.203V62.436H436.275V63.5H430.647ZM438.873 63.696C438.369 63.696 437.963 63.29 437.963 62.716C437.963 62.128 438.369 61.736 438.873 61.736C439.391 61.736 439.811 62.128 439.811 62.716C439.811 63.29 439.391 63.696 438.873 63.696ZM441.83 63.5V62.436H444.112V55.086H442.278V54.26C443.202 54.092 443.86 53.854 444.406 53.532H445.386V62.436H447.458V63.5H441.83ZM448.739 63.5V62.758C451.749 59.762 453.429 57.956 453.429 56.318C453.429 55.184 452.827 54.372 451.553 54.372C450.713 54.372 449.985 54.904 449.411 55.576L448.669 54.848C449.509 53.938 450.405 53.35 451.707 53.35C453.541 53.35 454.689 54.498 454.689 56.276C454.689 58.152 452.967 60.014 450.601 62.506C451.133 62.45 451.763 62.408 452.281 62.408H455.179V63.5H448.739ZM459.303 63.696C457.707 63.696 456.727 63.024 456.027 62.324L456.671 61.484C457.245 62.086 458.001 62.632 459.177 62.632C460.395 62.632 461.361 61.75 461.361 60.35C461.361 58.978 460.521 58.152 459.247 58.152C458.561 58.152 458.127 58.376 457.539 58.768L456.853 58.334L457.175 53.532H462.173V54.624H458.295L458.029 57.592C458.491 57.34 458.953 57.186 459.569 57.186C461.277 57.186 462.663 58.152 462.663 60.308C462.663 62.478 461.025 63.696 459.303 63.696ZM464.462 63.5V55.898H465.498L465.624 57.284H465.666C466.184 56.318 466.968 55.716 467.822 55.716C468.158 55.716 468.382 55.758 468.634 55.87L468.396 56.99C468.13 56.906 467.962 56.864 467.654 56.864C467.024 56.864 466.24 57.326 465.736 58.628V63.5H464.462ZM472.525 63.696C470.495 63.696 468.885 62.212 468.885 59.72C468.885 57.242 470.551 55.716 472.301 55.716C474.233 55.716 475.325 57.102 475.325 59.286C475.325 59.552 475.311 59.818 475.269 60.014H470.145C470.243 61.624 471.223 62.674 472.679 62.674C473.407 62.674 474.009 62.436 474.569 62.058L475.031 62.912C474.359 63.346 473.561 63.696 472.525 63.696ZM470.131 59.09H474.205C474.205 57.564 473.519 56.738 472.315 56.738C471.251 56.738 470.299 57.592 470.131 59.09ZM476.971 63.5V55.898H478.007L478.133 57.004H478.175C478.833 56.29 479.631 55.716 480.541 55.716C481.703 55.716 482.333 56.262 482.627 57.158C483.425 56.318 484.223 55.716 485.147 55.716C486.701 55.716 487.457 56.752 487.457 58.684V63.5H486.183V58.852C486.183 57.424 485.735 56.822 484.755 56.822C484.167 56.822 483.565 57.214 482.851 57.984V63.5H481.577V58.852C481.577 57.424 481.129 56.822 480.149 56.822C479.575 56.822 478.931 57.214 478.245 57.984V63.5H476.971Z" fill="#666666"/>
<path d="M514.7 42V29.539H516.281V34.758H522.095V29.539H523.659V42H522.095V36.135H516.281V42H514.7ZM530.415 42.238C527.95 42.238 525.995 40.436 525.995 37.41C525.995 34.401 528.018 32.548 530.143 32.548C532.489 32.548 533.815 34.231 533.815 36.883C533.815 37.206 533.798 37.529 533.747 37.767H527.525C527.644 39.722 528.834 40.997 530.602 40.997C531.486 40.997 532.217 40.708 532.897 40.249L533.458 41.286C532.642 41.813 531.673 42.238 530.415 42.238ZM527.508 36.645H532.455C532.455 34.792 531.622 33.789 530.16 33.789C528.868 33.789 527.712 34.826 527.508 36.645ZM537.675 42.238C536.128 42.238 534.972 41.269 534.972 39.603C534.972 37.597 536.706 36.594 540.633 36.152C540.633 34.962 540.259 33.823 538.746 33.823C537.658 33.823 536.689 34.333 535.975 34.826L535.363 33.738C536.213 33.194 537.505 32.548 538.984 32.548C541.245 32.548 542.197 34.044 542.197 36.339V42H540.922L540.786 40.912H540.718C539.851 41.643 538.814 42.238 537.675 42.238ZM538.1 40.98C539.001 40.98 539.749 40.555 540.633 39.756V37.189C537.522 37.546 536.485 38.311 536.485 39.501C536.485 40.555 537.199 40.98 538.1 40.98ZM548.017 42.238C545.705 42.238 544.209 40.487 544.209 37.41C544.209 34.401 546.113 32.548 548.221 32.548C549.292 32.548 550.006 32.939 550.805 33.619L550.737 32.021V28.485H552.284V42H551.009L550.873 40.912H550.839C550.108 41.643 549.139 42.238 548.017 42.238ZM548.357 40.929C549.224 40.929 549.972 40.504 550.737 39.671V34.826C549.955 34.112 549.241 33.84 548.476 33.84C546.997 33.84 545.824 35.285 545.824 37.393C545.824 39.603 546.742 40.929 548.357 40.929ZM555.191 42V32.769H556.738V42H555.191ZM555.973 30.865C555.361 30.865 554.936 30.474 554.936 29.828C554.936 29.233 555.361 28.842 555.973 28.842C556.568 28.842 557.01 29.233 557.01 29.828C557.01 30.474 556.568 30.865 555.973 30.865ZM559.633 42V32.769H560.891L561.044 34.112H561.095C561.962 33.245 562.914 32.548 564.189 32.548C566.127 32.548 567.011 33.806 567.011 36.152V42H565.447V36.356C565.447 34.622 564.92 33.891 563.696 33.891C562.761 33.891 562.098 34.384 561.18 35.302V42H559.633ZM572.88 46.25C570.619 46.25 569.055 45.366 569.055 43.785C569.055 43.003 569.565 42.238 570.415 41.694V41.626C569.939 41.32 569.582 40.827 569.582 40.096C569.582 39.331 570.126 38.736 570.619 38.396V38.328C570.007 37.835 569.395 36.951 569.395 35.846C569.395 33.806 570.993 32.548 572.863 32.548C573.39 32.548 573.849 32.65 574.172 32.769H577.385V33.976H575.498C575.94 34.401 576.246 35.081 576.246 35.88C576.246 37.852 574.75 39.076 572.863 39.076C572.421 39.076 571.911 38.974 571.486 38.77C571.163 39.042 570.891 39.365 570.891 39.858C570.891 40.453 571.282 40.878 572.523 40.878H574.325C576.467 40.878 577.538 41.541 577.538 43.071C577.538 44.788 575.719 46.25 572.88 46.25ZM572.863 38.039C573.934 38.039 574.835 37.172 574.835 35.846C574.835 34.486 573.951 33.67 572.863 33.67C571.775 33.67 570.891 34.469 570.891 35.846C570.891 37.172 571.792 38.039 572.863 38.039ZM573.084 45.196C574.869 45.196 576.025 44.261 576.025 43.309C576.025 42.442 575.362 42.153 574.155 42.153H572.557C572.2 42.153 571.775 42.119 571.35 42C570.687 42.476 570.415 43.037 570.415 43.564C570.415 44.567 571.418 45.196 573.084 45.196ZM585.593 42.238C583.638 42.238 582.431 41.422 581.615 40.521L582.397 39.501C583.128 40.266 584.063 40.946 585.491 40.946C586.97 40.946 588.024 40.079 588.024 38.719C588.024 37.274 587.021 36.305 584.148 36.305V35.115C586.715 35.115 587.582 34.112 587.582 32.837C587.582 31.664 586.783 30.916 585.491 30.916C584.488 30.916 583.604 31.443 582.907 32.157L582.074 31.171C583.009 30.304 584.114 29.675 585.542 29.675C587.633 29.675 589.163 30.78 589.163 32.735C589.163 34.197 588.279 35.132 586.953 35.625V35.693C588.415 36.033 589.605 37.121 589.605 38.77C589.605 40.929 587.82 42.238 585.593 42.238Z" fill="black"/>
<path d="M514.288 63V55.398H515.324L515.45 56.784H515.492C516.01 55.818 516.794 55.216 517.648 55.216C517.984 55.216 518.208 55.258 518.46 55.37L518.222 56.49C517.956 56.406 517.788 56.364 517.48 56.364C516.85 56.364 516.066 56.826 515.562 58.128V63H514.288ZM522.35 63.196C520.32 63.196 518.71 61.712 518.71 59.22C518.71 56.742 520.376 55.216 522.126 55.216C524.058 55.216 525.15 56.602 525.15 58.786C525.15 59.052 525.136 59.318 525.094 59.514H519.97C520.068 61.124 521.048 62.174 522.504 62.174C523.232 62.174 523.834 61.936 524.394 61.558L524.856 62.412C524.184 62.846 523.386 63.196 522.35 63.196ZM519.956 58.59H524.03C524.03 57.064 523.344 56.238 522.14 56.238C521.076 56.238 520.124 57.092 519.956 58.59ZM529.167 66.5C527.305 66.5 526.017 65.772 526.017 64.47C526.017 63.826 526.437 63.196 527.137 62.748V62.692C526.745 62.44 526.451 62.034 526.451 61.432C526.451 60.802 526.899 60.312 527.305 60.032V59.976C526.801 59.57 526.297 58.842 526.297 57.932C526.297 56.252 527.613 55.216 529.153 55.216C529.587 55.216 529.965 55.3 530.231 55.398H532.877V56.392H531.323C531.687 56.742 531.939 57.302 531.939 57.96C531.939 59.584 530.707 60.592 529.153 60.592C528.789 60.592 528.369 60.508 528.019 60.34C527.753 60.564 527.529 60.83 527.529 61.236C527.529 61.726 527.851 62.076 528.873 62.076H530.357C532.121 62.076 533.003 62.622 533.003 63.882C533.003 65.296 531.505 66.5 529.167 66.5ZM529.153 59.738C530.035 59.738 530.777 59.024 530.777 57.932C530.777 56.812 530.049 56.14 529.153 56.14C528.257 56.14 527.529 56.798 527.529 57.932C527.529 59.024 528.271 59.738 529.153 59.738ZM529.335 65.632C530.805 65.632 531.757 64.862 531.757 64.078C531.757 63.364 531.211 63.126 530.217 63.126H528.901C528.607 63.126 528.257 63.098 527.907 63C527.361 63.392 527.137 63.854 527.137 64.288C527.137 65.114 527.963 65.632 529.335 65.632ZM536.479 63.196C534.883 63.196 534.155 62.16 534.155 60.214V55.398H535.429V60.06C535.429 61.474 535.863 62.076 536.871 62.076C537.641 62.076 538.201 61.698 538.915 60.802V55.398H540.189V63H539.139L539.027 61.81H538.999C538.285 62.636 537.529 63.196 536.479 63.196ZM543.875 63.196C542.909 63.196 542.531 62.58 542.531 61.488V51.87H543.805V61.572C543.805 61.978 543.973 62.132 544.169 62.132C544.225 62.132 544.281 62.132 544.435 62.104L544.603 63.084C544.421 63.14 544.225 63.196 543.875 63.196ZM548.02 63.196C546.746 63.196 545.794 62.398 545.794 61.026C545.794 59.374 547.222 58.548 550.456 58.184C550.456 57.204 550.148 56.266 548.902 56.266C548.006 56.266 547.208 56.686 546.62 57.092L546.116 56.196C546.816 55.748 547.88 55.216 549.098 55.216C550.96 55.216 551.744 56.448 551.744 58.338V63H550.694L550.582 62.104H550.526C549.812 62.706 548.958 63.196 548.02 63.196ZM548.37 62.16C549.112 62.16 549.728 61.81 550.456 61.152V59.038C547.894 59.332 547.04 59.962 547.04 60.942C547.04 61.81 547.628 62.16 548.37 62.16ZM553.918 63V55.398H554.954L555.08 56.784H555.122C555.64 55.818 556.424 55.216 557.278 55.216C557.614 55.216 557.838 55.258 558.09 55.37L557.852 56.49C557.586 56.406 557.418 56.364 557.11 56.364C556.48 56.364 555.696 56.826 555.192 58.128V63H553.918ZM561.941 63V61.936H564.223V54.586H562.389V53.76C563.313 53.592 563.971 53.354 564.517 53.032H565.497V61.936H567.569V63H561.941ZM570.993 63C571.175 59.248 571.931 56.854 573.891 54.124H568.921V53.032H575.333V53.816C572.981 56.826 572.491 59.108 572.323 63H570.993ZM577.048 66.206V55.398H578.084L578.21 56.28H578.252C578.938 55.706 579.778 55.216 580.66 55.216C582.634 55.216 583.684 56.742 583.684 59.094C583.684 61.684 582.13 63.196 580.38 63.196C579.694 63.196 578.98 62.874 578.294 62.314L578.322 63.644V66.206H577.048ZM580.184 62.118C581.43 62.118 582.368 60.984 582.368 59.108C582.368 57.414 581.794 56.28 580.352 56.28C579.708 56.28 579.064 56.644 578.322 57.33V61.334C579.008 61.908 579.68 62.118 580.184 62.118ZM584.111 63L586.603 59.038L584.307 55.398H585.679L586.701 57.064C586.939 57.498 587.191 57.918 587.457 58.352H587.513C587.737 57.918 587.961 57.498 588.199 57.064L589.123 55.398H590.453L588.157 59.164L590.649 63H589.263L588.143 61.222C587.877 60.774 587.597 60.298 587.317 59.864H587.247C586.981 60.298 586.729 60.76 586.477 61.222L585.455 63H584.111ZM597.647 63V61.936H599.929V54.586H598.095V53.76C599.019 53.592 599.677 53.354 600.223 53.032H601.203V61.936H603.275V63H597.647ZM605.873 63.196C605.369 63.196 604.963 62.79 604.963 62.216C604.963 61.628 605.369 61.236 605.873 61.236C606.391 61.236 606.811 61.628 606.811 62.216C606.811 62.79 606.391 63.196 605.873 63.196ZM611.49 63.196C609.488 63.196 608.284 61.334 608.284 57.988C608.284 54.642 609.488 52.85 611.49 52.85C613.464 52.85 614.668 54.642 614.668 57.988C614.668 61.334 613.464 63.196 611.49 63.196ZM611.49 62.16C612.652 62.16 613.436 60.914 613.436 57.988C613.436 55.048 612.652 53.872 611.49 53.872C610.314 53.872 609.516 55.048 609.516 57.988C609.516 60.914 610.314 62.16 611.49 62.16ZM619.323 63.196C617.349 63.196 615.865 61.6 615.865 58.394C615.865 54.376 617.685 52.85 619.673 52.85C620.737 52.85 621.521 53.298 622.067 53.886L621.367 54.684C620.961 54.208 620.345 53.914 619.715 53.914C618.287 53.914 617.083 55.034 617.083 58.394C617.083 60.858 617.867 62.188 619.309 62.188C620.303 62.188 621.059 61.306 621.059 59.99C621.059 58.688 620.443 57.862 619.197 57.862C618.553 57.862 617.741 58.254 617.041 59.29L616.999 58.268C617.643 57.428 618.567 56.91 619.407 56.91C621.129 56.91 622.263 57.946 622.263 59.99C622.263 61.908 620.905 63.196 619.323 63.196ZM626.331 63.196C624.721 63.196 623.727 62.524 623.055 61.782L623.699 60.942C624.301 61.572 625.071 62.132 626.247 62.132C627.465 62.132 628.333 61.418 628.333 60.298C628.333 59.108 627.507 58.31 625.141 58.31V57.33C627.255 57.33 627.969 56.504 627.969 55.454C627.969 54.488 627.311 53.872 626.247 53.872C625.421 53.872 624.693 54.306 624.119 54.894L623.433 54.082C624.203 53.368 625.113 52.85 626.289 52.85C628.011 52.85 629.271 53.76 629.271 55.37C629.271 56.574 628.543 57.344 627.451 57.75V57.806C628.655 58.086 629.635 58.982 629.635 60.34C629.635 62.118 628.165 63.196 626.331 63.196ZM631.462 63V55.398H632.498L632.624 56.784H632.666C633.184 55.818 633.968 55.216 634.822 55.216C635.158 55.216 635.382 55.258 635.634 55.37L635.396 56.49C635.13 56.406 634.962 56.364 634.654 56.364C634.024 56.364 633.24 56.826 632.736 58.128V63H631.462ZM639.525 63.196C637.495 63.196 635.885 61.712 635.885 59.22C635.885 56.742 637.551 55.216 639.301 55.216C641.233 55.216 642.325 56.602 642.325 58.786C642.325 59.052 642.311 59.318 642.269 59.514H637.145C637.243 61.124 638.223 62.174 639.679 62.174C640.407 62.174 641.009 61.936 641.569 61.558L642.031 62.412C641.359 62.846 640.561 63.196 639.525 63.196ZM637.131 58.59H641.205C641.205 57.064 640.519 56.238 639.315 56.238C638.251 56.238 637.299 57.092 637.131 58.59ZM643.971 63V55.398H645.007L645.133 56.504H645.175C645.833 55.79 646.631 55.216 647.541 55.216C648.703 55.216 649.333 55.762 649.627 56.658C650.425 55.818 651.223 55.216 652.147 55.216C653.701 55.216 654.457 56.252 654.457 58.184V63H653.183V58.352C653.183 56.924 652.735 56.322 651.755 56.322C651.167 56.322 650.565 56.714 649.851 57.484V63H648.577V58.352C648.577 56.924 648.129 56.322 647.149 56.322C646.575 56.322 645.931 56.714 645.245 57.484V63H643.971Z" fill="#666666"/>
<path d="M681.6 41V29.272H683.088V34.184H688.56V29.272H690.032V41H688.56V35.48H683.088V41H681.6ZM696.377 41.224C694.057 41.224 692.217 39.528 692.217 36.68C692.217 33.848 694.121 32.104 696.121 32.104C698.329 32.104 699.577 33.688 699.577 36.184C699.577 36.488 699.561 36.792 699.513 37.016H693.657C693.769 38.856 694.889 40.056 696.553 40.056C697.385 40.056 698.073 39.784 698.713 39.352L699.241 40.328C698.473 40.824 697.561 41.224 696.377 41.224ZM693.641 35.96H698.297C698.297 34.216 697.513 33.272 696.137 33.272C694.921 33.272 693.833 34.248 693.641 35.96ZM703.195 41.224C701.739 41.224 700.651 40.312 700.651 38.744C700.651 36.856 702.283 35.912 705.979 35.496C705.979 34.376 705.627 33.304 704.203 33.304C703.179 33.304 702.267 33.784 701.595 34.248L701.019 33.224C701.819 32.712 703.035 32.104 704.427 32.104C706.555 32.104 707.451 33.512 707.451 35.672V41H706.251L706.123 39.976H706.059C705.243 40.664 704.267 41.224 703.195 41.224ZM703.595 40.04C704.443 40.04 705.147 39.64 705.979 38.888V36.472C703.051 36.808 702.075 37.528 702.075 38.648C702.075 39.64 702.747 40.04 703.595 40.04ZM712.915 41.224C710.739 41.224 709.331 39.576 709.331 36.68C709.331 33.848 711.123 32.104 713.107 32.104C714.115 32.104 714.787 32.472 715.539 33.112L715.475 31.608V28.28H716.931V41H715.731L715.603 39.976H715.571C714.883 40.664 713.971 41.224 712.915 41.224ZM713.235 39.992C714.051 39.992 714.755 39.592 715.475 38.808V34.248C714.739 33.576 714.067 33.32 713.347 33.32C711.955 33.32 710.851 34.68 710.851 36.664C710.851 38.744 711.715 39.992 713.235 39.992ZM719.653 41V32.312H721.109V41H719.653ZM720.389 30.52C719.813 30.52 719.413 30.152 719.413 29.544C719.413 28.984 719.813 28.616 720.389 28.616C720.949 28.616 721.365 28.984 721.365 29.544C721.365 30.152 720.949 30.52 720.389 30.52ZM723.819 41V32.312H725.003L725.147 33.576H725.195C726.011 32.76 726.907 32.104 728.107 32.104C729.931 32.104 730.763 33.288 730.763 35.496V41H729.291V35.688C729.291 34.056 728.795 33.368 727.643 33.368C726.763 33.368 726.139 33.832 725.275 34.696V41H723.819ZM736.273 45C734.145 45 732.673 44.168 732.673 42.68C732.673 41.944 733.153 41.224 733.953 40.712V40.648C733.505 40.36 733.169 39.896 733.169 39.208C733.169 38.488 733.681 37.928 734.145 37.608V37.544C733.569 37.08 732.993 36.248 732.993 35.208C732.993 33.288 734.497 32.104 736.257 32.104C736.753 32.104 737.185 32.2 737.489 32.312H740.513V33.448H738.737C739.153 33.848 739.441 34.488 739.441 35.24C739.441 37.096 738.033 38.248 736.257 38.248C735.841 38.248 735.361 38.152 734.961 37.96C734.657 38.216 734.401 38.52 734.401 38.984C734.401 39.544 734.769 39.944 735.937 39.944H737.633C739.649 39.944 740.657 40.568 740.657 42.008C740.657 43.624 738.945 45 736.273 45ZM736.257 37.272C737.265 37.272 738.113 36.456 738.113 35.208C738.113 33.928 737.281 33.16 736.257 33.16C735.233 33.16 734.401 33.912 734.401 35.208C734.401 36.456 735.249 37.272 736.257 37.272ZM736.465 44.008C738.145 44.008 739.233 43.128 739.233 42.232C739.233 41.416 738.609 41.144 737.473 41.144H735.969C735.633 41.144 735.233 41.112 734.833 41C734.209 41.448 733.953 41.976 733.953 42.472C733.953 43.416 734.897 44.008 736.465 44.008ZM749.426 41V33.352C749.426 32.76 749.474 31.768 749.522 31.176H749.442C749.154 31.704 748.834 32.216 748.514 32.776L745.842 36.696H752.37V37.848H744.306V36.888L749.186 29.608H750.802V41H749.426Z" fill="black"/>
<path d="M681.288 62V54.398H682.324L682.45 55.784H682.492C683.01 54.818 683.794 54.216 684.648 54.216C684.984 54.216 685.208 54.258 685.46 54.37L685.222 55.49C684.956 55.406 684.788 55.364 684.48 55.364C683.85 55.364 683.066 55.826 682.562 57.128V62H681.288ZM689.35 62.196C687.32 62.196 685.71 60.712 685.71 58.22C685.71 55.742 687.376 54.216 689.126 54.216C691.058 54.216 692.15 55.602 692.15 57.786C692.15 58.052 692.136 58.318 692.094 58.514H686.97C687.068 60.124 688.048 61.174 689.504 61.174C690.232 61.174 690.834 60.936 691.394 60.558L691.856 61.412C691.184 61.846 690.386 62.196 689.35 62.196ZM686.956 57.59H691.03C691.03 56.064 690.344 55.238 689.14 55.238C688.076 55.238 687.124 56.092 686.956 57.59ZM696.167 65.5C694.305 65.5 693.017 64.772 693.017 63.47C693.017 62.826 693.437 62.196 694.137 61.748V61.692C693.745 61.44 693.451 61.034 693.451 60.432C693.451 59.802 693.899 59.312 694.305 59.032V58.976C693.801 58.57 693.297 57.842 693.297 56.932C693.297 55.252 694.613 54.216 696.153 54.216C696.587 54.216 696.965 54.3 697.231 54.398H699.877V55.392H698.323C698.687 55.742 698.939 56.302 698.939 56.96C698.939 58.584 697.707 59.592 696.153 59.592C695.789 59.592 695.369 59.508 695.019 59.34C694.753 59.564 694.529 59.83 694.529 60.236C694.529 60.726 694.851 61.076 695.873 61.076H697.357C699.121 61.076 700.003 61.622 700.003 62.882C700.003 64.296 698.505 65.5 696.167 65.5ZM696.153 58.738C697.035 58.738 697.777 58.024 697.777 56.932C697.777 55.812 697.049 55.14 696.153 55.14C695.257 55.14 694.529 55.798 694.529 56.932C694.529 58.024 695.271 58.738 696.153 58.738ZM696.335 64.632C697.805 64.632 698.757 63.862 698.757 63.078C698.757 62.364 698.211 62.126 697.217 62.126H695.901C695.607 62.126 695.257 62.098 694.907 62C694.361 62.392 694.137 62.854 694.137 63.288C694.137 64.114 694.963 64.632 696.335 64.632ZM703.479 62.196C701.883 62.196 701.155 61.16 701.155 59.214V54.398H702.429V59.06C702.429 60.474 702.863 61.076 703.871 61.076C704.641 61.076 705.201 60.698 705.915 59.802V54.398H707.189V62H706.139L706.027 60.81H705.999C705.285 61.636 704.529 62.196 703.479 62.196ZM710.875 62.196C709.909 62.196 709.531 61.58 709.531 60.488V50.87H710.805V60.572C710.805 60.978 710.973 61.132 711.169 61.132C711.225 61.132 711.281 61.132 711.435 61.104L711.603 62.084C711.421 62.14 711.225 62.196 710.875 62.196ZM715.02 62.196C713.746 62.196 712.794 61.398 712.794 60.026C712.794 58.374 714.222 57.548 717.456 57.184C717.456 56.204 717.148 55.266 715.902 55.266C715.006 55.266 714.208 55.686 713.62 56.092L713.116 55.196C713.816 54.748 714.88 54.216 716.098 54.216C717.96 54.216 718.744 55.448 718.744 57.338V62H717.694L717.582 61.104H717.526C716.812 61.706 715.958 62.196 715.02 62.196ZM715.37 61.16C716.112 61.16 716.728 60.81 717.456 60.152V58.038C714.894 58.332 714.04 58.962 714.04 59.942C714.04 60.81 714.628 61.16 715.37 61.16ZM720.918 62V54.398H721.954L722.08 55.784H722.122C722.64 54.818 723.424 54.216 724.278 54.216C724.614 54.216 724.838 54.258 725.09 54.37L724.852 55.49C724.586 55.406 724.418 55.364 724.11 55.364C723.48 55.364 722.696 55.826 722.192 57.128V62H720.918ZM728.941 62V60.936H731.223V53.586H729.389V52.76C730.313 52.592 730.971 52.354 731.517 52.032H732.497V60.936H734.569V62H728.941ZM739.435 62.196C737.461 62.196 735.977 60.6 735.977 57.394C735.977 53.376 737.797 51.85 739.785 51.85C740.849 51.85 741.633 52.298 742.179 52.886L741.479 53.684C741.073 53.208 740.457 52.914 739.827 52.914C738.399 52.914 737.195 54.034 737.195 57.394C737.195 59.858 737.979 61.188 739.421 61.188C740.415 61.188 741.171 60.306 741.171 58.99C741.171 57.688 740.555 56.862 739.309 56.862C738.665 56.862 737.853 57.254 737.153 58.29L737.111 57.268C737.755 56.428 738.679 55.91 739.519 55.91C741.241 55.91 742.375 56.946 742.375 58.99C742.375 60.908 741.017 62.196 739.435 62.196ZM744.048 65.206V54.398H745.084L745.21 55.28H745.252C745.938 54.706 746.778 54.216 747.66 54.216C749.634 54.216 750.684 55.742 750.684 58.094C750.684 60.684 749.13 62.196 747.38 62.196C746.694 62.196 745.98 61.874 745.294 61.314L745.322 62.644V65.206H744.048ZM747.184 61.118C748.43 61.118 749.368 59.984 749.368 58.108C749.368 56.414 748.794 55.28 747.352 55.28C746.708 55.28 746.064 55.644 745.322 56.33V60.334C746.008 60.908 746.68 61.118 747.184 61.118ZM751.111 62L753.603 58.038L751.307 54.398H752.679L753.701 56.064C753.939 56.498 754.191 56.918 754.457 57.352H754.513C754.737 56.918 754.961 56.498 755.199 56.064L756.123 54.398H757.453L755.157 58.164L757.649 62H756.263L755.143 60.222C754.877 59.774 754.597 59.298 754.317 58.864H754.247C753.981 59.298 753.729 59.76 753.477 60.222L752.455 62H751.111ZM764.647 62V60.936H766.929V53.586H765.095V52.76C766.019 52.592 766.677 52.354 767.223 52.032H768.203V60.936H770.275V62H764.647ZM772.229 62V54.398H773.265L773.391 55.784H773.433C773.951 54.818 774.735 54.216 775.589 54.216C775.925 54.216 776.149 54.258 776.401 54.37L776.163 55.49C775.897 55.406 775.729 55.364 775.421 55.364C774.791 55.364 774.007 55.826 773.503 57.128V62H772.229ZM780.291 62.196C778.261 62.196 776.651 60.712 776.651 58.22C776.651 55.742 778.317 54.216 780.067 54.216C781.999 54.216 783.091 55.602 783.091 57.786C783.091 58.052 783.077 58.318 783.035 58.514H777.911C778.009 60.124 778.989 61.174 780.445 61.174C781.173 61.174 781.775 60.936 782.335 60.558L782.797 61.412C782.125 61.846 781.327 62.196 780.291 62.196ZM777.897 57.59H781.971C781.971 56.064 781.285 55.238 780.081 55.238C779.017 55.238 778.065 56.092 777.897 57.59ZM784.737 62V54.398H785.773L785.899 55.504H785.941C786.599 54.79 787.397 54.216 788.307 54.216C789.469 54.216 790.099 54.762 790.393 55.658C791.191 54.818 791.989 54.216 792.913 54.216C794.467 54.216 795.223 55.252 795.223 57.184V62H793.949V57.352C793.949 55.924 793.501 55.322 792.521 55.322C791.933 55.322 791.331 55.714 790.617 56.484V62H789.343V57.352C789.343 55.924 788.895 55.322 787.915 55.322C787.341 55.322 786.697 55.714 786.011 56.484V62H784.737Z" fill="#666666"/>
<path d="M822.4 40.5V30.238H823.702V34.536H828.49V30.238H829.778V40.5H828.49V35.67H823.702V40.5H822.4ZM835.3 40.696C833.27 40.696 831.66 39.212 831.66 36.72C831.66 34.242 833.326 32.716 835.076 32.716C837.008 32.716 838.1 34.102 838.1 36.286C838.1 36.552 838.086 36.818 838.044 37.014H832.92C833.018 38.624 833.998 39.674 835.454 39.674C836.182 39.674 836.784 39.436 837.344 39.058L837.806 39.912C837.134 40.346 836.336 40.696 835.3 40.696ZM832.906 36.09H836.98C836.98 34.564 836.294 33.738 835.09 33.738C834.026 33.738 833.074 34.592 832.906 36.09ZM841.236 40.696C839.962 40.696 839.01 39.898 839.01 38.526C839.01 36.874 840.438 36.048 843.672 35.684C843.672 34.704 843.364 33.766 842.118 33.766C841.222 33.766 840.424 34.186 839.836 34.592L839.332 33.696C840.032 33.248 841.096 32.716 842.314 32.716C844.176 32.716 844.96 33.948 844.96 35.838V40.5H843.91L843.798 39.604H843.742C843.028 40.206 842.174 40.696 841.236 40.696ZM841.586 39.66C842.328 39.66 842.944 39.31 843.672 38.652V36.538C841.11 36.832 840.256 37.462 840.256 38.442C840.256 39.31 840.844 39.66 841.586 39.66ZM849.71 40.696C847.806 40.696 846.574 39.254 846.574 36.72C846.574 34.242 848.142 32.716 849.878 32.716C850.76 32.716 851.348 33.038 852.006 33.598L851.95 32.282V29.37H853.224V40.5H852.174L852.062 39.604H852.034C851.432 40.206 850.634 40.696 849.71 40.696ZM849.99 39.618C850.704 39.618 851.32 39.268 851.95 38.582V34.592C851.306 34.004 850.718 33.78 850.088 33.78C848.87 33.78 847.904 34.97 847.904 36.706C847.904 38.526 848.66 39.618 849.99 39.618ZM855.576 40.5V32.898H856.85V40.5H855.576ZM856.22 31.33C855.716 31.33 855.366 31.008 855.366 30.476C855.366 29.986 855.716 29.664 856.22 29.664C856.71 29.664 857.074 29.986 857.074 30.476C857.074 31.008 856.71 31.33 856.22 31.33ZM859.192 40.5V32.898H860.228L860.354 34.004H860.396C861.11 33.29 861.894 32.716 862.944 32.716C864.54 32.716 865.268 33.752 865.268 35.684V40.5H863.98V35.852C863.98 34.424 863.546 33.822 862.538 33.822C861.768 33.822 861.222 34.228 860.466 34.984V40.5H859.192ZM870.058 44C868.196 44 866.908 43.272 866.908 41.97C866.908 41.326 867.328 40.696 868.028 40.248V40.192C867.636 39.94 867.342 39.534 867.342 38.932C867.342 38.302 867.79 37.812 868.196 37.532V37.476C867.692 37.07 867.188 36.342 867.188 35.432C867.188 33.752 868.504 32.716 870.044 32.716C870.478 32.716 870.856 32.8 871.122 32.898H873.768V33.892H872.214C872.578 34.242 872.83 34.802 872.83 35.46C872.83 37.084 871.598 38.092 870.044 38.092C869.68 38.092 869.26 38.008 868.91 37.84C868.644 38.064 868.42 38.33 868.42 38.736C868.42 39.226 868.742 39.576 869.764 39.576H871.248C873.012 39.576 873.894 40.122 873.894 41.382C873.894 42.796 872.396 44 870.058 44ZM870.044 37.238C870.926 37.238 871.668 36.524 871.668 35.432C871.668 34.312 870.94 33.64 870.044 33.64C869.148 33.64 868.42 34.298 868.42 35.432C868.42 36.524 869.162 37.238 870.044 37.238ZM870.226 43.132C871.696 43.132 872.648 42.362 872.648 41.578C872.648 40.864 872.102 40.626 871.108 40.626H869.792C869.498 40.626 869.148 40.598 868.798 40.5C868.252 40.892 868.028 41.354 868.028 41.788C868.028 42.614 868.854 43.132 870.226 43.132ZM880.416 40.696C878.82 40.696 877.84 40.024 877.14 39.324L877.784 38.484C878.358 39.086 879.114 39.632 880.29 39.632C881.508 39.632 882.474 38.75 882.474 37.35C882.474 35.978 881.634 35.152 880.36 35.152C879.674 35.152 879.24 35.376 878.652 35.768L877.966 35.334L878.288 30.532H883.286V31.624H879.408L879.142 34.592C879.604 34.34 880.066 34.186 880.682 34.186C882.39 34.186 883.776 35.152 883.776 37.308C883.776 39.478 882.138 40.696 880.416 40.696Z" fill="black"/>
<path d="M822.288 60.5V52.898H823.324L823.45 54.284H823.492C824.01 53.318 824.794 52.716 825.648 52.716C825.984 52.716 826.208 52.758 826.46 52.87L826.222 53.99C825.956 53.906 825.788 53.864 825.48 53.864C824.85 53.864 824.066 54.326 823.562 55.628V60.5H822.288ZM830.35 60.696C828.32 60.696 826.71 59.212 826.71 56.72C826.71 54.242 828.376 52.716 830.126 52.716C832.058 52.716 833.15 54.102 833.15 56.286C833.15 56.552 833.136 56.818 833.094 57.014H827.97C828.068 58.624 829.048 59.674 830.504 59.674C831.232 59.674 831.834 59.436 832.394 59.058L832.856 59.912C832.184 60.346 831.386 60.696 830.35 60.696ZM827.956 56.09H832.03C832.03 54.564 831.344 53.738 830.14 53.738C829.076 53.738 828.124 54.592 827.956 56.09ZM837.167 64C835.305 64 834.017 63.272 834.017 61.97C834.017 61.326 834.437 60.696 835.137 60.248V60.192C834.745 59.94 834.451 59.534 834.451 58.932C834.451 58.302 834.899 57.812 835.305 57.532V57.476C834.801 57.07 834.297 56.342 834.297 55.432C834.297 53.752 835.613 52.716 837.153 52.716C837.587 52.716 837.965 52.8 838.231 52.898H840.877V53.892H839.323C839.687 54.242 839.939 54.802 839.939 55.46C839.939 57.084 838.707 58.092 837.153 58.092C836.789 58.092 836.369 58.008 836.019 57.84C835.753 58.064 835.529 58.33 835.529 58.736C835.529 59.226 835.851 59.576 836.873 59.576H838.357C840.121 59.576 841.003 60.122 841.003 61.382C841.003 62.796 839.505 64 837.167 64ZM837.153 57.238C838.035 57.238 838.777 56.524 838.777 55.432C838.777 54.312 838.049 53.64 837.153 53.64C836.257 53.64 835.529 54.298 835.529 55.432C835.529 56.524 836.271 57.238 837.153 57.238ZM837.335 63.132C838.805 63.132 839.757 62.362 839.757 61.578C839.757 60.864 839.211 60.626 838.217 60.626H836.901C836.607 60.626 836.257 60.598 835.907 60.5C835.361 60.892 835.137 61.354 835.137 61.788C835.137 62.614 835.963 63.132 837.335 63.132ZM844.479 60.696C842.883 60.696 842.155 59.66 842.155 57.714V52.898H843.429V57.56C843.429 58.974 843.863 59.576 844.871 59.576C845.641 59.576 846.201 59.198 846.915 58.302V52.898H848.189V60.5H847.139L847.027 59.31H846.999C846.285 60.136 845.529 60.696 844.479 60.696ZM851.875 60.696C850.909 60.696 850.531 60.08 850.531 58.988V49.37H851.805V59.072C851.805 59.478 851.973 59.632 852.169 59.632C852.225 59.632 852.281 59.632 852.435 59.604L852.603 60.584C852.421 60.64 852.225 60.696 851.875 60.696ZM856.02 60.696C854.746 60.696 853.794 59.898 853.794 58.526C853.794 56.874 855.222 56.048 858.456 55.684C858.456 54.704 858.148 53.766 856.902 53.766C856.006 53.766 855.208 54.186 854.62 54.592L854.116 53.696C854.816 53.248 855.88 52.716 857.098 52.716C858.96 52.716 859.744 53.948 859.744 55.838V60.5H858.694L858.582 59.604H858.526C857.812 60.206 856.958 60.696 856.02 60.696ZM856.37 59.66C857.112 59.66 857.728 59.31 858.456 58.652V56.538C855.894 56.832 855.04 57.462 855.04 58.442C855.04 59.31 855.628 59.66 856.37 59.66ZM861.918 60.5V52.898H862.954L863.08 54.284H863.122C863.64 53.318 864.424 52.716 865.278 52.716C865.614 52.716 865.838 52.758 866.09 52.87L865.852 53.99C865.586 53.906 865.418 53.864 865.11 53.864C864.48 53.864 863.696 54.326 863.192 55.628V60.5H861.918ZM869.941 60.5V59.436H872.223V52.086H870.389V51.26C871.313 51.092 871.971 50.854 872.517 50.532H873.497V59.436H875.569V60.5H869.941ZM880.981 60.5V53.808C880.981 53.29 881.023 52.422 881.065 51.904H880.995C880.743 52.366 880.463 52.814 880.183 53.304L877.845 56.734H883.557V57.742H876.501V56.902L880.771 50.532H882.185V60.5H880.981ZM885.048 63.706V52.898H886.084L886.21 53.78H886.252C886.938 53.206 887.778 52.716 888.66 52.716C890.634 52.716 891.684 54.242 891.684 56.594C891.684 59.184 890.13 60.696 888.38 60.696C887.694 60.696 886.98 60.374 886.294 59.814L886.322 61.144V63.706H885.048ZM888.184 59.618C889.43 59.618 890.368 58.484 890.368 56.608C890.368 54.914 889.794 53.78 888.352 53.78C887.708 53.78 887.064 54.144 886.322 54.83V58.834C887.008 59.408 887.68 59.618 888.184 59.618ZM892.111 60.5L894.603 56.538L892.307 52.898H893.679L894.701 54.564C894.939 54.998 895.191 55.418 895.457 55.852H895.513C895.737 55.418 895.961 54.998 896.199 54.564L897.123 52.898H898.453L896.157 56.664L898.649 60.5H897.263L896.143 58.722C895.877 58.274 895.597 57.798 895.317 57.364H895.247C894.981 57.798 894.729 58.26 894.477 58.722L893.455 60.5H892.111ZM908.307 60.696C906.305 60.696 905.101 58.834 905.101 55.488C905.101 52.142 906.305 50.35 908.307 50.35C910.281 50.35 911.485 52.142 911.485 55.488C911.485 58.834 910.281 60.696 908.307 60.696ZM908.307 59.66C909.469 59.66 910.253 58.414 910.253 55.488C910.253 52.548 909.469 51.372 908.307 51.372C907.131 51.372 906.333 52.548 906.333 55.488C906.333 58.414 907.131 59.66 908.307 59.66ZM913.873 60.696C913.369 60.696 912.963 60.29 912.963 59.716C912.963 59.128 913.369 58.736 913.873 58.736C914.391 58.736 914.811 59.128 914.811 59.716C914.811 60.29 914.391 60.696 913.873 60.696ZM919.504 60.696C917.614 60.696 916.228 59.548 916.228 57.966C916.228 56.65 917.18 55.754 918.118 55.264V55.208C917.376 54.69 916.718 53.948 916.718 52.898C916.718 51.358 917.936 50.35 919.546 50.35C921.296 50.35 922.36 51.442 922.36 52.996C922.36 54.046 921.59 54.928 920.988 55.39V55.46C921.87 55.992 922.724 56.692 922.724 58.036C922.724 59.534 921.422 60.696 919.504 60.696ZM920.204 55.068C920.89 54.452 921.268 53.794 921.268 53.052C921.268 52.072 920.624 51.288 919.518 51.288C918.58 51.288 917.894 51.932 917.894 52.898C917.894 54.088 919 54.592 920.204 55.068ZM919.532 59.73C920.708 59.73 921.492 59.016 921.492 57.994C921.492 56.692 920.232 56.244 918.79 55.656C917.964 56.188 917.376 56.916 917.376 57.84C917.376 58.932 918.3 59.73 919.532 59.73ZM925.881 60.5C926.063 56.748 926.819 54.354 928.779 51.624H923.809V50.532H930.221V51.316C927.869 54.326 927.379 56.608 927.211 60.5H925.881ZM934.303 60.696C932.707 60.696 931.727 60.024 931.027 59.324L931.671 58.484C932.245 59.086 933.001 59.632 934.177 59.632C935.395 59.632 936.361 58.75 936.361 57.35C936.361 55.978 935.521 55.152 934.247 55.152C933.561 55.152 933.127 55.376 932.539 55.768L931.853 55.334L932.175 50.532H937.173V51.624H933.295L933.029 54.592C933.491 54.34 933.953 54.186 934.569 54.186C936.277 54.186 937.663 55.152 937.663 57.308C937.663 59.478 936.025 60.696 934.303 60.696ZM939.462 60.5V52.898H940.498L940.624 54.284H940.666C941.184 53.318 941.968 52.716 942.822 52.716C943.158 52.716 943.382 52.758 943.634 52.87L943.396 53.99C943.13 53.906 942.962 53.864 942.654 53.864C942.024 53.864 941.24 54.326 940.736 55.628V60.5H939.462ZM947.525 60.696C945.495 60.696 943.885 59.212 943.885 56.72C943.885 54.242 945.551 52.716 947.301 52.716C949.233 52.716 950.325 54.102 950.325 56.286C950.325 56.552 950.311 56.818 950.269 57.014H945.145C945.243 58.624 946.223 59.674 947.679 59.674C948.407 59.674 949.009 59.436 949.569 59.058L950.031 59.912C949.359 60.346 948.561 60.696 947.525 60.696ZM945.131 56.09H949.205C949.205 54.564 948.519 53.738 947.315 53.738C946.251 53.738 945.299 54.592 945.131 56.09ZM951.971 60.5V52.898H953.007L953.133 54.004H953.175C953.833 53.29 954.631 52.716 955.541 52.716C956.703 52.716 957.333 53.262 957.627 54.158C958.425 53.318 959.223 52.716 960.147 52.716C961.701 52.716 962.457 53.752 962.457 55.684V60.5H961.183V55.852C961.183 54.424 960.735 53.822 959.755 53.822C959.167 53.822 958.565 54.214 957.851 54.984V60.5H956.577V55.852C956.577 54.424 956.129 53.822 955.149 53.822C954.575 53.822 953.931 54.214 953.245 54.984V60.5H951.971Z" fill="#666666"/>
<path d="M989.2 40V31.204H990.316V34.888H994.42V31.204H995.524V40H994.42V35.86H990.316V40H989.2ZM1000.22 40.168C998.482 40.168 997.102 38.896 997.102 36.76C997.102 34.636 998.53 33.328 1000.03 33.328C1001.69 33.328 1002.62 34.516 1002.62 36.388C1002.62 36.616 1002.61 36.844 1002.57 37.012H998.182C998.266 38.392 999.106 39.292 1000.35 39.292C1000.98 39.292 1001.49 39.088 1001.97 38.764L1002.37 39.496C1001.79 39.868 1001.11 40.168 1000.22 40.168ZM998.17 36.22H1001.66C1001.66 34.912 1001.07 34.204 1000.04 34.204C999.13 34.204 998.314 34.936 998.17 36.22ZM1005.28 40.168C1004.18 40.168 1003.37 39.484 1003.37 38.308C1003.37 36.892 1004.59 36.184 1007.36 35.872C1007.36 35.032 1007.1 34.228 1006.03 34.228C1005.26 34.228 1004.58 34.588 1004.08 34.936L1003.64 34.168C1004.24 33.784 1005.16 33.328 1006.2 33.328C1007.8 33.328 1008.47 34.384 1008.47 36.004V40H1007.57L1007.47 39.232H1007.42C1006.81 39.748 1006.08 40.168 1005.28 40.168ZM1005.58 39.28C1006.21 39.28 1006.74 38.98 1007.36 38.416V36.604C1005.17 36.856 1004.44 37.396 1004.44 38.236C1004.44 38.98 1004.94 39.28 1005.58 39.28ZM1012.51 40.168C1010.87 40.168 1009.82 38.932 1009.82 36.76C1009.82 34.636 1011.16 33.328 1012.65 33.328C1013.41 33.328 1013.91 33.604 1014.47 34.084L1014.43 32.956V30.46H1015.52V40H1014.62L1014.52 39.232H1014.5C1013.98 39.748 1013.3 40.168 1012.51 40.168ZM1012.75 39.244C1013.36 39.244 1013.89 38.944 1014.43 38.356V34.936C1013.87 34.432 1013.37 34.24 1012.83 34.24C1011.79 34.24 1010.96 35.26 1010.96 36.748C1010.96 38.308 1011.61 39.244 1012.75 39.244ZM1017.5 40V33.484H1018.59V40H1017.5ZM1018.05 32.14C1017.62 32.14 1017.32 31.864 1017.32 31.408C1017.32 30.988 1017.62 30.712 1018.05 30.712C1018.47 30.712 1018.78 30.988 1018.78 31.408C1018.78 31.864 1018.47 32.14 1018.05 32.14ZM1020.56 40V33.484H1021.45L1021.56 34.432H1021.6C1022.21 33.82 1022.88 33.328 1023.78 33.328C1025.15 33.328 1025.77 34.216 1025.77 35.872V40H1024.67V36.016C1024.67 34.792 1024.3 34.276 1023.43 34.276C1022.77 34.276 1022.3 34.624 1021.66 35.272V40H1020.56ZM1029.84 43C1028.25 43 1027.14 42.376 1027.14 41.26C1027.14 40.708 1027.5 40.168 1028.1 39.784V39.736C1027.77 39.52 1027.52 39.172 1027.52 38.656C1027.52 38.116 1027.9 37.696 1028.25 37.456V37.408C1027.82 37.06 1027.38 36.436 1027.38 35.656C1027.38 34.216 1028.51 33.328 1029.83 33.328C1030.2 33.328 1030.53 33.4 1030.76 33.484H1033.02V34.336H1031.69C1032 34.636 1032.22 35.116 1032.22 35.68C1032.22 37.072 1031.16 37.936 1029.83 37.936C1029.52 37.936 1029.16 37.864 1028.86 37.72C1028.63 37.912 1028.44 38.14 1028.44 38.488C1028.44 38.908 1028.72 39.208 1029.59 39.208H1030.86C1032.38 39.208 1033.13 39.676 1033.13 40.756C1033.13 41.968 1031.85 43 1029.84 43ZM1029.83 37.204C1030.59 37.204 1031.22 36.592 1031.22 35.656C1031.22 34.696 1030.6 34.12 1029.83 34.12C1029.06 34.12 1028.44 34.684 1028.44 35.656C1028.44 36.592 1029.08 37.204 1029.83 37.204ZM1029.99 42.256C1031.25 42.256 1032.06 41.596 1032.06 40.924C1032.06 40.312 1031.6 40.108 1030.74 40.108H1029.62C1029.36 40.108 1029.06 40.084 1028.76 40C1028.3 40.336 1028.1 40.732 1028.1 41.104C1028.1 41.812 1028.81 42.256 1029.99 42.256ZM1039.12 40.168C1037.43 40.168 1036.16 38.8 1036.16 36.052C1036.16 32.608 1037.72 31.3 1039.42 31.3C1040.33 31.3 1041.01 31.684 1041.47 32.188L1040.87 32.872C1040.53 32.464 1040 32.212 1039.46 32.212C1038.23 32.212 1037.2 33.172 1037.2 36.052C1037.2 38.164 1037.87 39.304 1039.11 39.304C1039.96 39.304 1040.61 38.548 1040.61 37.42C1040.61 36.304 1040.08 35.596 1039.01 35.596C1038.46 35.596 1037.77 35.932 1037.17 36.82L1037.13 35.944C1037.68 35.224 1038.47 34.78 1039.19 34.78C1040.67 34.78 1041.64 35.668 1041.64 37.42C1041.64 39.064 1040.48 40.168 1039.12 40.168Z" fill="black"/>
<path d="M989.288 59V51.398H990.324L990.45 52.784H990.492C991.01 51.818 991.794 51.216 992.648 51.216C992.984 51.216 993.208 51.258 993.46 51.37L993.222 52.49C992.956 52.406 992.788 52.364 992.48 52.364C991.85 52.364 991.066 52.826 990.562 54.128V59H989.288ZM997.35 59.196C995.32 59.196 993.71 57.712 993.71 55.22C993.71 52.742 995.376 51.216 997.126 51.216C999.058 51.216 1000.15 52.602 1000.15 54.786C1000.15 55.052 1000.14 55.318 1000.09 55.514H994.97C995.068 57.124 996.048 58.174 997.504 58.174C998.232 58.174 998.834 57.936 999.394 57.558L999.856 58.412C999.184 58.846 998.386 59.196 997.35 59.196ZM994.956 54.59H999.03C999.03 53.064 998.344 52.238 997.14 52.238C996.076 52.238 995.124 53.092 994.956 54.59ZM1004.17 62.5C1002.3 62.5 1001.02 61.772 1001.02 60.47C1001.02 59.826 1001.44 59.196 1002.14 58.748V58.692C1001.74 58.44 1001.45 58.034 1001.45 57.432C1001.45 56.802 1001.9 56.312 1002.3 56.032V55.976C1001.8 55.57 1001.3 54.842 1001.3 53.932C1001.3 52.252 1002.61 51.216 1004.15 51.216C1004.59 51.216 1004.96 51.3 1005.23 51.398H1007.88V52.392H1006.32C1006.69 52.742 1006.94 53.302 1006.94 53.96C1006.94 55.584 1005.71 56.592 1004.15 56.592C1003.79 56.592 1003.37 56.508 1003.02 56.34C1002.75 56.564 1002.53 56.83 1002.53 57.236C1002.53 57.726 1002.85 58.076 1003.87 58.076H1005.36C1007.12 58.076 1008 58.622 1008 59.882C1008 61.296 1006.5 62.5 1004.17 62.5ZM1004.15 55.738C1005.03 55.738 1005.78 55.024 1005.78 53.932C1005.78 52.812 1005.05 52.14 1004.15 52.14C1003.26 52.14 1002.53 52.798 1002.53 53.932C1002.53 55.024 1003.27 55.738 1004.15 55.738ZM1004.33 61.632C1005.8 61.632 1006.76 60.862 1006.76 60.078C1006.76 59.364 1006.21 59.126 1005.22 59.126H1003.9C1003.61 59.126 1003.26 59.098 1002.91 59C1002.36 59.392 1002.14 59.854 1002.14 60.288C1002.14 61.114 1002.96 61.632 1004.33 61.632ZM1011.48 59.196C1009.88 59.196 1009.16 58.16 1009.16 56.214V51.398H1010.43V56.06C1010.43 57.474 1010.86 58.076 1011.87 58.076C1012.64 58.076 1013.2 57.698 1013.92 56.802V51.398H1015.19V59H1014.14L1014.03 57.81H1014C1013.29 58.636 1012.53 59.196 1011.48 59.196ZM1018.88 59.196C1017.91 59.196 1017.53 58.58 1017.53 57.488V47.87H1018.81V57.572C1018.81 57.978 1018.97 58.132 1019.17 58.132C1019.23 58.132 1019.28 58.132 1019.44 58.104L1019.6 59.084C1019.42 59.14 1019.23 59.196 1018.88 59.196ZM1023.02 59.196C1021.75 59.196 1020.79 58.398 1020.79 57.026C1020.79 55.374 1022.22 54.548 1025.46 54.184C1025.46 53.204 1025.15 52.266 1023.9 52.266C1023.01 52.266 1022.21 52.686 1021.62 53.092L1021.12 52.196C1021.82 51.748 1022.88 51.216 1024.1 51.216C1025.96 51.216 1026.74 52.448 1026.74 54.338V59H1025.69L1025.58 58.104H1025.53C1024.81 58.706 1023.96 59.196 1023.02 59.196ZM1023.37 58.16C1024.11 58.16 1024.73 57.81 1025.46 57.152V55.038C1022.89 55.332 1022.04 55.962 1022.04 56.942C1022.04 57.81 1022.63 58.16 1023.37 58.16ZM1028.92 59V51.398H1029.95L1030.08 52.784H1030.12C1030.64 51.818 1031.42 51.216 1032.28 51.216C1032.61 51.216 1032.84 51.258 1033.09 51.37L1032.85 52.49C1032.59 52.406 1032.42 52.364 1032.11 52.364C1031.48 52.364 1030.7 52.826 1030.19 54.128V59H1028.92ZM1036.94 59V57.936H1039.22V50.586H1037.39V49.76C1038.31 49.592 1038.97 49.354 1039.52 49.032H1040.5V57.936H1042.57V59H1036.94ZM1043.85 59V58.258C1046.86 55.262 1048.54 53.456 1048.54 51.818C1048.54 50.684 1047.94 49.872 1046.66 49.872C1045.82 49.872 1045.1 50.404 1044.52 51.076L1043.78 50.348C1044.62 49.438 1045.52 48.85 1046.82 48.85C1048.65 48.85 1049.8 49.998 1049.8 51.776C1049.8 53.652 1048.08 55.514 1045.71 58.006C1046.24 57.95 1046.87 57.908 1047.39 57.908H1050.29V59H1043.85ZM1052.05 62.206V51.398H1053.08L1053.21 52.28H1053.25C1053.94 51.706 1054.78 51.216 1055.66 51.216C1057.63 51.216 1058.68 52.742 1058.68 55.094C1058.68 57.684 1057.13 59.196 1055.38 59.196C1054.69 59.196 1053.98 58.874 1053.29 58.314L1053.32 59.644V62.206H1052.05ZM1055.18 58.118C1056.43 58.118 1057.37 56.984 1057.37 55.108C1057.37 53.414 1056.79 52.28 1055.35 52.28C1054.71 52.28 1054.06 52.644 1053.32 53.33V57.334C1054.01 57.908 1054.68 58.118 1055.18 58.118ZM1059.11 59L1061.6 55.038L1059.31 51.398H1060.68L1061.7 53.064C1061.94 53.498 1062.19 53.918 1062.46 54.352H1062.51C1062.74 53.918 1062.96 53.498 1063.2 53.064L1064.12 51.398H1065.45L1063.16 55.164L1065.65 59H1064.26L1063.14 57.222C1062.88 56.774 1062.6 56.298 1062.32 55.864H1062.25C1061.98 56.298 1061.73 56.76 1061.48 57.222L1060.46 59H1059.11ZM1075.31 59.196C1073.31 59.196 1072.1 57.334 1072.1 53.988C1072.1 50.642 1073.31 48.85 1075.31 48.85C1077.28 48.85 1078.49 50.642 1078.49 53.988C1078.49 57.334 1077.28 59.196 1075.31 59.196ZM1075.31 58.16C1076.47 58.16 1077.25 56.914 1077.25 53.988C1077.25 51.048 1076.47 49.872 1075.31 49.872C1074.13 49.872 1073.33 51.048 1073.33 53.988C1073.33 56.914 1074.13 58.16 1075.31 58.16ZM1080.87 59.196C1080.37 59.196 1079.96 58.79 1079.96 58.216C1079.96 57.628 1080.37 57.236 1080.87 57.236C1081.39 57.236 1081.81 57.628 1081.81 58.216C1081.81 58.79 1081.39 59.196 1080.87 59.196ZM1085.36 59C1085.54 55.248 1086.29 52.854 1088.25 50.124H1083.28V49.032H1089.7V49.816C1087.34 52.826 1086.85 55.108 1086.69 59H1085.36ZM1093.78 59.196C1092.18 59.196 1091.2 58.524 1090.5 57.824L1091.15 56.984C1091.72 57.586 1092.48 58.132 1093.65 58.132C1094.87 58.132 1095.84 57.25 1095.84 55.85C1095.84 54.478 1095 53.652 1093.72 53.652C1093.04 53.652 1092.6 53.876 1092.01 54.268L1091.33 53.834L1091.65 49.032H1096.65V50.124H1092.77L1092.5 53.092C1092.97 52.84 1093.43 52.686 1094.04 52.686C1095.75 52.686 1097.14 53.652 1097.14 55.808C1097.14 57.978 1095.5 59.196 1093.78 59.196ZM1098.94 59V51.398H1099.97L1100.1 52.784H1100.14C1100.66 51.818 1101.44 51.216 1102.3 51.216C1102.63 51.216 1102.86 51.258 1103.11 51.37L1102.87 52.49C1102.6 52.406 1102.44 52.364 1102.13 52.364C1101.5 52.364 1100.71 52.826 1100.21 54.128V59H1098.94ZM1107 59.196C1104.97 59.196 1103.36 57.712 1103.36 55.22C1103.36 52.742 1105.03 51.216 1106.78 51.216C1108.71 51.216 1109.8 52.602 1109.8 54.786C1109.8 55.052 1109.79 55.318 1109.74 55.514H1104.62C1104.72 57.124 1105.7 58.174 1107.15 58.174C1107.88 58.174 1108.48 57.936 1109.04 57.558L1109.51 58.412C1108.83 58.846 1108.04 59.196 1107 59.196ZM1104.61 54.59H1108.68C1108.68 53.064 1107.99 52.238 1106.79 52.238C1105.73 52.238 1104.77 53.092 1104.61 54.59ZM1111.45 59V51.398H1112.48L1112.61 52.504H1112.65C1113.31 51.79 1114.11 51.216 1115.02 51.216C1116.18 51.216 1116.81 51.762 1117.1 52.658C1117.9 51.818 1118.7 51.216 1119.62 51.216C1121.18 51.216 1121.93 52.252 1121.93 54.184V59H1120.66V54.352C1120.66 52.924 1120.21 52.322 1119.23 52.322C1118.64 52.322 1118.04 52.714 1117.33 53.484V59H1116.05V54.352C1116.05 52.924 1115.6 52.322 1114.62 52.322C1114.05 52.322 1113.41 52.714 1112.72 53.484V59H1111.45Z" fill="#666666"/>
</svg>
