<svg width="182" height="572" viewBox="0 0 182 572" fill="none" xmlns="http://www.w3.org/2000/svg">
<path d="M15.392 49V28.84C15.392 25.352 17.024 23.112 20.48 23.112C21.536 23.112 22.56 23.368 23.36 23.688L22.752 25.928C22.08 25.64 21.408 25.48 20.768 25.48C19.104 25.48 18.304 26.632 18.304 28.904V49H15.392ZM13.024 33.992V31.816L15.552 31.624H22.016V33.992H13.024ZM31.4248 49.448C27.1368 49.448 23.3608 46.088 23.3608 40.36C23.3608 34.536 27.1368 31.208 31.4248 31.208C35.6808 31.208 39.4568 34.536 39.4568 40.36C39.4568 46.088 35.6808 49.448 31.4248 49.448ZM31.4248 47.016C34.4328 47.016 36.4488 44.328 36.4488 40.36C36.4488 36.328 34.4328 33.64 31.4248 33.64C28.3848 33.64 26.3688 36.328 26.3688 40.36C26.3688 44.328 28.3848 47.016 31.4248 47.016ZM43.839 49V31.624H46.207L46.495 34.152H46.591C48.223 32.52 50.015 31.208 52.415 31.208C56.063 31.208 57.727 33.576 57.727 37.992V49H54.783V38.376C54.783 35.112 53.791 33.736 51.487 33.736C49.727 33.736 48.479 34.664 46.751 36.392V49H43.839ZM68.5702 49.448C64.8582 49.448 63.6422 47.112 63.6422 43.656V33.992H61.0502V31.816L63.7702 31.624L64.0902 26.728H66.5542V31.624H71.2582V33.992H66.5542V43.72C66.5542 45.832 67.2262 47.08 69.2422 47.08C69.8502 47.08 70.6502 46.824 71.1942 46.6L71.7702 48.776C70.8102 49.128 69.6582 49.448 68.5702 49.448ZM82.317 49V28.84C82.317 25.352 83.949 23.112 87.405 23.112C88.461 23.112 89.485 23.368 90.285 23.688L89.677 25.928C89.005 25.64 88.333 25.48 87.693 25.48C86.029 25.48 85.229 26.632 85.229 28.904V49H82.317ZM79.949 33.992V31.816L82.477 31.624H88.941V33.992H79.949ZM95.2227 49.448C92.3107 49.448 90.1347 47.624 90.1347 44.488C90.1347 40.712 93.3987 38.824 100.791 37.992C100.791 35.752 100.087 33.608 97.2387 33.608C95.1907 33.608 93.3667 34.568 92.0227 35.496L90.8707 33.448C92.4707 32.424 94.9027 31.208 97.6867 31.208C101.943 31.208 103.735 34.024 103.735 38.344V49H101.335L101.079 46.952H100.951C99.3187 48.328 97.3667 49.448 95.2227 49.448ZM96.0227 47.08C97.7187 47.08 99.1267 46.28 100.791 44.776V39.944C94.9347 40.616 92.9827 42.056 92.9827 44.296C92.9827 46.28 94.3267 47.08 96.0227 47.08ZM109.014 49V31.624H111.382L111.67 34.152H111.766C113.27 32.52 115.094 31.208 117.174 31.208C119.83 31.208 121.27 32.456 121.942 34.504C123.766 32.584 125.59 31.208 127.702 31.208C131.254 31.208 132.982 33.576 132.982 37.992V49H130.07V38.376C130.07 35.112 129.046 33.736 126.806 33.736C125.462 33.736 124.086 34.632 122.454 36.392V49H119.542V38.376C119.542 35.112 118.518 33.736 116.278 33.736C114.966 33.736 113.494 34.632 111.926 36.392V49H109.014ZM138.399 49V31.624H141.311V49H138.399ZM139.871 28.04C138.719 28.04 137.919 27.304 137.919 26.088C137.919 24.968 138.719 24.232 139.871 24.232C140.991 24.232 141.823 24.968 141.823 26.088C141.823 27.304 140.991 28.04 139.871 28.04ZM150.043 49.448C147.835 49.448 146.971 48.04 146.971 45.544V23.56H149.883V45.736C149.883 46.664 150.267 47.016 150.715 47.016C150.843 47.016 150.971 47.016 151.323 46.952L151.707 49.192C151.291 49.32 150.843 49.448 150.043 49.448ZM156.081 56.52C155.281 56.52 154.609 56.392 154.065 56.168L154.641 53.832C154.961 53.96 155.473 54.088 155.953 54.088C157.905 54.088 159.153 52.488 159.889 50.344L160.273 49.032L153.297 31.624H156.305L159.857 41.288C160.401 42.824 160.977 44.584 161.553 46.184H161.713C162.193 44.584 162.705 42.856 163.153 41.288L166.289 31.624H169.137L162.577 50.472C161.361 53.896 159.569 56.52 156.081 56.52Z" fill="black"/>
<path d="M13.6 72V60.272H15.12L19.392 67.664L20.656 70.096H20.736C20.64 68.912 20.528 67.584 20.528 66.368V60.272H21.952V72H20.416L16.16 64.608L14.896 62.192H14.816C14.896 63.376 15.008 64.608 15.008 65.856V72H13.6ZM28.1705 72.224C26.0265 72.224 24.1385 70.544 24.1385 67.68C24.1385 64.768 26.0265 63.104 28.1705 63.104C30.2985 63.104 32.1865 64.768 32.1865 67.68C32.1865 70.544 30.2985 72.224 28.1705 72.224ZM28.1705 71.008C29.6745 71.008 30.6825 69.664 30.6825 67.68C30.6825 65.664 29.6745 64.32 28.1705 64.32C26.6505 64.32 25.6425 65.664 25.6425 67.68C25.6425 69.664 26.6505 71.008 28.1705 71.008ZM36.6339 72.224C34.7779 72.224 34.1699 71.056 34.1699 69.328V64.496H32.8739V63.408L34.2339 63.312L34.3939 60.864H35.6259V63.312H37.9779V64.496H35.6259V69.36C35.6259 70.416 35.9619 71.04 36.9699 71.04C37.2739 71.04 37.6739 70.912 37.9459 70.8L38.2339 71.888C37.7539 72.064 37.1779 72.224 36.6339 72.224ZM42.7999 72.224C40.6559 72.224 38.7679 70.544 38.7679 67.68C38.7679 64.768 40.6559 63.104 42.7999 63.104C44.9279 63.104 46.8159 64.768 46.8159 67.68C46.8159 70.544 44.9279 72.224 42.7999 72.224ZM42.7999 71.008C44.3039 71.008 45.3119 69.664 45.3119 67.68C45.3119 65.664 44.3039 64.32 42.7999 64.32C41.2799 64.32 40.2719 65.664 40.2719 67.68C40.2719 69.664 41.2799 71.008 42.7999 71.008ZM55.6011 72.224C53.9531 72.224 52.5291 71.552 51.5051 70.48L52.3851 69.456C53.2331 70.352 54.4171 70.912 55.6331 70.912C57.1691 70.912 58.0811 70.144 58.0811 69.008C58.0811 67.792 57.2331 67.408 56.1291 66.928L54.4491 66.192C53.3451 65.728 52.0651 64.896 52.0651 63.184C52.0651 61.376 53.6171 60.064 55.7611 60.064C57.1531 60.064 58.3851 60.656 59.2011 61.52L58.4171 62.464C57.6971 61.792 56.8331 61.36 55.7611 61.36C54.4331 61.36 53.5691 62.032 53.5691 63.072C53.5691 64.224 54.5931 64.64 55.5051 65.024L57.1691 65.744C58.5451 66.336 59.5851 67.152 59.5851 68.896C59.5851 70.752 58.0651 72.224 55.6011 72.224ZM63.5164 72.224C62.0604 72.224 60.9724 71.312 60.9724 69.744C60.9724 67.856 62.6044 66.912 66.3004 66.496C66.3004 65.376 65.9484 64.304 64.5244 64.304C63.5004 64.304 62.5884 64.784 61.9164 65.248L61.3404 64.224C62.1404 63.712 63.3564 63.104 64.7484 63.104C66.8764 63.104 67.7724 64.512 67.7724 66.672V72H66.5724L66.4444 70.976H66.3804C65.5644 71.664 64.5884 72.224 63.5164 72.224ZM63.9164 71.04C64.7644 71.04 65.4684 70.64 66.3004 69.888V67.472C63.3724 67.808 62.3964 68.528 62.3964 69.648C62.3964 70.64 63.0684 71.04 63.9164 71.04ZM70.292 72V63.312H71.476L71.62 64.576H71.668C72.484 63.76 73.38 63.104 74.58 63.104C76.404 63.104 77.236 64.288 77.236 66.496V72H75.764V66.688C75.764 65.056 75.268 64.368 74.116 64.368C73.236 64.368 72.612 64.832 71.748 65.696V72H70.292ZM82.0896 72.224C80.8576 72.224 79.6576 71.696 78.8416 71.024L79.5616 70.048C80.3136 70.656 81.0816 71.088 82.1216 71.088C83.2736 71.088 83.8496 70.48 83.8496 69.712C83.8496 68.832 82.8096 68.432 81.8496 68.08C80.6496 67.616 79.3216 67.04 79.3216 65.552C79.3216 64.176 80.4256 63.104 82.3136 63.104C83.3856 63.104 84.3456 63.536 85.0176 64.08L84.3136 65.008C83.7216 64.576 83.0976 64.24 82.3296 64.24C81.2256 64.24 80.7296 64.816 80.7296 65.488C80.7296 66.32 81.6096 66.64 82.6016 66.992C83.8656 67.472 85.2416 67.984 85.2416 69.632C85.2416 71.056 84.1376 72.224 82.0896 72.224ZM92.9601 72V61.52H89.4241V60.272H98.0001V61.52H94.4641V72H92.9601ZM103.83 72.224C100.902 72.224 98.7255 69.952 98.7255 66.144C98.7255 62.368 100.95 60.064 103.926 60.064C105.35 60.064 106.454 60.752 107.142 61.504L106.326 62.464C105.718 61.808 104.934 61.36 103.942 61.36C101.718 61.36 100.246 63.184 100.246 66.112C100.246 69.072 101.654 70.912 103.894 70.912C104.998 70.912 105.862 70.432 106.614 69.6L107.414 70.528C106.486 71.616 105.35 72.224 103.83 72.224Z" fill="#666666"/>
<path d="M14.4 129V111.408H16.632V118.776H24.84V111.408H27.048V129H24.84V120.72H16.632V129H14.4ZM36.6849 129.336C33.2049 129.336 30.4449 126.792 30.4449 122.52C30.4449 118.272 33.3009 115.656 36.3009 115.656C39.6129 115.656 41.4849 118.032 41.4849 121.776C41.4849 122.232 41.4609 122.688 41.3889 123.024H32.6049C32.7729 125.784 34.4529 127.584 36.9489 127.584C38.1969 127.584 39.2289 127.176 40.1889 126.528L40.9809 127.992C39.8289 128.736 38.4609 129.336 36.6849 129.336ZM32.5809 121.44H39.5649C39.5649 118.824 38.3889 117.408 36.3249 117.408C34.5009 117.408 32.8689 118.872 32.5809 121.44ZM47.0327 129.336C44.8487 129.336 43.2167 127.968 43.2167 125.616C43.2167 122.784 45.6647 121.368 51.2087 120.744C51.2087 119.064 50.6807 117.456 48.5447 117.456C47.0087 117.456 45.6407 118.176 44.6327 118.872L43.7687 117.336C44.9687 116.568 46.7927 115.656 48.8807 115.656C52.0727 115.656 53.4167 117.768 53.4167 121.008V129H51.6167L51.4247 127.464H51.3287C50.1047 128.496 48.6407 129.336 47.0327 129.336ZM47.6327 127.56C48.9047 127.56 49.9607 126.96 51.2087 125.832V122.208C46.8167 122.712 45.3527 123.792 45.3527 125.472C45.3527 126.96 46.3607 127.56 47.6327 127.56ZM61.7321 129.336C58.4681 129.336 56.3561 126.864 56.3561 122.52C56.3561 118.272 59.0441 115.656 62.0201 115.656C63.5321 115.656 64.5401 116.208 65.6681 117.168L65.5721 114.912V109.92H67.7561V129H65.9561L65.7641 127.464H65.7161C64.6841 128.496 63.3161 129.336 61.7321 129.336ZM62.2121 127.488C63.4361 127.488 64.4921 126.888 65.5721 125.712V118.872C64.4681 117.864 63.4601 117.48 62.3801 117.48C60.2921 117.48 58.6361 119.52 58.6361 122.496C58.6361 125.616 59.9321 127.488 62.2121 127.488ZM71.9589 129V115.968H74.1429V129H71.9589ZM73.0629 113.28C72.1989 113.28 71.5989 112.728 71.5989 111.816C71.5989 110.976 72.1989 110.424 73.0629 110.424C73.9029 110.424 74.5269 110.976 74.5269 111.816C74.5269 112.728 73.9029 113.28 73.0629 113.28ZM78.3283 129V115.968H80.1043L80.3203 117.864H80.3923C81.6163 116.64 82.9603 115.656 84.7603 115.656C87.4963 115.656 88.7443 117.432 88.7443 120.744V129H86.5363V121.032C86.5363 118.584 85.7923 117.552 84.0643 117.552C82.7443 117.552 81.8083 118.248 80.5123 119.544V129H78.3283ZM97.1287 135C93.9367 135 91.7287 133.752 91.7287 131.52C91.7287 130.416 92.4487 129.336 93.6487 128.568V128.472C92.9767 128.04 92.4727 127.344 92.4727 126.312C92.4727 125.232 93.2407 124.392 93.9367 123.912V123.816C93.0727 123.12 92.2087 121.872 92.2087 120.312C92.2087 117.432 94.4647 115.656 97.1047 115.656C97.8487 115.656 98.4967 115.8 98.9527 115.968H103.489V117.672H100.825C101.449 118.272 101.881 119.232 101.881 120.36C101.881 123.144 99.7687 124.872 97.1047 124.872C96.4807 124.872 95.7607 124.728 95.1607 124.44C94.7047 124.824 94.3207 125.28 94.3207 125.976C94.3207 126.816 94.8727 127.416 96.6247 127.416H99.1687C102.193 127.416 103.705 128.352 103.705 130.512C103.705 132.936 101.137 135 97.1287 135ZM97.1047 123.408C98.6167 123.408 99.8887 122.184 99.8887 120.312C99.8887 118.392 98.6407 117.24 97.1047 117.24C95.5687 117.24 94.3207 118.368 94.3207 120.312C94.3207 122.184 95.5927 123.408 97.1047 123.408ZM97.4167 133.512C99.9367 133.512 101.569 132.192 101.569 130.848C101.569 129.624 100.633 129.216 98.9287 129.216H96.6727C96.1687 129.216 95.5687 129.168 94.9687 129C94.0327 129.672 93.6487 130.464 93.6487 131.208C93.6487 132.624 95.0647 133.512 97.4167 133.512ZM111.075 129V127.176H114.987V114.576H111.843V113.16C113.427 112.872 114.555 112.464 115.491 111.912H117.171V127.176H120.723V129H111.075Z" fill="black"/>
<path d="M13.288 152V144.398H14.324L14.45 145.784H14.492C15.01 144.818 15.794 144.216 16.648 144.216C16.984 144.216 17.208 144.258 17.46 144.37L17.222 145.49C16.956 145.406 16.788 145.364 16.48 145.364C15.85 145.364 15.066 145.826 14.562 147.128V152H13.288ZM21.3503 152.196C19.3203 152.196 17.7103 150.712 17.7103 148.22C17.7103 145.742 19.3763 144.216 21.1263 144.216C23.0583 144.216 24.1503 145.602 24.1503 147.786C24.1503 148.052 24.1363 148.318 24.0943 148.514H18.9703C19.0683 150.124 20.0483 151.174 21.5043 151.174C22.2323 151.174 22.8343 150.936 23.3943 150.558L23.8563 151.412C23.1843 151.846 22.3863 152.196 21.3503 152.196ZM18.9563 147.59H23.0303C23.0303 146.064 22.3443 145.238 21.1403 145.238C20.0763 145.238 19.1243 146.092 18.9563 147.59ZM28.1669 155.5C26.3049 155.5 25.0169 154.772 25.0169 153.47C25.0169 152.826 25.4369 152.196 26.1369 151.748V151.692C25.7449 151.44 25.4509 151.034 25.4509 150.432C25.4509 149.802 25.8989 149.312 26.3049 149.032V148.976C25.8009 148.57 25.2969 147.842 25.2969 146.932C25.2969 145.252 26.6129 144.216 28.1529 144.216C28.5869 144.216 28.9649 144.3 29.2309 144.398H31.8769V145.392H30.3229C30.6869 145.742 30.9389 146.302 30.9389 146.96C30.9389 148.584 29.7069 149.592 28.1529 149.592C27.7889 149.592 27.3689 149.508 27.0189 149.34C26.7529 149.564 26.5289 149.83 26.5289 150.236C26.5289 150.726 26.8509 151.076 27.8729 151.076H29.3569C31.1209 151.076 32.0029 151.622 32.0029 152.882C32.0029 154.296 30.5049 155.5 28.1669 155.5ZM28.1529 148.738C29.0349 148.738 29.7769 148.024 29.7769 146.932C29.7769 145.812 29.0489 145.14 28.1529 145.14C27.2569 145.14 26.5289 145.798 26.5289 146.932C26.5289 148.024 27.2709 148.738 28.1529 148.738ZM28.3349 154.632C29.8049 154.632 30.7569 153.862 30.7569 153.078C30.7569 152.364 30.2109 152.126 29.2169 152.126H27.9009C27.6069 152.126 27.2569 152.098 26.9069 152C26.3609 152.392 26.1369 152.854 26.1369 153.288C26.1369 154.114 26.9629 154.632 28.3349 154.632ZM35.4792 152.196C33.8832 152.196 33.1552 151.16 33.1552 149.214V144.398H34.4292V149.06C34.4292 150.474 34.8632 151.076 35.8712 151.076C36.6412 151.076 37.2012 150.698 37.9152 149.802V144.398H39.1892V152H38.1392L38.0272 150.81H37.9992C37.2852 151.636 36.5292 152.196 35.4792 152.196ZM42.8751 152.196C41.9091 152.196 41.5311 151.58 41.5311 150.488V140.87H42.8051V150.572C42.8051 150.978 42.9731 151.132 43.1691 151.132C43.2251 151.132 43.2811 151.132 43.4351 151.104L43.6031 152.084C43.4211 152.14 43.2251 152.196 42.8751 152.196ZM47.0196 152.196C45.7456 152.196 44.7936 151.398 44.7936 150.026C44.7936 148.374 46.2216 147.548 49.4556 147.184C49.4556 146.204 49.1476 145.266 47.9016 145.266C47.0056 145.266 46.2076 145.686 45.6196 146.092L45.1156 145.196C45.8156 144.748 46.8796 144.216 48.0976 144.216C49.9596 144.216 50.7436 145.448 50.7436 147.338V152H49.6936L49.5816 151.104H49.5256C48.8116 151.706 47.9576 152.196 47.0196 152.196ZM47.3696 151.16C48.1116 151.16 48.7276 150.81 49.4556 150.152V148.038C46.8936 148.332 46.0396 148.962 46.0396 149.942C46.0396 150.81 46.6276 151.16 47.3696 151.16ZM52.9183 152V144.398H53.9543L54.0803 145.784H54.1223C54.6403 144.818 55.4243 144.216 56.2783 144.216C56.6143 144.216 56.8383 144.258 57.0903 144.37L56.8523 145.49C56.5863 145.406 56.4183 145.364 56.1103 145.364C55.4803 145.364 54.6963 145.826 54.1923 147.128V152H52.9183ZM60.3249 152V151.258C63.3349 148.262 65.0149 146.456 65.0149 144.818C65.0149 143.684 64.4129 142.872 63.1389 142.872C62.2989 142.872 61.5709 143.404 60.9969 144.076L60.2549 143.348C61.0949 142.438 61.9909 141.85 63.2929 141.85C65.1269 141.85 66.2749 142.998 66.2749 144.776C66.2749 146.652 64.5529 148.514 62.1869 151.006C62.7189 150.95 63.3489 150.908 63.8669 150.908H66.7649V152H60.3249ZM71.9805 152V145.308C71.9805 144.79 72.0225 143.922 72.0645 143.404H71.9945C71.7425 143.866 71.4625 144.314 71.1825 144.804L68.8445 148.234H74.5565V149.242H67.5005V148.402L71.7705 142.032H73.1845V152H71.9805ZM76.0482 155.206V144.398H77.0842L77.2102 145.28H77.2522C77.9382 144.706 78.7782 144.216 79.6602 144.216C81.6342 144.216 82.6842 145.742 82.6842 148.094C82.6842 150.684 81.1302 152.196 79.3802 152.196C78.6942 152.196 77.9802 151.874 77.2942 151.314L77.3222 152.644V155.206H76.0482ZM79.1842 151.118C80.4302 151.118 81.3682 149.984 81.3682 148.108C81.3682 146.414 80.7942 145.28 79.3522 145.28C78.7082 145.28 78.0642 145.644 77.3222 146.33V150.334C78.0082 150.908 78.6802 151.118 79.1842 151.118ZM83.111 152L85.603 148.038L83.307 144.398H84.679L85.701 146.064C85.939 146.498 86.191 146.918 86.457 147.352H86.513C86.737 146.918 86.961 146.498 87.199 146.064L88.123 144.398H89.453L87.157 148.164L89.649 152H88.263L87.143 150.222C86.877 149.774 86.597 149.298 86.317 148.864H86.247C85.981 149.298 85.729 149.76 85.477 150.222L84.455 152H83.111ZM96.6474 152V150.936H98.9294V143.586H97.0954V142.76C98.0194 142.592 98.6774 142.354 99.2234 142.032H100.203V150.936H102.275V152H96.6474ZM104.873 152.196C104.369 152.196 103.963 151.79 103.963 151.216C103.963 150.628 104.369 150.236 104.873 150.236C105.391 150.236 105.811 150.628 105.811 151.216C105.811 151.79 105.391 152.196 104.873 152.196ZM110.252 152.196C108.656 152.196 107.676 151.524 106.976 150.824L107.62 149.984C108.194 150.586 108.95 151.132 110.126 151.132C111.344 151.132 112.31 150.25 112.31 148.85C112.31 147.478 111.47 146.652 110.196 146.652C109.51 146.652 109.076 146.876 108.488 147.268L107.802 146.834L108.124 142.032H113.122V143.124H109.244L108.978 146.092C109.44 145.84 109.902 145.686 110.518 145.686C112.226 145.686 113.612 146.652 113.612 148.808C113.612 150.978 111.974 152.196 110.252 152.196ZM115.411 152V144.398H116.447L116.573 145.784H116.615C117.133 144.818 117.917 144.216 118.771 144.216C119.107 144.216 119.331 144.258 119.583 144.37L119.345 145.49C119.079 145.406 118.911 145.364 118.603 145.364C117.973 145.364 117.189 145.826 116.685 147.128V152H115.411ZM123.473 152.196C121.443 152.196 119.833 150.712 119.833 148.22C119.833 145.742 121.499 144.216 123.249 144.216C125.181 144.216 126.273 145.602 126.273 147.786C126.273 148.052 126.259 148.318 126.217 148.514H121.093C121.191 150.124 122.171 151.174 123.627 151.174C124.355 151.174 124.957 150.936 125.517 150.558L125.979 151.412C125.307 151.846 124.509 152.196 123.473 152.196ZM121.079 147.59H125.153C125.153 146.064 124.467 145.238 123.263 145.238C122.199 145.238 121.247 146.092 121.079 147.59ZM127.919 152V144.398H128.955L129.081 145.504H129.123C129.781 144.79 130.579 144.216 131.489 144.216C132.651 144.216 133.281 144.762 133.575 145.658C134.373 144.818 135.171 144.216 136.095 144.216C137.649 144.216 138.405 145.252 138.405 147.184V152H137.131V147.352C137.131 145.924 136.683 145.322 135.703 145.322C135.115 145.322 134.513 145.714 133.799 146.484V152H132.525V147.352C132.525 145.924 132.077 145.322 131.097 145.322C130.523 145.322 129.879 145.714 129.193 146.484V152H127.919Z" fill="#666666"/>
<path d="M14 203V188.34H15.86V194.48H22.7V188.34H24.54V203H22.7V196.1H15.86V203H14ZM32.5308 203.28C29.6308 203.28 27.3308 201.16 27.3308 197.6C27.3308 194.06 29.7108 191.88 32.2108 191.88C34.9708 191.88 36.5308 193.86 36.5308 196.98C36.5308 197.36 36.5108 197.74 36.4508 198.02H29.1308C29.2708 200.32 30.6708 201.82 32.7508 201.82C33.7908 201.82 34.6508 201.48 35.4508 200.94L36.1108 202.16C35.1508 202.78 34.0108 203.28 32.5308 203.28ZM29.1108 196.7H34.9308C34.9308 194.52 33.9508 193.34 32.2308 193.34C30.7108 193.34 29.3508 194.56 29.1108 196.7ZM41.1139 203.28C39.2939 203.28 37.9339 202.14 37.9339 200.18C37.9339 197.82 39.9739 196.64 44.5939 196.12C44.5939 194.72 44.1539 193.38 42.3739 193.38C41.0939 193.38 39.9539 193.98 39.1139 194.56L38.3939 193.28C39.3939 192.64 40.9139 191.88 42.6539 191.88C45.3139 191.88 46.4339 193.64 46.4339 196.34V203H44.9339L44.7739 201.72H44.6939C43.6739 202.58 42.4539 203.28 41.1139 203.28ZM41.6139 201.8C42.6739 201.8 43.5539 201.3 44.5939 200.36V197.34C40.9339 197.76 39.7139 198.66 39.7139 200.06C39.7139 201.3 40.5539 201.8 41.6139 201.8ZM53.3234 203.28C50.6034 203.28 48.8434 201.22 48.8434 197.6C48.8434 194.06 51.0834 191.88 53.5634 191.88C54.8234 191.88 55.6634 192.34 56.6034 193.14L56.5234 191.26V187.1H58.3434V203H56.8434L56.6834 201.72H56.6434C55.7834 202.58 54.6434 203.28 53.3234 203.28ZM53.7234 201.74C54.7434 201.74 55.6234 201.24 56.5234 200.26V194.56C55.6034 193.72 54.7634 193.4 53.8634 193.4C52.1234 193.4 50.7434 195.1 50.7434 197.58C50.7434 200.18 51.8234 201.74 53.7234 201.74ZM61.8058 203V192.14H63.6258V203H61.8058ZM62.7258 189.9C62.0058 189.9 61.5058 189.44 61.5058 188.68C61.5058 187.98 62.0058 187.52 62.7258 187.52C63.4258 187.52 63.9458 187.98 63.9458 188.68C63.9458 189.44 63.4258 189.9 62.7258 189.9ZM67.0736 203V192.14H68.5536L68.7336 193.72H68.7936C69.8136 192.7 70.9336 191.88 72.4336 191.88C74.7136 191.88 75.7536 193.36 75.7536 196.12V203H73.9136V196.36C73.9136 194.32 73.2936 193.46 71.8536 193.46C70.7536 193.46 69.9736 194.04 68.8936 195.12V203H67.0736ZM82.7006 208C80.0406 208 78.2006 206.96 78.2006 205.1C78.2006 204.18 78.8006 203.28 79.8006 202.64V202.56C79.2406 202.2 78.8206 201.62 78.8206 200.76C78.8206 199.86 79.4606 199.16 80.0406 198.76V198.68C79.3206 198.1 78.6006 197.06 78.6006 195.76C78.6006 193.36 80.4806 191.88 82.6806 191.88C83.3006 191.88 83.8406 192 84.2206 192.14H88.0006V193.56H85.7806C86.3006 194.06 86.6606 194.86 86.6606 195.8C86.6606 198.12 84.9006 199.56 82.6806 199.56C82.1606 199.56 81.5606 199.44 81.0606 199.2C80.6806 199.52 80.3606 199.9 80.3606 200.48C80.3606 201.18 80.8206 201.68 82.2806 201.68H84.4006C86.9206 201.68 88.1806 202.46 88.1806 204.26C88.1806 206.28 86.0406 208 82.7006 208ZM82.6806 198.34C83.9406 198.34 85.0006 197.32 85.0006 195.76C85.0006 194.16 83.9606 193.2 82.6806 193.2C81.4006 193.2 80.3606 194.14 80.3606 195.76C80.3606 197.32 81.4206 198.34 82.6806 198.34ZM82.9406 206.76C85.0406 206.76 86.4006 205.66 86.4006 204.54C86.4006 203.52 85.6206 203.18 84.2006 203.18H82.3206C81.9006 203.18 81.4006 203.14 80.9006 203C80.1206 203.56 79.8006 204.22 79.8006 204.84C79.8006 206.02 80.9806 206.76 82.9406 206.76ZM93.3623 203V201.94C97.6623 197.66 100.062 195.08 100.062 192.74C100.062 191.12 99.2023 189.96 97.3823 189.96C96.1823 189.96 95.1423 190.72 94.3223 191.68L93.2623 190.64C94.4623 189.34 95.7423 188.5 97.6023 188.5C100.222 188.5 101.862 190.14 101.862 192.68C101.862 195.36 99.4023 198.02 96.0223 201.58C96.7823 201.5 97.6823 201.44 98.4223 201.44H102.562V203H93.3623Z" fill="black"/>
<path d="M13.288 225V217.398H14.324L14.45 218.784H14.492C15.01 217.818 15.794 217.216 16.648 217.216C16.984 217.216 17.208 217.258 17.46 217.37L17.222 218.49C16.956 218.406 16.788 218.364 16.48 218.364C15.85 218.364 15.066 218.826 14.562 220.128V225H13.288ZM21.3503 225.196C19.3203 225.196 17.7103 223.712 17.7103 221.22C17.7103 218.742 19.3763 217.216 21.1263 217.216C23.0583 217.216 24.1503 218.602 24.1503 220.786C24.1503 221.052 24.1363 221.318 24.0943 221.514H18.9703C19.0683 223.124 20.0483 224.174 21.5043 224.174C22.2323 224.174 22.8343 223.936 23.3943 223.558L23.8563 224.412C23.1843 224.846 22.3863 225.196 21.3503 225.196ZM18.9563 220.59H23.0303C23.0303 219.064 22.3443 218.238 21.1403 218.238C20.0763 218.238 19.1243 219.092 18.9563 220.59ZM28.1669 228.5C26.3049 228.5 25.0169 227.772 25.0169 226.47C25.0169 225.826 25.4369 225.196 26.1369 224.748V224.692C25.7449 224.44 25.4509 224.034 25.4509 223.432C25.4509 222.802 25.8989 222.312 26.3049 222.032V221.976C25.8009 221.57 25.2969 220.842 25.2969 219.932C25.2969 218.252 26.6129 217.216 28.1529 217.216C28.5869 217.216 28.9649 217.3 29.2309 217.398H31.8769V218.392H30.3229C30.6869 218.742 30.9389 219.302 30.9389 219.96C30.9389 221.584 29.7069 222.592 28.1529 222.592C27.7889 222.592 27.3689 222.508 27.0189 222.34C26.7529 222.564 26.5289 222.83 26.5289 223.236C26.5289 223.726 26.8509 224.076 27.8729 224.076H29.3569C31.1209 224.076 32.0029 224.622 32.0029 225.882C32.0029 227.296 30.5049 228.5 28.1669 228.5ZM28.1529 221.738C29.0349 221.738 29.7769 221.024 29.7769 219.932C29.7769 218.812 29.0489 218.14 28.1529 218.14C27.2569 218.14 26.5289 218.798 26.5289 219.932C26.5289 221.024 27.2709 221.738 28.1529 221.738ZM28.3349 227.632C29.8049 227.632 30.7569 226.862 30.7569 226.078C30.7569 225.364 30.2109 225.126 29.2169 225.126H27.9009C27.6069 225.126 27.2569 225.098 26.9069 225C26.3609 225.392 26.1369 225.854 26.1369 226.288C26.1369 227.114 26.9629 227.632 28.3349 227.632ZM35.4792 225.196C33.8832 225.196 33.1552 224.16 33.1552 222.214V217.398H34.4292V222.06C34.4292 223.474 34.8632 224.076 35.8712 224.076C36.6412 224.076 37.2012 223.698 37.9152 222.802V217.398H39.1892V225H38.1392L38.0272 223.81H37.9992C37.2852 224.636 36.5292 225.196 35.4792 225.196ZM42.8751 225.196C41.9091 225.196 41.5311 224.58 41.5311 223.488V213.87H42.8051V223.572C42.8051 223.978 42.9731 224.132 43.1691 224.132C43.2251 224.132 43.2811 224.132 43.4351 224.104L43.6031 225.084C43.4211 225.14 43.2251 225.196 42.8751 225.196ZM47.0196 225.196C45.7456 225.196 44.7936 224.398 44.7936 223.026C44.7936 221.374 46.2216 220.548 49.4556 220.184C49.4556 219.204 49.1476 218.266 47.9016 218.266C47.0056 218.266 46.2076 218.686 45.6196 219.092L45.1156 218.196C45.8156 217.748 46.8796 217.216 48.0976 217.216C49.9596 217.216 50.7436 218.448 50.7436 220.338V225H49.6936L49.5816 224.104H49.5256C48.8116 224.706 47.9576 225.196 47.0196 225.196ZM47.3696 224.16C48.1116 224.16 48.7276 223.81 49.4556 223.152V221.038C46.8936 221.332 46.0396 221.962 46.0396 222.942C46.0396 223.81 46.6276 224.16 47.3696 224.16ZM52.9183 225V217.398H53.9543L54.0803 218.784H54.1223C54.6403 217.818 55.4243 217.216 56.2783 217.216C56.6143 217.216 56.8383 217.258 57.0903 217.37L56.8523 218.49C56.5863 218.406 56.4183 218.364 56.1103 218.364C55.4803 218.364 54.6963 218.826 54.1923 220.128V225H52.9183ZM60.3249 225V224.258C63.3349 221.262 65.0149 219.456 65.0149 217.818C65.0149 216.684 64.4129 215.872 63.1389 215.872C62.2989 215.872 61.5709 216.404 60.9969 217.076L60.2549 216.348C61.0949 215.438 61.9909 214.85 63.2929 214.85C65.1269 214.85 66.2749 215.998 66.2749 217.776C66.2749 219.652 64.5529 221.514 62.1869 224.006C62.7189 223.95 63.3489 223.908 63.8669 223.908H66.7649V225H60.3249ZM71.1265 225.196C69.1245 225.196 67.9205 223.334 67.9205 219.988C67.9205 216.642 69.1245 214.85 71.1265 214.85C73.1005 214.85 74.3045 216.642 74.3045 219.988C74.3045 223.334 73.1005 225.196 71.1265 225.196ZM71.1265 224.16C72.2885 224.16 73.0725 222.914 73.0725 219.988C73.0725 217.048 72.2885 215.872 71.1265 215.872C69.9505 215.872 69.1525 217.048 69.1525 219.988C69.1525 222.914 69.9505 224.16 71.1265 224.16ZM76.0482 228.206V217.398H77.0842L77.2102 218.28H77.2522C77.9382 217.706 78.7782 217.216 79.6602 217.216C81.6342 217.216 82.6842 218.742 82.6842 221.094C82.6842 223.684 81.1302 225.196 79.3802 225.196C78.6942 225.196 77.9802 224.874 77.2942 224.314L77.3222 225.644V228.206H76.0482ZM79.1842 224.118C80.4302 224.118 81.3682 222.984 81.3682 221.108C81.3682 219.414 80.7942 218.28 79.3522 218.28C78.7082 218.28 78.0642 218.644 77.3222 219.33V223.334C78.0082 223.908 78.6802 224.118 79.1842 224.118ZM83.111 225L85.603 221.038L83.307 217.398H84.679L85.701 219.064C85.939 219.498 86.191 219.918 86.457 220.352H86.513C86.737 219.918 86.961 219.498 87.199 219.064L88.123 217.398H89.453L87.157 221.164L89.649 225H88.263L87.143 223.222C86.877 222.774 86.597 222.298 86.317 221.864H86.247C85.981 222.298 85.729 222.76 85.477 223.222L84.455 225H83.111ZM96.6474 225V223.936H98.9294V216.586H97.0954V215.76C98.0194 215.592 98.6774 215.354 99.2234 215.032H100.203V223.936H102.275V225H96.6474ZM104.873 225.196C104.369 225.196 103.963 224.79 103.963 224.216C103.963 223.628 104.369 223.236 104.873 223.236C105.391 223.236 105.811 223.628 105.811 224.216C105.811 224.79 105.391 225.196 104.873 225.196ZM107.214 225V224.258C110.224 221.262 111.904 219.456 111.904 217.818C111.904 216.684 111.302 215.872 110.028 215.872C109.188 215.872 108.46 216.404 107.886 217.076L107.144 216.348C107.984 215.438 108.88 214.85 110.182 214.85C112.016 214.85 113.164 215.998 113.164 217.776C113.164 219.652 111.442 221.514 109.076 224.006C109.608 223.95 110.238 223.908 110.756 223.908H113.654V225H107.214ZM117.777 225.196C116.181 225.196 115.201 224.524 114.501 223.824L115.145 222.984C115.719 223.586 116.475 224.132 117.651 224.132C118.869 224.132 119.835 223.25 119.835 221.85C119.835 220.478 118.995 219.652 117.721 219.652C117.035 219.652 116.601 219.876 116.013 220.268L115.327 219.834L115.649 215.032H120.647V216.124H116.769L116.503 219.092C116.965 218.84 117.427 218.686 118.043 218.686C119.751 218.686 121.137 219.652 121.137 221.808C121.137 223.978 119.499 225.196 117.777 225.196ZM122.937 225V217.398H123.973L124.099 218.784H124.141C124.659 217.818 125.443 217.216 126.297 217.216C126.633 217.216 126.857 217.258 127.109 217.37L126.871 218.49C126.605 218.406 126.437 218.364 126.129 218.364C125.499 218.364 124.715 218.826 124.211 220.128V225H122.937ZM130.999 225.196C128.969 225.196 127.359 223.712 127.359 221.22C127.359 218.742 129.025 217.216 130.775 217.216C132.707 217.216 133.799 218.602 133.799 220.786C133.799 221.052 133.785 221.318 133.743 221.514H128.619C128.717 223.124 129.697 224.174 131.153 224.174C131.881 224.174 132.483 223.936 133.043 223.558L133.505 224.412C132.833 224.846 132.035 225.196 130.999 225.196ZM128.605 220.59H132.679C132.679 219.064 131.993 218.238 130.789 218.238C129.725 218.238 128.773 219.092 128.605 220.59ZM135.445 225V217.398H136.481L136.607 218.504H136.649C137.307 217.79 138.105 217.216 139.015 217.216C140.177 217.216 140.807 217.762 141.101 218.658C141.899 217.818 142.697 217.216 143.621 217.216C145.175 217.216 145.931 218.252 145.931 220.184V225H144.657V220.352C144.657 218.924 144.209 218.322 143.229 218.322C142.641 218.322 142.039 218.714 141.325 219.484V225H140.051V220.352C140.051 218.924 139.603 218.322 138.623 218.322C138.049 218.322 137.405 218.714 136.719 219.484V225H135.445Z" fill="#666666"/>
<path d="M13.8 274V260.806H15.474V266.332H21.63V260.806H23.286V274H21.63V267.79H15.474V274H13.8ZM30.4537 274.252C27.8437 274.252 25.7737 272.344 25.7737 269.14C25.7737 265.954 27.9157 263.992 30.1657 263.992C32.6497 263.992 34.0537 265.774 34.0537 268.582C34.0537 268.924 34.0357 269.266 33.9817 269.518H27.3937C27.5197 271.588 28.7797 272.938 30.6517 272.938C31.5877 272.938 32.3617 272.632 33.0817 272.146L33.6757 273.244C32.8117 273.802 31.7857 274.252 30.4537 274.252ZM27.3757 268.33H32.6137C32.6137 266.368 31.7317 265.306 30.1837 265.306C28.8157 265.306 27.5917 266.404 27.3757 268.33ZM38.1545 274.252C36.5165 274.252 35.2925 273.226 35.2925 271.462C35.2925 269.338 37.1285 268.276 41.2865 267.808C41.2865 266.548 40.8905 265.342 39.2885 265.342C38.1365 265.342 37.1105 265.882 36.3545 266.404L35.7065 265.252C36.6065 264.676 37.9745 263.992 39.5405 263.992C41.9345 263.992 42.9425 265.576 42.9425 268.006V274H41.5925L41.4485 272.848H41.3765C40.4585 273.622 39.3605 274.252 38.1545 274.252ZM38.6045 272.92C39.5585 272.92 40.3505 272.47 41.2865 271.624V268.906C37.9925 269.284 36.8945 270.094 36.8945 271.354C36.8945 272.47 37.6505 272.92 38.6045 272.92ZM49.1191 274.252C46.6711 274.252 45.0871 272.398 45.0871 269.14C45.0871 265.954 47.1031 263.992 49.3351 263.992C50.4691 263.992 51.2251 264.406 52.0711 265.126L51.9991 263.434V259.69H53.6371V274H52.2871L52.1431 272.848H52.1071C51.3331 273.622 50.3071 274.252 49.1191 274.252ZM49.4791 272.866C50.3971 272.866 51.1891 272.416 51.9991 271.534V266.404C51.1711 265.648 50.4151 265.36 49.6051 265.36C48.0391 265.36 46.7971 266.89 46.7971 269.122C46.7971 271.462 47.7691 272.866 49.4791 272.866ZM56.7292 274V264.226H58.3672V274H56.7292ZM57.5572 262.21C56.9092 262.21 56.4592 261.796 56.4592 261.112C56.4592 260.482 56.9092 260.068 57.5572 260.068C58.1872 260.068 58.6552 260.482 58.6552 261.112C58.6552 261.796 58.1872 262.21 57.5572 262.21ZM61.4462 274V264.226H62.7782L62.9402 265.648H62.9942C63.9122 264.73 64.9202 263.992 66.2702 263.992C68.3222 263.992 69.2582 265.324 69.2582 267.808V274H67.6022V268.024C67.6022 266.188 67.0442 265.414 65.7482 265.414C64.7582 265.414 64.0562 265.936 63.0842 266.908V274H61.4462ZM75.4866 278.5C73.0926 278.5 71.4366 277.564 71.4366 275.89C71.4366 275.062 71.9766 274.252 72.8766 273.676V273.604C72.3726 273.28 71.9946 272.758 71.9946 271.984C71.9946 271.174 72.5706 270.544 73.0926 270.184V270.112C72.4446 269.59 71.7966 268.654 71.7966 267.484C71.7966 265.324 73.4886 263.992 75.4686 263.992C76.0266 263.992 76.5126 264.1 76.8546 264.226H80.2566V265.504H78.2586C78.7266 265.954 79.0506 266.674 79.0506 267.52C79.0506 269.608 77.4666 270.904 75.4686 270.904C75.0006 270.904 74.4606 270.796 74.0106 270.58C73.6686 270.868 73.3806 271.21 73.3806 271.732C73.3806 272.362 73.7946 272.812 75.1086 272.812H77.0166C79.2846 272.812 80.4186 273.514 80.4186 275.134C80.4186 276.952 78.4926 278.5 75.4866 278.5ZM75.4686 269.806C76.6026 269.806 77.5566 268.888 77.5566 267.484C77.5566 266.044 76.6206 265.18 75.4686 265.18C74.3166 265.18 73.3806 266.026 73.3806 267.484C73.3806 268.888 74.3346 269.806 75.4686 269.806ZM75.7026 277.384C77.5926 277.384 78.8166 276.394 78.8166 275.386C78.8166 274.468 78.1146 274.162 76.8366 274.162H75.1446C74.7666 274.162 74.3166 274.126 73.8666 274C73.1646 274.504 72.8766 275.098 72.8766 275.656C72.8766 276.718 73.9386 277.384 75.7026 277.384ZM88.9761 274.252C86.9061 274.252 85.6281 273.388 84.7641 272.434L85.5921 271.354C86.3661 272.164 87.3561 272.884 88.8681 272.884C90.4341 272.884 91.5501 271.966 91.5501 270.526C91.5501 268.996 90.4881 267.97 87.4461 267.97V266.71C90.1641 266.71 91.0821 265.648 91.0821 264.298C91.0821 263.056 90.2361 262.264 88.8681 262.264C87.8061 262.264 86.8701 262.822 86.1321 263.578L85.2501 262.534C86.2401 261.616 87.4101 260.95 88.9221 260.95C91.1361 260.95 92.7561 262.12 92.7561 264.19C92.7561 265.738 91.8201 266.728 90.4161 267.25V267.322C91.9641 267.682 93.2241 268.834 93.2241 270.58C93.2241 272.866 91.3341 274.252 88.9761 274.252Z" fill="black"/>
<path d="M13.288 295V287.398H14.324L14.45 288.784H14.492C15.01 287.818 15.794 287.216 16.648 287.216C16.984 287.216 17.208 287.258 17.46 287.37L17.222 288.49C16.956 288.406 16.788 288.364 16.48 288.364C15.85 288.364 15.066 288.826 14.562 290.128V295H13.288ZM21.3503 295.196C19.3203 295.196 17.7103 293.712 17.7103 291.22C17.7103 288.742 19.3763 287.216 21.1263 287.216C23.0583 287.216 24.1503 288.602 24.1503 290.786C24.1503 291.052 24.1363 291.318 24.0943 291.514H18.9703C19.0683 293.124 20.0483 294.174 21.5043 294.174C22.2323 294.174 22.8343 293.936 23.3943 293.558L23.8563 294.412C23.1843 294.846 22.3863 295.196 21.3503 295.196ZM18.9563 290.59H23.0303C23.0303 289.064 22.3443 288.238 21.1403 288.238C20.0763 288.238 19.1243 289.092 18.9563 290.59ZM28.1669 298.5C26.3049 298.5 25.0169 297.772 25.0169 296.47C25.0169 295.826 25.4369 295.196 26.1369 294.748V294.692C25.7449 294.44 25.4509 294.034 25.4509 293.432C25.4509 292.802 25.8989 292.312 26.3049 292.032V291.976C25.8009 291.57 25.2969 290.842 25.2969 289.932C25.2969 288.252 26.6129 287.216 28.1529 287.216C28.5869 287.216 28.9649 287.3 29.2309 287.398H31.8769V288.392H30.3229C30.6869 288.742 30.9389 289.302 30.9389 289.96C30.9389 291.584 29.7069 292.592 28.1529 292.592C27.7889 292.592 27.3689 292.508 27.0189 292.34C26.7529 292.564 26.5289 292.83 26.5289 293.236C26.5289 293.726 26.8509 294.076 27.8729 294.076H29.3569C31.1209 294.076 32.0029 294.622 32.0029 295.882C32.0029 297.296 30.5049 298.5 28.1669 298.5ZM28.1529 291.738C29.0349 291.738 29.7769 291.024 29.7769 289.932C29.7769 288.812 29.0489 288.14 28.1529 288.14C27.2569 288.14 26.5289 288.798 26.5289 289.932C26.5289 291.024 27.2709 291.738 28.1529 291.738ZM28.3349 297.632C29.8049 297.632 30.7569 296.862 30.7569 296.078C30.7569 295.364 30.2109 295.126 29.2169 295.126H27.9009C27.6069 295.126 27.2569 295.098 26.9069 295C26.3609 295.392 26.1369 295.854 26.1369 296.288C26.1369 297.114 26.9629 297.632 28.3349 297.632ZM35.4792 295.196C33.8832 295.196 33.1552 294.16 33.1552 292.214V287.398H34.4292V292.06C34.4292 293.474 34.8632 294.076 35.8712 294.076C36.6412 294.076 37.2012 293.698 37.9152 292.802V287.398H39.1892V295H38.1392L38.0272 293.81H37.9992C37.2852 294.636 36.5292 295.196 35.4792 295.196ZM42.8751 295.196C41.9091 295.196 41.5311 294.58 41.5311 293.488V283.87H42.8051V293.572C42.8051 293.978 42.9731 294.132 43.1691 294.132C43.2251 294.132 43.2811 294.132 43.4351 294.104L43.6031 295.084C43.4211 295.14 43.2251 295.196 42.8751 295.196ZM47.0196 295.196C45.7456 295.196 44.7936 294.398 44.7936 293.026C44.7936 291.374 46.2216 290.548 49.4556 290.184C49.4556 289.204 49.1476 288.266 47.9016 288.266C47.0056 288.266 46.2076 288.686 45.6196 289.092L45.1156 288.196C45.8156 287.748 46.8796 287.216 48.0976 287.216C49.9596 287.216 50.7436 288.448 50.7436 290.338V295H49.6936L49.5816 294.104H49.5256C48.8116 294.706 47.9576 295.196 47.0196 295.196ZM47.3696 294.16C48.1116 294.16 48.7276 293.81 49.4556 293.152V291.038C46.8936 291.332 46.0396 291.962 46.0396 292.942C46.0396 293.81 46.6276 294.16 47.3696 294.16ZM52.9183 295V287.398H53.9543L54.0803 288.784H54.1223C54.6403 287.818 55.4243 287.216 56.2783 287.216C56.6143 287.216 56.8383 287.258 57.0903 287.37L56.8523 288.49C56.5863 288.406 56.4183 288.364 56.1103 288.364C55.4803 288.364 54.6963 288.826 54.1923 290.128V295H52.9183ZM60.9409 295V293.936H63.2229V286.586H61.3889V285.76C62.3129 285.592 62.9709 285.354 63.5169 285.032H64.4969V293.936H66.5689V295H60.9409ZM71.1405 295.196C69.2505 295.196 67.8645 294.048 67.8645 292.466C67.8645 291.15 68.8165 290.254 69.7545 289.764V289.708C69.0125 289.19 68.3545 288.448 68.3545 287.398C68.3545 285.858 69.5725 284.85 71.1825 284.85C72.9325 284.85 73.9965 285.942 73.9965 287.496C73.9965 288.546 73.2265 289.428 72.6245 289.89V289.96C73.5065 290.492 74.3605 291.192 74.3605 292.536C74.3605 294.034 73.0585 295.196 71.1405 295.196ZM71.8405 289.568C72.5265 288.952 72.9045 288.294 72.9045 287.552C72.9045 286.572 72.2605 285.788 71.1545 285.788C70.2165 285.788 69.5305 286.432 69.5305 287.398C69.5305 288.588 70.6365 289.092 71.8405 289.568ZM71.1685 294.23C72.3445 294.23 73.1285 293.516 73.1285 292.494C73.1285 291.192 71.8685 290.744 70.4265 290.156C69.6005 290.688 69.0125 291.416 69.0125 292.34C69.0125 293.432 69.9365 294.23 71.1685 294.23ZM76.0482 298.206V287.398H77.0842L77.2102 288.28H77.2522C77.9382 287.706 78.7782 287.216 79.6602 287.216C81.6342 287.216 82.6842 288.742 82.6842 291.094C82.6842 293.684 81.1302 295.196 79.3802 295.196C78.6942 295.196 77.9802 294.874 77.2942 294.314L77.3222 295.644V298.206H76.0482ZM79.1842 294.118C80.4302 294.118 81.3682 292.984 81.3682 291.108C81.3682 289.414 80.7942 288.28 79.3522 288.28C78.7082 288.28 78.0642 288.644 77.3222 289.33V293.334C78.0082 293.908 78.6802 294.118 79.1842 294.118ZM83.111 295L85.603 291.038L83.307 287.398H84.679L85.701 289.064C85.939 289.498 86.191 289.918 86.457 290.352H86.513C86.737 289.918 86.961 289.498 87.199 289.064L88.123 287.398H89.453L87.157 291.164L89.649 295H88.263L87.143 293.222C86.877 292.774 86.597 292.298 86.317 291.864H86.247C85.981 292.298 85.729 292.76 85.477 293.222L84.455 295H83.111ZM96.6474 295V293.936H98.9294V286.586H97.0954V285.76C98.0194 285.592 98.6774 285.354 99.2234 285.032H100.203V293.936H102.275V295H96.6474ZM104.873 295.196C104.369 295.196 103.963 294.79 103.963 294.216C103.963 293.628 104.369 293.236 104.873 293.236C105.391 293.236 105.811 293.628 105.811 294.216C105.811 294.79 105.391 295.196 104.873 295.196ZM107.83 295V293.936H110.112V286.586H108.278V285.76C109.202 285.592 109.86 285.354 110.406 285.032H111.386V293.936H113.458V295H107.83ZM114.739 295V294.258C117.749 291.262 119.429 289.456 119.429 287.818C119.429 286.684 118.827 285.872 117.553 285.872C116.713 285.872 115.985 286.404 115.411 287.076L114.669 286.348C115.509 285.438 116.405 284.85 117.707 284.85C119.541 284.85 120.689 285.998 120.689 287.776C120.689 289.652 118.967 291.514 116.601 294.006C117.133 293.95 117.763 293.908 118.281 293.908H121.179V295H114.739ZM125.303 295.196C123.707 295.196 122.727 294.524 122.027 293.824L122.671 292.984C123.245 293.586 124.001 294.132 125.177 294.132C126.395 294.132 127.361 293.25 127.361 291.85C127.361 290.478 126.521 289.652 125.247 289.652C124.561 289.652 124.127 289.876 123.539 290.268L122.853 289.834L123.175 285.032H128.173V286.124H124.295L124.029 289.092C124.491 288.84 124.953 288.686 125.569 288.686C127.277 288.686 128.663 289.652 128.663 291.808C128.663 293.978 127.025 295.196 125.303 295.196ZM130.462 295V287.398H131.498L131.624 288.784H131.666C132.184 287.818 132.968 287.216 133.822 287.216C134.158 287.216 134.382 287.258 134.634 287.37L134.396 288.49C134.13 288.406 133.962 288.364 133.654 288.364C133.024 288.364 132.24 288.826 131.736 290.128V295H130.462ZM138.525 295.196C136.495 295.196 134.885 293.712 134.885 291.22C134.885 288.742 136.551 287.216 138.301 287.216C140.233 287.216 141.325 288.602 141.325 290.786C141.325 291.052 141.311 291.318 141.269 291.514H136.145C136.243 293.124 137.223 294.174 138.679 294.174C139.407 294.174 140.009 293.936 140.569 293.558L141.031 294.412C140.359 294.846 139.561 295.196 138.525 295.196ZM136.131 290.59H140.205C140.205 289.064 139.519 288.238 138.315 288.238C137.251 288.238 136.299 289.092 136.131 290.59ZM142.971 295V287.398H144.007L144.133 288.504H144.175C144.833 287.79 145.631 287.216 146.541 287.216C147.703 287.216 148.333 287.762 148.627 288.658C149.425 287.818 150.223 287.216 151.147 287.216C152.701 287.216 153.457 288.252 153.457 290.184V295H152.183V290.352C152.183 288.924 151.735 288.322 150.755 288.322C150.167 288.322 149.565 288.714 148.851 289.484V295H147.577V290.352C147.577 288.924 147.129 288.322 146.149 288.322C145.575 288.322 144.931 288.714 144.245 289.484V295H142.971Z" fill="#666666"/>
<path d="M13.7 343V330.539H15.281V335.758H21.095V330.539H22.659V343H21.095V337.135H15.281V343H13.7ZM29.4152 343.238C26.9502 343.238 24.9952 341.436 24.9952 338.41C24.9952 335.401 27.0182 333.548 29.1432 333.548C31.4892 333.548 32.8152 335.231 32.8152 337.883C32.8152 338.206 32.7982 338.529 32.7472 338.767H26.5252C26.6442 340.722 27.8342 341.997 29.6022 341.997C30.4862 341.997 31.2172 341.708 31.8972 341.249L32.4582 342.286C31.6422 342.813 30.6732 343.238 29.4152 343.238ZM26.5082 337.645H31.4552C31.4552 335.792 30.6222 334.789 29.1602 334.789C27.8682 334.789 26.7122 335.826 26.5082 337.645ZM36.6748 343.238C35.1278 343.238 33.9718 342.269 33.9718 340.603C33.9718 338.597 35.7058 337.594 39.6328 337.152C39.6328 335.962 39.2588 334.823 37.7458 334.823C36.6578 334.823 35.6888 335.333 34.9748 335.826L34.3628 334.738C35.2128 334.194 36.5048 333.548 37.9838 333.548C40.2448 333.548 41.1968 335.044 41.1968 337.339V343H39.9218L39.7858 341.912H39.7178C38.8508 342.643 37.8138 343.238 36.6748 343.238ZM37.0998 341.98C38.0008 341.98 38.7488 341.555 39.6328 340.756V338.189C36.5218 338.546 35.4848 339.311 35.4848 340.501C35.4848 341.555 36.1988 341.98 37.0998 341.98ZM47.0169 343.238C44.7049 343.238 43.2089 341.487 43.2089 338.41C43.2089 335.401 45.1129 333.548 47.2209 333.548C48.2919 333.548 49.0059 333.939 49.8049 334.619L49.7369 333.021V329.485H51.2839V343H50.0089L49.8729 341.912H49.8389C49.1079 342.643 48.1389 343.238 47.0169 343.238ZM47.3569 341.929C48.2239 341.929 48.9719 341.504 49.7369 340.671V335.826C48.9549 335.112 48.2409 334.84 47.4759 334.84C45.9969 334.84 44.8239 336.285 44.8239 338.393C44.8239 340.603 45.7419 341.929 47.3569 341.929ZM54.1909 343V333.769H55.7379V343H54.1909ZM54.9729 331.865C54.3609 331.865 53.9359 331.474 53.9359 330.828C53.9359 330.233 54.3609 329.842 54.9729 329.842C55.5679 329.842 56.0099 330.233 56.0099 330.828C56.0099 331.474 55.5679 331.865 54.9729 331.865ZM58.6326 343V333.769H59.8906L60.0436 335.112H60.0946C60.9616 334.245 61.9136 333.548 63.1886 333.548C65.1266 333.548 66.0106 334.806 66.0106 337.152V343H64.4466V337.356C64.4466 335.622 63.9196 334.891 62.6956 334.891C61.7606 334.891 61.0976 335.384 60.1796 336.302V343H58.6326ZM71.8795 347.25C69.6185 347.25 68.0545 346.366 68.0545 344.785C68.0545 344.003 68.5645 343.238 69.4145 342.694V342.626C68.9385 342.32 68.5815 341.827 68.5815 341.096C68.5815 340.331 69.1255 339.736 69.6185 339.396V339.328C69.0065 338.835 68.3945 337.951 68.3945 336.846C68.3945 334.806 69.9925 333.548 71.8625 333.548C72.3895 333.548 72.8485 333.65 73.1715 333.769H76.3845V334.976H74.4975C74.9395 335.401 75.2455 336.081 75.2455 336.88C75.2455 338.852 73.7495 340.076 71.8625 340.076C71.4205 340.076 70.9105 339.974 70.4855 339.77C70.1625 340.042 69.8905 340.365 69.8905 340.858C69.8905 341.453 70.2815 341.878 71.5225 341.878H73.3245C75.4665 341.878 76.5375 342.541 76.5375 344.071C76.5375 345.788 74.7185 347.25 71.8795 347.25ZM71.8625 339.039C72.9335 339.039 73.8345 338.172 73.8345 336.846C73.8345 335.486 72.9505 334.67 71.8625 334.67C70.7745 334.67 69.8905 335.469 69.8905 336.846C69.8905 338.172 70.7915 339.039 71.8625 339.039ZM72.0835 346.196C73.8685 346.196 75.0245 345.261 75.0245 344.309C75.0245 343.442 74.3615 343.153 73.1545 343.153H71.5565C71.1995 343.153 70.7745 343.119 70.3495 343C69.6865 343.476 69.4145 344.037 69.4145 344.564C69.4145 345.567 70.4175 346.196 72.0835 346.196ZM85.885 343V334.874C85.885 334.245 85.936 333.191 85.987 332.562H85.902C85.596 333.123 85.256 333.667 84.916 334.262L82.077 338.427H89.013V339.651H80.445V338.631L85.63 330.896H87.347V343H85.885Z" fill="black"/>
<path d="M13.288 364V356.398H14.324L14.45 357.784H14.492C15.01 356.818 15.794 356.216 16.648 356.216C16.984 356.216 17.208 356.258 17.46 356.37L17.222 357.49C16.956 357.406 16.788 357.364 16.48 357.364C15.85 357.364 15.066 357.826 14.562 359.128V364H13.288ZM21.3503 364.196C19.3203 364.196 17.7103 362.712 17.7103 360.22C17.7103 357.742 19.3763 356.216 21.1263 356.216C23.0583 356.216 24.1503 357.602 24.1503 359.786C24.1503 360.052 24.1363 360.318 24.0943 360.514H18.9703C19.0683 362.124 20.0483 363.174 21.5043 363.174C22.2323 363.174 22.8343 362.936 23.3943 362.558L23.8563 363.412C23.1843 363.846 22.3863 364.196 21.3503 364.196ZM18.9563 359.59H23.0303C23.0303 358.064 22.3443 357.238 21.1403 357.238C20.0763 357.238 19.1243 358.092 18.9563 359.59ZM28.1669 367.5C26.3049 367.5 25.0169 366.772 25.0169 365.47C25.0169 364.826 25.4369 364.196 26.1369 363.748V363.692C25.7449 363.44 25.4509 363.034 25.4509 362.432C25.4509 361.802 25.8989 361.312 26.3049 361.032V360.976C25.8009 360.57 25.2969 359.842 25.2969 358.932C25.2969 357.252 26.6129 356.216 28.1529 356.216C28.5869 356.216 28.9649 356.3 29.2309 356.398H31.8769V357.392H30.3229C30.6869 357.742 30.9389 358.302 30.9389 358.96C30.9389 360.584 29.7069 361.592 28.1529 361.592C27.7889 361.592 27.3689 361.508 27.0189 361.34C26.7529 361.564 26.5289 361.83 26.5289 362.236C26.5289 362.726 26.8509 363.076 27.8729 363.076H29.3569C31.1209 363.076 32.0029 363.622 32.0029 364.882C32.0029 366.296 30.5049 367.5 28.1669 367.5ZM28.1529 360.738C29.0349 360.738 29.7769 360.024 29.7769 358.932C29.7769 357.812 29.0489 357.14 28.1529 357.14C27.2569 357.14 26.5289 357.798 26.5289 358.932C26.5289 360.024 27.2709 360.738 28.1529 360.738ZM28.3349 366.632C29.8049 366.632 30.7569 365.862 30.7569 365.078C30.7569 364.364 30.2109 364.126 29.2169 364.126H27.9009C27.6069 364.126 27.2569 364.098 26.9069 364C26.3609 364.392 26.1369 364.854 26.1369 365.288C26.1369 366.114 26.9629 366.632 28.3349 366.632ZM35.4792 364.196C33.8832 364.196 33.1552 363.16 33.1552 361.214V356.398H34.4292V361.06C34.4292 362.474 34.8632 363.076 35.8712 363.076C36.6412 363.076 37.2012 362.698 37.9152 361.802V356.398H39.1892V364H38.1392L38.0272 362.81H37.9992C37.2852 363.636 36.5292 364.196 35.4792 364.196ZM42.8751 364.196C41.9091 364.196 41.5311 363.58 41.5311 362.488V352.87H42.8051V362.572C42.8051 362.978 42.9731 363.132 43.1691 363.132C43.2251 363.132 43.2811 363.132 43.4351 363.104L43.6031 364.084C43.4211 364.14 43.2251 364.196 42.8751 364.196ZM47.0196 364.196C45.7456 364.196 44.7936 363.398 44.7936 362.026C44.7936 360.374 46.2216 359.548 49.4556 359.184C49.4556 358.204 49.1476 357.266 47.9016 357.266C47.0056 357.266 46.2076 357.686 45.6196 358.092L45.1156 357.196C45.8156 356.748 46.8796 356.216 48.0976 356.216C49.9596 356.216 50.7436 357.448 50.7436 359.338V364H49.6936L49.5816 363.104H49.5256C48.8116 363.706 47.9576 364.196 47.0196 364.196ZM47.3696 363.16C48.1116 363.16 48.7276 362.81 49.4556 362.152V360.038C46.8936 360.332 46.0396 360.962 46.0396 361.942C46.0396 362.81 46.6276 363.16 47.3696 363.16ZM52.9183 364V356.398H53.9543L54.0803 357.784H54.1223C54.6403 356.818 55.4243 356.216 56.2783 356.216C56.6143 356.216 56.8383 356.258 57.0903 356.37L56.8523 357.49C56.5863 357.406 56.4183 357.364 56.1103 357.364C55.4803 357.364 54.6963 357.826 54.1923 359.128V364H52.9183ZM60.9409 364V362.936H63.2229V355.586H61.3889V354.76C62.3129 354.592 62.9709 354.354 63.5169 354.032H64.4969V362.936H66.5689V364H60.9409ZM69.9925 364C70.1745 360.248 70.9305 357.854 72.8905 355.124H67.9205V354.032H74.3325V354.816C71.9805 357.826 71.4905 360.108 71.3225 364H69.9925ZM76.0482 367.206V356.398H77.0842L77.2102 357.28H77.2522C77.9382 356.706 78.7782 356.216 79.6602 356.216C81.6342 356.216 82.6842 357.742 82.6842 360.094C82.6842 362.684 81.1302 364.196 79.3802 364.196C78.6942 364.196 77.9802 363.874 77.2942 363.314L77.3222 364.644V367.206H76.0482ZM79.1842 363.118C80.4302 363.118 81.3682 361.984 81.3682 360.108C81.3682 358.414 80.7942 357.28 79.3522 357.28C78.7082 357.28 78.0642 357.644 77.3222 358.33V362.334C78.0082 362.908 78.6802 363.118 79.1842 363.118ZM83.111 364L85.603 360.038L83.307 356.398H84.679L85.701 358.064C85.939 358.498 86.191 358.918 86.457 359.352H86.513C86.737 358.918 86.961 358.498 87.199 358.064L88.123 356.398H89.453L87.157 360.164L89.649 364H88.263L87.143 362.222C86.877 361.774 86.597 361.298 86.317 360.864H86.247C85.981 361.298 85.729 361.76 85.477 362.222L84.455 364H83.111ZM96.6474 364V362.936H98.9294V355.586H97.0954V354.76C98.0194 354.592 98.6774 354.354 99.2234 354.032H100.203V362.936H102.275V364H96.6474ZM104.873 364.196C104.369 364.196 103.963 363.79 103.963 363.216C103.963 362.628 104.369 362.236 104.873 362.236C105.391 362.236 105.811 362.628 105.811 363.216C105.811 363.79 105.391 364.196 104.873 364.196ZM110.49 364.196C108.488 364.196 107.284 362.334 107.284 358.988C107.284 355.642 108.488 353.85 110.49 353.85C112.464 353.85 113.668 355.642 113.668 358.988C113.668 362.334 112.464 364.196 110.49 364.196ZM110.49 363.16C111.652 363.16 112.436 361.914 112.436 358.988C112.436 356.048 111.652 354.872 110.49 354.872C109.314 354.872 108.516 356.048 108.516 358.988C108.516 361.914 109.314 363.16 110.49 363.16ZM118.323 364.196C116.349 364.196 114.865 362.6 114.865 359.394C114.865 355.376 116.685 353.85 118.673 353.85C119.737 353.85 120.521 354.298 121.067 354.886L120.367 355.684C119.961 355.208 119.345 354.914 118.715 354.914C117.287 354.914 116.083 356.034 116.083 359.394C116.083 361.858 116.867 363.188 118.309 363.188C119.303 363.188 120.059 362.306 120.059 360.99C120.059 359.688 119.443 358.862 118.197 358.862C117.553 358.862 116.741 359.254 116.041 360.29L115.999 359.268C116.643 358.428 117.567 357.91 118.407 357.91C120.129 357.91 121.263 358.946 121.263 360.99C121.263 362.908 119.905 364.196 118.323 364.196ZM125.331 364.196C123.721 364.196 122.727 363.524 122.055 362.782L122.699 361.942C123.301 362.572 124.071 363.132 125.247 363.132C126.465 363.132 127.333 362.418 127.333 361.298C127.333 360.108 126.507 359.31 124.141 359.31V358.33C126.255 358.33 126.969 357.504 126.969 356.454C126.969 355.488 126.311 354.872 125.247 354.872C124.421 354.872 123.693 355.306 123.119 355.894L122.433 355.082C123.203 354.368 124.113 353.85 125.289 353.85C127.011 353.85 128.271 354.76 128.271 356.37C128.271 357.574 127.543 358.344 126.451 358.75V358.806C127.655 359.086 128.635 359.982 128.635 361.34C128.635 363.118 127.165 364.196 125.331 364.196ZM130.462 364V356.398H131.498L131.624 357.784H131.666C132.184 356.818 132.968 356.216 133.822 356.216C134.158 356.216 134.382 356.258 134.634 356.37L134.396 357.49C134.13 357.406 133.962 357.364 133.654 357.364C133.024 357.364 132.24 357.826 131.736 359.128V364H130.462ZM138.525 364.196C136.495 364.196 134.885 362.712 134.885 360.22C134.885 357.742 136.551 356.216 138.301 356.216C140.233 356.216 141.325 357.602 141.325 359.786C141.325 360.052 141.311 360.318 141.269 360.514H136.145C136.243 362.124 137.223 363.174 138.679 363.174C139.407 363.174 140.009 362.936 140.569 362.558L141.031 363.412C140.359 363.846 139.561 364.196 138.525 364.196ZM136.131 359.59H140.205C140.205 358.064 139.519 357.238 138.315 357.238C137.251 357.238 136.299 358.092 136.131 359.59ZM142.971 364V356.398H144.007L144.133 357.504H144.175C144.833 356.79 145.631 356.216 146.541 356.216C147.703 356.216 148.333 356.762 148.627 357.658C149.425 356.818 150.223 356.216 151.147 356.216C152.701 356.216 153.457 357.252 153.457 359.184V364H152.183V359.352C152.183 357.924 151.735 357.322 150.755 357.322C150.167 357.322 149.565 357.714 148.851 358.484V364H147.577V359.352C147.577 357.924 147.129 357.322 146.149 357.322C145.575 357.322 144.931 357.714 144.245 358.484V364H142.971Z" fill="#666666"/>
<path d="M13.6 410V398.272H15.088V403.184H20.56V398.272H22.032V410H20.56V404.48H15.088V410H13.6ZM28.3766 410.224C26.0566 410.224 24.2166 408.528 24.2166 405.68C24.2166 402.848 26.1206 401.104 28.1206 401.104C30.3286 401.104 31.5766 402.688 31.5766 405.184C31.5766 405.488 31.5606 405.792 31.5126 406.016H25.6566C25.7686 407.856 26.8886 409.056 28.5526 409.056C29.3846 409.056 30.0726 408.784 30.7126 408.352L31.2406 409.328C30.4726 409.824 29.5606 410.224 28.3766 410.224ZM25.6406 404.96H30.2966C30.2966 403.216 29.5126 402.272 28.1366 402.272C26.9206 402.272 25.8326 403.248 25.6406 404.96ZM35.1951 410.224C33.7391 410.224 32.6511 409.312 32.6511 407.744C32.6511 405.856 34.2831 404.912 37.9791 404.496C37.9791 403.376 37.6271 402.304 36.2031 402.304C35.1791 402.304 34.2671 402.784 33.5951 403.248L33.0191 402.224C33.8191 401.712 35.0351 401.104 36.4271 401.104C38.5551 401.104 39.4511 402.512 39.4511 404.672V410H38.2511L38.1231 408.976H38.0591C37.2431 409.664 36.2671 410.224 35.1951 410.224ZM35.5951 409.04C36.4431 409.04 37.1471 408.64 37.9791 407.888V405.472C35.0511 405.808 34.0751 406.528 34.0751 407.648C34.0751 408.64 34.7471 409.04 35.5951 409.04ZM44.9148 410.224C42.7388 410.224 41.3308 408.576 41.3308 405.68C41.3308 402.848 43.1228 401.104 45.1068 401.104C46.1148 401.104 46.7868 401.472 47.5388 402.112L47.4748 400.608V397.28H48.9308V410H47.7308L47.6028 408.976H47.5708C46.8828 409.664 45.9708 410.224 44.9148 410.224ZM45.2348 408.992C46.0508 408.992 46.7548 408.592 47.4748 407.808V403.248C46.7388 402.576 46.0668 402.32 45.3468 402.32C43.9548 402.32 42.8508 403.68 42.8508 405.664C42.8508 407.744 43.7148 408.992 45.2348 408.992ZM51.6526 410V401.312H53.1086V410H51.6526ZM52.3886 399.52C51.8126 399.52 51.4126 399.152 51.4126 398.544C51.4126 397.984 51.8126 397.616 52.3886 397.616C52.9486 397.616 53.3646 397.984 53.3646 398.544C53.3646 399.152 52.9486 399.52 52.3886 399.52ZM55.8189 410V401.312H57.0029L57.1469 402.576H57.1949C58.0109 401.76 58.9069 401.104 60.1069 401.104C61.9309 401.104 62.7629 402.288 62.7629 404.496V410H61.2909V404.688C61.2909 403.056 60.7949 402.368 59.6429 402.368C58.7629 402.368 58.1389 402.832 57.2749 403.696V410H55.8189ZM68.2725 414C66.1445 414 64.6725 413.168 64.6725 411.68C64.6725 410.944 65.1525 410.224 65.9525 409.712V409.648C65.5045 409.36 65.1685 408.896 65.1685 408.208C65.1685 407.488 65.6805 406.928 66.1445 406.608V406.544C65.5685 406.08 64.9925 405.248 64.9925 404.208C64.9925 402.288 66.4965 401.104 68.2565 401.104C68.7525 401.104 69.1845 401.2 69.4885 401.312H72.5125V402.448H70.7365C71.1525 402.848 71.4405 403.488 71.4405 404.24C71.4405 406.096 70.0325 407.248 68.2565 407.248C67.8405 407.248 67.3605 407.152 66.9605 406.96C66.6565 407.216 66.4005 407.52 66.4005 407.984C66.4005 408.544 66.7685 408.944 67.9365 408.944H69.6325C71.6485 408.944 72.6565 409.568 72.6565 411.008C72.6565 412.624 70.9445 414 68.2725 414ZM68.2565 406.272C69.2645 406.272 70.1125 405.456 70.1125 404.208C70.1125 402.928 69.2805 402.16 68.2565 402.16C67.2325 402.16 66.4005 402.912 66.4005 404.208C66.4005 405.456 67.2485 406.272 68.2565 406.272ZM68.4645 413.008C70.1445 413.008 71.2325 412.128 71.2325 411.232C71.2325 410.416 70.6085 410.144 69.4725 410.144H67.9685C67.6325 410.144 67.2325 410.112 66.8325 410C66.2085 410.448 65.9525 410.976 65.9525 411.472C65.9525 412.416 66.8965 413.008 68.4645 413.008ZM80.1779 410.224C78.3539 410.224 77.2339 409.456 76.4339 408.656L77.1699 407.696C77.8259 408.384 78.6899 409.008 80.0339 409.008C81.4259 409.008 82.5299 408 82.5299 406.4C82.5299 404.832 81.5699 403.888 80.1139 403.888C79.3299 403.888 78.8339 404.144 78.1619 404.592L77.3779 404.096L77.7459 398.608H83.4579V399.856H79.0259L78.7219 403.248C79.2499 402.96 79.7779 402.784 80.4819 402.784C82.4339 402.784 84.0179 403.888 84.0179 406.352C84.0179 408.832 82.1459 410.224 80.1779 410.224Z" fill="black"/>
<path d="M13.288 431V423.398H14.324L14.45 424.784H14.492C15.01 423.818 15.794 423.216 16.648 423.216C16.984 423.216 17.208 423.258 17.46 423.37L17.222 424.49C16.956 424.406 16.788 424.364 16.48 424.364C15.85 424.364 15.066 424.826 14.562 426.128V431H13.288ZM21.3503 431.196C19.3203 431.196 17.7103 429.712 17.7103 427.22C17.7103 424.742 19.3763 423.216 21.1263 423.216C23.0583 423.216 24.1503 424.602 24.1503 426.786C24.1503 427.052 24.1363 427.318 24.0943 427.514H18.9703C19.0683 429.124 20.0483 430.174 21.5043 430.174C22.2323 430.174 22.8343 429.936 23.3943 429.558L23.8563 430.412C23.1843 430.846 22.3863 431.196 21.3503 431.196ZM18.9563 426.59H23.0303C23.0303 425.064 22.3443 424.238 21.1403 424.238C20.0763 424.238 19.1243 425.092 18.9563 426.59ZM28.1669 434.5C26.3049 434.5 25.0169 433.772 25.0169 432.47C25.0169 431.826 25.4369 431.196 26.1369 430.748V430.692C25.7449 430.44 25.4509 430.034 25.4509 429.432C25.4509 428.802 25.8989 428.312 26.3049 428.032V427.976C25.8009 427.57 25.2969 426.842 25.2969 425.932C25.2969 424.252 26.6129 423.216 28.1529 423.216C28.5869 423.216 28.9649 423.3 29.2309 423.398H31.8769V424.392H30.3229C30.6869 424.742 30.9389 425.302 30.9389 425.96C30.9389 427.584 29.7069 428.592 28.1529 428.592C27.7889 428.592 27.3689 428.508 27.0189 428.34C26.7529 428.564 26.5289 428.83 26.5289 429.236C26.5289 429.726 26.8509 430.076 27.8729 430.076H29.3569C31.1209 430.076 32.0029 430.622 32.0029 431.882C32.0029 433.296 30.5049 434.5 28.1669 434.5ZM28.1529 427.738C29.0349 427.738 29.7769 427.024 29.7769 425.932C29.7769 424.812 29.0489 424.14 28.1529 424.14C27.2569 424.14 26.5289 424.798 26.5289 425.932C26.5289 427.024 27.2709 427.738 28.1529 427.738ZM28.3349 433.632C29.8049 433.632 30.7569 432.862 30.7569 432.078C30.7569 431.364 30.2109 431.126 29.2169 431.126H27.9009C27.6069 431.126 27.2569 431.098 26.9069 431C26.3609 431.392 26.1369 431.854 26.1369 432.288C26.1369 433.114 26.9629 433.632 28.3349 433.632ZM35.4792 431.196C33.8832 431.196 33.1552 430.16 33.1552 428.214V423.398H34.4292V428.06C34.4292 429.474 34.8632 430.076 35.8712 430.076C36.6412 430.076 37.2012 429.698 37.9152 428.802V423.398H39.1892V431H38.1392L38.0272 429.81H37.9992C37.2852 430.636 36.5292 431.196 35.4792 431.196ZM42.8751 431.196C41.9091 431.196 41.5311 430.58 41.5311 429.488V419.87H42.8051V429.572C42.8051 429.978 42.9731 430.132 43.1691 430.132C43.2251 430.132 43.2811 430.132 43.4351 430.104L43.6031 431.084C43.4211 431.14 43.2251 431.196 42.8751 431.196ZM47.0196 431.196C45.7456 431.196 44.7936 430.398 44.7936 429.026C44.7936 427.374 46.2216 426.548 49.4556 426.184C49.4556 425.204 49.1476 424.266 47.9016 424.266C47.0056 424.266 46.2076 424.686 45.6196 425.092L45.1156 424.196C45.8156 423.748 46.8796 423.216 48.0976 423.216C49.9596 423.216 50.7436 424.448 50.7436 426.338V431H49.6936L49.5816 430.104H49.5256C48.8116 430.706 47.9576 431.196 47.0196 431.196ZM47.3696 430.16C48.1116 430.16 48.7276 429.81 49.4556 429.152V427.038C46.8936 427.332 46.0396 427.962 46.0396 428.942C46.0396 429.81 46.6276 430.16 47.3696 430.16ZM52.9183 431V423.398H53.9543L54.0803 424.784H54.1223C54.6403 423.818 55.4243 423.216 56.2783 423.216C56.6143 423.216 56.8383 423.258 57.0903 423.37L56.8523 424.49C56.5863 424.406 56.4183 424.364 56.1103 424.364C55.4803 424.364 54.6963 424.826 54.1923 426.128V431H52.9183ZM60.9409 431V429.936H63.2229V422.586H61.3889V421.76C62.3129 421.592 62.9709 421.354 63.5169 421.032H64.4969V429.936H66.5689V431H60.9409ZM71.4345 431.196C69.4605 431.196 67.9765 429.6 67.9765 426.394C67.9765 422.376 69.7965 420.85 71.7845 420.85C72.8485 420.85 73.6325 421.298 74.1785 421.886L73.4785 422.684C73.0725 422.208 72.4565 421.914 71.8265 421.914C70.3985 421.914 69.1945 423.034 69.1945 426.394C69.1945 428.858 69.9785 430.188 71.4205 430.188C72.4145 430.188 73.1705 429.306 73.1705 427.99C73.1705 426.688 72.5545 425.862 71.3085 425.862C70.6645 425.862 69.8525 426.254 69.1525 427.29L69.1105 426.268C69.7545 425.428 70.6785 424.91 71.5185 424.91C73.2405 424.91 74.3745 425.946 74.3745 427.99C74.3745 429.908 73.0165 431.196 71.4345 431.196ZM76.0482 434.206V423.398H77.0842L77.2102 424.28H77.2522C77.9382 423.706 78.7782 423.216 79.6602 423.216C81.6342 423.216 82.6842 424.742 82.6842 427.094C82.6842 429.684 81.1302 431.196 79.3802 431.196C78.6942 431.196 77.9802 430.874 77.2942 430.314L77.3222 431.644V434.206H76.0482ZM79.1842 430.118C80.4302 430.118 81.3682 428.984 81.3682 427.108C81.3682 425.414 80.7942 424.28 79.3522 424.28C78.7082 424.28 78.0642 424.644 77.3222 425.33V429.334C78.0082 429.908 78.6802 430.118 79.1842 430.118ZM83.111 431L85.603 427.038L83.307 423.398H84.679L85.701 425.064C85.939 425.498 86.191 425.918 86.457 426.352H86.513C86.737 425.918 86.961 425.498 87.199 425.064L88.123 423.398H89.453L87.157 427.164L89.649 431H88.263L87.143 429.222C86.877 428.774 86.597 428.298 86.317 427.864H86.247C85.981 428.298 85.729 428.76 85.477 429.222L84.455 431H83.111ZM96.6474 431V429.936H98.9294V422.586H97.0954V421.76C98.0194 421.592 98.6774 421.354 99.2234 421.032H100.203V429.936H102.275V431H96.6474ZM104.229 431V423.398H105.265L105.391 424.784H105.433C105.951 423.818 106.735 423.216 107.589 423.216C107.925 423.216 108.149 423.258 108.401 423.37L108.163 424.49C107.897 424.406 107.729 424.364 107.421 424.364C106.791 424.364 106.007 424.826 105.503 426.128V431H104.229ZM112.291 431.196C110.261 431.196 108.651 429.712 108.651 427.22C108.651 424.742 110.317 423.216 112.067 423.216C113.999 423.216 115.091 424.602 115.091 426.786C115.091 427.052 115.077 427.318 115.035 427.514H109.911C110.009 429.124 110.989 430.174 112.445 430.174C113.173 430.174 113.775 429.936 114.335 429.558L114.797 430.412C114.125 430.846 113.327 431.196 112.291 431.196ZM109.897 426.59H113.971C113.971 425.064 113.285 424.238 112.081 424.238C111.017 424.238 110.065 425.092 109.897 426.59ZM116.737 431V423.398H117.773L117.899 424.504H117.941C118.599 423.79 119.397 423.216 120.307 423.216C121.469 423.216 122.099 423.762 122.393 424.658C123.191 423.818 123.989 423.216 124.913 423.216C126.467 423.216 127.223 424.252 127.223 426.184V431H125.949V426.352C125.949 424.924 125.501 424.322 124.521 424.322C123.933 424.322 123.331 424.714 122.617 425.484V431H121.343V426.352C121.343 424.924 120.895 424.322 119.915 424.322C119.341 424.322 118.697 424.714 118.011 425.484V431H116.737Z" fill="#666666"/>
<path d="M13.4 475V464.738H14.702V469.036H19.49V464.738H20.778V475H19.49V470.17H14.702V475H13.4ZM26.2995 475.196C24.2695 475.196 22.6595 473.712 22.6595 471.22C22.6595 468.742 24.3255 467.216 26.0755 467.216C28.0075 467.216 29.0995 468.602 29.0995 470.786C29.0995 471.052 29.0855 471.318 29.0435 471.514H23.9195C24.0175 473.124 24.9975 474.174 26.4535 474.174C27.1815 474.174 27.7835 473.936 28.3435 473.558L28.8055 474.412C28.1335 474.846 27.3355 475.196 26.2995 475.196ZM23.9055 470.59H27.9795C27.9795 469.064 27.2935 468.238 26.0895 468.238C25.0255 468.238 24.0735 469.092 23.9055 470.59ZM32.2357 475.196C30.9617 475.196 30.0097 474.398 30.0097 473.026C30.0097 471.374 31.4377 470.548 34.6717 470.184C34.6717 469.204 34.3637 468.266 33.1177 468.266C32.2217 468.266 31.4237 468.686 30.8357 469.092L30.3317 468.196C31.0317 467.748 32.0957 467.216 33.3137 467.216C35.1757 467.216 35.9597 468.448 35.9597 470.338V475H34.9097L34.7977 474.104H34.7417C34.0277 474.706 33.1737 475.196 32.2357 475.196ZM32.5857 474.16C33.3277 474.16 33.9437 473.81 34.6717 473.152V471.038C32.1097 471.332 31.2557 471.962 31.2557 472.942C31.2557 473.81 31.8437 474.16 32.5857 474.16ZM40.7104 475.196C38.8064 475.196 37.5744 473.754 37.5744 471.22C37.5744 468.742 39.1424 467.216 40.8784 467.216C41.7604 467.216 42.3484 467.538 43.0064 468.098L42.9504 466.782V463.87H44.2244V475H43.1744L43.0624 474.104H43.0344C42.4324 474.706 41.6344 475.196 40.7104 475.196ZM40.9904 474.118C41.7044 474.118 42.3204 473.768 42.9504 473.082V469.092C42.3064 468.504 41.7184 468.28 41.0884 468.28C39.8704 468.28 38.9044 469.47 38.9044 471.206C38.9044 473.026 39.6604 474.118 40.9904 474.118ZM46.576 475V467.398H47.85V475H46.576ZM47.22 465.83C46.716 465.83 46.366 465.508 46.366 464.976C46.366 464.486 46.716 464.164 47.22 464.164C47.71 464.164 48.074 464.486 48.074 464.976C48.074 465.508 47.71 465.83 47.22 465.83ZM50.1915 475V467.398H51.2275L51.3535 468.504H51.3955C52.1095 467.79 52.8935 467.216 53.9435 467.216C55.5395 467.216 56.2675 468.252 56.2675 470.184V475H54.9795V470.352C54.9795 468.924 54.5455 468.322 53.5375 468.322C52.7675 468.322 52.2215 468.728 51.4655 469.484V475H50.1915ZM61.0584 478.5C59.1964 478.5 57.9084 477.772 57.9084 476.47C57.9084 475.826 58.3284 475.196 59.0284 474.748V474.692C58.6364 474.44 58.3424 474.034 58.3424 473.432C58.3424 472.802 58.7904 472.312 59.1964 472.032V471.976C58.6924 471.57 58.1884 470.842 58.1884 469.932C58.1884 468.252 59.5044 467.216 61.0444 467.216C61.4784 467.216 61.8564 467.3 62.1224 467.398H64.7684V468.392H63.2144C63.5784 468.742 63.8304 469.302 63.8304 469.96C63.8304 471.584 62.5984 472.592 61.0444 472.592C60.6804 472.592 60.2604 472.508 59.9104 472.34C59.6444 472.564 59.4204 472.83 59.4204 473.236C59.4204 473.726 59.7424 474.076 60.7644 474.076H62.2484C64.0124 474.076 64.8944 474.622 64.8944 475.882C64.8944 477.296 63.3964 478.5 61.0584 478.5ZM61.0444 471.738C61.9264 471.738 62.6684 471.024 62.6684 469.932C62.6684 468.812 61.9404 468.14 61.0444 468.14C60.1484 468.14 59.4204 468.798 59.4204 469.932C59.4204 471.024 60.1624 471.738 61.0444 471.738ZM61.2264 477.632C62.6964 477.632 63.6484 476.862 63.6484 476.078C63.6484 475.364 63.1024 475.126 62.1084 475.126H60.7924C60.4984 475.126 60.1484 475.098 59.7984 475C59.2524 475.392 59.0284 475.854 59.0284 476.288C59.0284 477.114 59.8544 477.632 61.2264 477.632ZM71.9616 475.196C69.9876 475.196 68.5036 473.6 68.5036 470.394C68.5036 466.376 70.3236 464.85 72.3116 464.85C73.3756 464.85 74.1596 465.298 74.7056 465.886L74.0056 466.684C73.5996 466.208 72.9836 465.914 72.3536 465.914C70.9256 465.914 69.7216 467.034 69.7216 470.394C69.7216 472.858 70.5056 474.188 71.9476 474.188C72.9416 474.188 73.6976 473.306 73.6976 471.99C73.6976 470.688 73.0816 469.862 71.8356 469.862C71.1916 469.862 70.3796 470.254 69.6796 471.29L69.6376 470.268C70.2816 469.428 71.2056 468.91 72.0456 468.91C73.7676 468.91 74.9016 469.946 74.9016 471.99C74.9016 473.908 73.5436 475.196 71.9616 475.196Z" fill="black"/>
<path d="M13.288 495V487.398H14.324L14.45 488.784H14.492C15.01 487.818 15.794 487.216 16.648 487.216C16.984 487.216 17.208 487.258 17.46 487.37L17.222 488.49C16.956 488.406 16.788 488.364 16.48 488.364C15.85 488.364 15.066 488.826 14.562 490.128V495H13.288ZM21.3503 495.196C19.3203 495.196 17.7103 493.712 17.7103 491.22C17.7103 488.742 19.3763 487.216 21.1263 487.216C23.0583 487.216 24.1503 488.602 24.1503 490.786C24.1503 491.052 24.1363 491.318 24.0943 491.514H18.9703C19.0683 493.124 20.0483 494.174 21.5043 494.174C22.2323 494.174 22.8343 493.936 23.3943 493.558L23.8563 494.412C23.1843 494.846 22.3863 495.196 21.3503 495.196ZM18.9563 490.59H23.0303C23.0303 489.064 22.3443 488.238 21.1403 488.238C20.0763 488.238 19.1243 489.092 18.9563 490.59ZM28.1669 498.5C26.3049 498.5 25.0169 497.772 25.0169 496.47C25.0169 495.826 25.4369 495.196 26.1369 494.748V494.692C25.7449 494.44 25.4509 494.034 25.4509 493.432C25.4509 492.802 25.8989 492.312 26.3049 492.032V491.976C25.8009 491.57 25.2969 490.842 25.2969 489.932C25.2969 488.252 26.6129 487.216 28.1529 487.216C28.5869 487.216 28.9649 487.3 29.2309 487.398H31.8769V488.392H30.3229C30.6869 488.742 30.9389 489.302 30.9389 489.96C30.9389 491.584 29.7069 492.592 28.1529 492.592C27.7889 492.592 27.3689 492.508 27.0189 492.34C26.7529 492.564 26.5289 492.83 26.5289 493.236C26.5289 493.726 26.8509 494.076 27.8729 494.076H29.3569C31.1209 494.076 32.0029 494.622 32.0029 495.882C32.0029 497.296 30.5049 498.5 28.1669 498.5ZM28.1529 491.738C29.0349 491.738 29.7769 491.024 29.7769 489.932C29.7769 488.812 29.0489 488.14 28.1529 488.14C27.2569 488.14 26.5289 488.798 26.5289 489.932C26.5289 491.024 27.2709 491.738 28.1529 491.738ZM28.3349 497.632C29.8049 497.632 30.7569 496.862 30.7569 496.078C30.7569 495.364 30.2109 495.126 29.2169 495.126H27.9009C27.6069 495.126 27.2569 495.098 26.9069 495C26.3609 495.392 26.1369 495.854 26.1369 496.288C26.1369 497.114 26.9629 497.632 28.3349 497.632ZM35.4792 495.196C33.8832 495.196 33.1552 494.16 33.1552 492.214V487.398H34.4292V492.06C34.4292 493.474 34.8632 494.076 35.8712 494.076C36.6412 494.076 37.2012 493.698 37.9152 492.802V487.398H39.1892V495H38.1392L38.0272 493.81H37.9992C37.2852 494.636 36.5292 495.196 35.4792 495.196ZM42.8751 495.196C41.9091 495.196 41.5311 494.58 41.5311 493.488V483.87H42.8051V493.572C42.8051 493.978 42.9731 494.132 43.1691 494.132C43.2251 494.132 43.2811 494.132 43.4351 494.104L43.6031 495.084C43.4211 495.14 43.2251 495.196 42.8751 495.196ZM47.0196 495.196C45.7456 495.196 44.7936 494.398 44.7936 493.026C44.7936 491.374 46.2216 490.548 49.4556 490.184C49.4556 489.204 49.1476 488.266 47.9016 488.266C47.0056 488.266 46.2076 488.686 45.6196 489.092L45.1156 488.196C45.8156 487.748 46.8796 487.216 48.0976 487.216C49.9596 487.216 50.7436 488.448 50.7436 490.338V495H49.6936L49.5816 494.104H49.5256C48.8116 494.706 47.9576 495.196 47.0196 495.196ZM47.3696 494.16C48.1116 494.16 48.7276 493.81 49.4556 493.152V491.038C46.8936 491.332 46.0396 491.962 46.0396 492.942C46.0396 493.81 46.6276 494.16 47.3696 494.16ZM52.9183 495V487.398H53.9543L54.0803 488.784H54.1223C54.6403 487.818 55.4243 487.216 56.2783 487.216C56.6143 487.216 56.8383 487.258 57.0903 487.37L56.8523 488.49C56.5863 488.406 56.4183 488.364 56.1103 488.364C55.4803 488.364 54.6963 488.826 54.1923 490.128V495H52.9183ZM60.9409 495V493.936H63.2229V486.586H61.3889V485.76C62.3129 485.592 62.9709 485.354 63.5169 485.032H64.4969V493.936H66.5689V495H60.9409ZM71.9805 495V488.308C71.9805 487.79 72.0225 486.922 72.0645 486.404H71.9945C71.7425 486.866 71.4625 487.314 71.1825 487.804L68.8445 491.234H74.5565V492.242H67.5005V491.402L71.7705 485.032H73.1845V495H71.9805ZM76.0482 498.206V487.398H77.0842L77.2102 488.28H77.2522C77.9382 487.706 78.7782 487.216 79.6602 487.216C81.6342 487.216 82.6842 488.742 82.6842 491.094C82.6842 493.684 81.1302 495.196 79.3802 495.196C78.6942 495.196 77.9802 494.874 77.2942 494.314L77.3222 495.644V498.206H76.0482ZM79.1842 494.118C80.4302 494.118 81.3682 492.984 81.3682 491.108C81.3682 489.414 80.7942 488.28 79.3522 488.28C78.7082 488.28 78.0642 488.644 77.3222 489.33V493.334C78.0082 493.908 78.6802 494.118 79.1842 494.118ZM83.111 495L85.603 491.038L83.307 487.398H84.679L85.701 489.064C85.939 489.498 86.191 489.918 86.457 490.352H86.513C86.737 489.918 86.961 489.498 87.199 489.064L88.123 487.398H89.453L87.157 491.164L89.649 495H88.263L87.143 493.222C86.877 492.774 86.597 492.298 86.317 491.864H86.247C85.981 492.298 85.729 492.76 85.477 493.222L84.455 495H83.111ZM99.3074 495.196C97.3054 495.196 96.1014 493.334 96.1014 489.988C96.1014 486.642 97.3054 484.85 99.3074 484.85C101.281 484.85 102.485 486.642 102.485 489.988C102.485 493.334 101.281 495.196 99.3074 495.196ZM99.3074 494.16C100.469 494.16 101.253 492.914 101.253 489.988C101.253 487.048 100.469 485.872 99.3074 485.872C98.1314 485.872 97.3334 487.048 97.3334 489.988C97.3334 492.914 98.1314 494.16 99.3074 494.16ZM104.873 495.196C104.369 495.196 103.963 494.79 103.963 494.216C103.963 493.628 104.369 493.236 104.873 493.236C105.391 493.236 105.811 493.628 105.811 494.216C105.811 494.79 105.391 495.196 104.873 495.196ZM110.504 495.196C108.614 495.196 107.228 494.048 107.228 492.466C107.228 491.15 108.18 490.254 109.118 489.764V489.708C108.376 489.19 107.718 488.448 107.718 487.398C107.718 485.858 108.936 484.85 110.546 484.85C112.296 484.85 113.36 485.942 113.36 487.496C113.36 488.546 112.59 489.428 111.988 489.89V489.96C112.87 490.492 113.724 491.192 113.724 492.536C113.724 494.034 112.422 495.196 110.504 495.196ZM111.204 489.568C111.89 488.952 112.268 488.294 112.268 487.552C112.268 486.572 111.624 485.788 110.518 485.788C109.58 485.788 108.894 486.432 108.894 487.398C108.894 488.588 110 489.092 111.204 489.568ZM110.532 494.23C111.708 494.23 112.492 493.516 112.492 492.494C112.492 491.192 111.232 490.744 109.79 490.156C108.964 490.688 108.376 491.416 108.376 492.34C108.376 493.432 109.3 494.23 110.532 494.23ZM116.881 495C117.063 491.248 117.819 488.854 119.779 486.124H114.809V485.032H121.221V485.816C118.869 488.826 118.379 491.108 118.211 495H116.881ZM125.303 495.196C123.707 495.196 122.727 494.524 122.027 493.824L122.671 492.984C123.245 493.586 124.001 494.132 125.177 494.132C126.395 494.132 127.361 493.25 127.361 491.85C127.361 490.478 126.521 489.652 125.247 489.652C124.561 489.652 124.127 489.876 123.539 490.268L122.853 489.834L123.175 485.032H128.173V486.124H124.295L124.029 489.092C124.491 488.84 124.953 488.686 125.569 488.686C127.277 488.686 128.663 489.652 128.663 491.808C128.663 493.978 127.025 495.196 125.303 495.196ZM130.462 495V487.398H131.498L131.624 488.784H131.666C132.184 487.818 132.968 487.216 133.822 487.216C134.158 487.216 134.382 487.258 134.634 487.37L134.396 488.49C134.13 488.406 133.962 488.364 133.654 488.364C133.024 488.364 132.24 488.826 131.736 490.128V495H130.462ZM138.525 495.196C136.495 495.196 134.885 493.712 134.885 491.22C134.885 488.742 136.551 487.216 138.301 487.216C140.233 487.216 141.325 488.602 141.325 490.786C141.325 491.052 141.311 491.318 141.269 491.514H136.145C136.243 493.124 137.223 494.174 138.679 494.174C139.407 494.174 140.009 493.936 140.569 493.558L141.031 494.412C140.359 494.846 139.561 495.196 138.525 495.196ZM136.131 490.59H140.205C140.205 489.064 139.519 488.238 138.315 488.238C137.251 488.238 136.299 489.092 136.131 490.59ZM142.971 495V487.398H144.007L144.133 488.504H144.175C144.833 487.79 145.631 487.216 146.541 487.216C147.703 487.216 148.333 487.762 148.627 488.658C149.425 487.818 150.223 487.216 151.147 487.216C152.701 487.216 153.457 488.252 153.457 490.184V495H152.183V490.352C152.183 488.924 151.735 488.322 150.755 488.322C150.167 488.322 149.565 488.714 148.851 489.484V495H147.577V490.352C147.577 488.924 147.129 488.322 146.149 488.322C145.575 488.322 144.931 488.714 144.245 489.484V495H142.971Z" fill="#666666"/>
<path d="M13.2 537V528.204H14.316V531.888H18.42V528.204H19.524V537H18.42V532.86H14.316V537H13.2ZM24.2225 537.168C22.4825 537.168 21.1025 535.896 21.1025 533.76C21.1025 531.636 22.5305 530.328 24.0305 530.328C25.6865 530.328 26.6225 531.516 26.6225 533.388C26.6225 533.616 26.6105 533.844 26.5745 534.012H22.1825C22.2665 535.392 23.1065 536.292 24.3545 536.292C24.9785 536.292 25.4945 536.088 25.9745 535.764L26.3705 536.496C25.7945 536.868 25.1105 537.168 24.2225 537.168ZM22.1705 533.22H25.6625C25.6625 531.912 25.0745 531.204 24.0425 531.204C23.1305 531.204 22.3145 531.936 22.1705 533.22ZM29.2763 537.168C28.1843 537.168 27.3683 536.484 27.3683 535.308C27.3683 533.892 28.5923 533.184 31.3643 532.872C31.3643 532.032 31.1003 531.228 30.0323 531.228C29.2643 531.228 28.5803 531.588 28.0763 531.936L27.6443 531.168C28.2443 530.784 29.1563 530.328 30.2003 530.328C31.7963 530.328 32.4683 531.384 32.4683 533.004V537H31.5683L31.4723 536.232H31.4243C30.8123 536.748 30.0803 537.168 29.2763 537.168ZM29.5763 536.28C30.2123 536.28 30.7403 535.98 31.3643 535.416V533.604C29.1683 533.856 28.4363 534.396 28.4363 535.236C28.4363 535.98 28.9403 536.28 29.5763 536.28ZM36.5061 537.168C34.8741 537.168 33.8181 535.932 33.8181 533.76C33.8181 531.636 35.1621 530.328 36.6501 530.328C37.4061 530.328 37.9101 530.604 38.4741 531.084L38.4261 529.956V527.46H39.5181V537H38.6181L38.5221 536.232H38.4981C37.9821 536.748 37.2981 537.168 36.5061 537.168ZM36.7461 536.244C37.3581 536.244 37.8861 535.944 38.4261 535.356V531.936C37.8741 531.432 37.3701 531.24 36.8301 531.24C35.7861 531.24 34.9581 532.26 34.9581 533.748C34.9581 535.308 35.6061 536.244 36.7461 536.244ZM41.4995 537V530.484H42.5915V537H41.4995ZM42.0515 529.14C41.6195 529.14 41.3195 528.864 41.3195 528.408C41.3195 527.988 41.6195 527.712 42.0515 527.712C42.4715 527.712 42.7835 527.988 42.7835 528.408C42.7835 528.864 42.4715 529.14 42.0515 529.14ZM44.5642 537V530.484H45.4522L45.5602 531.432H45.5962C46.2082 530.82 46.8802 530.328 47.7802 530.328C49.1482 530.328 49.7722 531.216 49.7722 532.872V537H48.6682V533.016C48.6682 531.792 48.2962 531.276 47.4322 531.276C46.7722 531.276 46.3042 531.624 45.6562 532.272V537H44.5642ZM53.8444 540C52.2484 540 51.1444 539.376 51.1444 538.26C51.1444 537.708 51.5044 537.168 52.1044 536.784V536.736C51.7684 536.52 51.5164 536.172 51.5164 535.656C51.5164 535.116 51.9004 534.696 52.2484 534.456V534.408C51.8164 534.06 51.3844 533.436 51.3844 532.656C51.3844 531.216 52.5124 530.328 53.8324 530.328C54.2044 530.328 54.5284 530.4 54.7564 530.484H57.0244V531.336H55.6924C56.0044 531.636 56.2204 532.116 56.2204 532.68C56.2204 534.072 55.1644 534.936 53.8324 534.936C53.5204 534.936 53.1604 534.864 52.8604 534.72C52.6324 534.912 52.4404 535.14 52.4404 535.488C52.4404 535.908 52.7164 536.208 53.5924 536.208H54.8644C56.3764 536.208 57.1324 536.676 57.1324 537.756C57.1324 538.968 55.8484 540 53.8444 540ZM53.8324 534.204C54.5884 534.204 55.2244 533.592 55.2244 532.656C55.2244 531.696 54.6004 531.12 53.8324 531.12C53.0644 531.12 52.4404 531.684 52.4404 532.656C52.4404 533.592 53.0764 534.204 53.8324 534.204ZM53.9884 539.256C55.2484 539.256 56.0644 538.596 56.0644 537.924C56.0644 537.312 55.5964 537.108 54.7444 537.108H53.6164C53.3644 537.108 53.0644 537.084 52.7644 537C52.2964 537.336 52.1044 537.732 52.1044 538.104C52.1044 538.812 52.8124 539.256 53.9884 539.256ZM61.8854 537C62.0414 533.784 62.6894 531.732 64.3694 529.392H60.1094V528.456H65.6054V529.128C63.5894 531.708 63.1694 533.664 63.0254 537H61.8854Z" fill="black"/>
<path d="M13.288 556V548.398H14.324L14.45 549.784H14.492C15.01 548.818 15.794 548.216 16.648 548.216C16.984 548.216 17.208 548.258 17.46 548.37L17.222 549.49C16.956 549.406 16.788 549.364 16.48 549.364C15.85 549.364 15.066 549.826 14.562 551.128V556H13.288ZM21.3503 556.196C19.3203 556.196 17.7103 554.712 17.7103 552.22C17.7103 549.742 19.3763 548.216 21.1263 548.216C23.0583 548.216 24.1503 549.602 24.1503 551.786C24.1503 552.052 24.1363 552.318 24.0943 552.514H18.9703C19.0683 554.124 20.0483 555.174 21.5043 555.174C22.2323 555.174 22.8343 554.936 23.3943 554.558L23.8563 555.412C23.1843 555.846 22.3863 556.196 21.3503 556.196ZM18.9563 551.59H23.0303C23.0303 550.064 22.3443 549.238 21.1403 549.238C20.0763 549.238 19.1243 550.092 18.9563 551.59ZM28.1669 559.5C26.3049 559.5 25.0169 558.772 25.0169 557.47C25.0169 556.826 25.4369 556.196 26.1369 555.748V555.692C25.7449 555.44 25.4509 555.034 25.4509 554.432C25.4509 553.802 25.8989 553.312 26.3049 553.032V552.976C25.8009 552.57 25.2969 551.842 25.2969 550.932C25.2969 549.252 26.6129 548.216 28.1529 548.216C28.5869 548.216 28.9649 548.3 29.2309 548.398H31.8769V549.392H30.3229C30.6869 549.742 30.9389 550.302 30.9389 550.96C30.9389 552.584 29.7069 553.592 28.1529 553.592C27.7889 553.592 27.3689 553.508 27.0189 553.34C26.7529 553.564 26.5289 553.83 26.5289 554.236C26.5289 554.726 26.8509 555.076 27.8729 555.076H29.3569C31.1209 555.076 32.0029 555.622 32.0029 556.882C32.0029 558.296 30.5049 559.5 28.1669 559.5ZM28.1529 552.738C29.0349 552.738 29.7769 552.024 29.7769 550.932C29.7769 549.812 29.0489 549.14 28.1529 549.14C27.2569 549.14 26.5289 549.798 26.5289 550.932C26.5289 552.024 27.2709 552.738 28.1529 552.738ZM28.3349 558.632C29.8049 558.632 30.7569 557.862 30.7569 557.078C30.7569 556.364 30.2109 556.126 29.2169 556.126H27.9009C27.6069 556.126 27.2569 556.098 26.9069 556C26.3609 556.392 26.1369 556.854 26.1369 557.288C26.1369 558.114 26.9629 558.632 28.3349 558.632ZM35.4792 556.196C33.8832 556.196 33.1552 555.16 33.1552 553.214V548.398H34.4292V553.06C34.4292 554.474 34.8632 555.076 35.8712 555.076C36.6412 555.076 37.2012 554.698 37.9152 553.802V548.398H39.1892V556H38.1392L38.0272 554.81H37.9992C37.2852 555.636 36.5292 556.196 35.4792 556.196ZM42.8751 556.196C41.9091 556.196 41.5311 555.58 41.5311 554.488V544.87H42.8051V554.572C42.8051 554.978 42.9731 555.132 43.1691 555.132C43.2251 555.132 43.2811 555.132 43.4351 555.104L43.6031 556.084C43.4211 556.14 43.2251 556.196 42.8751 556.196ZM47.0196 556.196C45.7456 556.196 44.7936 555.398 44.7936 554.026C44.7936 552.374 46.2216 551.548 49.4556 551.184C49.4556 550.204 49.1476 549.266 47.9016 549.266C47.0056 549.266 46.2076 549.686 45.6196 550.092L45.1156 549.196C45.8156 548.748 46.8796 548.216 48.0976 548.216C49.9596 548.216 50.7436 549.448 50.7436 551.338V556H49.6936L49.5816 555.104H49.5256C48.8116 555.706 47.9576 556.196 47.0196 556.196ZM47.3696 555.16C48.1116 555.16 48.7276 554.81 49.4556 554.152V552.038C46.8936 552.332 46.0396 552.962 46.0396 553.942C46.0396 554.81 46.6276 555.16 47.3696 555.16ZM52.9183 556V548.398H53.9543L54.0803 549.784H54.1223C54.6403 548.818 55.4243 548.216 56.2783 548.216C56.6143 548.216 56.8383 548.258 57.0903 548.37L56.8523 549.49C56.5863 549.406 56.4183 549.364 56.1103 549.364C55.4803 549.364 54.6963 549.826 54.1923 551.128V556H52.9183ZM60.9409 556V554.936H63.2229V547.586H61.3889V546.76C62.3129 546.592 62.9709 546.354 63.5169 546.032H64.4969V554.936H66.5689V556H60.9409ZM67.8505 556V555.258C70.8605 552.262 72.5405 550.456 72.5405 548.818C72.5405 547.684 71.9385 546.872 70.6645 546.872C69.8245 546.872 69.0965 547.404 68.5225 548.076L67.7805 547.348C68.6205 546.438 69.5165 545.85 70.8185 545.85C72.6525 545.85 73.8005 546.998 73.8005 548.776C73.8005 550.652 72.0785 552.514 69.7125 555.006C70.2445 554.95 70.8745 554.908 71.3925 554.908H74.2905V556H67.8505ZM76.0482 559.206V548.398H77.0842L77.2102 549.28H77.2522C77.9382 548.706 78.7782 548.216 79.6602 548.216C81.6342 548.216 82.6842 549.742 82.6842 552.094C82.6842 554.684 81.1302 556.196 79.3802 556.196C78.6942 556.196 77.9802 555.874 77.2942 555.314L77.3222 556.644V559.206H76.0482ZM79.1842 555.118C80.4302 555.118 81.3682 553.984 81.3682 552.108C81.3682 550.414 80.7942 549.28 79.3522 549.28C78.7082 549.28 78.0642 549.644 77.3222 550.33V554.334C78.0082 554.908 78.6802 555.118 79.1842 555.118ZM83.111 556L85.603 552.038L83.307 548.398H84.679L85.701 550.064C85.939 550.498 86.191 550.918 86.457 551.352H86.513C86.737 550.918 86.961 550.498 87.199 550.064L88.123 548.398H89.453L87.157 552.164L89.649 556H88.263L87.143 554.222C86.877 553.774 86.597 553.298 86.317 552.864H86.247C85.981 553.298 85.729 553.76 85.477 554.222L84.455 556H83.111ZM99.3074 556.196C97.3054 556.196 96.1014 554.334 96.1014 550.988C96.1014 547.642 97.3054 545.85 99.3074 545.85C101.281 545.85 102.485 547.642 102.485 550.988C102.485 554.334 101.281 556.196 99.3074 556.196ZM99.3074 555.16C100.469 555.16 101.253 553.914 101.253 550.988C101.253 548.048 100.469 546.872 99.3074 546.872C98.1314 546.872 97.3334 548.048 97.3334 550.988C97.3334 553.914 98.1314 555.16 99.3074 555.16ZM104.873 556.196C104.369 556.196 103.963 555.79 103.963 555.216C103.963 554.628 104.369 554.236 104.873 554.236C105.391 554.236 105.811 554.628 105.811 555.216C105.811 555.79 105.391 556.196 104.873 556.196ZM109.356 556C109.538 552.248 110.294 549.854 112.254 547.124H107.284V546.032H113.696V546.816C111.344 549.826 110.854 552.108 110.686 556H109.356ZM117.777 556.196C116.181 556.196 115.201 555.524 114.501 554.824L115.145 553.984C115.719 554.586 116.475 555.132 117.651 555.132C118.869 555.132 119.835 554.25 119.835 552.85C119.835 551.478 118.995 550.652 117.721 550.652C117.035 550.652 116.601 550.876 116.013 551.268L115.327 550.834L115.649 546.032H120.647V547.124H116.769L116.503 550.092C116.965 549.84 117.427 549.686 118.043 549.686C119.751 549.686 121.137 550.652 121.137 552.808C121.137 554.978 119.499 556.196 117.777 556.196ZM122.937 556V548.398H123.973L124.099 549.784H124.141C124.659 548.818 125.443 548.216 126.297 548.216C126.633 548.216 126.857 548.258 127.109 548.37L126.871 549.49C126.605 549.406 126.437 549.364 126.129 549.364C125.499 549.364 124.715 549.826 124.211 551.128V556H122.937ZM130.999 556.196C128.969 556.196 127.359 554.712 127.359 552.22C127.359 549.742 129.025 548.216 130.775 548.216C132.707 548.216 133.799 549.602 133.799 551.786C133.799 552.052 133.785 552.318 133.743 552.514H128.619C128.717 554.124 129.697 555.174 131.153 555.174C131.881 555.174 132.483 554.936 133.043 554.558L133.505 555.412C132.833 555.846 132.035 556.196 130.999 556.196ZM128.605 551.59H132.679C132.679 550.064 131.993 549.238 130.789 549.238C129.725 549.238 128.773 550.092 128.605 551.59ZM135.445 556V548.398H136.481L136.607 549.504H136.649C137.307 548.79 138.105 548.216 139.015 548.216C140.177 548.216 140.807 548.762 141.101 549.658C141.899 548.818 142.697 548.216 143.621 548.216C145.175 548.216 145.931 549.252 145.931 551.184V556H144.657V551.352C144.657 549.924 144.209 549.322 143.229 549.322C142.641 549.322 142.039 549.714 141.325 550.484V556H140.051V551.352C140.051 549.924 139.603 549.322 138.623 549.322C138.049 549.322 137.405 549.714 136.719 550.484V556H135.445Z" fill="#666666"/>
</svg>
