<svg width="696" height="73" viewBox="0 0 696 73" fill="none" xmlns="http://www.w3.org/2000/svg">
<g clip-path="url(#clip0_3_59)">
<path d="M34.7812 0.0281296C33.2484 0.210943 31.9734 0.581255 30.6797 1.21876C27.5016 2.77969 25.1672 5.67657 24.3281 9.10313C24.0609 10.1953 24.0234 10.5469 24.0234 12C24.0234 13.4531 24.0609 13.8094 24.3281 14.8969C25.425 19.35 29.0625 22.8563 33.525 23.7703C34.7063 24.0094 36.3188 24.075 37.5 23.9297C42.9375 23.2594 47.2547 18.9375 47.9297 13.5C48.0234 12.7313 48.0234 11.2406 47.9297 10.5141C47.7844 9.40313 47.5219 8.39532 47.1328 7.44375C46.7531 6.51563 46.2797 5.66719 46.0922 5.58282C45.7547 5.42813 45.375 5.65782 45.375 6.01407C45.375 6.07032 45.5719 6.51094 45.8109 6.98438C46.6594 8.65782 47.0156 10.1438 47.0156 11.9813C47.0156 12.9281 46.9641 13.4859 46.8 14.2734C46.3594 16.3734 45.3234 18.2813 43.8094 19.7766C43.5141 20.0719 43.3547 20.1984 43.3453 20.1516C42.8344 18.4547 42.3141 17.5219 41.3156 16.5281C39.8859 15.0938 38.0531 14.3438 36 14.3438C33.9469 14.3438 32.1141 15.0938 30.6844 16.5281C29.6859 17.5219 29.1656 18.4547 28.6547 20.1516C28.6453 20.1984 28.4859 20.0719 28.1906 19.7766C26.4422 18.0469 25.3125 15.7125 25.0312 13.2234C24.9469 12.5063 24.9938 10.8563 25.1156 10.1719C25.3266 9.01407 25.5891 8.20782 26.1094 7.14375C27.7453 3.79219 30.9938 1.49063 34.7578 1.03126C35.2922 0.96563 36.7031 0.96563 37.2469 1.03126C39.1641 1.26094 40.9453 1.95938 42.5109 3.08907C42.8344 3.32344 42.9375 3.37501 43.0875 3.37501C43.35 3.37501 43.5469 3.17344 43.5469 2.91563C43.5469 2.81251 43.5328 2.69063 43.5188 2.65313C43.5 2.61094 43.275 2.42344 43.0125 2.23125C41.5266 1.15782 39.9094 0.47813 37.9828 0.135942C37.5281 0.0515671 37.2094 0.0328178 36.1875 0.0234432C35.5031 0.0140686 34.8703 0.018755 34.7812 0.0281296ZM36.9141 15.3797C39.3 15.6844 41.3953 17.4141 42.1875 19.7344C42.2812 20.0156 42.4641 20.7656 42.4688 20.8875C42.4688 21.0094 41.3109 21.7125 40.5375 22.0594C39.0938 22.7109 37.6453 23.0156 36.0234 23.0203C34.2141 23.0203 32.6766 22.6641 31.1063 21.8859C30.6516 21.6563 29.8641 21.1922 29.6297 21.0094L29.5219 20.9203L29.6016 20.5313C30.1875 17.6672 32.6156 15.5344 35.5078 15.3375C36.0375 15.3 36.375 15.3094 36.9141 15.3797Z" fill="black"/>
<path d="M44.2781 3.96562C44.1797 4.06406 44.1562 4.13437 44.1562 4.3125C44.1562 4.49062 44.1797 4.56094 44.2781 4.65937C44.3766 4.75781 44.4469 4.78125 44.625 4.78125C44.8031 4.78125 44.8734 4.75781 44.9719 4.65937C45.0703 4.56094 45.0938 4.49062 45.0938 4.3125C45.0938 4.13437 45.0703 4.06406 44.9719 3.96562C44.8734 3.86719 44.8031 3.84375 44.625 3.84375C44.4469 3.84375 44.3766 3.86719 44.2781 3.96562Z" fill="black"/>
<path d="M34.9359 5.08594C33.4406 5.47032 32.2734 6.64688 31.8937 8.14219C31.7344 8.775 31.7344 9.6 31.8937 10.2328C32.2781 11.7375 33.45 12.9094 34.9547 13.2938C35.5875 13.4531 36.4125 13.4531 37.0453 13.2938C38.55 12.9094 39.7219 11.7375 40.1062 10.2328C40.2656 9.6 40.2656 8.775 40.1062 8.14219C39.7219 6.63282 38.5547 5.46563 37.0453 5.08125C36.4172 4.92188 35.5594 4.92657 34.9359 5.08594ZM36.7406 6.02813C37.3172 6.15 37.7859 6.41719 38.2781 6.90938C38.9531 7.58907 39.2344 8.25938 39.2344 9.1875C39.2344 10.1156 38.9531 10.7813 38.2734 11.4656C37.6031 12.1359 36.9234 12.4266 36 12.4266C35.0812 12.4266 34.3969 12.1359 33.7219 11.4656C33.0469 10.7859 32.7656 10.1156 32.7656 9.1875C32.7656 8.25938 33.0469 7.58907 33.7219 6.90938C34.575 6.06094 35.5359 5.77969 36.7406 6.02813Z" fill="black"/>
</g>
<path d="M90.75 9H90V6.13763C90 2.69588 87.5096 0 83.9722 0C80.4206 0 78 2.75325 78 6.13763V9H77.25C75.5955 9 74.25 10.3455 74.25 12V21C74.25 22.6545 75.5955 24 77.25 24H90.75C92.4045 24 93.75 22.6545 93.75 21V12C93.75 10.3455 92.4045 9 90.75 9ZM79.5 6.13763C79.5 3.58088 81.2475 1.5 83.9722 1.5C86.6689 1.5 88.5 3.537 88.5 6.13763V9H79.5V6.13763ZM92.25 21C92.25 21.8269 91.5769 22.5 90.75 22.5H77.25C76.4231 22.5 75.75 21.8269 75.75 21V12C75.75 11.1731 76.4231 10.5 77.25 10.5H90.75C91.5769 10.5 92.25 11.1731 92.25 12V21ZM84 13.5C83.1716 13.5 82.5 14.1716 82.5 15C82.5 15.5539 82.8038 16.032 83.25 16.2919V18.75C83.25 19.164 83.586 19.5 84 19.5C84.414 19.5 84.75 19.164 84.75 18.75V16.2919C85.1963 16.032 85.5 15.5535 85.5 15C85.5 14.1716 84.8284 13.5 84 13.5Z" fill="black"/>
<path d="M124 12L130 18L140 6" stroke="black" stroke-width="2" stroke-linecap="round" stroke-linejoin="round"/>
<path d="M191.855 11.3917C189.595 6.98292 185.122 4 180 4C174.878 4 170.403 6.985 168.145 11.3921C168.05 11.5806 168 11.7889 168 12.0002C168 12.2115 168.05 12.4198 168.145 12.6083C170.405 17.0171 174.878 20 180 20C185.122 20 189.597 17.015 191.855 12.6079C191.95 12.4194 192 12.2111 192 11.9998C192 11.7885 191.95 11.5802 191.855 11.3917ZM180 18C178.813 18 177.653 17.6481 176.667 16.9888C175.68 16.3295 174.911 15.3925 174.457 14.2961C174.003 13.1997 173.884 11.9933 174.115 10.8295C174.347 9.66557 174.918 8.59647 175.757 7.75736C176.596 6.91824 177.666 6.3468 178.829 6.11529C179.993 5.88378 181.2 6.0026 182.296 6.45672C183.392 6.91085 184.33 7.67988 184.989 8.66658C185.648 9.65327 186 10.8133 186 12C186 12.788 185.845 13.5684 185.544 14.2966C185.243 15.0247 184.801 15.6863 184.243 16.2435C183.686 16.8007 183.025 17.2427 182.297 17.5441C181.568 17.8455 180.788 18.0004 180 18ZM180 8C179.643 8.00499 179.288 8.05811 178.945 8.15792C179.228 8.54195 179.364 9.01454 179.328 9.48998C179.292 9.96542 179.087 10.4122 178.749 10.7494C178.412 11.0865 177.965 11.2917 177.49 11.3276C177.015 11.3636 176.542 11.228 176.158 10.9454C175.939 11.7511 175.979 12.605 176.271 13.3871C176.563 14.1691 177.093 14.8399 177.786 15.305C178.479 15.7701 179.301 16.006 180.135 15.9797C180.97 15.9533 181.775 15.666 182.437 15.158C183.1 14.6501 183.587 13.9473 183.829 13.1483C184.071 12.3494 184.056 11.4947 183.787 10.7044C183.518 9.91415 183.008 9.22818 182.329 8.74305C181.649 8.25791 180.835 7.99803 180 8Z" fill="black"/>
<g clip-path="url(#clip1_3_59)">
<path d="M225.834 0.0468774C224.475 0.276565 223.284 1.20469 222.727 2.46563C222.483 3.01407 222.403 3.43594 222.403 4.125C222.403 4.96407 222.548 5.5125 222.942 6.1875C223.167 6.5625 223.214 6.62813 223.345 6.69375C223.505 6.77813 223.589 6.75938 223.739 6.61407C223.922 6.43125 223.912 6.31407 223.687 5.97657C222.844 4.71563 222.98 2.97657 224.011 1.86563C224.827 0.984378 225.97 0.595315 227.119 0.815628C229.144 1.20469 230.353 3.29063 229.683 5.24532C229.631 5.38594 229.594 5.55469 229.594 5.625C229.594 5.89688 230.002 6.06094 230.198 5.86407C230.409 5.65313 230.625 4.74844 230.625 4.08282C230.625 3.35625 230.358 2.47969 229.945 1.85157C229.711 1.49063 229.134 0.914065 228.773 0.67969C227.948 0.140627 226.781 -0.112497 225.834 0.0468774Z" fill="black"/>
<path d="M226.064 1.92656C225.623 2.02969 225.164 2.3625 224.916 2.75625C224.62 3.22031 224.625 3.12656 224.625 7.06406V10.6453L224.742 10.7578C224.883 10.9031 225.084 10.9078 225.225 10.7812C225.281 10.725 225.333 10.6781 225.337 10.6734C225.347 10.6687 225.361 9.02812 225.375 7.03125C225.403 2.98125 225.375 3.28125 225.731 2.93438C226.317 2.36719 227.316 2.64844 227.559 3.45C227.616 3.63281 227.625 4.46719 227.625 8.47031V13.2703L227.742 13.3828C227.93 13.5703 228.192 13.5234 228.319 13.2797C228.361 13.2047 228.375 12.5063 228.375 10.7484V8.32031L228.487 8.08594C228.605 7.82812 228.811 7.62656 229.064 7.52344C229.275 7.43438 229.687 7.43438 229.894 7.51875C230.109 7.60781 230.381 7.85625 230.498 8.08125C230.602 8.26875 230.602 8.31094 230.625 10.7953L230.648 13.3219L230.761 13.4109C230.883 13.5094 231.08 13.5234 231.192 13.4391C231.37 13.3031 231.375 13.2234 231.375 11.1234C231.375 8.86875 231.375 8.90156 231.67 8.55C231.933 8.24063 232.509 8.10938 232.894 8.26875C233.109 8.35781 233.381 8.60625 233.498 8.83125C233.597 9.01875 233.602 9.075 233.625 11.1703L233.648 13.3219L233.761 13.4109C233.883 13.5094 234.08 13.5234 234.192 13.4391C234.361 13.3078 234.375 13.2 234.375 11.8734C234.375 10.4484 234.389 10.3875 234.67 10.05C234.933 9.74063 235.509 9.60938 235.894 9.76875C236.109 9.85781 236.381 10.1062 236.498 10.3313C236.602 10.5234 236.602 10.5422 236.616 13.4297C236.625 15.2344 236.611 16.5094 236.578 16.7953C236.395 18.525 235.73 19.9219 234.516 21.1453C233.484 22.1813 232.336 22.8 230.859 23.1141C230.442 23.2031 230.222 23.2219 229.43 23.2219C228.403 23.2219 227.934 23.1516 227.109 22.875C225.689 22.4016 224.287 21.3422 223.491 20.1328C222.994 19.3875 219.473 13.1484 219.417 12.9094C219.286 12.3891 219.548 11.8359 220.055 11.5641C220.322 11.4234 220.866 11.4234 221.137 11.5641C221.386 11.6953 221.348 11.6484 223.191 14.0297C224.297 15.4547 224.812 16.0875 224.887 16.1063C225.047 16.1484 225.258 16.05 225.323 15.9094C225.361 15.8297 225.375 15.1969 225.375 13.8703C225.375 12.2766 225.366 11.925 225.305 11.8172C225.197 11.6016 224.953 11.5594 224.761 11.7141L224.648 11.8031L224.625 13.2188L224.602 14.6297L223.294 12.9422C222.38 11.7563 221.92 11.1984 221.756 11.0813C220.772 10.3594 219.37 10.6969 218.836 11.7844C218.573 12.3234 218.573 12.9844 218.836 13.5047C219.127 14.0719 222.689 20.3063 222.905 20.6203C224.198 22.4906 226.266 23.7 228.619 23.9578C229.191 24.0234 230.245 23.9859 230.808 23.8875C234.337 23.25 236.934 20.4703 237.323 16.9125C237.356 16.6406 237.375 15.2953 237.375 13.5563C237.375 10.3594 237.375 10.3406 237.08 9.84844C236.887 9.52969 236.634 9.30937 236.25 9.12187C235.973 8.99063 235.903 8.97656 235.477 8.97656C235.008 8.97656 234.891 9.00938 234.417 9.26719C234.403 9.27656 234.366 9.15938 234.333 9.00938C234.07 7.68281 232.566 7.01719 231.473 7.75312L231.239 7.9125L231.131 7.69687C230.986 7.39219 230.587 7.00312 230.264 6.85312C230.02 6.74063 229.936 6.72656 229.5 6.72656C228.998 6.72656 228.947 6.74063 228.412 7.02188C228.394 7.03125 228.375 6.20625 228.366 5.19375L228.352 3.35156L228.202 3.0375C227.794 2.175 226.922 1.725 226.064 1.92656Z" fill="black"/>
</g>
<g clip-path="url(#clip2_3_59)">
<path d="M274.594 0.745314C274.266 0.848438 274.027 1.05 273.863 1.35938C273.788 1.49531 273.769 1.66406 273.75 2.40938L273.727 3.29063L273.352 3.42656C273.145 3.50156 272.813 3.64219 272.611 3.73594L272.245 3.90469L271.65 3.31875C270.998 2.67188 270.839 2.57813 270.427 2.57813C269.977 2.57813 269.798 2.7 268.772 3.73594C267.9 4.61719 267.848 4.67813 267.773 4.94063C267.614 5.48438 267.741 5.76094 268.509 6.54375L269.063 7.11094L268.856 7.55156C268.739 7.79531 268.608 8.11875 268.552 8.27344L268.458 8.55469L267.577 8.57813C266.789 8.60156 266.677 8.61563 266.508 8.70469C266.264 8.83594 266.091 9.01875 265.973 9.28125C265.884 9.47813 265.875 9.58594 265.875 10.8094C265.875 12.2391 265.894 12.3609 266.133 12.6797C266.273 12.8625 266.672 13.0781 266.869 13.0781H267V12.7031C267 12.3984 266.986 12.3281 266.93 12.3281C266.888 12.3281 266.803 12.2766 266.742 12.2109L266.625 12.0984V10.8375C266.625 9.50625 266.616 9.56719 266.827 9.36563C266.831 9.36094 267.328 9.34219 267.928 9.32813L269.025 9.30469L269.175 8.8125C269.348 8.25 269.541 7.8 269.817 7.3125L270.009 6.97031L269.245 6.20625C268.542 5.50313 268.481 5.42813 268.481 5.27344C268.481 5.11875 268.547 5.03906 269.367 4.21875C270.525 3.05625 270.361 3.07031 271.383 4.07813L272.142 4.83281L272.686 4.54688C273.267 4.24219 273.797 4.03125 274.233 3.9375L274.5 3.87656V2.79375C274.505 1.65938 274.509 1.61719 274.72 1.50938C274.856 1.43438 277.12 1.42969 277.28 1.50469C277.481 1.59375 277.5 1.72031 277.5 2.83125V3.88125L277.673 3.91406C278.053 3.98438 278.728 4.24219 279.295 4.5375L279.895 4.84688L280.655 4.0875C281.348 3.39375 281.428 3.32813 281.578 3.32813C281.728 3.32813 281.817 3.40313 282.633 4.21875C283.453 5.03906 283.519 5.11875 283.519 5.27344C283.519 5.42813 283.458 5.50313 282.755 6.20625L281.991 6.97031L282.202 7.34063C282.459 7.78594 282.708 8.38125 282.863 8.91094L282.975 9.30469L284.044 9.32813C284.634 9.34219 285.15 9.37031 285.192 9.38906C285.356 9.46875 285.375 9.6375 285.375 10.8797V12.0984L285.258 12.2109C285.197 12.2766 285.113 12.3281 285.07 12.3281C285.014 12.3281 285 12.3984 285 12.7031V13.0781H285.131C285.323 13.0734 285.619 12.9234 285.811 12.7266C286.102 12.4266 286.125 12.2906 286.125 10.8094C286.125 9.58594 286.116 9.47813 286.027 9.28125C285.909 9.01875 285.736 8.83594 285.492 8.70469C285.323 8.61563 285.211 8.60156 284.423 8.57813L283.542 8.55469L283.448 8.27344C283.392 8.11875 283.261 7.79531 283.144 7.55156L282.938 7.11094L283.491 6.54375C284.259 5.76094 284.386 5.48438 284.227 4.94063C284.152 4.67813 284.1 4.61719 283.228 3.73594C282.202 2.7 282.023 2.57813 281.573 2.57813C281.161 2.57813 281.002 2.67188 280.35 3.31875L279.75 3.90938L279.342 3.7125C279.113 3.60469 278.784 3.46875 278.602 3.40781L278.273 3.29531L278.25 2.40938C278.227 1.43906 278.189 1.30313 277.889 1.02656C277.575 0.731251 277.556 0.726563 276.07 0.717188C275.325 0.712501 274.659 0.726563 274.594 0.745314Z" fill="black"/>
<path d="M275.32 5.62969C273.933 5.80313 272.545 6.6375 271.739 7.78125C271.167 8.59688 270.848 9.45938 270.769 10.4484L270.736 10.8281H271.12H271.5V10.6453C271.5 10.5469 271.533 10.2891 271.57 10.0734C271.852 8.44688 273.005 7.10625 274.57 6.57188C275.058 6.40781 275.395 6.35625 276 6.35625C276.966 6.35625 277.72 6.58594 278.531 7.12031C279.6 7.82813 280.373 9.14531 280.481 10.4578L280.514 10.8281H280.889H281.264L281.231 10.4484C280.978 7.42969 278.316 5.25469 275.32 5.62969Z" fill="black"/>
<path d="M275.555 9.38438C274.917 9.50625 274.256 10.0219 273.98 10.6172C273.417 11.8172 274.003 13.2563 275.241 13.6969C276.3 14.0766 277.5 13.5938 277.997 12.5813C278.437 11.6953 278.273 10.7016 277.575 10.0078C277.012 9.45 276.319 9.23907 275.555 9.38438ZM276.628 10.2375C276.937 10.3781 277.2 10.6453 277.355 10.9688C277.523 11.3297 277.528 11.8688 277.359 12.2109C276.9 13.1484 275.705 13.3734 274.964 12.6516C274.636 12.3328 274.523 12.0703 274.523 11.6016C274.523 11.2922 274.547 11.1797 274.645 10.9688C275.006 10.2047 275.873 9.88594 276.628 10.2375Z" fill="black"/>
<path d="M269.18 10.8844C268.542 11.0063 267.881 11.5219 267.605 12.1172C267.042 13.3172 267.628 14.7563 268.866 15.1969C269.925 15.5766 271.125 15.0938 271.622 14.0813C272.063 13.1953 271.898 12.2016 271.2 11.5078C270.638 10.95 269.944 10.7391 269.18 10.8844ZM270.253 11.7375C270.563 11.8781 270.825 12.1453 270.98 12.4688C271.148 12.8297 271.153 13.3688 270.984 13.7109C270.525 14.6484 269.33 14.8734 268.589 14.1516C268.261 13.8328 268.148 13.5703 268.148 13.1016C268.148 12.7922 268.172 12.6797 268.27 12.4688C268.631 11.7047 269.498 11.3859 270.253 11.7375Z" fill="black"/>
<path d="M281.93 10.8844C281.292 11.0063 280.631 11.5219 280.355 12.1172C279.792 13.3172 280.378 14.7563 281.616 15.1969C282.675 15.5766 283.875 15.0938 284.372 14.0813C284.812 13.1953 284.648 12.2016 283.95 11.5078C283.387 10.95 282.694 10.7391 281.93 10.8844ZM283.003 11.7375C283.312 11.8781 283.575 12.1453 283.73 12.4688C283.898 12.8297 283.903 13.3688 283.734 13.7109C283.275 14.6484 282.08 14.8734 281.339 14.1516C281.011 13.8328 280.898 13.5703 280.898 13.1016C280.898 12.7922 280.922 12.6797 281.02 12.4688C281.381 11.7047 282.248 11.3859 283.003 11.7375Z" fill="black"/>
<path d="M273.98 14.25C273.183 14.3719 272.447 14.7938 271.922 15.4266L271.678 15.7172L269.822 15.7078C267.816 15.6984 267.431 15.7313 266.906 15.9469C265.8 16.3969 265.036 17.3203 264.816 18.4594C264.722 18.9516 264.727 20.775 264.82 21.1828C264.989 21.8859 265.505 22.5516 266.138 22.8844C266.733 23.1984 266.784 23.2031 269.072 23.2031H271.125V22.8281V22.4531H269.438H267.75V20.3906V18.3281H267.375H267V20.3719V22.4156L266.873 22.3828C266.438 22.2797 265.889 21.825 265.697 21.4078C265.514 21.0234 265.491 20.775 265.509 19.6266C265.528 18.6 265.538 18.5203 265.65 18.225C265.983 17.3484 266.714 16.7109 267.6 16.5234C267.839 16.4719 268.322 16.4531 269.62 16.4531H271.322L271.294 16.5563C271.13 17.1141 271.12 17.3016 271.134 19.5422C271.148 21.6328 271.153 21.7875 271.242 21.9984C271.453 22.5141 271.922 22.95 272.433 23.1094C272.672 23.1844 272.864 23.2031 273.427 23.2031H274.125V20.2031V17.2031H273.75H273.375V19.8281V22.4531H273.056C272.508 22.4531 272.109 22.1766 271.941 21.6844C271.88 21.5109 271.87 21.1266 271.884 19.2609L271.898 17.0391L272.02 16.725C272.086 16.5516 272.213 16.3078 272.292 16.1766C272.508 15.8438 272.991 15.4078 273.338 15.2391C273.886 14.9672 274.13 14.9438 276.164 14.9625C277.931 14.9766 278.002 14.9813 278.297 15.0844C278.714 15.2344 278.977 15.3938 279.291 15.6938C279.614 15.9984 279.816 16.3031 279.98 16.725L280.102 17.0391L280.116 19.2563C280.13 21.7453 280.13 21.7734 279.811 22.1016C279.567 22.35 279.319 22.4531 278.944 22.4531H278.625V19.8281V17.2031H278.25H277.875V20.2078V23.2125L278.663 23.1938C279.647 23.1703 279.863 23.1 280.289 22.6688C280.594 22.3641 280.753 22.0828 280.833 21.7078C280.866 21.5578 280.875 20.6859 280.866 19.2328C280.852 17.2781 280.838 16.9641 280.767 16.7578C280.725 16.6266 280.688 16.5094 280.688 16.4859C280.688 16.4672 281.452 16.4531 282.389 16.4531C283.678 16.4531 284.161 16.4719 284.4 16.5234C285.3 16.7109 286.064 17.3906 286.369 18.2719C286.472 18.5672 286.477 18.6516 286.477 19.8094V21.0281L286.298 21.3844C286.05 21.8906 285.605 22.2703 285.131 22.3828L285 22.4156V20.3719V18.3281H284.625H284.25V20.3906V22.4531H282.563H280.875V22.8281V23.2078L283.045 23.1938C285.202 23.1797 285.211 23.1797 285.492 23.0672C285.881 22.9125 286.369 22.5844 286.594 22.3219C286.856 22.0125 287.1 21.525 287.18 21.1547C287.278 20.6906 287.273 18.9141 287.175 18.4313C286.941 17.2828 286.195 16.3969 285.094 15.9469C284.569 15.7313 284.184 15.6984 282.178 15.7078L280.322 15.7172L280.083 15.4359C279.656 14.9203 279.206 14.6156 278.513 14.3766L278.086 14.2266L276.164 14.2219C275.109 14.2172 274.125 14.2313 273.98 14.25Z" fill="black"/>
<path d="M274.5 22.8281V23.2031H276H277.5V22.8281V22.4531H276H274.5V22.8281Z" fill="black"/>
</g>
<g clip-path="url(#clip3_3_59)">
<path d="M316.641 0.0515633C315.052 0.318752 313.664 1.4625 313.153 2.93438C312.877 3.72188 312.891 3.25781 312.891 12C312.891 19.1391 312.9 20.0578 312.966 20.3813C313.181 21.4266 313.687 22.2844 314.484 22.9547C314.855 23.2688 315.572 23.6625 315.984 23.7891C316.664 23.9906 316.837 24 320.367 24C323.489 24 323.756 23.9953 323.902 23.9156C324.356 23.6859 324.398 23.0672 323.986 22.7625C323.855 22.6641 323.798 22.6641 320.353 22.6406C316.462 22.6078 316.631 22.6219 315.952 22.2844C315.206 21.9094 314.644 21.2438 314.377 20.4141L314.273 20.0859V12V3.91406L314.377 3.58594C314.644 2.76094 315.225 2.06719 315.961 1.71094C316.641 1.37813 316.467 1.39219 320.391 1.35938C323.7 1.33594 323.944 1.33125 324.061 1.25156C324.502 0.965626 324.464 0.314064 324 0.0843773C323.85 0.00468826 323.583 1.90735e-06 320.367 0.00468826C318.459 0.00937653 316.781 0.0281258 316.641 0.0515633Z" fill="black"/>
<path d="M329.766 7.02187C329.381 7.21406 329.269 7.69687 329.527 8.04375C329.602 8.14218 330.352 8.91093 331.191 9.75L332.719 11.2734L325.678 11.2969C318.848 11.3203 318.628 11.325 318.483 11.4094C318.023 11.6906 318.042 12.3516 318.516 12.5953L318.722 12.7031H325.758H332.789L331.106 14.3859L329.423 16.0687L329.405 16.3219C329.391 16.5141 329.409 16.6031 329.48 16.725C329.667 17.0156 329.995 17.1328 330.314 17.0156C330.464 16.9594 334.936 12.5156 335.044 12.3187C335.156 12.1031 335.128 11.8031 334.973 11.5969C334.898 11.4984 333.858 10.4391 332.667 9.24843C330.216 6.80625 330.206 6.79687 329.766 7.02187Z" fill="black"/>
</g>
<g clip-path="url(#clip4_3_59)">
<path d="M375.684 0.0468769C375.389 0.121877 374.967 0.375002 374.761 0.595315C374.658 0.707815 374.503 0.94219 374.423 1.11563C374.287 1.40156 374.273 1.46719 374.283 1.85156C374.287 2.08125 374.297 2.34375 374.306 2.42813C374.32 2.57344 374.273 2.62031 373.312 3.46406L372.305 4.34531L372.07 4.2375C371.709 4.06875 371.325 4.10156 371.002 4.32188C370.931 4.37344 370.852 4.40625 370.828 4.39688C370.805 4.3875 370.472 4.13906 370.087 3.84375L369.389 3.30469L369.361 2.94375C369.319 2.33906 369.023 1.89375 368.484 1.63125C368.175 1.48125 367.566 1.48594 367.242 1.64063C366.942 1.78594 366.661 2.06719 366.516 2.36719C366.427 2.55938 366.403 2.67656 366.403 3C366.403 3.23438 366.427 3.44063 366.459 3.50156C366.516 3.60469 366.455 3.68438 365.48 4.81406C364.908 5.47969 364.411 6.05156 364.383 6.08438C364.336 6.13594 364.289 6.13594 364.106 6.075C363.661 5.925 363.319 6.00938 362.977 6.35156C362.498 6.825 362.498 7.425 362.977 7.89844C363.45 8.37188 364.05 8.37188 364.528 7.89844C364.809 7.61719 364.903 7.35 364.856 6.96094L364.828 6.70781L365.77 5.61563C366.291 5.01563 366.773 4.45781 366.848 4.37344L366.98 4.22344L367.252 4.35C367.767 4.58906 368.489 4.48594 368.841 4.12031C368.911 4.04531 368.986 3.98438 369.009 3.98438C369.028 3.98438 369.37 4.2375 369.773 4.54688C370.434 5.0625 370.5 5.12813 370.5 5.25938C370.5 5.83125 371.048 6.375 371.625 6.375C371.92 6.375 372.159 6.26719 372.403 6.02344C372.661 5.76563 372.769 5.49375 372.741 5.16563L372.727 4.97813L373.748 4.07813L374.766 3.18281L374.948 3.32344C375.052 3.40313 375.258 3.52969 375.408 3.6C375.642 3.70781 375.741 3.72656 376.13 3.72656C376.552 3.72656 376.594 3.71719 376.931 3.54844C377.311 3.36563 377.602 3.08906 377.77 2.75156C377.822 2.65781 377.873 2.57813 377.887 2.57813C377.902 2.57813 378.103 2.61094 378.328 2.65313L378.741 2.72813L378.797 2.93906C378.914 3.4125 379.177 3.75 379.608 3.97031C379.814 4.07813 379.908 4.09688 380.25 4.09688C380.616 4.10156 380.672 4.0875 380.944 3.94219C381.272 3.76406 381.412 3.61406 381.6 3.2625C381.703 3.06094 381.722 2.9625 381.722 2.625C381.727 2.25938 381.712 2.20313 381.567 1.93125C381.394 1.60781 381.192 1.41563 380.859 1.25625C380.695 1.17656 380.559 1.15313 380.25 1.15313C379.903 1.14844 379.819 1.16719 379.603 1.27969C379.341 1.41563 379.008 1.72969 378.961 1.87969C378.942 1.93125 378.891 1.96875 378.83 1.96875C378.712 1.96875 378.047 1.84688 378.028 1.82344C378.023 1.81406 377.991 1.67813 377.958 1.52344C377.77 0.656252 377.086 0.0609398 376.237 0.0234394C376.031 0.00937748 375.787 0.0234394 375.684 0.0468769ZM376.472 0.806252C376.875 0.928127 377.25 1.44375 377.25 1.875C377.25 2.45625 376.706 3 376.125 3C375.83 3 375.591 2.89219 375.352 2.64844C374.873 2.175 374.873 1.575 375.352 1.10156C375.68 0.768752 376.031 0.679689 376.472 0.806252ZM380.559 1.95C381.042 2.17969 381.145 2.77031 380.77 3.14531C380.461 3.45469 380.025 3.45 379.725 3.13594C379.153 2.53594 379.814 1.59844 380.559 1.95ZM368.184 2.325C368.667 2.55469 368.77 3.14531 368.395 3.52031C368.086 3.82969 367.65 3.825 367.35 3.51094C366.778 2.91094 367.439 1.97344 368.184 2.325ZM371.883 4.99219C372.117 5.22188 371.953 5.625 371.625 5.625C371.433 5.625 371.25 5.44219 371.25 5.25C371.25 5.05781 371.433 4.875 371.625 4.875C371.714 4.875 371.812 4.91719 371.883 4.99219ZM364.008 6.86719C364.242 7.09688 364.078 7.5 363.75 7.5C363.558 7.5 363.375 7.31719 363.375 7.125C363.375 6.93281 363.558 6.75 363.75 6.75C363.839 6.75 363.937 6.79219 364.008 6.86719Z" fill="black"/>
<path d="M375.07 7.19062C374.897 7.27031 374.742 7.43437 374.677 7.60781C374.639 7.70156 374.625 9.75469 374.625 14.2547V20.7703L374.742 20.8828C374.892 21.0375 375.108 21.0375 375.258 20.8828L375.375 20.7703V14.3203V7.875H376.125H376.875V14.3203V20.7703L376.992 20.8828C377.142 21.0375 377.358 21.0375 377.513 20.8828L377.625 20.7703L377.616 14.1844C377.602 7.61719 377.602 7.59844 377.503 7.47187C377.269 7.15781 377.245 7.14844 376.181 7.13906C375.441 7.12969 375.178 7.13906 375.07 7.19062Z" fill="black"/>
<path d="M379.195 8.31562C379.022 8.39531 378.867 8.55937 378.802 8.73281C378.764 8.82656 378.75 10.7156 378.75 14.8172V20.7703L378.867 20.8828C379.017 21.0375 379.233 21.0375 379.383 20.8828L379.5 20.7703V14.8828V9H380.25H381V15.6328V22.2703L381.117 22.3828C381.23 22.5 381.239 22.5 382.125 22.5C383.011 22.5 383.02 22.5 383.133 22.6172C383.287 22.7672 383.287 22.9828 383.133 23.1328L383.02 23.25H378.187H373.355L373.242 23.3672C373.087 23.5172 373.087 23.7328 373.242 23.8828L373.355 24H378.192C381.853 24 383.077 23.9859 383.222 23.9437C383.48 23.8687 383.869 23.4797 383.944 23.2219C384.066 22.8047 383.986 22.4578 383.686 22.125C383.4 21.8062 383.208 21.75 382.397 21.75H381.75L381.741 15.2391C381.727 8.74219 381.727 8.72344 381.628 8.59687C381.394 8.28281 381.37 8.27344 380.306 8.26406C379.566 8.25469 379.303 8.26406 379.195 8.31562Z" fill="black"/>
<path d="M366.82 9.06562C366.647 9.14531 366.492 9.30937 366.427 9.48281C366.389 9.57656 366.375 11.3578 366.375 15.1922V20.7703L366.492 20.8828C366.642 21.0375 366.858 21.0375 367.008 20.8828L367.125 20.7703V15.2578V9.75H367.875H368.625V15.2578V20.7703L368.742 20.8828C368.892 21.0375 369.108 21.0375 369.263 20.8828L369.375 20.7703L369.366 15.1219C369.352 9.50156 369.352 9.47343 369.253 9.34687C369.019 9.03281 368.995 9.02343 367.931 9.01406C367.191 9.00468 366.928 9.01406 366.82 9.06562Z" fill="black"/>
<path d="M370.945 11.6906C370.772 11.7703 370.617 11.9344 370.552 12.1078C370.514 12.1969 370.5 13.5984 370.5 16.5047V20.7703L370.617 20.8828C370.767 21.0375 370.983 21.0375 371.133 20.8828L371.25 20.7703V16.5703V12.375H372H372.75V16.5703V20.7703L372.867 20.8828C373.017 21.0375 373.233 21.0375 373.388 20.8828L373.5 20.7703L373.491 16.4344C373.477 12.1406 373.477 12.0984 373.378 11.9719C373.144 11.6578 373.12 11.6484 372.056 11.6391C371.316 11.6297 371.053 11.6391 370.945 11.6906Z" fill="black"/>
<path d="M362.695 13.9406C362.522 14.0203 362.367 14.1844 362.302 14.3578C362.264 14.4469 362.25 15.6609 362.25 18.1219V21.75H361.612C360.816 21.75 360.656 21.7922 360.352 22.1016C359.873 22.575 359.873 23.175 360.352 23.6484C360.497 23.7984 360.656 23.9063 360.778 23.9438C360.923 23.9859 362.147 24 365.808 24H370.645L370.758 23.8828C370.912 23.7328 370.912 23.5172 370.758 23.3672L370.645 23.25H365.812H360.98L360.867 23.1328C360.712 22.9828 360.712 22.7672 360.867 22.6172C360.98 22.5 360.989 22.5 361.875 22.5C362.761 22.5 362.77 22.5 362.883 22.3828L363 22.2703V18.4453V14.625H363.75H364.5V17.6953V20.7703L364.617 20.8828C364.767 21.0375 364.983 21.0375 365.137 20.8828L365.25 20.7703L365.241 17.5594C365.227 14.4 365.227 14.3484 365.128 14.2219C364.894 13.9078 364.87 13.8984 363.806 13.8891C363.066 13.8797 362.803 13.8891 362.695 13.9406Z" fill="black"/>
<path d="M363.867 21.8672C363.792 21.9375 363.75 22.0359 363.75 22.125C363.75 22.2141 363.792 22.3125 363.867 22.3828L363.98 22.5H372H380.02L380.133 22.3828C380.288 22.2328 380.288 22.0172 380.133 21.8672L380.02 21.75H372H363.98L363.867 21.8672Z" fill="black"/>
<path d="M371.742 23.3672C371.667 23.4375 371.625 23.5359 371.625 23.625C371.625 23.9531 372.028 24.1172 372.258 23.8828C372.492 23.6531 372.328 23.25 372 23.25C371.911 23.25 371.812 23.2922 371.742 23.3672Z" fill="black"/>
</g>
<g clip-path="url(#clip5_3_59)">
<path d="M416.269 0.417187C416.044 0.473437 415.645 0.707812 415.519 0.857812C415.453 0.9375 415.345 1.10625 415.275 1.2375C415.167 1.44844 415.148 1.52344 415.158 1.875C415.163 2.09531 415.172 2.32031 415.181 2.37656C415.191 2.46094 414.9 2.7 413.386 3.83437L411.577 5.19375L411.277 5.04375C411.019 4.91719 410.934 4.89844 410.602 4.89844C410.302 4.90312 410.18 4.92188 409.992 5.01562C409.692 5.16094 409.378 5.475 409.252 5.75625C409.106 6.06562 409.106 6.68437 409.247 6.98906C409.392 7.29844 409.655 7.57031 409.959 7.72031C410.189 7.83281 410.283 7.85156 410.625 7.85156C411.103 7.85156 411.361 7.74844 411.666 7.44375C411.998 7.11562 412.102 6.84844 412.092 6.375C412.088 6.15469 412.078 5.92969 412.069 5.87344C412.059 5.78906 412.35 5.55 413.864 4.41562L415.673 3.05625L415.955 3.19687C416.48 3.45469 417.019 3.41719 417.502 3.08437L417.708 2.94375L419.616 4.06875L421.519 5.18906L421.523 5.60625C421.528 5.93437 421.552 6.07031 421.631 6.23437C421.791 6.56719 421.983 6.76875 422.306 6.94219C422.578 7.0875 422.634 7.10156 423 7.10156C423.366 7.10156 423.422 7.0875 423.694 6.94219C424.022 6.76406 424.163 6.61406 424.35 6.2625C424.458 6.05625 424.472 5.96719 424.477 5.58281V5.14219L426.188 4.07344C427.13 3.48281 427.936 3.00469 427.978 3C428.02 3 428.072 3.02344 428.086 3.04688C428.105 3.075 428.227 3.15 428.358 3.22031C428.564 3.32812 428.663 3.34687 429 3.35156C429.37 3.35156 429.422 3.3375 429.703 3.18281C430.786 2.5875 430.748 1.05937 429.633 0.515625C429.295 0.351562 428.705 0.351562 428.367 0.515625C428.067 0.660937 427.786 0.942187 427.641 1.24219C427.542 1.43906 427.523 1.54687 427.523 1.91719V2.35781L425.813 3.42656C424.87 4.01719 424.073 4.49531 424.041 4.5C424.008 4.5 423.909 4.44844 423.83 4.3875C423.361 4.03594 422.658 4.04531 422.119 4.41562L421.922 4.55156L420.014 3.43125L418.106 2.31094L418.102 1.89375C418.102 1.51406 418.088 1.45312 417.942 1.18125C417.759 0.839062 417.595 0.689062 417.239 0.525C416.972 0.403125 416.522 0.351562 416.269 0.417187ZM416.92 1.19062C417.403 1.39219 417.52 2.02031 417.145 2.39531C416.841 2.7 416.409 2.7 416.105 2.39531C415.523 1.81875 416.166 0.871875 416.92 1.19062ZM429.295 1.19062C429.783 1.39219 429.895 2.01094 429.516 2.39062C429.206 2.7 428.784 2.70469 428.48 2.39531C427.898 1.81875 428.541 0.871875 429.295 1.19062ZM423.295 4.94062C423.778 5.14219 423.895 5.77031 423.52 6.14531C422.995 6.675 422.133 6.20156 422.269 5.46094C422.353 5.02031 422.869 4.75781 423.295 4.94062ZM410.92 5.69062C411.403 5.89219 411.52 6.52031 411.145 6.89531C410.62 7.425 409.758 6.95156 409.894 6.21094C409.978 5.77031 410.494 5.50781 410.92 5.69062Z" fill="black"/>
<path d="M415.242 5.74219L415.125 5.85469V10.8047V15.75H415.5H415.875V11.0625V6.375H417H418.125V10.125V13.875H418.5H418.875V9.86719V5.85469L418.758 5.74219L418.645 5.625H417H415.355L415.242 5.74219Z" fill="black"/>
<path d="M427.242 5.74219L427.125 5.85469V11.9297V18H427.5H427.875V12.1875V6.375H429H430.125V12.1875V18H430.5H430.875V11.9297V5.85469L430.758 5.74219L430.645 5.625H429H427.355L427.242 5.74219Z" fill="black"/>
<path d="M409.242 9.49219L409.125 9.60469V13.8047V18H409.5H409.875V14.0625V10.125H411H412.125V14.0625V18H412.5H412.875V13.8047V9.60469L412.758 9.49219L412.645 9.375H411H409.355L409.242 9.49219Z" fill="black"/>
<path d="M421.242 9.49219L421.125 9.60469V11.7422V13.875H421.5H421.875V12V10.125H423H424.125V12.9375V15.75H424.5H424.875V12.6797V9.60469L424.758 9.49219L424.645 9.375H423H421.355L421.242 9.49219Z" fill="black"/>
<path d="M419.217 14.6953C417.961 14.9203 416.836 15.6938 416.166 16.7813C415.542 17.7891 415.345 19.1016 415.641 20.2266C416.198 22.3359 418.134 23.7469 420.277 23.6063C421.027 23.5594 421.631 23.3719 422.316 22.9734C422.653 22.7766 423.328 22.2141 423.328 22.125C423.328 22.1063 423.211 21.9891 423.07 21.8719L422.813 21.6516L422.489 21.9234C422.063 22.2797 421.716 22.4859 421.27 22.6453C419.611 23.2313 417.816 22.6266 416.859 21.1547C416.442 20.5219 416.278 19.9453 416.278 19.125C416.273 18.3141 416.442 17.7328 416.855 17.1C418.167 15.0938 420.961 14.7937 422.644 16.4813C423.352 17.1844 423.792 18.2766 423.741 19.1953L423.727 19.4719L423.516 19.1859L423.3 18.9L423.028 19.1063C422.873 19.2188 422.742 19.3219 422.728 19.3313C422.719 19.3453 422.977 19.7156 423.305 20.1563C424.144 21.2766 424.106 21.2766 424.945 20.1563C425.273 19.7156 425.531 19.3453 425.522 19.3313C425.508 19.3219 425.377 19.2188 425.222 19.1063L424.95 18.9L424.734 19.1859L424.523 19.4719L424.491 18.9375C424.416 17.7141 423.952 16.6922 423.103 15.8859C422.067 14.8922 420.605 14.4422 419.217 14.6953Z" fill="black"/>
<path d="M419.625 17.8828V19.2656L419.006 19.575C418.664 19.7437 418.373 19.8937 418.364 19.9031C418.341 19.9219 418.645 20.5781 418.673 20.5781C418.763 20.5781 420.291 19.7578 420.328 19.6922C420.356 19.6312 420.375 19.0359 420.375 18.0516V16.5H420H419.625V17.8828Z" fill="black"/>
<path d="M408.375 19.125V19.5H411.563H414.75V19.125V18.75H411.563H408.375V19.125Z" fill="black"/>
<path d="M426.375 19.125V19.5H429H431.625V19.125V18.75H429H426.375V19.125Z" fill="black"/>
</g>
<g clip-path="url(#clip6_3_59)">
<path d="M467.77 0.0656251C467.363 0.290625 467.536 0.9375 468 0.9375C468.239 0.9375 468.469 0.707813 468.469 0.473438C468.469 0.121875 468.08 -0.107812 467.77 0.0656251Z" fill="black"/>
<path d="M465.295 0.351562C463.491 0.829687 461.681 1.9125 460.383 3.29062C458.545 5.24062 457.547 7.75312 457.538 10.4297C457.533 12.1547 457.866 13.6031 458.606 15.1219L458.812 15.5484L457.542 17.7469C456.08 20.2734 456 20.4281 456 20.7187C456 21.1266 456.3 21.5719 456.689 21.7359C456.905 21.825 457.219 21.8109 458.194 21.675C458.672 21.6094 459.084 21.5672 459.113 21.5766C459.141 21.5906 459.333 22.0125 459.539 22.5187C459.75 23.0391 459.97 23.5172 460.05 23.6109C460.219 23.8172 460.598 24 460.856 24C461.161 24 461.461 23.8734 461.658 23.6578C461.756 23.55 462.267 22.7062 462.797 21.7828C463.622 20.3437 463.772 20.1094 463.852 20.1281C463.903 20.1422 464.25 20.2547 464.625 20.3859C466.805 21.1406 469.195 21.1406 471.375 20.3859C471.75 20.2547 472.097 20.1422 472.148 20.1281C472.228 20.1094 472.378 20.3437 473.203 21.7828C473.733 22.7062 474.244 23.55 474.342 23.6578C474.539 23.8734 474.839 24 475.144 24C475.402 24 475.781 23.8172 475.95 23.6109C476.03 23.5125 476.25 23.0484 476.461 22.5187C476.663 22.0125 476.855 21.5906 476.888 21.5766C476.916 21.5672 477.328 21.6094 477.806 21.675C478.781 21.8109 479.095 21.825 479.311 21.7359C479.7 21.5719 480 21.1266 480 20.7187C480 20.5969 479.953 20.4094 479.888 20.2734C479.831 20.1422 479.198 19.0266 478.481 17.7937L477.188 15.5484L477.394 15.1219C478.406 13.05 478.706 10.8 478.284 8.48906C477.708 5.34375 475.552 2.52187 472.622 1.08281C471.708 0.637499 470.503 0.234375 470.077 0.234375C469.753 0.234375 469.547 0.590624 469.692 0.904686C469.763 1.05937 469.842 1.09687 470.461 1.26562C474.155 2.25 476.883 5.33437 477.445 9.16406C477.544 9.84375 477.544 11.1094 477.445 11.7891C477.141 13.8609 476.241 15.6891 474.802 17.1516C473.348 18.6281 471.553 19.5562 469.458 19.9078C468.778 20.0203 467.189 20.0203 466.523 19.9078C463.575 19.3922 461.175 17.7328 459.713 15.1875C458.873 13.725 458.48 12.2156 458.48 10.4766C458.48 8.34844 459.127 6.4125 460.416 4.70156C461.695 2.99531 463.645 1.725 465.797 1.19531C466.13 1.11094 466.223 1.05937 466.303 0.904686C466.402 0.721874 466.369 0.520311 466.223 0.370312C466.05 0.201561 465.886 0.196875 465.295 0.351562ZM460.636 17.9062C461.259 18.525 461.864 19.0078 462.516 19.4016C462.731 19.5328 462.914 19.65 462.923 19.6547C462.933 19.6641 462.502 20.4281 461.963 21.3562C461.109 22.8375 460.978 23.0391 460.88 23.0391C460.777 23.0391 460.73 22.9547 460.388 22.1109C460.177 21.6047 459.947 21.1125 459.872 21.0187C459.713 20.8172 459.328 20.625 459.089 20.625C458.995 20.625 458.545 20.6812 458.091 20.7469C457.186 20.8781 456.97 20.8781 456.947 20.7609C456.933 20.6953 457.87 19.0312 459.127 16.8844L459.38 16.4484L459.713 16.8844C459.895 17.1234 460.312 17.5828 460.636 17.9062ZM477.867 18.6047C478.528 19.7484 479.062 20.7187 479.053 20.7609C479.03 20.8781 478.814 20.8781 477.909 20.7469C477.455 20.6812 477.005 20.625 476.911 20.625C476.672 20.625 476.288 20.8172 476.128 21.0187C476.053 21.1125 475.823 21.6047 475.613 22.1109C475.27 22.9547 475.223 23.0391 475.12 23.0391C475.022 23.0391 474.891 22.8375 474.033 21.3562C473.334 20.1469 473.077 19.6594 473.119 19.6359C474.286 18.9703 475.566 17.8547 476.32 16.8375C476.475 16.6312 476.616 16.4766 476.634 16.4906C476.653 16.5094 477.206 17.4609 477.867 18.6047Z" fill="black"/>
<path d="M467.297 2.39531C466.275 2.47969 465.352 2.74219 464.367 3.23438C463.627 3.60469 463.027 4.01719 462.497 4.51406C462.159 4.83281 462.141 4.86094 462.141 5.05312C462.141 5.32031 462.333 5.53125 462.581 5.53125C462.722 5.53125 462.811 5.47031 463.181 5.15156C465.192 3.40312 467.738 2.86875 470.25 3.66562C471.136 3.94687 472.022 4.45781 472.819 5.15156C473.189 5.47031 473.278 5.53125 473.419 5.53125C473.667 5.53125 473.859 5.32031 473.859 5.05312C473.859 4.86562 473.841 4.83281 473.517 4.52344C473.006 4.03594 472.369 3.60469 471.633 3.23438C470.616 2.72812 469.777 2.49375 468.633 2.39531C468.014 2.33906 467.944 2.33906 467.297 2.39531Z" fill="black"/>
<path d="M459.234 8.2875L459.094 8.42812V10.4953V12.5578L459.206 12.6891L459.319 12.8203H460.252C461.1 12.8203 461.198 12.8109 461.395 12.7219C461.695 12.5812 461.981 12.3094 462.131 12.0281C462.239 11.8219 462.258 11.7328 462.258 11.3672C462.258 10.8937 462.173 10.6547 461.902 10.3687L461.752 10.2094L461.836 10.0406C461.878 9.94219 461.93 9.73594 461.939 9.58125C461.986 9.04219 461.719 8.56406 461.231 8.30625C461.002 8.18437 460.955 8.17969 460.186 8.16562L459.375 8.14687L459.234 8.2875ZM460.898 9.21094C461.072 9.37969 461.058 9.61406 460.87 9.76875C460.744 9.87656 460.688 9.89062 460.378 9.89062H460.031V9.49219V9.09375H460.406C460.748 9.09375 460.795 9.10781 460.898 9.21094ZM461.184 10.9875C461.316 11.1187 461.344 11.1844 461.344 11.3391C461.344 11.7562 461.105 11.9062 460.453 11.9062H460.031V11.3672V10.8281H460.528H461.025L461.184 10.9875Z" fill="black"/>
<path d="M463.847 8.19844C463.411 8.30625 462.933 8.70469 462.736 9.13125C462.637 9.3375 462.633 9.41719 462.633 10.5V11.6484L462.769 11.9203C462.937 12.2484 463.233 12.5297 463.584 12.6938C463.941 12.8625 464.527 12.8719 464.873 12.7125C465.366 12.4922 465.684 12.1172 465.82 11.6016C465.919 11.2172 465.919 9.7875 465.82 9.39844C465.6 8.53594 464.709 7.99688 463.847 8.19844ZM464.583 9.19688C464.7 9.2625 464.798 9.37032 464.864 9.50157C464.953 9.68438 464.958 9.76875 464.944 10.5656C464.93 11.5125 464.916 11.5547 464.606 11.7844C464.405 11.9344 464.034 11.9203 463.814 11.7516C463.566 11.5641 463.537 11.4094 463.556 10.3969C463.57 9.6 463.58 9.51094 463.669 9.38907C463.88 9.09844 464.264 9.01875 464.583 9.19688Z" fill="black"/>
<path d="M466.444 8.29219L466.289 8.42812V10.5V12.5719L466.444 12.7078C466.528 12.7828 466.65 12.8438 466.716 12.8438C466.866 12.8438 467.086 12.7312 467.137 12.6234C467.161 12.5766 467.189 12.0047 467.203 11.3484L467.227 10.1578L468.094 11.4094C468.642 12.2062 469.003 12.6891 469.087 12.7312C469.289 12.8344 469.481 12.8109 469.65 12.6609L469.805 12.525L469.819 10.5375C469.823 9.44531 469.819 8.50781 469.805 8.44687C469.772 8.31562 469.523 8.15625 469.35 8.15625C469.275 8.15625 469.158 8.2125 469.069 8.29219L468.914 8.42812L468.891 9.65625L468.867 10.8844L467.962 9.57187C467.395 8.75156 467.016 8.24531 466.941 8.20781C466.753 8.12344 466.603 8.14687 466.444 8.29219Z" fill="black"/>
<path d="M470.573 8.22656C470.348 8.34844 470.339 8.4375 470.353 10.2L470.367 11.8359L470.494 12.0516C470.859 12.675 471.572 12.9703 472.242 12.7781C472.392 12.7313 472.57 12.6609 472.636 12.6234C472.847 12.4922 473.114 12.2156 473.217 12.0234C473.316 11.8406 473.32 11.775 473.334 10.1438L473.348 8.44688L473.241 8.32031C473.17 8.24063 473.067 8.18906 472.941 8.17031C472.772 8.14688 472.725 8.16563 472.589 8.2875L472.43 8.42813L472.406 10.0313L472.383 11.6344L472.252 11.7422C471.998 11.9625 471.647 11.9531 471.417 11.7188L471.281 11.5875V10.0313V8.475L471.122 8.31563C470.948 8.14219 470.78 8.11406 470.573 8.22656Z" fill="black"/>
<path d="M474.722 8.23594C473.934 8.46563 473.536 9.30469 473.883 10.0125C474.066 10.3875 474.23 10.4859 475.369 10.9266C475.739 11.0719 475.969 11.2641 475.969 11.4375C475.969 11.4844 475.917 11.5875 475.852 11.6672C475.542 12.0281 474.895 11.9625 474.338 11.5078C474.07 11.2922 473.902 11.2922 473.691 11.5031C473.409 11.7844 473.513 12.0891 474 12.4266C474.511 12.7828 475.238 12.9234 475.758 12.7781C476.855 12.4641 477.258 11.2828 476.527 10.5469C476.302 10.3266 476.1 10.2141 475.477 9.96563C474.755 9.675 474.703 9.64219 474.703 9.46875C474.703 9.05625 475.308 8.97188 475.908 9.30938C476.269 9.51094 476.447 9.51563 476.63 9.33281C476.817 9.14063 476.822 8.87344 476.634 8.68594C476.198 8.25469 475.341 8.05313 474.722 8.23594Z" fill="black"/>
<path d="M462.394 15.4688C462.239 15.5297 462.141 15.7031 462.141 15.9141C462.141 16.0875 462.169 16.1297 462.483 16.4297C463.477 17.3766 464.953 18.1359 466.336 18.4172C467.691 18.6891 469.008 18.6375 470.32 18.2578C471.473 17.925 472.734 17.1938 473.564 16.3875C473.831 16.125 473.859 16.0781 473.859 15.9047C473.859 15.6422 473.714 15.4734 473.461 15.4359C473.278 15.4125 473.255 15.4266 472.828 15.7969C471.539 16.9125 470.245 17.4703 468.567 17.6297C467.372 17.7422 466.027 17.4938 464.883 16.9453C464.325 16.6781 463.716 16.2703 463.181 15.8016C462.731 15.4125 462.633 15.3703 462.394 15.4688Z" fill="black"/>
</g>
<g clip-path="url(#clip7_3_59)">
<path d="M507.234 0.098444C506.977 0.215631 506.742 0.431255 506.611 0.679693C506.517 0.848444 506.508 0.951569 506.494 1.74376L506.475 2.62501H506.114C505.603 2.62501 505.35 2.72344 505.027 3.04219C504.539 3.52969 504.586 2.44219 504.586 13.3125C504.586 24.1828 504.539 23.0953 505.027 23.5828C505.486 24.0375 504.769 24 512.775 24C519.736 24 519.797 24 519.891 23.9063C519.989 23.8078 520.012 23.5828 519.938 23.4375C519.914 23.3906 519.825 23.3297 519.745 23.3016C519.637 23.2641 517.617 23.25 512.723 23.25C505.95 23.25 505.852 23.25 505.697 23.1563C505.612 23.1047 505.505 22.9969 505.453 22.9125C505.359 22.7578 505.359 22.6594 505.359 15.0797V7.40625H507.68C509.939 7.40625 510.005 7.40157 510.094 7.3125C510.225 7.18126 510.22 6.89063 510.089 6.76875C509.995 6.68438 509.878 6.67969 507.675 6.66563L505.359 6.65157V5.25938C505.359 3.95157 505.364 3.85782 505.453 3.71251C505.603 3.46876 505.8 3.37501 506.17 3.37501H506.484V3.76407C506.484 4.10626 506.503 4.19063 506.625 4.43907C507.005 5.20313 508.003 5.39063 508.627 4.81407C508.945 4.52344 509.03 4.32188 509.053 3.80626L509.072 3.37501H509.841H510.609V3.78751C510.609 4.13907 510.628 4.2375 510.731 4.44376C511.008 5.00626 511.645 5.26875 512.273 5.09063C512.484 5.02501 512.597 4.95469 512.789 4.76251C513.084 4.47188 513.187 4.19063 513.187 3.69376V3.37501H513.933H514.673L514.697 3.76407C514.73 4.26094 514.866 4.57969 515.147 4.82813C515.63 5.25469 516.37 5.25469 516.853 4.82813C517.134 4.57969 517.27 4.26094 517.303 3.76407L517.327 3.37501H518.067H518.812V3.69376C518.812 4.19063 518.916 4.47188 519.211 4.76251C519.403 4.95469 519.516 5.02501 519.727 5.09063C520.355 5.26875 520.992 5.00626 521.269 4.44376C521.372 4.2375 521.391 4.13907 521.391 3.78751V3.37501H522.159H522.928L522.947 3.80626C522.97 4.32188 523.055 4.52344 523.373 4.81407C523.997 5.39063 524.995 5.20313 525.375 4.43907C525.497 4.19063 525.516 4.10626 525.516 3.76407V3.37501H525.839C526.209 3.37501 526.406 3.47813 526.566 3.75001C526.659 3.90469 526.664 4.00313 526.678 5.28282L526.692 6.65625L518.892 6.66563C511.294 6.67969 511.087 6.67969 510.989 6.76875C510.858 6.89063 510.853 7.18126 510.984 7.3125C511.078 7.40625 511.139 7.40625 518.883 7.40625H526.688L526.678 15.0563C526.664 22.6172 526.664 22.7109 526.57 22.8703C526.519 22.9594 526.416 23.0719 526.345 23.1281C526.214 23.2266 526.163 23.2266 523.538 23.25L520.866 23.2734L520.748 23.4094C520.617 23.5641 520.627 23.7609 520.767 23.9156C520.837 23.9953 520.992 24 523.547 24C526.673 24 526.538 24.0188 526.973 23.5828C527.461 23.0953 527.414 24.1828 527.414 13.3125C527.414 2.44219 527.461 3.52969 526.973 3.04219C526.65 2.72344 526.397 2.62501 525.886 2.62501H525.525L525.506 1.74376C525.492 0.768757 525.459 0.656256 525.131 0.342194C524.616 -0.149994 523.711 -0.112494 523.252 0.421881C522.98 0.740631 522.938 0.937506 522.938 1.83751V2.62501H522.164H521.391V1.79063C521.391 1.01719 521.381 0.942194 521.278 0.726568C521.142 0.431255 520.805 0.126568 520.528 0.0468807C520.411 0.0140686 520.172 -0.00468063 519.994 0.00938034C519.586 0.0281315 519.281 0.201569 519.061 0.534382C518.841 0.857819 518.812 1.01251 518.812 1.86094V2.62501H518.067H517.322L517.303 1.79063C517.284 0.848444 517.238 0.679693 516.914 0.351568C516.652 0.0937557 516.417 5.72205e-06 516 5.72205e-06C515.583 5.72205e-06 515.348 0.0937557 515.086 0.351568C514.762 0.679693 514.716 0.848444 514.697 1.79063L514.678 2.62501H513.937H513.197L513.178 1.76719C513.164 0.998444 513.15 0.895319 513.061 0.721882C512.803 0.234381 512.433 5.72205e-06 511.931 5.72205e-06C511.762 5.72205e-06 511.547 0.0234432 511.444 0.0562553C511.186 0.131256 510.853 0.445318 510.722 0.726568C510.619 0.942194 510.609 1.01719 510.609 1.79063V2.62501H509.836H509.062V1.83751C509.062 0.937506 509.02 0.740631 508.748 0.421881C508.402 0.0187569 507.727 -0.126556 507.234 0.098444ZM508.059 0.825006C508.303 0.989069 508.312 1.05469 508.312 2.56407C508.312 4.09688 508.308 4.11563 508.031 4.30313C507.82 4.44844 507.6 4.41563 507.398 4.21876L507.258 4.07813L507.244 2.63907C507.23 1.10157 507.239 1.01251 507.459 0.843756C507.605 0.726568 507.895 0.721882 508.059 0.825006ZM512.152 0.820318C512.419 0.956257 512.437 1.07344 512.437 2.55C512.437 4.04532 512.419 4.14375 512.147 4.31251C511.959 4.425 511.866 4.42969 511.659 4.33125C511.364 4.19063 511.359 4.14844 511.359 2.52657V1.06876L511.519 0.909382C511.697 0.731256 511.922 0.698444 512.152 0.820318ZM516.352 0.904694C516.558 1.11094 516.572 1.22813 516.553 2.74219C516.539 4.16719 516.53 4.20469 516.197 4.34532C516.047 4.40626 516 4.41094 515.841 4.35469C515.737 4.31719 515.611 4.22813 515.559 4.15782C515.466 4.03126 515.461 3.95625 515.447 2.75157C515.428 1.22344 515.442 1.11094 515.648 0.904694C515.775 0.778131 515.841 0.750006 516 0.750006C516.159 0.750006 516.225 0.778131 516.352 0.904694ZM520.481 0.909382L520.641 1.06876V2.53126C520.641 4.15313 520.636 4.19063 520.331 4.33594C520.134 4.42969 520.041 4.425 519.853 4.31251C519.581 4.14375 519.562 4.04532 519.562 2.55C519.562 1.40626 519.572 1.18594 519.637 1.05001C519.731 0.85313 519.9 0.754694 520.144 0.750006C520.284 0.750006 520.355 0.782818 520.481 0.909382ZM524.541 0.843756C524.761 1.01251 524.77 1.10157 524.756 2.63907L524.742 4.07813L524.602 4.21876C524.4 4.41563 524.18 4.44844 523.969 4.30313C523.88 4.24219 523.781 4.13907 523.748 4.07813C523.669 3.92344 523.664 1.21407 523.739 1.06407C523.889 0.764069 524.297 0.651569 524.541 0.843756Z" fill="black"/>
<path d="M507.797 9.07969C507.759 9.09375 507.689 9.13594 507.647 9.17813C507.572 9.24375 507.562 9.375 507.562 10.7109C507.562 12.1359 507.567 12.1734 507.661 12.2625C507.755 12.3469 507.858 12.3516 509.105 12.3656C509.841 12.375 510.492 12.3656 510.553 12.3516C510.609 12.3375 510.698 12.2859 510.75 12.2344C510.839 12.1453 510.844 12.0703 510.844 10.7391C510.844 9.96563 510.83 9.3 510.816 9.25781C510.741 9.06563 510.581 9.04688 509.194 9.05156C508.463 9.05156 507.834 9.06563 507.797 9.07969ZM510.094 10.7109V11.625H509.203H508.312V10.7109V9.79688H509.203H510.094V10.7109Z" fill="black"/>
<path d="M512.217 9.15938L512.086 9.27188V10.7063C512.086 12.1313 512.086 12.1406 512.194 12.2438C512.297 12.3516 512.316 12.3516 513.708 12.3656L515.114 12.3797L515.25 12.2391L515.391 12.1031V10.7391C515.391 9.84375 515.372 9.34219 515.339 9.26719C515.245 9.06094 515.138 9.04688 513.703 9.04688H512.348L512.217 9.15938ZM514.641 10.7109V11.625H513.75H512.859V10.7109V9.79688H513.75H514.641V10.7109Z" fill="black"/>
<path d="M516.816 9.10313C516.623 9.19219 516.609 9.31875 516.609 10.7391V12.1031L516.75 12.2391L516.886 12.3797L518.292 12.3656C519.684 12.3516 519.703 12.3516 519.806 12.2438C519.914 12.1406 519.914 12.1313 519.914 10.7063V9.27188L519.783 9.15938L519.652 9.04688L518.283 9.05157C517.444 9.05157 516.877 9.07032 516.816 9.10313ZM519.141 10.7109V11.625H518.25H517.359V10.7109V9.79688H518.25H519.141V10.7109Z" fill="black"/>
<path d="M521.367 9.09844C521.156 9.21563 521.156 9.23438 521.156 10.7203C521.156 12.0703 521.161 12.1453 521.25 12.2344C521.302 12.2859 521.391 12.3375 521.447 12.3516C521.508 12.3656 522.164 12.375 522.905 12.3656L524.259 12.3516L524.348 12.2391C524.433 12.1359 524.438 12.0375 524.438 10.6875C524.438 9.28594 524.433 9.24844 524.339 9.15938C524.245 9.075 524.142 9.07031 522.848 9.06094C521.892 9.05156 521.433 9.06563 521.367 9.09844ZM523.688 10.7109V11.625H522.797H521.906V10.7109V9.79688H522.797H523.688V10.7109Z" fill="black"/>
<path d="M507.656 13.7812C507.567 13.8703 507.562 13.9359 507.562 15.3234V16.7766L507.684 16.8703C507.806 16.9641 507.863 16.9688 509.213 16.9688H510.614L510.727 16.8516L510.844 16.7391V15.3375C510.844 13.9875 510.839 13.9312 510.745 13.8094L510.652 13.6875H509.198C507.811 13.6875 507.745 13.6922 507.656 13.7812ZM510.094 15.3281V16.2188H509.203H508.312V15.3281V14.4375H509.203H510.094V15.3281Z" fill="black"/>
<path d="M512.175 13.7859C512.091 13.875 512.086 13.9828 512.072 15.2062C512.053 16.6359 512.077 16.8234 512.273 16.9125C512.358 16.95 512.822 16.9688 513.769 16.9688C515.053 16.9688 515.152 16.9641 515.255 16.8797L515.367 16.7906L515.381 15.3656C515.395 13.9734 515.391 13.9359 515.297 13.8141L515.198 13.6875H513.731C512.302 13.6875 512.264 13.6922 512.175 13.7859ZM514.641 15.3281V16.2188H513.75H512.859V15.3281V14.4375H513.75H514.641V15.3281Z" fill="black"/>
<path d="M516.703 13.8141C516.609 13.9359 516.605 13.9734 516.619 15.3656L516.633 16.7906L516.745 16.8797C516.848 16.9641 516.947 16.9688 518.231 16.9688C519.178 16.9688 519.642 16.95 519.727 16.9125C519.923 16.8234 519.947 16.6359 519.928 15.2062C519.914 13.9828 519.909 13.875 519.825 13.7859C519.736 13.6922 519.698 13.6875 518.269 13.6875H516.802L516.703 13.8141ZM519.141 15.3281V16.2188H518.25H517.359V15.3281V14.4375H518.25H519.141V15.3281Z" fill="black"/>
<path d="M521.255 13.8094C521.161 13.9312 521.156 13.9875 521.156 15.3375V16.7391L521.273 16.8516L521.386 16.9688H522.788C524.138 16.9688 524.194 16.9641 524.316 16.8703L524.438 16.7766V15.3234C524.438 13.9359 524.433 13.8703 524.344 13.7812C524.255 13.6922 524.189 13.6875 522.802 13.6875H521.348L521.255 13.8094ZM523.688 15.3281V16.2188H522.797H521.906V15.3281V14.4375H522.797H523.688V15.3281Z" fill="black"/>
<path d="M507.666 18.375C507.562 18.4734 507.562 18.4922 507.562 19.9219C507.562 21.3516 507.562 21.3703 507.666 21.4688C507.764 21.5578 507.825 21.5625 509.189 21.5625H510.614L510.727 21.4453L510.844 21.3328V19.9219V18.5109L510.727 18.3984L510.614 18.2812H509.189C507.825 18.2812 507.764 18.2859 507.666 18.375ZM510.094 19.9219V20.8125H509.203H508.312V19.9219V19.0312H509.203H510.094V19.9219Z" fill="black"/>
<path d="M512.236 18.3375C512.086 18.4547 512.062 18.6516 512.062 19.9172C512.062 21.2109 512.086 21.4312 512.25 21.5156C512.302 21.5437 512.92 21.5625 513.75 21.5625H515.161L515.273 21.4453L515.391 21.3328V19.9219V18.5109L515.273 18.3984L515.161 18.2812H513.736C512.672 18.2812 512.297 18.2953 512.236 18.3375ZM514.641 19.9219V20.8125H513.75H512.859V19.9219V19.0312H513.75H514.641V19.9219Z" fill="black"/>
<path d="M516.727 18.3984L516.609 18.5109V19.9219V21.3328L516.727 21.4453L516.839 21.5625H518.25C519.08 21.5625 519.698 21.5437 519.75 21.5156C519.914 21.4312 519.938 21.2109 519.938 19.9219C519.938 18.6328 519.914 18.4125 519.75 18.3281C519.698 18.3 519.08 18.2812 518.25 18.2812H516.839L516.727 18.3984ZM519.141 19.9219V20.8125H518.25H517.359V19.9219V19.0312H518.25H519.141V19.9219Z" fill="black"/>
<path d="M521.255 18.4031C521.161 18.525 521.156 18.5812 521.156 19.9219C521.156 21.2625 521.161 21.3187 521.255 21.4406L521.348 21.5625H522.792C524.175 21.5625 524.236 21.5578 524.334 21.4688C524.438 21.3703 524.438 21.3516 524.438 19.9219C524.438 18.4922 524.438 18.4734 524.334 18.375C524.236 18.2859 524.175 18.2812 522.792 18.2812H521.348L521.255 18.4031ZM523.688 19.9219V20.8125H522.797H521.906V19.9219V19.0312H522.797H523.688V19.9219Z" fill="black"/>
</g>
<path d="M563.297 0.0281239C563.231 0.0374985 562.992 0.0703125 562.758 0.0984364C561.961 0.196875 560.85 0.539062 560.095 0.923437C558.436 1.7625 557.025 3.17344 556.2 4.81875C555.562 6.08906 555.281 7.29844 555.281 8.74687C555.286 10.2328 555.581 11.4609 556.247 12.75C556.678 13.5797 557.086 14.1281 557.822 14.8781L558.464 15.5297L557.363 18.6891C556.58 20.9531 556.275 21.8859 556.294 21.9656C556.312 22.0312 556.378 22.1156 556.439 22.1578C556.552 22.2328 556.655 22.2281 558.014 22.0828L559.467 21.9328L560.034 22.4859C561.45 23.8734 561.591 24 561.722 24C561.792 24 561.895 23.9531 561.952 23.8922C562.022 23.8219 562.369 22.8937 563.016 21.0328C563.541 19.5187 563.986 18.2812 564 18.2812C564.014 18.2812 564.459 19.5187 564.984 21.0328C565.631 22.8984 565.978 23.8219 566.048 23.8969C566.105 23.9531 566.208 24 566.278 24C566.409 24 566.564 23.8594 567.942 22.5094L568.533 21.9281L569.967 22.0828C571.533 22.2469 571.598 22.2422 571.692 21.9984C571.734 21.8859 571.664 21.6516 571.191 20.2828C570.886 19.4109 570.6 18.6422 570.553 18.5812C570.427 18.4219 570.183 18.4266 570.052 18.5906C569.995 18.6609 569.953 18.75 569.953 18.7969C569.953 18.8391 570.155 19.4531 570.398 20.1562C570.647 20.8594 570.839 21.4406 570.83 21.45C570.825 21.4547 570.342 21.4125 569.766 21.3516C569.184 21.2859 568.608 21.2344 568.481 21.2344H568.252L567.342 22.1062C566.845 22.5891 566.428 22.9734 566.414 22.9641C566.367 22.9125 564.516 17.5219 564.534 17.4891C564.548 17.4703 564.722 17.4375 564.923 17.4234C566.105 17.3297 567.713 16.7719 568.673 16.1156C568.781 16.0453 568.884 15.9844 568.908 15.9844C568.931 15.9844 569.072 16.3453 569.227 16.7906C569.381 17.2312 569.545 17.6437 569.592 17.7047C569.766 17.9203 570.188 17.775 570.188 17.4984C570.188 17.4422 570.042 16.9781 569.859 16.4578L569.531 15.5203L570.028 15.0375C570.305 14.7703 570.661 14.3859 570.83 14.1797C571.673 13.1297 572.302 11.7703 572.583 10.3828C572.728 9.66094 572.761 8.29687 572.653 7.54688C572.072 3.53437 568.898 0.46875 564.886 0.046875C564.469 0.00468636 563.55 -0.00468826 563.297 0.0281239ZM564.834 0.754686C566.625 0.951561 568.242 1.70156 569.531 2.93906C570.895 4.24219 571.739 5.91562 571.969 7.74844C572.053 8.40937 572.006 9.73125 571.875 10.3359C571.355 12.7781 569.789 14.8172 567.586 15.9141C566.588 16.4109 565.777 16.6359 564.619 16.7437C563.208 16.8703 561.759 16.5844 560.414 15.9141C558.202 14.8031 556.645 12.7828 556.125 10.3359C555.994 9.73125 555.947 8.40937 556.031 7.74844C556.322 5.40937 557.648 3.3 559.641 2.00625C561.178 1.00781 563.044 0.557812 564.834 0.754686ZM559.411 16.1719C560.372 16.7953 561.961 17.3391 563.063 17.4234C563.273 17.4375 563.452 17.4703 563.466 17.4891C563.484 17.5219 561.633 22.9172 561.586 22.9641C561.572 22.9734 561.164 22.5938 560.667 22.1203C559.823 21.3094 559.763 21.2578 559.575 21.2437C559.467 21.2344 558.886 21.2812 558.281 21.3469C557.677 21.4125 557.18 21.4594 557.17 21.45C557.142 21.4266 559.05 15.9844 559.088 15.9844C559.106 15.9844 559.252 16.0687 559.411 16.1719Z" fill="black"/>
<path d="M563.156 1.82812C560.784 2.15625 558.825 3.54844 557.775 5.65312C557.334 6.53437 557.123 7.32656 557.077 8.27812L557.048 8.8875L557.18 8.99062C557.4 9.16406 557.616 9.10312 557.719 8.84062C557.742 8.77031 557.766 8.57812 557.766 8.41875C557.766 8.25468 557.798 7.93593 557.836 7.70625C558.286 5.11406 560.208 3.14531 562.828 2.59219C563.119 2.53125 563.437 2.50781 564 2.50781C564.848 2.50781 565.252 2.57344 565.987 2.81719C568.148 3.53906 569.775 5.43281 570.159 7.68281C570.258 8.25468 570.258 9.22968 570.159 9.80156C569.728 12.3187 567.787 14.325 565.252 14.8687C564.619 15 563.475 15.0141 562.861 14.8922C560.461 14.4141 558.628 12.7266 557.972 10.3828C557.902 10.1344 557.812 9.92812 557.756 9.87656C557.531 9.68437 557.203 9.8625 557.203 10.1766C557.203 10.3969 557.531 11.3437 557.766 11.8172C559.312 14.9062 562.842 16.4109 566.1 15.3703C568.509 14.5969 570.3 12.6 570.825 10.1016C570.952 9.50156 570.952 7.93593 570.825 7.35937C570.361 5.22187 568.997 3.45469 567.084 2.5125C566.095 2.025 565.308 1.83281 564.187 1.80469C563.789 1.79531 563.325 1.80469 563.156 1.82812Z" fill="black"/>
<g clip-path="url(#clip8_3_59)">
<path d="M611.906 1.57969C611.747 1.63594 611.672 1.75313 611.672 1.92656C611.672 2.18906 611.775 2.23594 612.422 2.27344C613.317 2.32031 613.866 2.38594 614.588 2.53594C616.739 2.97188 618.689 3.9375 620.405 5.40938L620.77 5.72344L620.452 5.95781C620.278 6.08438 620.119 6.1875 620.095 6.1875C620.072 6.1875 619.922 6.075 619.767 5.93438C618.131 4.51406 616.036 3.56719 613.734 3.20156C612.9 3.07031 610.927 3.08438 610.106 3.225C609.014 3.41719 607.941 3.73594 607.102 4.12031C606.638 4.33594 606.548 4.45781 606.675 4.72031C606.773 4.93125 606.938 4.96406 607.238 4.82813C608.564 4.24219 609.877 3.90469 611.147 3.81563L611.625 3.78281V4.90781V6.03281L611.194 6.06094C609.506 6.17344 607.669 6.92344 606.248 8.07656C606.038 8.25 605.845 8.39063 605.827 8.39063C605.803 8.39063 605.442 8.04375 605.025 7.62656L604.261 6.85781L604.533 6.60938C604.683 6.47344 605.044 6.18281 605.33 5.96719C605.897 5.54531 605.977 5.42813 605.855 5.20781C605.817 5.14219 605.719 5.06719 605.634 5.04375C605.494 5.00625 605.452 5.02031 605.166 5.21719C604.327 5.79375 603.291 6.75469 602.653 7.54688C601.889 8.50313 601.139 9.825 600.727 10.9453C600.305 12.0891 600 13.7438 600 14.8641C600 15.1078 600.019 15.2016 600.098 15.3L600.192 15.4219H601.805C603.3 15.4219 603.417 15.4172 603.52 15.3328C603.619 15.2531 603.628 15.1969 603.661 14.6156C603.966 9.14531 609.361 5.44219 614.578 7.12969C614.822 7.20938 615.286 7.39688 615.605 7.55156C616.228 7.84688 617.086 8.38594 617.03 8.44219C617.006 8.46094 616.289 8.98594 615.431 9.60938L613.875 10.7391L613.673 10.575C613.275 10.2469 612.53 9.98438 612 9.98438C611.33 9.98438 610.598 10.2984 610.097 10.8C609.398 11.4984 609.131 12.4359 609.37 13.3734C609.483 13.8094 609.586 14.0109 609.891 14.4094L610.13 14.7188H609.947C609.202 14.7188 608.414 15.1594 608.006 15.7969C607.72 16.2422 607.688 16.4672 607.688 17.9016C607.688 19.2 607.688 19.2047 607.795 19.3031L607.903 19.4062H612.005H616.111L616.209 19.2984C616.308 19.1906 616.312 19.1578 616.312 17.8969C616.312 16.7438 616.303 16.5703 616.219 16.3078C616.064 15.8016 615.666 15.2859 615.258 15.0656C615.169 15.0188 615.094 14.9672 615.094 14.9484C615.094 14.9344 615.441 14.4422 615.867 13.8516C616.72 12.6797 616.767 12.5719 616.519 12.3797C616.369 12.2625 616.275 12.2578 616.139 12.3516C616.083 12.3891 615.661 12.9375 615.206 13.5703L614.372 14.7188H614.123H613.87L614.109 14.4094C614.414 14.0109 614.517 13.8094 614.63 13.3734C614.784 12.7641 614.733 12.1781 614.475 11.6109C614.386 11.4234 614.344 11.2781 614.372 11.2547C614.423 11.2031 619.43 7.56563 619.584 7.4625C619.645 7.425 619.069 8.25 618.305 9.3C617.386 10.5703 616.922 11.25 616.922 11.325C616.922 11.4703 617.119 11.6719 617.259 11.6719C617.438 11.6719 617.531 11.5781 618.094 10.7906C618.389 10.3734 618.647 10.0359 618.661 10.0313C618.722 10.0266 619.284 10.95 619.519 11.4422C620.011 12.4594 620.273 13.4813 620.339 14.6203C620.372 15.1969 620.381 15.2531 620.48 15.3328C620.583 15.4172 620.7 15.4219 622.195 15.4219H623.808L623.911 15.2906C624.005 15.1688 624.009 15.1359 623.981 14.5359C623.902 12.8438 623.452 11.1094 622.697 9.63281C622.317 8.88281 621.586 7.8 621.07 7.22813L620.855 6.98906L621.258 6.44063C621.539 6.05156 621.656 5.85 621.656 5.75156C621.656 5.64844 621.577 5.54531 621.263 5.24063C619.003 3.08906 616.059 1.80938 612.867 1.59375C612.094 1.54219 612.009 1.54219 611.906 1.57969ZM613.894 3.94219C615.886 4.28438 617.841 5.19844 619.355 6.50156L619.514 6.6375L618.586 7.3125C617.93 7.79063 617.644 7.97344 617.597 7.94063C616.641 7.26563 616.059 6.9375 615.295 6.6375C614.513 6.32813 613.242 6.04688 612.623 6.04688H612.375V4.91719V3.78281L612.853 3.81563C613.12 3.83438 613.584 3.89063 613.894 3.94219ZM605.002 9.32344C603.938 10.6219 603.258 12.1734 603.028 13.8234C602.986 14.1094 602.953 14.4328 602.953 14.5313V14.7188H601.823H600.694L600.727 14.3531C600.858 12.7547 601.186 11.5219 601.823 10.1953C602.297 9.20625 602.897 8.30625 603.525 7.6125L603.764 7.35469L604.552 8.1375L605.334 8.92031L605.002 9.32344ZM620.798 8.00156C621.305 8.62969 621.689 9.23438 622.083 10.0078C622.767 11.3672 623.147 12.7406 623.273 14.3297L623.302 14.7188H622.186H621.066L621.009 14.1422C620.85 12.5719 620.236 10.9594 619.322 9.74063L619.083 9.42656L619.748 8.50781C620.114 8.00625 620.428 7.59375 620.442 7.59375C620.456 7.59375 620.616 7.77656 620.798 8.00156ZM612.38 10.7344C612.755 10.8047 613.116 11.0016 613.411 11.2922C614.409 12.2953 614.109 13.9313 612.811 14.5453C612.516 14.6859 612.455 14.6953 612 14.6953C611.545 14.6953 611.484 14.6859 611.189 14.5453C609.895 13.9313 609.586 12.2953 610.58 11.3016C611.086 10.8 611.7 10.6078 612.38 10.7344ZM614.681 15.5484C614.977 15.6844 615.309 15.9984 615.459 16.2891C615.586 16.5188 615.586 16.5375 615.6 17.6109L615.614 18.7031H614.981H614.344V18.3563C614.344 18.0797 614.325 17.9906 614.245 17.8875C614.123 17.7328 613.903 17.7234 613.748 17.8688C613.655 17.9578 613.641 18.0141 613.641 18.3375V18.7031H612H610.359V18.3563C610.359 17.9344 610.261 17.7656 610.008 17.7656C609.755 17.7656 609.656 17.9344 609.656 18.3563V18.7031H609.019H608.386L608.4 17.6109C608.414 16.5375 608.414 16.5188 608.541 16.2891C608.747 15.8953 609.15 15.5672 609.548 15.4734C609.647 15.45 610.791 15.4313 612.094 15.4359C614.414 15.4453 614.466 15.4453 614.681 15.5484Z" fill="black"/>
<path d="M600.103 16.3266C599.897 16.5422 600.019 16.8422 600.337 16.8984C600.422 16.9125 601.153 16.9219 601.955 16.9125C603.389 16.8984 603.422 16.8984 603.52 16.7953C603.647 16.6688 603.656 16.4438 603.539 16.3125C603.459 16.2234 603.398 16.2188 601.828 16.2188H600.202L600.103 16.3266Z" fill="black"/>
<path d="M620.461 16.3125C620.344 16.4438 620.353 16.6688 620.48 16.7953C620.578 16.8984 620.611 16.8984 622.045 16.9125C622.847 16.9219 623.578 16.9125 623.662 16.8984C623.981 16.8375 624.108 16.5234 623.892 16.3219C623.784 16.2188 623.761 16.2188 622.162 16.2188C620.602 16.2188 620.541 16.2234 620.461 16.3125Z" fill="black"/>
<path d="M601.045 17.8406C600.952 17.9344 600.933 17.9859 600.956 18.1078C601.008 18.3844 601.106 18.4219 601.805 18.4219C602.362 18.4219 602.437 18.4125 602.55 18.3234C602.709 18.1969 602.719 17.9531 602.569 17.8125C602.475 17.7281 602.405 17.7188 601.819 17.7188C601.181 17.7188 601.167 17.7234 601.045 17.8406Z" fill="black"/>
<path d="M621.431 17.8125C621.281 17.9531 621.291 18.1969 621.45 18.3234C621.563 18.4125 621.638 18.4219 622.195 18.4219C622.894 18.4219 622.992 18.3844 623.044 18.1078C623.067 17.9859 623.048 17.9344 622.955 17.8406C622.833 17.7234 622.819 17.7188 622.181 17.7188C621.595 17.7188 621.525 17.7281 621.431 17.8125Z" fill="black"/>
<path d="M607.922 20.2359C607.692 20.3203 607.688 20.3531 607.688 21.3281C607.688 22.2047 607.692 22.2563 607.786 22.3406C607.88 22.425 608.02 22.4297 612 22.4297C615.98 22.4297 616.12 22.425 616.214 22.3406C616.308 22.2563 616.312 22.2047 616.312 21.3281C616.312 20.4516 616.308 20.4 616.214 20.3156C616.12 20.2313 616.003 20.2266 613.35 20.2266H610.584L610.495 20.3391C610.373 20.4891 610.383 20.6813 610.514 20.8031L610.622 20.9063H613.116H615.609V21.3281V21.75H612H608.391V21.3281V20.9063H608.831C609.253 20.9063 609.281 20.9016 609.37 20.7844C609.53 20.5828 609.492 20.3813 609.277 20.2734C609.183 20.2219 608.991 20.2031 608.569 20.2078C608.25 20.2078 607.959 20.2219 607.922 20.2359Z" fill="black"/>
</g>
<path d="M651 5.25C651 5.05109 651.079 4.86032 651.22 4.71967C651.36 4.57902 651.551 4.5 651.75 4.5H668.25C668.449 4.5 668.64 4.57902 668.78 4.71967C668.921 4.86032 669 5.05109 669 5.25C669 5.44891 668.921 5.63968 668.78 5.78033C668.64 5.92098 668.449 6 668.25 6H651.75C651.551 6 651.36 5.92098 651.22 5.78033C651.079 5.63968 651 5.44891 651 5.25ZM651 11.25C651 11.0511 651.079 10.8603 651.22 10.7197C651.36 10.579 651.551 10.5 651.75 10.5H668.25C668.449 10.5 668.64 10.579 668.78 10.7197C668.921 10.8603 669 11.0511 669 11.25C669 11.4489 668.921 11.6397 668.78 11.7803C668.64 11.921 668.449 12 668.25 12H651.75C651.551 12 651.36 11.921 651.22 11.7803C651.079 11.6397 651 11.4489 651 11.25ZM651 17.25C651 17.0511 651.079 16.8603 651.22 16.7197C651.36 16.579 651.551 16.5 651.75 16.5H668.25C668.449 16.5 668.64 16.579 668.78 16.7197C668.921 16.8603 669 17.0511 669 17.25C669 17.4489 668.921 17.6397 668.78 17.7803C668.64 17.921 668.449 18 668.25 18H651.75C651.551 18 651.36 17.921 651.22 17.7803C651.079 17.6397 651 17.4489 651 17.25Z" fill="black"/>
<path d="M38.283 52.001L30.51 59.975C30.3735 60.1151 30.2971 60.3029 30.2971 60.4985C30.2971 60.6941 30.3735 60.8819 30.51 61.022L38.283 68.999C38.3466 69.0643 38.4226 69.1162 38.5066 69.1517C38.5906 69.1871 38.6808 69.2054 38.772 69.2054C38.8632 69.2054 38.9534 69.1871 39.0374 69.1517C39.1214 69.1162 39.1974 69.0643 39.261 68.999C39.3918 68.8651 39.4651 68.6852 39.4651 68.498C39.4651 68.3108 39.3918 68.1309 39.261 67.997L31.9515 60.4985L39.261 53.0015C39.3914 52.8676 39.4643 52.6881 39.4643 52.5013C39.4643 52.3144 39.3914 52.1349 39.261 52.001C39.1974 51.9357 39.1214 51.8838 39.0374 51.8483C38.9534 51.8129 38.8632 51.7946 38.772 51.7946C38.6808 51.7946 38.5906 51.8129 38.5066 51.8483C38.4226 51.8838 38.3466 51.9357 38.283 52.001Z" fill="black"/>
<g clip-path="url(#clip9_3_59)">
<path d="M80.6859 48.5703C80.2219 48.6969 79.8234 48.9266 79.4719 49.2734C79.1156 49.6297 78.9141 49.9437 78.7453 50.4219C78.6375 50.7172 78.6328 50.7734 78.6187 52.7328L78.6047 54.7437L78.4359 54.8891C78.1641 55.1281 78.0937 55.3344 78.0937 55.9344C78.0937 56.4172 78.1031 56.4781 78.225 56.7078C78.3984 57.0359 78.6937 57.2281 79.0734 57.2562L79.3406 57.275L79.4437 57.6781C79.5844 58.2172 80.025 59.1172 80.3859 59.6C80.5453 59.8156 80.6719 59.9984 80.6625 60.0031C80.6531 60.0078 80.5078 60.0828 80.3344 60.1625C79.3734 60.6266 78.7125 61.5219 78.5391 62.5859L78.5109 62.7734L77.0297 63.2141C76.2187 63.4578 75.4687 63.6969 75.3703 63.7484C75.0562 63.9031 74.7328 64.2312 74.5828 64.5453C74.475 64.7797 74.4 65.1078 74.2031 66.2422C74.0719 67.0109 73.9734 67.6953 73.9922 67.7516C74.0531 68.0094 74.4703 68.0797 74.6297 67.8594C74.6906 67.7797 74.7797 67.3531 74.9297 66.4766C75.1828 65 75.2016 64.9203 75.3844 64.6953C75.6094 64.4281 75.5203 64.4609 78.3187 63.6172L78.5156 63.5562V63.8797C78.5156 64.0578 78.4969 64.2031 78.4687 64.2031C78.4453 64.2031 78.3094 64.2453 78.1641 64.3016C77.6766 64.4844 77.2359 64.9953 77.1141 65.5203C77.0531 65.7641 76.8281 68.5953 76.8281 69.0734C76.8281 69.7719 77.1469 70.0625 77.9203 70.0625C78.2672 70.0625 78.3234 70.0484 78.4125 69.9547C78.5391 69.8187 78.5437 69.5938 78.4266 69.4484C78.3562 69.3594 78.2812 69.3359 77.9719 69.3172L77.6016 69.2891L77.5875 69.0781C77.5687 68.7828 77.8031 65.8625 77.8641 65.6328C77.9391 65.3562 78.2953 65.0281 78.6 64.9531C79.0781 64.8406 79.6266 65.0703 79.8328 65.4781C79.9172 65.6469 79.95 65.9 80.0719 67.4234C80.1797 68.7922 80.1984 69.1906 80.1516 69.2469C80.1187 69.2891 80.0109 69.3125 79.8516 69.3125C79.3875 69.3125 79.1672 69.4906 79.2469 69.8C79.2984 70.0062 79.4297 70.0625 79.8656 70.0625C80.3062 70.0625 80.4891 70.0016 80.7 69.7859C80.9719 69.5094 80.9766 69.4156 80.8359 67.5687C80.7703 66.6594 80.6953 65.8016 80.6672 65.6609C80.6109 65.3281 80.4422 64.9625 80.2312 64.7328C80.0625 64.5453 79.6359 64.2875 79.3969 64.2312L79.2656 64.2031V63.7672V63.3312L79.8375 63.1578C80.2734 63.0266 80.4187 62.9984 80.4469 63.0406C80.5734 63.2469 82.2234 67.4281 83.2312 70.1C83.4562 70.7047 83.6812 71.2484 83.7281 71.3094C83.8547 71.4688 84.1453 71.4688 84.2719 71.3094C84.3187 71.2484 84.5437 70.7047 84.7687 70.1C85.7766 67.4281 87.4266 63.2469 87.5531 63.0406C87.5812 62.9984 87.7266 63.0266 88.1625 63.1578L88.7344 63.3312V64.3484V65.3656L88.5609 65.4219C87.9562 65.6141 87.4594 66.1625 87.3281 66.7859C87.2016 67.3766 87.3656 67.9766 87.7781 68.4172C88.575 69.2797 89.9906 69.1766 90.6328 68.2109C90.8766 67.8453 90.9516 67.5453 90.9281 67.0625C90.9047 66.5938 90.7781 66.2703 90.4781 65.9328C90.2906 65.7219 89.8687 65.4641 89.6156 65.4031L89.4844 65.375V64.4656V63.5562L89.6859 63.6172C91.725 64.2312 92.1609 64.3672 92.3062 64.4422C92.5172 64.55 92.7375 64.8125 92.8031 65.0375C92.8781 65.2906 93.8906 71.2531 93.8906 71.4359C93.8906 71.5391 93.8531 71.6281 93.7922 71.6844C93.6937 71.7734 93.4641 71.7734 84 71.7734C74.5359 71.7734 74.3062 71.7734 74.2078 71.6844C74.0719 71.5625 74.0812 71.4266 74.2734 70.3203C74.3625 69.8047 74.4375 69.3266 74.4375 69.2609C74.4375 69.0922 74.3062 68.9422 74.1234 68.9094C73.9969 68.8859 73.95 68.9047 73.8375 69.0125C73.7156 69.1391 73.6922 69.2234 73.5328 70.1891C73.4344 70.7562 73.3547 71.3281 73.35 71.4547C73.35 71.8719 73.575 72.2422 73.9453 72.4109C74.1281 72.4953 74.4937 72.5 84 72.5C93.5062 72.5 93.8719 72.4953 94.0547 72.4109C94.425 72.2375 94.6547 71.8719 94.6453 71.4453C94.6406 71.0469 93.5766 64.9109 93.4594 64.625C93.3375 64.325 92.9391 63.8984 92.6437 63.7531C92.5359 63.7016 91.7812 63.4578 90.9656 63.2141L89.4891 62.7734L89.4562 62.5625C89.3109 61.5453 88.5937 60.5938 87.6562 60.1578C87.4875 60.0781 87.3469 60.0125 87.3375 60.0031C87.3281 59.9984 87.4547 59.8156 87.6141 59.6C87.975 59.1172 88.4156 58.2172 88.5562 57.6781L88.6594 57.275L88.9266 57.2562C89.3062 57.2281 89.6016 57.0359 89.775 56.7078C89.8969 56.4781 89.9062 56.4172 89.9062 55.9344C89.9062 55.3344 89.8359 55.1281 89.5641 54.8891L89.3906 54.7391V54.0828C89.3906 53.3797 89.3578 53.2297 89.1703 53.1453C89.0062 53.0703 88.9031 53.0797 88.7766 53.1828C88.6687 53.2672 88.6641 53.3 88.6406 54.0781L88.6172 54.8844L88.3359 54.9734C88.1812 55.0203 88.05 55.0625 88.0453 55.0625C88.0359 55.0625 88.0312 54.3734 88.0312 53.525C88.0266 52.3578 88.0125 51.95 87.9656 51.8141C87.8016 51.3641 87.4172 51.0172 86.9578 50.9047C86.6391 50.8344 85.6406 50.825 85.3219 50.8953C85.1906 50.9187 84.975 51.0125 84.8391 51.1016C84.3516 51.4062 84.2203 51.4625 84 51.4625C83.7797 51.4625 83.6484 51.4062 83.1609 51.1016C83.025 51.0125 82.8094 50.9187 82.6781 50.8953C82.3594 50.825 81.3609 50.8344 81.0422 50.9047C80.5828 51.0172 80.1984 51.3641 80.0344 51.8141C79.9875 51.95 79.9734 52.3578 79.9687 53.525C79.9687 54.3734 79.9641 55.0625 79.9594 55.0625C79.95 55.0625 79.8187 55.0203 79.6641 54.9734L79.3828 54.8844L79.3687 53.0891C79.3641 52.0812 79.3781 51.1578 79.4016 50.9937C79.5281 50.1734 80.1141 49.5219 80.9297 49.2922C81.1172 49.2406 81.7031 49.2266 84 49.2266C87.0375 49.2266 87.0375 49.2266 87.525 49.4656C87.8531 49.6297 88.2422 50.0375 88.4109 50.3891C88.5703 50.7359 88.6406 51.0922 88.6406 51.5938C88.6406 51.9875 88.7016 52.1281 88.9031 52.175C89.0812 52.2219 89.2781 52.1234 89.3484 51.9641C89.4375 51.7437 89.3766 50.8016 89.25 50.4219C88.9406 49.4984 88.2094 48.8094 87.2953 48.5703C86.9109 48.4719 81.0562 48.4719 80.6859 48.5703ZM82.9078 51.8422C83.2969 52.1094 83.5875 52.2078 84 52.2078C84.4125 52.2078 84.7031 52.1094 85.0922 51.8422L85.4156 51.6172L86.0391 51.6031C86.7656 51.5844 87.0187 51.6547 87.1875 51.9312C87.2766 52.0812 87.2812 52.1609 87.2812 53.7969C87.2812 54.8516 87.3 55.5781 87.3328 55.6859C87.3891 55.8875 87.6 56.0469 87.8156 56.0469H87.9469L87.9234 56.6891C87.9094 57.2234 87.8812 57.3922 87.7875 57.6641C87.3187 58.9719 86.3906 60.0547 85.3406 60.5187C84.8812 60.725 84.5344 60.7953 84 60.7953C83.4656 60.7953 83.1187 60.725 82.6594 60.5187C81.8062 60.1437 81.0094 59.3375 80.5078 58.3437C80.1703 57.6734 80.1 57.4062 80.0766 56.6891L80.0531 56.0469H80.1844C80.4 56.0469 80.6109 55.8875 80.6672 55.6859C80.7 55.5781 80.7187 54.8516 80.7187 53.7969C80.7187 52.1656 80.7234 52.0766 80.8125 51.9312C80.9812 51.6547 81.2062 51.5891 81.9422 51.6031L82.5844 51.6172L82.9078 51.8422ZM79.1859 55.625H79.3125V56.0703V56.5156H79.1812C79.1062 56.5156 79.0031 56.4734 78.9469 56.4219C78.8578 56.3375 78.8437 56.2766 78.8437 55.9437C78.8437 55.5781 78.8484 55.5687 78.9516 55.5969C79.0078 55.6109 79.1109 55.625 79.1859 55.625ZM89.1562 55.9531C89.1562 56.2766 89.1422 56.3375 89.0531 56.4219C88.9969 56.4734 88.8937 56.5156 88.8187 56.5156H88.6875V56.075V55.6297L88.8656 55.6109C88.9594 55.6016 89.0672 55.5922 89.1 55.5875C89.1422 55.5781 89.1562 55.6812 89.1562 55.9531ZM81.3187 61.2594C81.3047 61.8172 81.2953 61.8969 81.1969 62.0328C81.0984 62.1734 81.0797 62.1781 80.8453 62.1594C80.6484 62.1406 80.4797 62.1734 79.9734 62.3234C79.6266 62.4312 79.3406 62.5109 79.3312 62.5016C79.2984 62.4688 79.5234 61.9437 79.6687 61.7281C79.9922 61.2359 80.5781 60.8 81.0562 60.6875C81.3516 60.6172 81.3375 60.5844 81.3187 61.2594ZM87.3703 60.8609C87.9516 61.1469 88.4766 61.7609 88.6312 62.3375C88.6594 62.4359 88.6734 62.5156 88.6687 62.5156C88.6641 62.5156 88.3734 62.4312 88.0266 62.3234C87.5391 62.1781 87.3422 62.1406 87.15 62.1547C86.9156 62.1687 86.8969 62.1641 86.7984 62.0281C86.7047 61.9016 86.6953 61.8125 86.6766 61.2547L86.6625 60.6266L86.8406 60.6594C86.9437 60.6781 87.1781 60.7719 87.3703 60.8609ZM82.4812 61.2687C82.9266 61.4562 83.4 61.5406 84 61.5406C84.7172 61.5406 85.1297 61.4469 85.8656 61.1234C85.9078 61.1047 85.9219 61.1844 85.9219 61.4469C85.9219 61.8219 86.0156 62.2156 86.1609 62.4547L86.2547 62.6047L85.125 63.4531L84 64.2969L82.875 63.4531L81.7453 62.6047L81.8391 62.4547C81.9844 62.2156 82.0781 61.8219 82.0781 61.4469C82.0781 61.1844 82.0922 61.1047 82.1391 61.1234C82.1672 61.1375 82.3266 61.2031 82.4812 61.2687ZM82.3219 63.9969C82.7953 64.3484 83.1844 64.6484 83.1937 64.6672C83.2031 64.6906 82.6312 64.9531 82.1906 65.1266C82.1578 65.1359 81.9984 64.7984 81.7922 64.2875C81.6 63.8187 81.4406 63.4156 81.4312 63.3969C81.3937 63.3125 81.5016 63.3875 82.3219 63.9969ZM86.5687 63.3969C86.5641 63.4156 86.4 63.8187 86.2078 64.2875C86.0016 64.7984 85.8422 65.1359 85.8094 65.1266C85.3687 64.9531 84.7969 64.6906 84.8062 64.6672C84.825 64.6203 86.4984 63.3687 86.5453 63.3641C86.5687 63.3594 86.5781 63.3781 86.5687 63.3969ZM84.4594 65.3797L84.7547 65.5156L84.5766 65.7266L84.4031 65.9375H84H83.5969L83.4234 65.7266L83.2453 65.5156L83.5406 65.3797C83.9531 65.1969 83.9672 65.1922 84.0656 65.2203C84.1172 65.2344 84.2953 65.3047 84.4594 65.3797ZM89.6109 66.2141C90.1453 66.4859 90.3469 67.1516 90.0609 67.6812C89.6906 68.3609 88.8047 68.45 88.2984 67.8594C87.6844 67.1422 88.2469 66.0266 89.1844 66.0969C89.3156 66.1109 89.5078 66.1578 89.6109 66.2141ZM84.4125 67.5172C84.4969 67.9766 84.5625 68.3844 84.5625 68.4219C84.5625 68.5203 84.0375 69.9219 84.0047 69.9219C83.9672 69.9219 83.4375 68.5203 83.4375 68.4219C83.4375 68.3844 83.5031 67.9766 83.5875 67.5172L83.7375 66.6875H84H84.2625L84.4125 67.5172Z" fill="black"/>
</g>
<path d="M132.94 60.5L138.467 54.9733C138.576 54.8458 138.633 54.6818 138.626 54.514C138.62 54.3462 138.55 54.187 138.432 54.0683C138.313 53.9496 138.154 53.88 137.986 53.8735C137.818 53.8671 137.654 53.9241 137.527 54.0333L132 59.56L126.473 54.0267C126.348 53.9011 126.178 53.8306 126 53.8306C125.822 53.8306 125.652 53.9011 125.527 54.0267C125.401 54.1522 125.331 54.3225 125.331 54.5C125.331 54.6775 125.401 54.8478 125.527 54.9733L131.06 60.5L125.527 66.0267C125.457 66.0864 125.4 66.16 125.36 66.2427C125.32 66.3254 125.298 66.4155 125.294 66.5073C125.291 66.5991 125.306 66.6907 125.34 66.7762C125.373 66.8618 125.424 66.9395 125.489 67.0044C125.554 67.0694 125.632 67.1202 125.717 67.1538C125.803 67.1873 125.894 67.2028 125.986 67.1992C126.078 67.1957 126.168 67.1732 126.251 67.1332C126.333 67.0931 126.407 67.0365 126.467 66.9667L132 61.44L137.527 66.9667C137.654 67.0759 137.818 67.133 137.986 67.1265C138.154 67.12 138.313 67.0504 138.432 66.9317C138.55 66.813 138.62 66.6538 138.626 66.486C138.633 66.3183 138.576 66.1542 138.467 66.0267L132.94 60.5Z" fill="black"/>
<g clip-path="url(#clip10_3_59)">
<path d="M186.656 48.6219C186.389 48.7391 186.286 48.8703 185.972 49.4891C185.747 49.9437 185.653 50.0891 185.569 50.1078C185.508 50.1219 185.217 50.1687 184.922 50.2109C184.284 50.3047 184.111 50.375 183.938 50.6187C183.773 50.8437 183.727 51.0969 183.797 51.3641C183.844 51.5328 183.952 51.6687 184.359 52.0766L184.866 52.5875L184.753 53.2484C184.664 53.7875 184.65 53.9469 184.692 54.1016C184.805 54.5047 185.105 54.7344 185.536 54.7344C185.747 54.7344 185.864 54.6922 186.38 54.4203L186.98 54.1062L187.584 54.4203C188.105 54.6875 188.227 54.7344 188.433 54.7344C188.705 54.7344 188.869 54.6641 189.056 54.4672C189.314 54.2 189.328 54.0219 189.183 53.1453L189.08 52.5547L189.53 52.1328C189.773 51.9031 190.017 51.6359 190.073 51.5469C190.214 51.3125 190.209 50.9375 190.059 50.6844C189.891 50.3937 189.684 50.3047 188.939 50.1969C188.578 50.1453 188.283 50.0938 188.273 50.0844C188.269 50.075 188.123 49.7937 187.955 49.4609C187.631 48.8094 187.57 48.7297 187.298 48.6172C187.083 48.5281 186.867 48.5281 186.656 48.6219ZM187.059 49.2875C187.088 49.3062 187.261 49.6203 187.448 49.9812C187.842 50.7641 187.819 50.7453 188.672 50.8625C189.338 50.9516 189.469 50.9937 189.469 51.1109C189.469 51.1531 189.225 51.4344 188.93 51.7344C188.302 52.3719 188.33 52.2781 188.489 53.2672C188.545 53.6047 188.578 53.9141 188.564 53.9562C188.513 54.0828 188.377 54.0406 187.716 53.7031C187.369 53.5203 187.036 53.375 186.975 53.375C186.919 53.375 186.581 53.525 186.23 53.7031C185.583 54.0312 185.419 54.0828 185.377 53.9703C185.367 53.9375 185.409 53.5953 185.475 53.2062C185.545 52.7797 185.583 52.4516 185.559 52.3672C185.536 52.2734 185.348 52.0531 184.988 51.7062C184.697 51.425 184.453 51.1719 184.453 51.1437C184.458 51.0125 184.575 50.9703 185.245 50.8719C185.752 50.7969 185.991 50.7406 186.084 50.675C186.164 50.6187 186.342 50.3281 186.553 49.9156C186.877 49.2828 186.938 49.2078 187.059 49.2875Z" fill="black"/>
<path d="M179.545 53.2578C179.372 53.3609 179.311 53.4547 179.02 54.0266L178.692 54.6734L178.116 54.7531C177.797 54.7953 177.464 54.8516 177.37 54.8797C177.155 54.9359 176.883 55.2266 176.817 55.4703C176.756 55.6906 176.756 55.7 176.817 55.9297C176.859 56.0703 176.995 56.2438 177.384 56.6375L177.895 57.1578L177.797 57.7156C177.666 58.4188 177.684 58.7422 177.863 58.9719C178.036 59.2016 178.238 59.3 178.547 59.3C178.777 59.3 178.87 59.2672 179.405 58.9813L180 58.6625L180.6 58.9813C181.13 59.2672 181.223 59.3 181.453 59.3C181.763 59.3 181.964 59.2016 182.138 58.9719C182.316 58.7422 182.334 58.4188 182.203 57.7156L182.105 57.1578L182.592 56.6609C182.864 56.3891 183.108 56.1125 183.141 56.0469C183.225 55.8922 183.216 55.4891 183.127 55.3203C182.934 54.95 182.709 54.8516 181.791 54.7344L181.308 54.6734L180.98 54.0219C180.684 53.4453 180.628 53.3609 180.45 53.2578C180.173 53.0984 179.817 53.0984 179.545 53.2578ZM180.45 54.5234C180.694 55.0063 180.82 55.1984 180.919 55.2594C181.017 55.3156 182.203 55.5313 182.414 55.5313C182.428 55.5313 182.456 55.5734 182.484 55.6297C182.531 55.7141 182.475 55.7844 181.973 56.3C181.317 56.9703 181.341 56.8953 181.5 57.7625C181.613 58.3953 181.617 58.5594 181.519 58.5969C181.472 58.6156 181.195 58.4984 180.811 58.2969C180.352 58.0578 180.136 57.9688 180.005 57.9688C179.873 57.9688 179.653 58.0578 179.189 58.2969C178.805 58.4984 178.528 58.6156 178.481 58.5969C178.383 58.5594 178.388 58.3953 178.5 57.7625C178.659 56.8766 178.683 56.9375 177.984 56.2578C177.492 55.775 177.431 55.6906 177.525 55.6016C177.558 55.5688 177.891 55.4938 178.266 55.4375C178.641 55.3813 179.006 55.3016 179.081 55.2547C179.184 55.1984 179.292 55.0297 179.498 54.6172C179.859 53.8813 179.892 53.8344 180.014 53.8531C180.094 53.8625 180.192 54.0125 180.45 54.5234Z" fill="black"/>
<path d="M184.927 56.4594C184.838 56.5016 184.725 56.6141 184.678 56.7031C184.598 56.8578 184.594 57.1578 184.594 63.5094V70.1563H183.492H182.391L182.381 65.6891C182.367 61.3953 182.363 61.2219 182.278 61.0953C182.095 60.8281 182.095 60.8281 180 60.8281C177.905 60.8281 177.905 60.8281 177.722 61.0953C177.638 61.2219 177.633 61.3953 177.619 65.6891L177.609 70.1563H176.508H175.406V67.6719C175.406 64.925 175.406 64.9438 175.116 64.7656C174.966 64.6766 174.886 64.6719 173.016 64.6719C170.48 64.6719 170.677 64.5594 170.672 66.0172C170.672 66.9078 170.677 66.9734 170.766 67.0625C170.883 67.1797 171.098 67.1844 171.239 67.0672C171.347 66.9781 171.352 66.9547 171.366 66.1766L171.38 65.375H173.044H174.703V67.7656V70.1563H173.044H171.38L171.366 69.2375L171.352 68.3188L171.22 68.2063C171.061 68.0703 170.958 68.0656 170.794 68.1922L170.672 68.2859V69.2234V70.1563H169.561C168.005 70.1563 168 70.1609 168 71.3141C168 72.1016 168.052 72.2609 168.352 72.3875C168.595 72.4859 191.405 72.4859 191.648 72.3875C191.948 72.2609 192 72.1016 192 71.3141C192 70.5359 191.963 70.4047 191.705 70.25C191.569 70.1656 191.461 70.1563 190.444 70.1563H189.328V63.4531V56.75L189.169 56.5719L189.009 56.3984L188.161 56.3844L187.312 56.3703L187.195 56.4875C187.045 56.6375 187.045 56.8156 187.195 56.9609C187.303 57.0734 187.331 57.0781 187.969 57.0781H188.625V63.6172V70.1563H186.961H185.297V63.6172V57.0781H185.592C185.92 57.0781 186.066 57.0078 186.113 56.8203C186.145 56.6844 186.042 56.45 185.93 56.4031C185.756 56.3375 185.086 56.375 184.927 56.4594ZM181.688 65.8438V70.1563H180H178.312V65.8438V61.5313H180H181.688V65.8438ZM191.297 71.3047V71.75H180H168.703V71.3047V70.8594H180H191.297V71.3047Z" fill="black"/>
<path d="M172.687 57.4578C172.462 57.5469 172.303 57.7625 172.003 58.3531C171.839 58.6859 171.675 58.9531 171.642 58.9531C171.403 58.9578 170.377 59.1453 170.259 59.2063C170.044 59.3188 169.866 59.5766 169.842 59.8156C169.791 60.2422 169.842 60.3406 170.4 60.9078L170.92 61.4328L170.817 61.9859C170.695 62.6703 170.695 62.8906 170.808 63.1156C170.916 63.3313 171.023 63.4297 171.248 63.5234C171.548 63.65 171.698 63.6172 172.392 63.2703L173.034 62.9469L173.658 63.2703C174.084 63.4953 174.333 63.5938 174.445 63.5938C174.745 63.5938 175.102 63.3922 175.228 63.1484C175.35 62.9281 175.35 62.7313 175.237 62.075L175.125 61.4141L175.617 60.9219C176.255 60.2797 176.353 60.0453 176.161 59.6328C175.983 59.2438 175.772 59.1406 174.923 59.0234L174.323 58.9391L173.995 58.2875C173.7 57.7109 173.644 57.6266 173.466 57.5234C173.25 57.3969 172.912 57.3688 172.687 57.4578ZM173.466 58.7891C173.714 59.2672 173.841 59.4688 173.939 59.525C174.019 59.5719 174.356 59.6469 174.755 59.7078C175.406 59.8016 175.547 59.8438 175.547 59.9516C175.547 59.9797 175.308 60.2469 175.012 60.5469C174.689 60.8703 174.464 61.1422 174.441 61.2219C174.422 61.3016 174.455 61.6344 174.525 62.0516C174.637 62.7359 174.633 62.8906 174.492 62.8906C174.459 62.8906 174.169 62.75 173.85 62.5813C173.039 62.1453 173.034 62.1453 172.233 62.5672C171.816 62.7828 171.553 62.8953 171.502 62.8766C171.398 62.8391 171.403 62.7078 171.516 62.075C171.68 61.175 171.698 61.2313 171.066 60.5938C170.325 59.8438 170.325 59.8531 171.281 59.7125C171.75 59.6422 172.05 59.5766 172.125 59.525C172.191 59.4734 172.387 59.1594 172.584 58.7703C173.03 57.9078 173.016 57.9078 173.466 58.7891Z" fill="black"/>
</g>
<path d="M226.887 51.8667C228.331 51.8653 229.743 52.2924 230.944 53.0937C232.145 53.895 233.082 55.0347 233.636 56.3685C234.189 57.7022 234.335 59.1702 234.054 60.5867C233.773 62.0032 233.078 63.3046 232.058 64.3262C231.037 65.3478 229.736 66.0437 228.32 66.3259C226.904 66.6081 225.436 66.4639 224.101 65.9116C222.767 65.3593 221.626 64.4236 220.824 63.223C220.022 62.0224 219.593 60.6108 219.593 59.1667C219.602 57.2344 220.373 55.3837 221.739 54.0168C223.104 52.6499 224.954 51.8772 226.887 51.8667ZM226.887 50.5C225.173 50.5 223.497 51.0083 222.072 51.9606C220.646 52.9129 219.536 54.2665 218.88 55.8501C218.224 57.4337 218.052 59.1763 218.387 60.8575C218.721 62.5386 219.546 64.0829 220.758 65.2949C221.97 66.507 223.515 67.3324 225.196 67.6668C226.877 68.0012 228.62 67.8296 230.203 67.1736C231.787 66.5177 233.14 65.4068 234.093 63.9816C235.045 62.5564 235.553 60.8808 235.553 59.1667C235.553 56.8681 234.64 54.6637 233.015 53.0384C231.39 51.4131 229.185 50.5 226.887 50.5Z" fill="black"/>
<path d="M239.333 70.6933L234.42 65.7467L233.473 66.6867L238.387 71.6333C238.448 71.6955 238.522 71.7449 238.603 71.7787C238.683 71.8125 238.77 71.8301 238.858 71.8304C238.945 71.8307 239.032 71.8137 239.113 71.7805C239.194 71.7473 239.268 71.6984 239.33 71.6367C239.392 71.575 239.442 71.5016 239.475 71.4208C239.509 71.34 239.527 71.2533 239.527 71.1657C239.527 71.0781 239.51 70.9913 239.477 70.9103C239.444 70.8292 239.395 70.7555 239.333 70.6933Z" fill="black"/>
<path d="M286.5 69.9395L282.983 66.4235C283.923 65.2139 284.367 63.6915 284.223 62.1664C284.08 60.6412 283.361 59.228 282.212 58.2146C281.064 57.2011 279.572 56.6635 278.041 56.7113C276.51 56.7592 275.054 57.3887 273.971 58.4719C272.888 59.5551 272.258 61.0104 272.211 62.5415C272.163 64.0726 272.7 65.5643 273.714 66.713C274.727 67.8616 276.14 68.5808 277.666 68.724C279.191 68.8673 280.713 68.4238 281.923 67.484L285.44 71L286.5 69.9395ZM278.25 67.25C277.36 67.25 276.49 66.9861 275.75 66.4916C275.01 65.9971 274.433 65.2943 274.093 64.4721C273.752 63.6498 273.663 62.745 273.836 61.8721C274.01 60.9992 274.439 60.1974 275.068 59.568C275.697 58.9387 276.499 58.5101 277.372 58.3365C278.245 58.1628 279.15 58.2519 279.972 58.5925C280.794 58.9331 281.497 59.5099 281.992 60.2499C282.486 60.99 282.75 61.86 282.75 62.75C282.749 63.943 282.274 65.0868 281.43 65.9304C280.587 66.7741 279.443 67.2486 278.25 67.25ZM265.5 57.5H271.5V59H265.5V57.5ZM265.5 50H277.5V51.5H265.5V50ZM265.5 53.75H277.5V55.25H265.5V53.75Z" fill="black"/>
<path d="M316.089 55.9137C317.201 53.9951 318.972 52.5459 321.073 51.8359C323.173 51.1259 325.46 51.2035 327.508 52.0543C329.556 52.9051 331.224 54.4711 332.203 56.4607C333.182 58.4503 333.405 60.7278 332.83 62.8693C332.255 65.0108 330.921 66.8703 329.076 68.1015C327.232 69.3326 325.003 69.8516 322.805 69.5618C320.607 69.272 318.589 68.1931 317.126 66.5261C315.664 64.859 314.858 62.7174 314.857 60.5" stroke="black" stroke-linecap="round" stroke-linejoin="round"/>
<path d="M320.571 55.9286H316V51.3571" stroke="black" stroke-linecap="round" stroke-linejoin="round"/>
<path d="M376.975 56.7248C377.088 56.8375 377.241 56.9008 377.4 56.9008C377.559 56.9008 377.712 56.8375 377.825 56.7248C377.937 56.6121 378.001 56.4593 378.001 56.3C378.001 56.1407 377.937 55.9879 377.825 55.8752L373.025 51.0752C372.969 51.0193 372.903 50.975 372.83 50.9447C372.757 50.9145 372.679 50.8989 372.6 50.8989C372.521 50.8989 372.443 50.9145 372.37 50.9447C372.297 50.975 372.231 51.0193 372.175 51.0752L367.375 55.8752C367.319 55.931 367.275 55.9972 367.245 56.0701C367.215 56.143 367.199 56.2211 367.199 56.3C367.199 56.3789 367.215 56.457 367.245 56.5299C367.275 56.6028 367.319 56.669 367.375 56.7248C367.431 56.7806 367.497 56.8248 367.57 56.855C367.643 56.8852 367.721 56.9008 367.8 56.9008C367.879 56.9008 367.957 56.8852 368.03 56.855C368.103 56.8248 368.169 56.7806 368.225 56.7248L372 52.9484V60.5C372 62.858 371.704 64.556 371.083 65.8676C370.469 67.1636 369.514 68.132 368.092 68.9852C367.955 69.067 367.857 69.1997 367.818 69.3541C367.779 69.5084 367.803 69.6719 367.885 69.8084C367.967 69.9449 368.1 70.0434 368.254 70.0821C368.408 70.1208 368.572 70.0966 368.708 70.0148C370.286 69.0668 371.431 67.9364 372.167 66.3824C372.896 64.8428 373.2 62.942 373.2 60.5V52.9484L376.975 56.7248Z" fill="black"/>
<path d="M415.2 60.5C415.2 60.3409 415.263 60.1883 415.376 60.0757C415.488 59.9632 415.641 59.9 415.8 59.9H419.4V56.3C419.4 56.1409 419.463 55.9883 419.576 55.8757C419.688 55.7632 419.841 55.7 420 55.7C420.159 55.7 420.312 55.7632 420.424 55.8757C420.537 55.9883 420.6 56.1409 420.6 56.3V59.9H424.2C424.359 59.9 424.512 59.9632 424.624 60.0757C424.737 60.1883 424.8 60.3409 424.8 60.5C424.8 60.6591 424.737 60.8117 424.624 60.9243C424.512 61.0368 424.359 61.1 424.2 61.1H420.6V64.7C420.6 64.8591 420.537 65.0117 420.424 65.1243C420.312 65.2368 420.159 65.3 420 65.3C419.841 65.3 419.688 65.2368 419.576 65.1243C419.463 65.0117 419.4 64.8591 419.4 64.7V61.1H415.8C415.641 61.1 415.488 61.0368 415.376 60.9243C415.263 60.8117 415.2 60.6591 415.2 60.5ZM420 70.1C422.546 70.1 424.988 69.0886 426.788 67.2882C428.589 65.4879 429.6 63.0461 429.6 60.5C429.6 57.9539 428.589 55.5121 426.788 53.7118C424.988 51.9114 422.546 50.9 420 50.9C417.454 50.9 415.012 51.9114 413.212 53.7118C411.411 55.5121 410.4 57.9539 410.4 60.5C410.4 63.0461 411.411 65.4879 413.212 67.2882C415.012 69.0886 417.454 70.1 420 70.1ZM420 68.9C418.897 68.9 417.805 68.6827 416.785 68.2606C415.766 67.8384 414.84 67.2197 414.06 66.4397C413.28 65.6597 412.662 64.7337 412.239 63.7145C411.817 62.6954 411.6 61.6031 411.6 60.5C411.6 59.3969 411.817 58.3046 412.239 57.2855C412.662 56.2663 413.28 55.3403 414.06 54.5603C414.84 53.7803 415.766 53.1615 416.785 52.7394C417.805 52.3173 418.897 52.1 420 52.1C422.228 52.1 424.364 52.985 425.94 54.5603C427.515 56.1356 428.4 58.2722 428.4 60.5C428.4 62.7278 427.515 64.8644 425.94 66.4397C424.364 68.015 422.228 68.9 420 68.9Z" fill="black"/>
<path d="M467 50.7222C465.066 50.7222 463.176 51.2957 461.568 52.3701C459.96 53.4445 458.707 54.9716 457.967 56.7582C457.226 58.5449 457.033 60.5109 457.41 62.4076C457.787 64.3043 458.719 66.0465 460.086 67.4139C461.454 68.7814 463.196 69.7126 465.092 70.0899C466.989 70.4672 468.955 70.2736 470.742 69.5335C472.528 68.7934 474.056 67.5402 475.13 65.9323C476.204 64.3243 476.778 62.4339 476.778 60.5C476.778 57.9068 475.748 55.4198 473.914 53.5861C472.08 51.7524 469.593 50.7222 467 50.7222ZM467 69.0556C465.308 69.0556 463.654 68.5538 462.247 67.6137C460.84 66.6736 459.743 65.3374 459.096 63.7741C458.448 62.2108 458.279 60.4905 458.609 58.8309C458.939 57.1713 459.754 55.6468 460.95 54.4503C462.147 53.2538 463.671 52.439 465.331 52.1088C466.991 51.7787 468.711 51.9482 470.274 52.5957C471.837 53.2433 473.174 54.3398 474.114 55.7468C475.054 57.1537 475.556 58.8079 475.556 60.5C475.556 62.7691 474.654 64.9452 473.05 66.5497C471.445 68.1542 469.269 69.0556 467 69.0556Z" fill="black"/>
<path d="M470.667 59.8889H463.333C463.171 59.8889 463.016 59.9533 462.901 60.0679C462.787 60.1825 462.722 60.3379 462.722 60.5C462.722 60.6621 462.787 60.8175 462.901 60.9321C463.016 61.0467 463.171 61.1111 463.333 61.1111H470.667C470.829 61.1111 470.984 61.0467 471.099 60.9321C471.213 60.8175 471.278 60.6621 471.278 60.5C471.278 60.3379 471.213 60.1825 471.099 60.0679C470.984 59.9533 470.829 59.8889 470.667 59.8889Z" fill="black"/>
<path d="M520.667 68.5H506V53.8333H514.813L516.147 52.5H506C505.646 52.5 505.307 52.6405 505.057 52.8905C504.807 53.1406 504.667 53.4797 504.667 53.8333V68.5C504.667 68.8536 504.807 69.1928 505.057 69.4428C505.307 69.6929 505.646 69.8333 506 69.8333H520.667C521.02 69.8333 521.359 69.6929 521.609 69.4428C521.86 69.1928 522 68.8536 522 68.5V58.5L520.667 59.8333V68.5Z" fill="black"/>
<path d="M524.353 52.3933L522.107 50.1467C522.007 50.0467 521.888 49.9674 521.758 49.9132C521.628 49.8591 521.488 49.8313 521.347 49.8313C521.205 49.8313 521.066 49.8591 520.935 49.9132C520.805 49.9674 520.686 50.0467 520.587 50.1467L511.447 59.34L510.707 62.5467C510.675 62.7021 510.678 62.8626 510.716 63.0166C510.754 63.1706 510.826 63.3143 510.926 63.4373C511.026 63.5604 511.152 63.6597 511.295 63.7282C511.438 63.7966 511.595 63.8326 511.753 63.8333C511.835 63.8424 511.918 63.8424 512 63.8333L515.233 63.12L524.353 53.9133C524.453 53.8136 524.533 53.6952 524.587 53.5648C524.641 53.4343 524.669 53.2945 524.669 53.1533C524.669 53.0121 524.641 52.8723 524.587 52.7419C524.533 52.6115 524.453 52.493 524.353 52.3933ZM514.54 61.8867L512.1 62.4267L512.667 60.0067L519.547 53.08L521.427 54.96L514.54 61.8867ZM522.18 54.2067L520.3 52.3267L521.333 51.2733L523.227 53.1667L522.18 54.2067Z" fill="black"/>
<path d="M552.25 52.625C551.952 52.625 551.665 52.7435 551.455 52.9545C551.244 53.1655 551.125 53.4516 551.125 53.75V67.25C551.125 67.5484 551.244 67.8345 551.455 68.0455C551.665 68.2565 551.952 68.375 552.25 68.375H565.75C566.048 68.375 566.335 68.2565 566.545 68.0455C566.756 67.8345 566.875 67.5484 566.875 67.25V53.75C566.875 53.4516 566.756 53.1655 566.545 52.9545C566.335 52.7435 566.048 52.625 565.75 52.625H560.688C560.389 52.625 560.103 52.7435 559.892 52.9545C559.681 53.1655 559.562 53.4516 559.562 53.75V61.9546L562.539 58.9767C562.645 58.8711 562.788 58.8118 562.938 58.8118C563.087 58.8118 563.23 58.8711 563.336 58.9767C563.441 59.0824 563.501 59.2256 563.501 59.375C563.501 59.5244 563.441 59.6676 563.336 59.7733L559.398 63.7108C559.346 63.7631 559.284 63.8047 559.216 63.8331C559.147 63.8614 559.074 63.876 559 63.876C558.926 63.876 558.853 63.8614 558.784 63.8331C558.716 63.8047 558.654 63.7631 558.602 63.7108L554.664 59.7733C554.612 59.721 554.57 59.6589 554.542 59.5905C554.514 59.5222 554.499 59.449 554.499 59.375C554.499 59.301 554.514 59.2278 554.542 59.1595C554.57 59.0911 554.612 59.029 554.664 58.9767C554.717 58.9245 554.779 58.883 554.847 58.8547C554.915 58.8264 554.989 58.8118 555.062 58.8118C555.136 58.8118 555.21 58.8264 555.278 58.8547C555.346 58.883 555.408 58.9245 555.461 58.9767L558.438 61.9546V53.75C558.438 53.1533 558.675 52.581 559.097 52.159C559.518 51.7371 560.091 51.5 560.688 51.5H565.75C566.347 51.5 566.919 51.7371 567.341 52.159C567.763 52.581 568 53.1533 568 53.75V67.25C568 67.8467 567.763 68.419 567.341 68.841C566.919 69.2629 566.347 69.5 565.75 69.5H552.25C551.653 69.5 551.081 69.2629 550.659 68.841C550.237 68.419 550 67.8467 550 67.25V53.75C550 53.1533 550.237 52.581 550.659 52.159C551.081 51.7371 551.653 51.5 552.25 51.5H555.062C555.212 51.5 555.355 51.5593 555.46 51.6648C555.566 51.7702 555.625 51.9133 555.625 52.0625C555.625 52.2117 555.566 52.3548 555.46 52.4602C555.355 52.5657 555.212 52.625 555.062 52.625H552.25Z" fill="black"/>
<g clip-path="url(#clip11_3_59)">
<path d="M604.5 66.125C601.537 66.125 599.139 63.8316 598.918 60.9254L594.82 57.7586C594.282 58.4344 593.786 59.1488 593.386 59.9301C593.297 60.1068 593.25 60.3021 593.25 60.5002C593.25 60.6983 593.297 60.8935 593.386 61.0703C595.504 65.2035 599.698 68 604.5 68C605.551 68 606.565 67.8437 607.543 67.5914L605.516 66.023C605.181 66.0877 604.841 66.1218 604.5 66.125ZM616.759 68.3945L612.44 65.057C613.752 63.9515 614.831 62.5962 615.614 61.0699C615.703 60.8932 615.75 60.6979 615.75 60.4998C615.75 60.3017 615.703 60.1064 615.614 59.9297C613.496 55.7965 609.302 53 604.5 53C602.489 53.0024 600.51 53.5087 598.745 54.4727L593.776 50.6316C593.711 50.5812 593.637 50.544 593.558 50.5223C593.479 50.5005 593.396 50.4945 593.314 50.5047C593.233 50.5149 593.154 50.5411 593.083 50.5817C593.011 50.6223 592.949 50.6766 592.898 50.7414L592.132 51.7285C592.03 51.8594 591.984 52.0253 592.005 52.1897C592.026 52.3542 592.111 52.5037 592.241 52.6055L615.224 70.3684C615.289 70.4188 615.363 70.4559 615.442 70.4777C615.521 70.4995 615.604 70.5055 615.686 70.4953C615.767 70.4851 615.846 70.4589 615.917 70.4183C615.989 70.3777 616.051 70.3234 616.102 70.2586L616.869 69.2715C616.97 69.1406 617.016 68.9746 616.995 68.8102C616.975 68.6457 616.889 68.4962 616.759 68.3945ZM609.582 62.8477L608.047 61.6609C608.176 61.2873 608.245 60.8953 608.25 60.5C608.258 59.9212 608.129 59.3487 607.876 58.8284C607.622 58.3082 607.25 57.8547 606.789 57.5044C606.328 57.1541 605.791 56.9168 605.222 56.8115C604.653 56.7062 604.067 56.7358 603.511 56.898C603.747 57.2172 603.874 57.6033 603.875 58C603.869 58.132 603.849 58.263 603.815 58.3906L600.939 56.1684C601.938 55.3337 603.198 54.876 604.5 54.875C605.239 54.8746 605.97 55.0198 606.653 55.3023C607.336 55.5849 607.956 55.9992 608.478 56.5216C609.001 57.044 609.415 57.6643 609.698 58.3469C609.98 59.0296 610.125 59.7612 610.125 60.5C610.125 61.3449 609.918 62.1324 609.582 62.848V62.8477Z" fill="black"/>
</g>
<defs>
<clipPath id="clip0_3_59">
<rect width="24" height="24" fill="white" transform="translate(24)"/>
</clipPath>
<clipPath id="clip1_3_59">
<rect width="24" height="24" fill="white" transform="translate(216)"/>
</clipPath>
<clipPath id="clip2_3_59">
<rect width="24" height="24" fill="white" transform="translate(264)"/>
</clipPath>
<clipPath id="clip3_3_59">
<rect width="24" height="24" fill="white" transform="translate(312)"/>
</clipPath>
<clipPath id="clip4_3_59">
<rect width="24" height="24" fill="white" transform="translate(360)"/>
</clipPath>
<clipPath id="clip5_3_59">
<rect width="24" height="24" fill="white" transform="translate(408)"/>
</clipPath>
<clipPath id="clip6_3_59">
<rect width="24" height="24" fill="white" transform="translate(456)"/>
</clipPath>
<clipPath id="clip7_3_59">
<rect width="24" height="24" fill="white" transform="translate(504)"/>
</clipPath>
<clipPath id="clip8_3_59">
<rect width="24" height="24" fill="white" transform="translate(600)"/>
</clipPath>
<clipPath id="clip9_3_59">
<rect width="24" height="24" fill="white" transform="translate(72 48.5)"/>
</clipPath>
<clipPath id="clip10_3_59">
<rect width="24" height="24" fill="white" transform="translate(168 48.5)"/>
</clipPath>
<clipPath id="clip11_3_59">
<rect width="25" height="25" fill="white" transform="translate(592 48)"/>
</clipPath>
</defs>
</svg>
