<svg width="1029" height="92" viewBox="0 0 1029 92" fill="none" xmlns="http://www.w3.org/2000/svg">
<g filter="url(#filter0_d_236_3098)">
<rect x="24" y="24" width="311" height="44" rx="5" fill="white" shape-rendering="crispEdges"/>
<path d="M75.5967 43.482H79.6987V44.322H75.5967V43.482ZM75.6387 39.744H79.6427V40.584H75.6387V39.744ZM75.5967 45.358H79.6987V46.198H75.5967V45.358ZM74.9387 41.578H80.1607V42.446H74.9387V41.578ZM76.0587 47.248H79.6987V51.336H76.0587V50.454H78.7747V48.116H76.0587V47.248ZM75.5827 47.248H76.4927V51.98H75.5827V47.248ZM80.4687 40.192H87.5107V41.004H80.4687V40.192ZM80.8327 41.844H87.3007V42.614H80.8327V41.844ZM80.1187 43.524H87.8187V44.336H80.1187V43.524ZM83.4507 39.24H84.4447V44.21H83.4507V39.24ZM81.1687 45.162H86.5587V45.96H82.1627V52.106H81.1687V45.162ZM85.9707 45.162H86.9647V51.014C86.9647 51.532 86.8527 51.784 86.5027 51.938C86.1247 52.078 85.5367 52.078 84.6687 52.078C84.6267 51.826 84.4867 51.462 84.3607 51.21C84.9907 51.238 85.5647 51.224 85.7467 51.224C85.9287 51.21 85.9707 51.168 85.9707 51V45.162ZM81.6167 46.968H86.4747V47.724H81.6167V46.968ZM81.6167 48.732H86.4747V49.488H81.6167V48.732ZM96.1767 42.824H100.055V43.692H96.1767V42.824ZM95.2807 46.646H97.5767V47.402H95.2807V46.646ZM95.2807 48.564H97.5767V49.362H95.2807V48.564ZM98.7527 45.078H99.5227V50.006H98.7527V45.078ZM98.1227 40.276C97.4227 41.508 96.1207 42.95 94.7067 43.86C94.5947 43.594 94.3567 43.23 94.1887 43.006C95.5887 42.152 96.9467 40.626 97.6047 39.296H98.5567C99.4247 40.724 100.839 42.124 102.155 42.824C101.945 43.076 101.735 43.454 101.581 43.748C100.293 42.922 98.9067 41.536 98.1227 40.276ZM94.8047 44.77H97.4227V45.568H95.5747V52.078H94.8047V44.77ZM97.1847 44.77H97.9547V51.224C97.9547 51.602 97.8847 51.826 97.6607 51.98C97.4087 52.106 97.0727 52.12 96.5687 52.12C96.5407 51.91 96.4287 51.574 96.3447 51.364C96.6667 51.364 96.9467 51.364 97.0447 51.364C97.1427 51.364 97.1847 51.322 97.1847 51.21V44.77ZM100.629 44.546H101.497V51.098C101.497 51.56 101.399 51.798 101.091 51.952C100.755 52.078 100.251 52.078 99.4247 52.078C99.3967 51.868 99.2707 51.518 99.1587 51.294C99.7467 51.308 100.265 51.308 100.419 51.294C100.573 51.28 100.629 51.238 100.629 51.084V44.546ZM89.1207 40.752H94.4547V41.69H89.1207V40.752ZM88.9527 48.746H94.4127V49.684H88.9527V48.746ZM91.2627 39.24H92.2007V43.09H91.2627V39.24ZM91.3747 43.146H92.0887V47.22H92.2007V52.148H91.2627V47.22H91.3747V43.146ZM90.1147 45.554V46.828H93.3487V45.554H90.1147ZM90.1147 43.538V44.798H93.3487V43.538H90.1147ZM89.3307 42.74H94.1467V47.612H89.3307V42.74ZM105.585 40.094H109.547V41.158H105.585V40.094ZM109.015 40.094H110.093C110.093 42.6 110.401 47.92 115.931 51.196C115.693 51.378 115.273 51.826 115.077 52.078C109.477 48.69 109.015 42.726 109.015 40.094ZM108.623 42.838L109.813 43.062C108.805 47.332 106.957 50.286 103.863 52.106C103.667 51.882 103.191 51.448 102.911 51.252C106.019 49.628 107.769 46.8 108.623 42.838ZM127.565 39.268L128.349 40.122C125.815 40.864 121.671 41.242 118.269 41.382C118.241 41.116 118.115 40.696 118.017 40.458C121.349 40.304 125.437 39.926 127.565 39.268ZM118.031 43.216H128.951V44.224H118.031V43.216ZM117.093 46.506H129.735V47.528H117.093V46.506ZM122.875 40.752H123.967V50.664C123.967 51.406 123.743 51.728 123.211 51.896C122.679 52.064 121.769 52.092 120.285 52.078C120.215 51.784 120.019 51.308 119.851 51.028C121.013 51.07 122.133 51.056 122.441 51.042C122.763 51.042 122.875 50.944 122.875 50.65V40.752ZM135.279 46.408H143.777V47.262H135.279V46.408ZM136.385 48.62L136.945 47.976C137.673 48.396 138.611 49.026 139.073 49.46L138.485 50.188C138.037 49.74 137.113 49.068 136.385 48.62ZM140.921 45.582L141.439 45.078C141.957 45.358 142.601 45.778 142.923 46.1L142.377 46.646C142.069 46.338 141.439 45.876 140.921 45.582ZM136.315 46.8H137.267C137.113 48.97 136.693 50.944 135.125 52.092C134.985 51.882 134.705 51.56 134.481 51.406C135.867 50.426 136.203 48.634 136.315 46.8ZM138.835 39.254H139.773C139.703 46.226 140.725 51.238 142.629 51.238C143.035 51.238 143.175 50.916 143.245 49.642C143.441 49.838 143.763 50.02 143.987 50.104C143.805 51.686 143.497 52.148 142.559 52.148C139.745 52.134 138.863 46.408 138.835 39.254ZM141.971 47.486L142.867 47.822C141.957 49.754 140.235 51.224 138.079 52.12C137.953 51.938 137.687 51.616 137.491 51.448C139.591 50.636 141.187 49.222 141.971 47.486ZM139.843 41.69L140.277 41.116C140.893 41.536 141.593 42.18 141.915 42.628L141.467 43.286C141.145 42.824 140.445 42.152 139.843 41.69ZM142.461 43.384L143.105 43.132C143.497 43.776 143.875 44.616 143.987 45.148L143.301 45.47C143.175 44.924 142.825 44.042 142.461 43.384ZM140.025 44.364C140.893 44.308 142.055 44.238 143.287 44.154V44.882C142.167 44.994 141.103 45.092 140.179 45.176L140.025 44.364ZM141.467 39.38L142.279 39.702C141.887 40.486 141.411 41.396 141.019 41.97L140.417 41.69C140.767 41.074 141.229 40.066 141.467 39.38ZM142.615 40.78L143.399 41.158C142.685 42.362 141.733 43.86 140.977 44.812L140.389 44.476C141.131 43.51 142.083 41.914 142.615 40.78ZM135.097 41.69L135.545 41.116C136.147 41.536 136.861 42.18 137.169 42.628L136.721 43.286C136.399 42.824 135.699 42.152 135.097 41.69ZM137.533 43.468L138.177 43.23C138.541 43.874 138.877 44.728 138.961 45.26L138.275 45.554C138.177 45.008 137.869 44.14 137.533 43.468ZM135.153 44.518C136.035 44.476 137.183 44.392 138.429 44.294V45.05C137.309 45.162 136.231 45.26 135.307 45.344L135.153 44.518ZM136.735 39.38L137.547 39.716C137.141 40.486 136.665 41.41 136.287 41.984L135.685 41.718C136.035 41.088 136.483 40.066 136.735 39.38ZM137.883 40.78L138.653 41.158C137.925 42.404 136.945 43.958 136.147 44.924L135.545 44.602C136.329 43.608 137.323 41.956 137.883 40.78ZM131.121 42.278H135.363V43.258H131.121V42.278ZM132.899 39.24H133.851V52.106H132.899V39.24ZM132.857 42.866L133.487 43.062C133.095 45.274 132.269 48.032 131.345 49.432C131.233 49.18 130.995 48.788 130.827 48.564C131.681 47.304 132.521 44.854 132.857 42.866ZM133.781 43.79C134.061 44.168 135.153 45.918 135.377 46.324L134.845 47.094C134.565 46.394 133.683 44.742 133.347 44.196L133.781 43.79ZM146.563 40.654V42.782H148.649V40.654H146.563ZM145.611 39.772H149.643V43.678H145.611V39.772ZM144.967 44.658H150.245V45.582H144.967V44.658ZM146.283 45.078H147.249C147.011 46.24 146.675 47.696 146.423 48.62L145.471 48.438C145.751 47.542 146.073 46.142 146.283 45.078ZM146.395 46.828H148.999V47.724H146.157L146.395 46.828ZM148.607 46.828H149.587C149.587 46.828 149.573 47.108 149.559 47.262C149.335 50.188 149.125 51.336 148.733 51.756C148.495 52.008 148.257 52.092 147.879 52.134C147.571 52.148 146.997 52.148 146.409 52.12C146.395 51.854 146.283 51.448 146.115 51.196C146.717 51.252 147.263 51.252 147.487 51.252C147.697 51.266 147.837 51.238 147.949 51.112C148.229 50.832 148.439 49.754 148.607 46.996V46.828ZM153.885 40.206H157.231V41.074H153.885V40.206ZM151.071 42.026H157.245V42.88H151.071V42.026ZM153.381 39.24H154.389V42.474H153.381V39.24ZM150.623 42.026H151.575V45.61C151.575 47.57 151.379 50.342 150.077 52.204C149.909 52.022 149.517 51.728 149.279 51.63C150.497 49.852 150.623 47.416 150.623 45.61V42.026ZM151.911 44.336L156.055 43.93L156.153 44.658L152.009 45.106L151.911 44.336ZM153.437 42.978H154.375V45.484C154.375 45.778 154.431 45.82 154.823 45.82C154.991 45.82 155.887 45.82 156.125 45.82C156.433 45.82 156.489 45.722 156.531 44.938C156.727 45.064 157.091 45.19 157.343 45.246C157.259 46.324 156.993 46.604 156.237 46.604C156.027 46.604 154.907 46.604 154.697 46.604C153.689 46.604 153.437 46.38 153.437 45.484V42.978ZM156.951 42.026H157.105L157.273 41.984L157.931 42.152C157.763 43.006 157.539 44.014 157.371 44.644L156.559 44.448C156.699 43.86 156.867 42.908 156.951 42.166V42.026ZM152.709 47.22H153.619C153.521 49.6 153.115 51.238 151.407 52.176C151.281 51.938 151.001 51.588 150.791 51.42C152.317 50.636 152.625 49.278 152.709 47.22ZM154.767 47.206H155.677V50.664C155.677 50.762 155.705 50.86 155.775 50.888C155.859 50.93 155.971 50.958 156.111 50.958C156.223 50.958 156.447 50.958 156.615 50.958C156.741 50.958 156.923 50.93 156.993 50.888C157.077 50.846 157.147 50.748 157.175 50.594C157.217 50.37 157.231 49.824 157.231 49.194C157.413 49.362 157.763 49.544 158.029 49.628C158.015 50.286 157.945 50.986 157.875 51.224C157.791 51.49 157.637 51.644 157.427 51.77C157.259 51.854 156.951 51.91 156.685 51.91C156.503 51.91 156.041 51.91 155.887 51.91C155.579 51.91 155.257 51.854 155.047 51.686C154.823 51.49 154.767 51.28 154.767 50.636V47.206ZM159.079 39.912H164.217V40.878H159.079V39.912ZM160.521 44.28H163.699V50.328H160.521V49.404H162.761V45.204H160.521V44.28ZM160.773 40.374L161.781 40.528C161.347 43.468 160.633 46.226 159.359 48.06C159.261 47.836 158.939 47.332 158.743 47.108C159.849 45.512 160.437 43.006 160.773 40.374ZM160.059 44.28H160.983V51.49H160.059V44.28ZM165.337 42.04H171.007V42.894H165.337V42.04ZM165.337 44.196H171.007V45.064H165.337V44.196ZM164.819 46.394H170.965V47.318H164.819V46.394ZM167.717 40.318H168.669V46.786H167.717V40.318ZM165.981 48.438L166.709 48.326C166.877 49.166 166.975 50.216 166.961 50.902L166.191 51.028C166.219 50.328 166.135 49.264 165.981 48.438ZM167.465 48.326L168.151 48.144C168.445 48.816 168.711 49.712 168.823 50.286L168.095 50.496C168.011 49.922 167.745 49.012 167.465 48.326ZM168.879 48.018L169.439 47.78C169.845 48.284 170.251 48.984 170.433 49.418L169.803 49.712C169.635 49.25 169.243 48.55 168.879 48.018ZM164.623 48.004L165.421 48.2C165.281 49.418 165.015 50.72 164.343 51.49L163.601 51.07C164.217 50.37 164.497 49.152 164.623 48.004ZM164.819 39.842H171.357V40.766H165.785V46.856H164.819V39.842ZM170.657 46.394H171.623C171.623 46.394 171.623 46.688 171.609 46.828C171.455 50.118 171.301 51.322 170.937 51.728C170.713 51.994 170.475 52.092 170.097 52.12C169.775 52.148 169.173 52.148 168.557 52.12C168.543 51.84 168.445 51.462 168.291 51.196C168.893 51.252 169.453 51.266 169.663 51.266C169.887 51.266 169.999 51.238 170.111 51.112C170.363 50.832 170.531 49.684 170.657 46.562V46.394Z" fill="#666666"/>
<g clip-path="url(#clip0_236_3098)">
<path d="M49.2885 34.0281C47.7557 34.2109 46.4807 34.5813 45.187 35.2188C42.0088 36.7797 39.6745 39.6766 38.8354 43.1031C38.5682 44.1953 38.5307 44.5469 38.5307 46C38.5307 47.4531 38.5682 47.8094 38.8354 48.8969C39.9323 53.35 43.5698 56.8563 48.0323 57.7703C49.2135 58.0094 50.826 58.075 52.0073 57.9297C57.4448 57.2594 61.762 52.9375 62.437 47.5C62.5307 46.7313 62.5307 45.2406 62.437 44.5141C62.2916 43.4031 62.0291 42.3953 61.6401 41.4438C61.2604 40.5156 60.787 39.6672 60.5995 39.5828C60.262 39.4281 59.8823 39.6578 59.8823 40.0141C59.8823 40.0703 60.0791 40.5109 60.3182 40.9844C61.1666 42.6578 61.5229 44.1438 61.5229 45.9813C61.5229 46.9281 61.4713 47.4859 61.3073 48.2734C60.8666 50.3734 59.8307 52.2813 58.3166 53.7766C58.0213 54.0719 57.862 54.1984 57.8526 54.1516C57.3416 52.4547 56.8213 51.5219 55.8229 50.5281C54.3932 49.0938 52.5604 48.3438 50.5073 48.3438C48.4541 48.3438 46.6213 49.0938 45.1916 50.5281C44.1932 51.5219 43.6729 52.4547 43.162 54.1516C43.1526 54.1984 42.9932 54.0719 42.6979 53.7766C40.9495 52.0469 39.8198 49.7125 39.5385 47.2234C39.4541 46.5063 39.501 44.8563 39.6229 44.1719C39.8338 43.0141 40.0963 42.2078 40.6166 41.1438C42.2526 37.7922 45.501 35.4906 49.2651 35.0313C49.7995 34.9656 51.2104 34.9656 51.7541 35.0313C53.6713 35.2609 55.4526 35.9594 57.0182 37.0891C57.3416 37.3234 57.4448 37.375 57.5948 37.375C57.8573 37.375 58.0541 37.1734 58.0541 36.9156C58.0541 36.8125 58.0401 36.6906 58.026 36.6531C58.0073 36.6109 57.7823 36.4234 57.5198 36.2313C56.0338 35.1578 54.4166 34.4781 52.4901 34.1359C52.0354 34.0516 51.7166 34.0328 50.6948 34.0234C50.0104 34.0141 49.3776 34.0188 49.2885 34.0281ZM51.4213 49.3797C53.8073 49.6844 55.9026 51.4141 56.6948 53.7344C56.7885 54.0156 56.9713 54.7656 56.976 54.8875C56.976 55.0094 55.8182 55.7125 55.0448 56.0594C53.601 56.7109 52.1526 57.0156 50.5307 57.0203C48.7213 57.0203 47.1838 56.6641 45.6135 55.8859C45.1588 55.6563 44.3713 55.1922 44.137 55.0094L44.0291 54.9203L44.1088 54.5313C44.6948 51.6672 47.1229 49.5344 50.0151 49.3375C50.5448 49.3 50.8823 49.3094 51.4213 49.3797Z" fill="#00BBB4"/>
<path d="M58.7854 37.9656C58.687 38.0641 58.6635 38.1344 58.6635 38.3125C58.6635 38.4906 58.687 38.5609 58.7854 38.6594C58.8838 38.7578 58.9541 38.7812 59.1323 38.7812C59.3104 38.7812 59.3807 38.7578 59.4791 38.6594C59.5776 38.5609 59.601 38.4906 59.601 38.3125C59.601 38.1344 59.5776 38.0641 59.4791 37.9656C59.3807 37.8672 59.3104 37.8437 59.1323 37.8437C58.9541 37.8437 58.8838 37.8672 58.7854 37.9656Z" fill="#00BBB4"/>
<path d="M49.4432 39.0859C47.9479 39.4703 46.7807 40.6469 46.401 42.1422C46.2417 42.775 46.2417 43.6 46.401 44.2328C46.7854 45.7375 47.9573 46.9094 49.462 47.2938C50.0948 47.4531 50.9198 47.4531 51.5526 47.2938C53.0573 46.9094 54.2292 45.7375 54.6135 44.2328C54.7729 43.6 54.7729 42.775 54.6135 42.1422C54.2292 40.6328 53.062 39.4656 51.5526 39.0813C50.9245 38.9219 50.0667 38.9266 49.4432 39.0859ZM51.2479 40.0281C51.8245 40.15 52.2932 40.4172 52.7854 40.9094C53.4604 41.5891 53.7417 42.2594 53.7417 43.1875C53.7417 44.1156 53.4604 44.7813 52.7807 45.4656C52.1104 46.1359 51.4307 46.4266 50.5073 46.4266C49.5885 46.4266 48.9042 46.1359 48.2292 45.4656C47.5542 44.7859 47.2729 44.1156 47.2729 43.1875C47.2729 42.2594 47.5542 41.5891 48.2292 40.9094C49.0823 40.0609 50.0432 39.7797 51.2479 40.0281Z" fill="#00BBB4"/>
</g>
</g>
<g filter="url(#filter1_d_236_3098)">
<rect x="359" y="24" width="311" height="44" rx="5" fill="white" shape-rendering="crispEdges"/>
<g clip-path="url(#clip1_236_3098)">
<path d="M657.587 45.3917C655.327 40.9829 650.854 38 645.732 38C640.61 38 636.135 40.985 633.877 45.3921C633.781 45.5806 633.732 45.7889 633.732 46.0002C633.732 46.2115 633.781 46.4198 633.877 46.6083C636.136 51.0171 640.61 54 645.732 54C650.854 54 655.328 51.015 657.587 46.6079C657.682 46.4194 657.732 46.2111 657.732 45.9998C657.732 45.7885 657.682 45.5802 657.587 45.3917V45.3917ZM645.732 52C644.545 52 643.385 51.6481 642.398 50.9888C641.412 50.3295 640.643 49.3925 640.189 48.2961C639.734 47.1997 639.616 45.9933 639.847 44.8295C640.079 43.6656 640.65 42.5965 641.489 41.7574C642.328 40.9182 643.397 40.3468 644.561 40.1153C645.725 39.8838 646.932 40.0026 648.028 40.4567C649.124 40.9108 650.061 41.6799 650.721 42.6666C651.38 43.6533 651.732 44.8133 651.732 46C651.732 46.788 651.577 47.5684 651.276 48.2966C650.974 49.0247 650.533 49.6863 649.975 50.2435C649.418 50.8007 648.756 51.2427 648.028 51.5441C647.3 51.8455 646.52 52.0004 645.732 52V52ZM645.732 42C645.375 42.005 645.02 42.0581 644.677 42.1579C644.96 42.5419 645.095 43.0145 645.059 43.49C645.023 43.9654 644.818 44.4122 644.481 44.7494C644.144 45.0865 643.697 45.2917 643.222 45.3276C642.746 45.3636 642.274 45.228 641.89 44.9454C641.671 45.7511 641.71 46.605 642.003 47.3871C642.295 48.1691 642.825 48.8399 643.518 49.305C644.211 49.7701 645.033 50.006 645.867 49.9797C646.702 49.9533 647.507 49.666 648.169 49.158C648.832 48.6501 649.318 47.9473 649.56 47.1483C649.803 46.3494 649.788 45.4947 649.519 44.7044C649.25 43.9142 648.74 43.2282 648.06 42.743C647.381 42.2579 646.567 41.998 645.732 42V42Z" fill="#00BBB4"/>
</g>
<path d="M410.597 43.482H414.699V44.322H410.597V43.482ZM410.639 39.744H414.643V40.584H410.639V39.744ZM410.597 45.358H414.699V46.198H410.597V45.358ZM409.939 41.578H415.161V42.446H409.939V41.578ZM411.059 47.248H414.699V51.336H411.059V50.454H413.775V48.116H411.059V47.248ZM410.583 47.248H411.493V51.98H410.583V47.248ZM415.469 40.192H422.511V41.004H415.469V40.192ZM415.833 41.844H422.301V42.614H415.833V41.844ZM415.119 43.524H422.819V44.336H415.119V43.524ZM418.451 39.24H419.445V44.21H418.451V39.24ZM416.169 45.162H421.559V45.96H417.163V52.106H416.169V45.162ZM420.971 45.162H421.965V51.014C421.965 51.532 421.853 51.784 421.503 51.938C421.125 52.078 420.537 52.078 419.669 52.078C419.627 51.826 419.487 51.462 419.361 51.21C419.991 51.238 420.565 51.224 420.747 51.224C420.929 51.21 420.971 51.168 420.971 51V45.162ZM416.617 46.968H421.475V47.724H416.617V46.968ZM416.617 48.732H421.475V49.488H416.617V48.732ZM431.177 42.824H435.055V43.692H431.177V42.824ZM430.281 46.646H432.577V47.402H430.281V46.646ZM430.281 48.564H432.577V49.362H430.281V48.564ZM433.753 45.078H434.523V50.006H433.753V45.078ZM433.123 40.276C432.423 41.508 431.121 42.95 429.707 43.86C429.595 43.594 429.357 43.23 429.189 43.006C430.589 42.152 431.947 40.626 432.605 39.296H433.557C434.425 40.724 435.839 42.124 437.155 42.824C436.945 43.076 436.735 43.454 436.581 43.748C435.293 42.922 433.907 41.536 433.123 40.276ZM429.805 44.77H432.423V45.568H430.575V52.078H429.805V44.77ZM432.185 44.77H432.955V51.224C432.955 51.602 432.885 51.826 432.661 51.98C432.409 52.106 432.073 52.12 431.569 52.12C431.541 51.91 431.429 51.574 431.345 51.364C431.667 51.364 431.947 51.364 432.045 51.364C432.143 51.364 432.185 51.322 432.185 51.21V44.77ZM435.629 44.546H436.497V51.098C436.497 51.56 436.399 51.798 436.091 51.952C435.755 52.078 435.251 52.078 434.425 52.078C434.397 51.868 434.271 51.518 434.159 51.294C434.747 51.308 435.265 51.308 435.419 51.294C435.573 51.28 435.629 51.238 435.629 51.084V44.546ZM424.121 40.752H429.455V41.69H424.121V40.752ZM423.953 48.746H429.413V49.684H423.953V48.746ZM426.263 39.24H427.201V43.09H426.263V39.24ZM426.375 43.146H427.089V47.22H427.201V52.148H426.263V47.22H426.375V43.146ZM425.115 45.554V46.828H428.349V45.554H425.115ZM425.115 43.538V44.798H428.349V43.538H425.115ZM424.331 42.74H429.147V47.612H424.331V42.74ZM440.585 40.094H444.547V41.158H440.585V40.094ZM444.015 40.094H445.093C445.093 42.6 445.401 47.92 450.931 51.196C450.693 51.378 450.273 51.826 450.077 52.078C444.477 48.69 444.015 42.726 444.015 40.094ZM443.623 42.838L444.813 43.062C443.805 47.332 441.957 50.286 438.863 52.106C438.667 51.882 438.191 51.448 437.911 51.252C441.019 49.628 442.769 46.8 443.623 42.838ZM459.135 48.732H457.679V51H456.489V48.732H451.701V47.682L456.405 40.948H457.679V47.626H459.135V48.732ZM456.489 44.476C456.489 44.2333 456.489 44.014 456.489 43.818C456.498 43.6127 456.507 43.4213 456.517 43.244C456.526 43.0667 456.531 42.8987 456.531 42.74C456.54 42.572 456.549 42.4133 456.559 42.264H456.503C456.428 42.4413 456.335 42.6327 456.223 42.838C456.111 43.0433 456.003 43.216 455.901 43.356L452.905 47.626H456.489V44.476ZM467.664 39.408H468.714V42.6H467.664V39.408ZM464.01 41.998H472.564V43.006H464.01V41.998ZM465.172 44.098L466.11 43.944C466.642 45.806 467.132 48.2 467.244 49.586L466.208 49.81C466.11 48.41 465.676 45.974 465.172 44.098ZM470.282 43.818L471.402 44.014C470.884 46.254 470.072 49.124 469.414 50.86L468.476 50.636C469.134 48.872 469.904 45.904 470.282 43.818ZM463.66 50.468H472.914V51.476H463.66V50.468ZM463.282 39.282L464.276 39.604C463.324 41.956 461.826 44.308 460.286 45.848C460.174 45.61 459.88 45.05 459.684 44.798C461.098 43.482 462.47 41.396 463.282 39.282ZM461.826 42.894L462.82 41.9L462.834 41.914V52.092H461.826V42.894ZM482.336 41.844H486.858V42.824H482.336V41.844ZM482.616 39.24L483.638 39.394C483.232 42.054 482.56 44.63 481.51 46.296C481.356 46.114 480.95 45.736 480.712 45.568C481.706 44.042 482.294 41.662 482.616 39.24ZM485.094 42.362L486.088 42.46C485.514 47.108 484.282 50.202 481.244 52.162C481.146 51.938 480.838 51.504 480.656 51.294C483.498 49.614 484.618 46.632 485.094 42.362ZM482.854 42.726C483.386 46.562 484.548 49.894 486.928 51.308C486.69 51.504 486.368 51.882 486.2 52.134C483.722 50.51 482.56 47.052 481.958 42.866L482.854 42.726ZM477.212 39.24H478.15V46.59H477.212V39.24ZM475.826 40.836V43.174H479.648V40.836H475.826ZM474.93 40.094H480.572V43.916H474.93V40.094ZM475.49 45.274V46.184H479.97V45.274H475.49ZM474.58 44.56H480.908V46.898H474.58V44.56ZM473.978 47.794C475.868 47.794 478.808 47.752 481.65 47.696L481.608 48.494C478.822 48.564 475.924 48.606 474.006 48.634L473.978 47.794ZM476.778 46.674L477.674 46.884C477.086 48.018 476.288 49.418 475.728 50.328L474.86 50.076C475.434 49.18 476.232 47.752 476.778 46.674ZM475.658 49.824L476.176 49.194C477.814 49.754 479.536 50.552 480.558 51.238L479.886 51.896C478.92 51.21 477.282 50.412 475.658 49.824ZM479.298 48.13L480.208 48.284C479.648 50.566 477.912 51.63 474.72 52.176C474.664 51.91 474.482 51.56 474.314 51.35C477.212 51 478.78 50.104 479.298 48.13ZM473.964 41.592H475.308V41.648H480.138V41.592H481.566V42.404H480.138V42.348H475.308V42.404H473.964V41.592ZM492.514 41.452L493.452 40.99C494.39 42.012 495.286 43.398 495.692 44.35L494.684 44.896C494.32 43.93 493.41 42.488 492.514 41.452ZM487.908 49.516C489.336 48.956 491.576 48.004 493.676 47.08L493.914 48.102C491.968 48.998 489.84 49.936 488.286 50.608L487.908 49.516ZM496.308 47.668L497.12 46.982C498.45 48.298 500.186 50.118 501.012 51.266L500.116 52.092C499.332 50.93 497.652 49.04 496.308 47.668ZM498.254 39.968L499.388 40.08C498.674 46.548 497.036 50.118 492.136 52.162C491.982 51.938 491.562 51.476 491.296 51.252C496.14 49.488 497.624 46.058 498.254 39.968ZM489.616 40.01L490.694 39.968L490.932 49.222L489.854 49.264L489.616 40.01ZM507.998 43.776H513.752V44.826H507.998V43.776ZM502.132 50.412H514.704V51.462H502.132V50.412ZM507.396 39.45H508.502V50.972H507.396V39.45ZM517.252 41.494H521.508V50.65H517.252V49.698H520.528V42.432H517.252V41.494ZM516.622 41.494H517.602V51.77H516.622V41.494ZM517.182 45.386H521.046V46.324H517.182V45.386ZM518.764 39.212L519.898 39.422C519.618 40.29 519.268 41.256 518.988 41.886L518.148 41.676C518.386 41.004 518.652 39.94 518.764 39.212ZM523.496 41.452H527.794V42.432H523.496V41.452ZM527.43 41.452H528.41C528.41 41.452 528.41 41.844 528.41 41.998C528.186 48.424 527.99 50.594 527.43 51.28C527.122 51.686 526.8 51.812 526.31 51.854C525.834 51.91 525.008 51.882 524.224 51.84C524.196 51.532 524.07 51.098 523.874 50.818C524.784 50.888 525.624 50.902 525.946 50.902C526.226 50.902 526.394 50.86 526.548 50.678C527.01 50.174 527.234 47.85 527.43 41.676V41.452ZM523.79 39.184L524.798 39.422C524.28 41.508 523.454 43.566 522.488 44.896C522.306 44.728 521.872 44.434 521.62 44.294C522.572 43.062 523.342 41.13 523.79 39.184ZM523.146 45.092L523.958 44.616C524.756 45.61 525.722 46.968 526.17 47.794L525.274 48.354C524.854 47.5 523.916 46.114 523.146 45.092ZM538.336 41.844H542.858V42.824H538.336V41.844ZM538.616 39.24L539.638 39.394C539.232 42.054 538.56 44.63 537.51 46.296C537.356 46.114 536.95 45.736 536.712 45.568C537.706 44.042 538.294 41.662 538.616 39.24ZM541.094 42.362L542.088 42.46C541.514 47.108 540.282 50.202 537.244 52.162C537.146 51.938 536.838 51.504 536.656 51.294C539.498 49.614 540.618 46.632 541.094 42.362ZM538.854 42.726C539.386 46.562 540.548 49.894 542.928 51.308C542.69 51.504 542.368 51.882 542.2 52.134C539.722 50.51 538.56 47.052 537.958 42.866L538.854 42.726ZM533.212 39.24H534.15V46.59H533.212V39.24ZM531.826 40.836V43.174H535.648V40.836H531.826ZM530.93 40.094H536.572V43.916H530.93V40.094ZM531.49 45.274V46.184H535.97V45.274H531.49ZM530.58 44.56H536.908V46.898H530.58V44.56ZM529.978 47.794C531.868 47.794 534.808 47.752 537.65 47.696L537.608 48.494C534.822 48.564 531.924 48.606 530.006 48.634L529.978 47.794ZM532.778 46.674L533.674 46.884C533.086 48.018 532.288 49.418 531.728 50.328L530.86 50.076C531.434 49.18 532.232 47.752 532.778 46.674ZM531.658 49.824L532.176 49.194C533.814 49.754 535.536 50.552 536.558 51.238L535.886 51.896C534.92 51.21 533.282 50.412 531.658 49.824ZM535.298 48.13L536.208 48.284C535.648 50.566 533.912 51.63 530.72 52.176C530.664 51.91 530.482 51.56 530.314 51.35C533.212 51 534.78 50.104 535.298 48.13ZM529.964 41.592H531.308V41.648H536.138V41.592H537.566V42.404H536.138V42.348H531.308V42.404H529.964V41.592ZM546.68 43.3H553.4V44.266H546.68V43.3ZM544.398 46.814H556.466V47.808H544.398V46.814ZM549.872 45.764H550.978V50.818C550.978 51.448 550.824 51.756 550.32 51.924C549.83 52.092 549.088 52.106 547.898 52.106C547.828 51.798 547.618 51.35 547.436 51.056C548.388 51.084 549.298 51.084 549.55 51.07C549.802 51.056 549.872 51 549.872 50.804V45.764ZM553.078 43.3H553.358L553.596 43.244L554.282 43.762C553.358 44.784 551.972 45.876 550.684 46.534C550.558 46.338 550.278 46.072 550.11 45.932C551.202 45.344 552.448 44.294 553.078 43.51V43.3ZM549.844 39.226H550.95V41.48H549.844V39.226ZM544.538 40.766H556.284V44.056H555.206V41.76H545.574V44.056H544.538V40.766ZM565.132 39.282H566.252C566.224 45.68 567.596 51.042 569.304 51.042C569.71 51.042 569.864 50.3 569.948 48.438C570.186 48.676 570.578 48.928 570.872 49.026C570.69 51.448 570.284 52.134 569.22 52.134C566.434 52.134 565.202 45.918 565.132 39.282ZM567.092 39.94L567.708 39.296C568.576 39.66 569.612 40.276 570.13 40.738L569.486 41.48C568.982 41.004 567.96 40.346 567.092 39.94ZM568.926 43.524L569.962 43.776C568.744 47.556 566.63 50.37 563.69 52.134C563.536 51.924 563.116 51.504 562.892 51.308C565.804 49.74 567.82 47.052 568.926 43.524ZM558.356 41.48H570.522V42.516H558.356V41.48ZM558.286 50.09C559.812 49.796 562.192 49.32 564.474 48.83L564.558 49.838C562.416 50.314 560.12 50.818 558.482 51.168L558.286 50.09ZM560.134 44.672V47.122H562.99V44.672H560.134ZM559.168 43.762H564.026V48.018H559.168V43.762ZM572.202 47.122H584.634V48.102H572.202V47.122ZM573.658 43.832H583.262V47.514H582.198V44.77H574.666V47.514H573.658V43.832ZM577.802 42.222H578.894V46.114C578.894 48.494 578.124 50.832 572.58 52.162C572.454 51.924 572.174 51.504 571.95 51.28C577.284 50.09 577.802 48.074 577.802 46.1V42.222ZM579.062 47.472C579.958 49.6 581.96 50.79 584.97 51.196C584.732 51.434 584.452 51.868 584.298 52.162C581.176 51.602 579.16 50.23 578.124 47.71L579.062 47.472ZM572.37 40.542H584.396V41.494H572.37V40.542ZM575.338 39.254H576.374V42.964H575.338V39.254ZM580.378 39.254H581.414V42.964H580.378V39.254ZM595.554 42.152L596.66 42.474C594.896 47.612 591.718 50.496 586.622 52.148C586.51 51.882 586.174 51.378 585.95 51.126C590.948 49.698 593.986 46.954 595.554 42.152ZM589.198 42.222C590.71 46.702 593.86 49.922 598.914 51.098C598.662 51.35 598.326 51.826 598.158 52.134C592.964 50.776 589.884 47.444 588.162 42.544L589.198 42.222ZM586.118 41.62H598.774V42.656H586.118V41.62ZM591.858 39.24H592.936V42.25H591.858V39.24Z" fill="#666666"/>
<path d="M392.257 43H391.507V40.1376C391.507 36.6959 389.017 34 385.48 34C381.928 34 379.507 36.7533 379.507 40.1376V43H378.757C377.103 43 375.757 44.3455 375.757 46V55C375.757 56.6545 377.103 58 378.757 58H392.257C393.912 58 395.257 56.6545 395.257 55V46C395.257 44.3455 393.912 43 392.257 43ZM381.007 40.1376C381.007 37.5809 382.755 35.5 385.48 35.5C388.176 35.5 390.007 37.537 390.007 40.1376V43H381.007V40.1376ZM393.757 55C393.757 55.8269 393.084 56.5 392.257 56.5H378.757C377.93 56.5 377.257 55.8269 377.257 55V46C377.257 45.1731 377.93 44.5 378.757 44.5H392.257C393.084 44.5 393.757 45.1731 393.757 46V55ZM385.507 47.5C384.679 47.5 384.007 48.1716 384.007 49C384.007 49.5539 384.311 50.032 384.757 50.2919V52.75C384.757 53.164 385.093 53.5 385.507 53.5C385.921 53.5 386.257 53.164 386.257 52.75V50.2919C386.704 50.032 387.007 49.5535 387.007 49C387.007 48.1716 386.336 47.5 385.507 47.5Z" fill="#00BBB4"/>
</g>
<g filter="url(#filter2_d_236_3098)">
<rect x="694" y="27" width="311" height="38" rx="19" fill="#F4E2C5" shape-rendering="crispEdges"/>
<path d="M821.116 41.632H825.02V42.512H821.116V41.632ZM820.956 51.68H825.948V52.592H820.956V51.68ZM820.236 45.216H825.58V46.016H820.236V45.216ZM819.724 43.392H820.78V46.032C820.78 48.048 820.476 50.944 818.844 52.928C818.684 52.704 818.252 52.32 818.028 52.176C819.516 50.352 819.724 47.84 819.724 46V43.392ZM820.316 43.392H826.092V47.856H820.284V46.96H825.004V44.288H820.316V43.392ZM820.524 48.848H826.332V53.152H825.26V49.76H821.564V53.264H820.524V48.848ZM827.404 40.496H828.556V49.36H827.404V40.496ZM831.004 38.864H832.172V51.696C832.172 52.512 831.964 52.864 831.468 53.056C830.972 53.264 830.108 53.296 828.668 53.28C828.62 52.976 828.428 52.432 828.252 52.08C829.34 52.128 830.3 52.112 830.588 52.096C830.892 52.096 831.004 52 831.004 51.712V38.864ZM822.252 38.72H822.908V38.976H823.292V39.328C822.38 40.624 820.908 42.304 818.796 43.68C818.636 43.408 818.268 43.024 818.028 42.848C820.012 41.664 821.468 40.032 822.252 38.72ZM822.476 38.72H823.34C824.556 39.616 826.076 40.912 826.892 41.76L826.092 42.656C825.34 41.824 823.884 40.416 822.716 39.568H822.476V38.72ZM838.508 41.952H848.86V42.928H838.508V41.952ZM839.452 46.272H847.804V47.184H839.452V46.272ZM838.732 48.464H848.508V49.456H838.732V48.464ZM842.94 38.688H844.108V51.152H842.94V38.688ZM839.66 39.856H847.66V45.072H839.548V44.112H846.476V40.816H839.66V39.856ZM834.156 39.584H837.612V40.656H834.156V39.584ZM837.18 39.584H837.356L837.548 39.52L838.364 39.776C837.628 41.456 836.428 43.936 835.452 45.84L834.364 45.536C835.356 43.664 836.588 41.072 837.18 39.728V39.584ZM835.612 44.144H838.236V45.216H835.468L835.612 44.144ZM837.74 44.144H837.98L838.204 44.112L838.892 44.288C838.412 48.944 837.02 51.808 834.94 53.312C834.748 53.072 834.3 52.64 834.028 52.48C836.06 51.12 837.34 48.512 837.74 44.384V44.144ZM835.66 46.496C836.956 50.912 839.932 51.712 843.996 51.712C844.668 51.712 848.124 51.712 848.972 51.696C848.78 51.968 848.556 52.512 848.476 52.864H843.964C839.34 52.864 836.252 51.888 834.7 46.864L835.66 46.496ZM852.652 38.592H853.692V53.296H852.652V38.592ZM850.556 41.616H855.42V42.688H851.484V50H850.556V41.616ZM854.924 41.616H855.852V48.672C855.852 49.104 855.788 49.44 855.516 49.632C855.228 49.824 854.86 49.856 854.3 49.856C854.284 49.552 854.124 49.088 853.98 48.8C854.364 48.816 854.668 48.816 854.796 48.816C854.892 48.8 854.924 48.768 854.924 48.64V41.616ZM857.756 39.264H864.076V40.256H857.756V39.264ZM857.772 41.488H863.564V42.432H857.772V41.488ZM857.772 43.696H863.564V44.64H857.772V43.696ZM856.044 45.888H864.78V46.912H856.044V45.888ZM855.708 52C857.132 51.808 859.276 51.456 861.356 51.12L861.436 52.128C859.484 52.48 857.468 52.832 855.964 53.104L855.708 52ZM860.668 46.208C861.26 49.104 862.62 51.344 865.084 52.256C864.828 52.496 864.46 52.976 864.3 53.296C861.708 52.16 860.332 49.696 859.676 46.368L860.668 46.208ZM863.932 47.28L864.748 48C863.884 48.8 862.7 49.616 861.82 50.176L861.132 49.488C861.98 48.928 863.228 47.984 863.932 47.28ZM857.26 39.264H858.396V46.4H857.26V39.264ZM857.244 46.352H858.38V52.08L857.244 52.224V46.352ZM867.964 40.176V42.608H870.348V40.176H867.964ZM866.876 39.168H871.484V43.632H866.876V39.168ZM866.14 44.752H872.172V45.808H866.14V44.752ZM867.644 45.232H868.748C868.476 46.56 868.092 48.224 867.804 49.28L866.716 49.072C867.036 48.048 867.404 46.448 867.644 45.232ZM867.772 47.232H870.748V48.256H867.5L867.772 47.232ZM870.3 47.232H871.42C871.42 47.232 871.404 47.552 871.388 47.728C871.132 51.072 870.892 52.384 870.444 52.864C870.172 53.152 869.9 53.248 869.468 53.296C869.116 53.312 868.46 53.312 867.788 53.28C867.772 52.976 867.644 52.512 867.452 52.224C868.14 52.288 868.764 52.288 869.02 52.288C869.26 52.304 869.42 52.272 869.548 52.128C869.868 51.808 870.108 50.576 870.3 47.424V47.232ZM876.332 39.664H880.156V40.656H876.332V39.664ZM873.116 41.744H880.172V42.72H873.116V41.744ZM875.756 38.56H876.908V42.256H875.756V38.56ZM872.604 41.744H873.692V45.84C873.692 48.08 873.468 51.248 871.98 53.376C871.788 53.168 871.34 52.832 871.068 52.72C872.46 50.688 872.604 47.904 872.604 45.84V41.744ZM874.076 44.384L878.812 43.92L878.924 44.752L874.188 45.264L874.076 44.384ZM875.82 42.832H876.892V45.696C876.892 46.032 876.956 46.08 877.404 46.08C877.596 46.08 878.62 46.08 878.892 46.08C879.244 46.08 879.308 45.968 879.356 45.072C879.58 45.216 879.996 45.36 880.284 45.424C880.188 46.656 879.884 46.976 879.02 46.976C878.78 46.976 877.5 46.976 877.26 46.976C876.108 46.976 875.82 46.72 875.82 45.696V42.832ZM879.836 41.744H880.012L880.204 41.696L880.956 41.888C880.764 42.864 880.508 44.016 880.316 44.736L879.388 44.512C879.548 43.84 879.74 42.752 879.836 41.904V41.744ZM874.988 47.68H876.028C875.916 50.4 875.452 52.272 873.5 53.344C873.356 53.072 873.036 52.672 872.796 52.48C874.54 51.584 874.892 50.032 874.988 47.68ZM877.34 47.664H878.38V51.616C878.38 51.728 878.412 51.84 878.492 51.872C878.588 51.92 878.716 51.952 878.876 51.952C879.004 51.952 879.26 51.952 879.452 51.952C879.596 51.952 879.804 51.92 879.884 51.872C879.98 51.824 880.06 51.712 880.092 51.536C880.14 51.28 880.156 50.656 880.156 49.936C880.364 50.128 880.764 50.336 881.068 50.432C881.052 51.184 880.972 51.984 880.892 52.256C880.796 52.56 880.62 52.736 880.38 52.88C880.188 52.976 879.836 53.04 879.532 53.04C879.324 53.04 878.796 53.04 878.62 53.04C878.268 53.04 877.9 52.976 877.66 52.784C877.404 52.56 877.34 52.32 877.34 51.584V47.664Z" fill="black"/>
</g>
<defs>
<filter id="filter0_d_236_3098" x="20" y="24" width="319" height="52" filterUnits="userSpaceOnUse" color-interpolation-filters="sRGB">
<feFlood flood-opacity="0" result="BackgroundImageFix"/>
<feColorMatrix in="SourceAlpha" type="matrix" values="0 0 0 0 0 0 0 0 0 0 0 0 0 0 0 0 0 0 127 0" result="hardAlpha"/>
<feOffset dy="4"/>
<feGaussianBlur stdDeviation="2"/>
<feComposite in2="hardAlpha" operator="out"/>
<feColorMatrix type="matrix" values="0 0 0 0 0 0 0 0 0 0 0 0 0 0 0 0 0 0 0.25 0"/>
<feBlend mode="normal" in2="BackgroundImageFix" result="effect1_dropShadow_236_3098"/>
<feBlend mode="normal" in="SourceGraphic" in2="effect1_dropShadow_236_3098" result="shape"/>
</filter>
<filter id="filter1_d_236_3098" x="355" y="24" width="319" height="52" filterUnits="userSpaceOnUse" color-interpolation-filters="sRGB">
<feFlood flood-opacity="0" result="BackgroundImageFix"/>
<feColorMatrix in="SourceAlpha" type="matrix" values="0 0 0 0 0 0 0 0 0 0 0 0 0 0 0 0 0 0 127 0" result="hardAlpha"/>
<feOffset dy="4"/>
<feGaussianBlur stdDeviation="2"/>
<feComposite in2="hardAlpha" operator="out"/>
<feColorMatrix type="matrix" values="0 0 0 0 0 0 0 0 0 0 0 0 0 0 0 0 0 0 0.25 0"/>
<feBlend mode="normal" in2="BackgroundImageFix" result="effect1_dropShadow_236_3098"/>
<feBlend mode="normal" in="SourceGraphic" in2="effect1_dropShadow_236_3098" result="shape"/>
</filter>
<filter id="filter2_d_236_3098" x="690" y="27" width="319" height="46" filterUnits="userSpaceOnUse" color-interpolation-filters="sRGB">
<feFlood flood-opacity="0" result="BackgroundImageFix"/>
<feColorMatrix in="SourceAlpha" type="matrix" values="0 0 0 0 0 0 0 0 0 0 0 0 0 0 0 0 0 0 127 0" result="hardAlpha"/>
<feOffset dy="4"/>
<feGaussianBlur stdDeviation="2"/>
<feComposite in2="hardAlpha" operator="out"/>
<feColorMatrix type="matrix" values="0 0 0 0 0 0 0 0 0 0 0 0 0 0 0 0 0 0 0.25 0"/>
<feBlend mode="normal" in2="BackgroundImageFix" result="effect1_dropShadow_236_3098"/>
<feBlend mode="normal" in="SourceGraphic" in2="effect1_dropShadow_236_3098" result="shape"/>
</filter>
<clipPath id="clip0_236_3098">
<rect width="24" height="24" fill="white" transform="translate(38.5073 34)"/>
</clipPath>
<clipPath id="clip1_236_3098">
<rect width="24" height="24" fill="white" transform="translate(633.732 34)"/>
</clipPath>
</defs>
</svg>
