<svg width="347" height="344" viewBox="0 0 347 344" fill="none" xmlns="http://www.w3.org/2000/svg">
<rect x="0.5" y="0.5" width="346" height="343" stroke="black" stroke-dasharray="2 2"/>
<rect x="18" y="22" width="311" height="44" rx="5" fill="white"/>
<path d="M69.5967 41.482H73.6987V42.322H69.5967V41.482ZM69.6387 37.744H73.6427V38.584H69.6387V37.744ZM69.5967 43.358H73.6987V44.198H69.5967V43.358ZM68.9387 39.578H74.1607V40.446H68.9387V39.578ZM70.0587 45.248H73.6987V49.336H70.0587V48.454H72.7747V46.116H70.0587V45.248ZM69.5827 45.248H70.4927V49.98H69.5827V45.248ZM74.4687 38.192H81.5107V39.004H74.4687V38.192ZM74.8327 39.844H81.3007V40.614H74.8327V39.844ZM74.1187 41.524H81.8187V42.336H74.1187V41.524ZM77.4507 37.24H78.4447V42.21H77.4507V37.24ZM75.1687 43.162H80.5587V43.96H76.1627V50.106H75.1687V43.162ZM79.9707 43.162H80.9647V49.014C80.9647 49.532 80.8527 49.784 80.5027 49.938C80.1247 50.078 79.5367 50.078 78.6687 50.078C78.6267 49.826 78.4867 49.462 78.3607 49.21C78.9907 49.238 79.5647 49.224 79.7467 49.224C79.9287 49.21 79.9707 49.168 79.9707 49V43.162ZM75.6167 44.968H80.4747V45.724H75.6167V44.968ZM75.6167 46.732H80.4747V47.488H75.6167V46.732ZM90.1767 40.824H94.0547V41.692H90.1767V40.824ZM89.2807 44.646H91.5767V45.402H89.2807V44.646ZM89.2807 46.564H91.5767V47.362H89.2807V46.564ZM92.7527 43.078H93.5227V48.006H92.7527V43.078ZM92.1227 38.276C91.4227 39.508 90.1207 40.95 88.7067 41.86C88.5947 41.594 88.3567 41.23 88.1887 41.006C89.5887 40.152 90.9467 38.626 91.6047 37.296H92.5567C93.4247 38.724 94.8387 40.124 96.1547 40.824C95.9447 41.076 95.7347 41.454 95.5807 41.748C94.2927 40.922 92.9067 39.536 92.1227 38.276ZM88.8047 42.77H91.4227V43.568H89.5747V50.078H88.8047V42.77ZM91.1847 42.77H91.9547V49.224C91.9547 49.602 91.8847 49.826 91.6607 49.98C91.4087 50.106 91.0727 50.12 90.5687 50.12C90.5407 49.91 90.4287 49.574 90.3447 49.364C90.6667 49.364 90.9467 49.364 91.0447 49.364C91.1427 49.364 91.1847 49.322 91.1847 49.21V42.77ZM94.6287 42.546H95.4967V49.098C95.4967 49.56 95.3987 49.798 95.0907 49.952C94.7547 50.078 94.2507 50.078 93.4247 50.078C93.3967 49.868 93.2707 49.518 93.1587 49.294C93.7467 49.308 94.2647 49.308 94.4187 49.294C94.5727 49.28 94.6287 49.238 94.6287 49.084V42.546ZM83.1207 38.752H88.4547V39.69H83.1207V38.752ZM82.9527 46.746H88.4127V47.684H82.9527V46.746ZM85.2627 37.24H86.2007V41.09H85.2627V37.24ZM85.3747 41.146H86.0887V45.22H86.2007V50.148H85.2627V45.22H85.3747V41.146ZM84.1147 43.554V44.828H87.3487V43.554H84.1147ZM84.1147 41.538V42.798H87.3487V41.538H84.1147ZM83.3307 40.74H88.1467V45.612H83.3307V40.74ZM99.5847 38.094H103.547V39.158H99.5847V38.094ZM103.015 38.094H104.093C104.093 40.6 104.401 45.92 109.931 49.196C109.693 49.378 109.273 49.826 109.077 50.078C103.477 46.69 103.015 40.726 103.015 38.094ZM102.623 40.838L103.813 41.062C102.805 45.332 100.957 48.286 97.8627 50.106C97.6667 49.882 97.1907 49.448 96.9107 49.252C100.019 47.628 101.769 44.8 102.623 40.838ZM121.565 37.268L122.349 38.122C119.815 38.864 115.671 39.242 112.269 39.382C112.241 39.116 112.115 38.696 112.017 38.458C115.349 38.304 119.437 37.926 121.565 37.268ZM112.031 41.216H122.951V42.224H112.031V41.216ZM111.093 44.506H123.735V45.528H111.093V44.506ZM116.875 38.752H117.967V48.664C117.967 49.406 117.743 49.728 117.211 49.896C116.679 50.064 115.769 50.092 114.285 50.078C114.215 49.784 114.019 49.308 113.851 49.028C115.013 49.07 116.133 49.056 116.441 49.042C116.763 49.042 116.875 48.944 116.875 48.65V38.752ZM129.279 44.408H137.777V45.262H129.279V44.408ZM130.385 46.62L130.945 45.976C131.673 46.396 132.611 47.026 133.073 47.46L132.485 48.188C132.037 47.74 131.113 47.068 130.385 46.62ZM134.921 43.582L135.439 43.078C135.957 43.358 136.601 43.778 136.923 44.1L136.377 44.646C136.069 44.338 135.439 43.876 134.921 43.582ZM130.315 44.8H131.267C131.113 46.97 130.693 48.944 129.125 50.092C128.985 49.882 128.705 49.56 128.481 49.406C129.867 48.426 130.203 46.634 130.315 44.8ZM132.835 37.254H133.773C133.703 44.226 134.725 49.238 136.629 49.238C137.035 49.238 137.175 48.916 137.245 47.642C137.441 47.838 137.763 48.02 137.987 48.104C137.805 49.686 137.497 50.148 136.559 50.148C133.745 50.134 132.863 44.408 132.835 37.254ZM135.971 45.486L136.867 45.822C135.957 47.754 134.235 49.224 132.079 50.12C131.953 49.938 131.687 49.616 131.491 49.448C133.591 48.636 135.187 47.222 135.971 45.486ZM133.843 39.69L134.277 39.116C134.893 39.536 135.593 40.18 135.915 40.628L135.467 41.286C135.145 40.824 134.445 40.152 133.843 39.69ZM136.461 41.384L137.105 41.132C137.497 41.776 137.875 42.616 137.987 43.148L137.301 43.47C137.175 42.924 136.825 42.042 136.461 41.384ZM134.025 42.364C134.893 42.308 136.055 42.238 137.287 42.154V42.882C136.167 42.994 135.103 43.092 134.179 43.176L134.025 42.364ZM135.467 37.38L136.279 37.702C135.887 38.486 135.411 39.396 135.019 39.97L134.417 39.69C134.767 39.074 135.229 38.066 135.467 37.38ZM136.615 38.78L137.399 39.158C136.685 40.362 135.733 41.86 134.977 42.812L134.389 42.476C135.131 41.51 136.083 39.914 136.615 38.78ZM129.097 39.69L129.545 39.116C130.147 39.536 130.861 40.18 131.169 40.628L130.721 41.286C130.399 40.824 129.699 40.152 129.097 39.69ZM131.533 41.468L132.177 41.23C132.541 41.874 132.877 42.728 132.961 43.26L132.275 43.554C132.177 43.008 131.869 42.14 131.533 41.468ZM129.153 42.518C130.035 42.476 131.183 42.392 132.429 42.294V43.05C131.309 43.162 130.231 43.26 129.307 43.344L129.153 42.518ZM130.735 37.38L131.547 37.716C131.141 38.486 130.665 39.41 130.287 39.984L129.685 39.718C130.035 39.088 130.483 38.066 130.735 37.38ZM131.883 38.78L132.653 39.158C131.925 40.404 130.945 41.958 130.147 42.924L129.545 42.602C130.329 41.608 131.323 39.956 131.883 38.78ZM125.121 40.278H129.363V41.258H125.121V40.278ZM126.899 37.24H127.851V50.106H126.899V37.24ZM126.857 40.866L127.487 41.062C127.095 43.274 126.269 46.032 125.345 47.432C125.233 47.18 124.995 46.788 124.827 46.564C125.681 45.304 126.521 42.854 126.857 40.866ZM127.781 41.79C128.061 42.168 129.153 43.918 129.377 44.324L128.845 45.094C128.565 44.394 127.683 42.742 127.347 42.196L127.781 41.79ZM140.563 38.654V40.782H142.649V38.654H140.563ZM139.611 37.772H143.643V41.678H139.611V37.772ZM138.967 42.658H144.245V43.582H138.967V42.658ZM140.283 43.078H141.249C141.011 44.24 140.675 45.696 140.423 46.62L139.471 46.438C139.751 45.542 140.073 44.142 140.283 43.078ZM140.395 44.828H142.999V45.724H140.157L140.395 44.828ZM142.607 44.828H143.587C143.587 44.828 143.573 45.108 143.559 45.262C143.335 48.188 143.125 49.336 142.733 49.756C142.495 50.008 142.257 50.092 141.879 50.134C141.571 50.148 140.997 50.148 140.409 50.12C140.395 49.854 140.283 49.448 140.115 49.196C140.717 49.252 141.263 49.252 141.487 49.252C141.697 49.266 141.837 49.238 141.949 49.112C142.229 48.832 142.439 47.754 142.607 44.996V44.828ZM147.885 38.206H151.231V39.074H147.885V38.206ZM145.071 40.026H151.245V40.88H145.071V40.026ZM147.381 37.24H148.389V40.474H147.381V37.24ZM144.623 40.026H145.575V43.61C145.575 45.57 145.379 48.342 144.077 50.204C143.909 50.022 143.517 49.728 143.279 49.63C144.497 47.852 144.623 45.416 144.623 43.61V40.026ZM145.911 42.336L150.055 41.93L150.153 42.658L146.009 43.106L145.911 42.336ZM147.437 40.978H148.375V43.484C148.375 43.778 148.431 43.82 148.823 43.82C148.991 43.82 149.887 43.82 150.125 43.82C150.433 43.82 150.489 43.722 150.531 42.938C150.727 43.064 151.091 43.19 151.343 43.246C151.259 44.324 150.993 44.604 150.237 44.604C150.027 44.604 148.907 44.604 148.697 44.604C147.689 44.604 147.437 44.38 147.437 43.484V40.978ZM150.951 40.026H151.105L151.273 39.984L151.931 40.152C151.763 41.006 151.539 42.014 151.371 42.644L150.559 42.448C150.699 41.86 150.867 40.908 150.951 40.166V40.026ZM146.709 45.22H147.619C147.521 47.6 147.115 49.238 145.407 50.176C145.281 49.938 145.001 49.588 144.791 49.42C146.317 48.636 146.625 47.278 146.709 45.22ZM148.767 45.206H149.677V48.664C149.677 48.762 149.705 48.86 149.775 48.888C149.859 48.93 149.971 48.958 150.111 48.958C150.223 48.958 150.447 48.958 150.615 48.958C150.741 48.958 150.923 48.93 150.993 48.888C151.077 48.846 151.147 48.748 151.175 48.594C151.217 48.37 151.231 47.824 151.231 47.194C151.413 47.362 151.763 47.544 152.029 47.628C152.015 48.286 151.945 48.986 151.875 49.224C151.791 49.49 151.637 49.644 151.427 49.77C151.259 49.854 150.951 49.91 150.685 49.91C150.503 49.91 150.041 49.91 149.887 49.91C149.579 49.91 149.257 49.854 149.047 49.686C148.823 49.49 148.767 49.28 148.767 48.636V45.206ZM153.079 37.912H158.217V38.878H153.079V37.912ZM154.521 42.28H157.699V48.328H154.521V47.404H156.761V43.204H154.521V42.28ZM154.773 38.374L155.781 38.528C155.347 41.468 154.633 44.226 153.359 46.06C153.261 45.836 152.939 45.332 152.743 45.108C153.849 43.512 154.437 41.006 154.773 38.374ZM154.059 42.28H154.983V49.49H154.059V42.28ZM159.337 40.04H165.007V40.894H159.337V40.04ZM159.337 42.196H165.007V43.064H159.337V42.196ZM158.819 44.394H164.965V45.318H158.819V44.394ZM161.717 38.318H162.669V44.786H161.717V38.318ZM159.981 46.438L160.709 46.326C160.877 47.166 160.975 48.216 160.961 48.902L160.191 49.028C160.219 48.328 160.135 47.264 159.981 46.438ZM161.465 46.326L162.151 46.144C162.445 46.816 162.711 47.712 162.823 48.286L162.095 48.496C162.011 47.922 161.745 47.012 161.465 46.326ZM162.879 46.018L163.439 45.78C163.845 46.284 164.251 46.984 164.433 47.418L163.803 47.712C163.635 47.25 163.243 46.55 162.879 46.018ZM158.623 46.004L159.421 46.2C159.281 47.418 159.015 48.72 158.343 49.49L157.601 49.07C158.217 48.37 158.497 47.152 158.623 46.004ZM158.819 37.842H165.357V38.766H159.785V44.856H158.819V37.842ZM164.657 44.394H165.623C165.623 44.394 165.623 44.688 165.609 44.828C165.455 48.118 165.301 49.322 164.937 49.728C164.713 49.994 164.475 50.092 164.097 50.12C163.775 50.148 163.173 50.148 162.557 50.12C162.543 49.84 162.445 49.462 162.291 49.196C162.893 49.252 163.453 49.266 163.663 49.266C163.887 49.266 163.999 49.238 164.111 49.112C164.363 48.832 164.531 47.684 164.657 44.562V44.394Z" fill="#666666"/>
<g clip-path="url(#clip0_231_295)">
<path d="M43.2885 32.0281C41.7557 32.2109 40.4807 32.5813 39.187 33.2188C36.0088 34.7797 33.6745 37.6766 32.8354 41.1031C32.5682 42.1953 32.5307 42.5469 32.5307 44C32.5307 45.4531 32.5682 45.8094 32.8354 46.8969C33.9323 51.35 37.5698 54.8563 42.0323 55.7703C43.2135 56.0094 44.826 56.075 46.0073 55.9297C51.4448 55.2594 55.762 50.9375 56.437 45.5C56.5307 44.7313 56.5307 43.2406 56.437 42.5141C56.2916 41.4031 56.0291 40.3953 55.6401 39.4438C55.2604 38.5156 54.787 37.6672 54.5995 37.5828C54.262 37.4281 53.8823 37.6578 53.8823 38.0141C53.8823 38.0703 54.0791 38.5109 54.3182 38.9844C55.1666 40.6578 55.5229 42.1438 55.5229 43.9813C55.5229 44.9281 55.4713 45.4859 55.3073 46.2734C54.8666 48.3734 53.8307 50.2813 52.3166 51.7766C52.0213 52.0719 51.862 52.1984 51.8526 52.1516C51.3416 50.4547 50.8213 49.5219 49.8229 48.5281C48.3932 47.0938 46.5604 46.3438 44.5073 46.3438C42.4541 46.3438 40.6213 47.0938 39.1916 48.5281C38.1932 49.5219 37.6729 50.4547 37.162 52.1516C37.1526 52.1984 36.9932 52.0719 36.6979 51.7766C34.9495 50.0469 33.8198 47.7125 33.5385 45.2234C33.4541 44.5063 33.501 42.8563 33.6229 42.1719C33.8338 41.0141 34.0963 40.2078 34.6166 39.1438C36.2526 35.7922 39.501 33.4906 43.2651 33.0313C43.7995 32.9656 45.2104 32.9656 45.7541 33.0313C47.6713 33.2609 49.4526 33.9594 51.0182 35.0891C51.3416 35.3234 51.4448 35.375 51.5948 35.375C51.8573 35.375 52.0541 35.1734 52.0541 34.9156C52.0541 34.8125 52.0401 34.6906 52.026 34.6531C52.0073 34.6109 51.7823 34.4234 51.5198 34.2313C50.0338 33.1578 48.4166 32.4781 46.4901 32.1359C46.0354 32.0516 45.7166 32.0328 44.6948 32.0234C44.0104 32.0141 43.3776 32.0188 43.2885 32.0281ZM45.4213 47.3797C47.8073 47.6844 49.9026 49.4141 50.6948 51.7344C50.7885 52.0156 50.9713 52.7656 50.976 52.8875C50.976 53.0094 49.8182 53.7125 49.0448 54.0594C47.601 54.7109 46.1526 55.0156 44.5307 55.0203C42.7213 55.0203 41.1838 54.6641 39.6135 53.8859C39.1588 53.6563 38.3713 53.1922 38.137 53.0094L38.0291 52.9203L38.1088 52.5313C38.6948 49.6672 41.1229 47.5344 44.0151 47.3375C44.5448 47.3 44.8823 47.3094 45.4213 47.3797Z" fill="#00BBB4"/>
<path d="M52.7854 35.9656C52.687 36.0641 52.6635 36.1344 52.6635 36.3125C52.6635 36.4906 52.687 36.5609 52.7854 36.6594C52.8838 36.7578 52.9541 36.7812 53.1323 36.7812C53.3104 36.7812 53.3807 36.7578 53.4791 36.6594C53.5776 36.5609 53.601 36.4906 53.601 36.3125C53.601 36.1344 53.5776 36.0641 53.4791 35.9656C53.3807 35.8672 53.3104 35.8437 53.1323 35.8437C52.9541 35.8437 52.8838 35.8672 52.7854 35.9656Z" fill="#00BBB4"/>
<path d="M43.4432 37.0859C41.9479 37.4703 40.7807 38.6469 40.401 40.1422C40.2417 40.775 40.2417 41.6 40.401 42.2328C40.7854 43.7375 41.9573 44.9094 43.462 45.2938C44.0948 45.4531 44.9198 45.4531 45.5526 45.2938C47.0573 44.9094 48.2292 43.7375 48.6135 42.2328C48.7729 41.6 48.7729 40.775 48.6135 40.1422C48.2292 38.6328 47.062 37.4656 45.5526 37.0813C44.9245 36.9219 44.0667 36.9266 43.4432 37.0859ZM45.2479 38.0281C45.8245 38.15 46.2932 38.4172 46.7854 38.9094C47.4604 39.5891 47.7417 40.2594 47.7417 41.1875C47.7417 42.1156 47.4604 42.7813 46.7807 43.4656C46.1104 44.1359 45.4307 44.4266 44.5073 44.4266C43.5885 44.4266 42.9042 44.1359 42.2292 43.4656C41.5542 42.7859 41.2729 42.1156 41.2729 41.1875C41.2729 40.2594 41.5542 39.5891 42.2292 38.9094C43.0823 38.0609 44.0432 37.7797 45.2479 38.0281Z" fill="#00BBB4"/>
</g>
<rect x="18" y="106" width="311" height="44" rx="5" fill="white"/>
<g clip-path="url(#clip1_231_295)">
<path d="M316.587 127.392C314.327 122.983 309.854 120 304.732 120C299.61 120 295.135 122.985 292.877 127.392C292.781 127.581 292.732 127.789 292.732 128C292.732 128.211 292.781 128.42 292.877 128.608C295.136 133.017 299.61 136 304.732 136C309.854 136 314.328 133.015 316.587 128.608C316.682 128.419 316.732 128.211 316.732 128C316.732 127.789 316.682 127.58 316.587 127.392V127.392ZM304.732 134C303.545 134 302.385 133.648 301.398 132.989C300.412 132.33 299.643 131.392 299.188 130.296C298.734 129.2 298.616 127.993 298.847 126.829C299.079 125.666 299.65 124.596 300.489 123.757C301.328 122.918 302.397 122.347 303.561 122.115C304.725 121.884 305.931 122.003 307.028 122.457C308.124 122.911 309.061 123.68 309.721 124.667C310.38 125.653 310.732 126.813 310.732 128C310.732 128.788 310.577 129.568 310.276 130.297C309.974 131.025 309.532 131.686 308.975 132.243C308.418 132.801 307.756 133.243 307.028 133.544C306.3 133.845 305.52 134 304.732 134V134ZM304.732 124C304.375 124.005 304.02 124.058 303.677 124.158C303.96 124.542 304.095 125.015 304.059 125.49C304.023 125.965 303.818 126.412 303.481 126.749C303.144 127.087 302.697 127.292 302.222 127.328C301.746 127.364 301.274 127.228 300.89 126.945C300.671 127.751 300.71 128.605 301.003 129.387C301.295 130.169 301.825 130.84 302.518 131.305C303.211 131.77 304.033 132.006 304.867 131.98C305.702 131.953 306.507 131.666 307.169 131.158C307.832 130.65 308.318 129.947 308.56 129.148C308.803 128.349 308.788 127.495 308.519 126.704C308.25 125.914 307.74 125.228 307.06 124.743C306.381 124.258 305.567 123.998 304.732 124V124Z" fill="#00BBB4"/>
</g>
<path d="M69.5967 125.482H73.6987V126.322H69.5967V125.482ZM69.6387 121.744H73.6427V122.584H69.6387V121.744ZM69.5967 127.358H73.6987V128.198H69.5967V127.358ZM68.9387 123.578H74.1607V124.446H68.9387V123.578ZM70.0587 129.248H73.6987V133.336H70.0587V132.454H72.7747V130.116H70.0587V129.248ZM69.5827 129.248H70.4927V133.98H69.5827V129.248ZM74.4687 122.192H81.5107V123.004H74.4687V122.192ZM74.8327 123.844H81.3007V124.614H74.8327V123.844ZM74.1187 125.524H81.8187V126.336H74.1187V125.524ZM77.4507 121.24H78.4447V126.21H77.4507V121.24ZM75.1687 127.162H80.5587V127.96H76.1627V134.106H75.1687V127.162ZM79.9707 127.162H80.9647V133.014C80.9647 133.532 80.8527 133.784 80.5027 133.938C80.1247 134.078 79.5367 134.078 78.6687 134.078C78.6267 133.826 78.4867 133.462 78.3607 133.21C78.9907 133.238 79.5647 133.224 79.7467 133.224C79.9287 133.21 79.9707 133.168 79.9707 133V127.162ZM75.6167 128.968H80.4747V129.724H75.6167V128.968ZM75.6167 130.732H80.4747V131.488H75.6167V130.732ZM90.1767 124.824H94.0547V125.692H90.1767V124.824ZM89.2807 128.646H91.5767V129.402H89.2807V128.646ZM89.2807 130.564H91.5767V131.362H89.2807V130.564ZM92.7527 127.078H93.5227V132.006H92.7527V127.078ZM92.1227 122.276C91.4227 123.508 90.1207 124.95 88.7067 125.86C88.5947 125.594 88.3567 125.23 88.1887 125.006C89.5887 124.152 90.9467 122.626 91.6047 121.296H92.5567C93.4247 122.724 94.8387 124.124 96.1547 124.824C95.9447 125.076 95.7347 125.454 95.5807 125.748C94.2927 124.922 92.9067 123.536 92.1227 122.276ZM88.8047 126.77H91.4227V127.568H89.5747V134.078H88.8047V126.77ZM91.1847 126.77H91.9547V133.224C91.9547 133.602 91.8847 133.826 91.6607 133.98C91.4087 134.106 91.0727 134.12 90.5687 134.12C90.5407 133.91 90.4287 133.574 90.3447 133.364C90.6667 133.364 90.9467 133.364 91.0447 133.364C91.1427 133.364 91.1847 133.322 91.1847 133.21V126.77ZM94.6287 126.546H95.4967V133.098C95.4967 133.56 95.3987 133.798 95.0907 133.952C94.7547 134.078 94.2507 134.078 93.4247 134.078C93.3967 133.868 93.2707 133.518 93.1587 133.294C93.7467 133.308 94.2647 133.308 94.4187 133.294C94.5727 133.28 94.6287 133.238 94.6287 133.084V126.546ZM83.1207 122.752H88.4547V123.69H83.1207V122.752ZM82.9527 130.746H88.4127V131.684H82.9527V130.746ZM85.2627 121.24H86.2007V125.09H85.2627V121.24ZM85.3747 125.146H86.0887V129.22H86.2007V134.148H85.2627V129.22H85.3747V125.146ZM84.1147 127.554V128.828H87.3487V127.554H84.1147ZM84.1147 125.538V126.798H87.3487V125.538H84.1147ZM83.3307 124.74H88.1467V129.612H83.3307V124.74ZM99.5847 122.094H103.547V123.158H99.5847V122.094ZM103.015 122.094H104.093C104.093 124.6 104.401 129.92 109.931 133.196C109.693 133.378 109.273 133.826 109.077 134.078C103.477 130.69 103.015 124.726 103.015 122.094ZM102.623 124.838L103.813 125.062C102.805 129.332 100.957 132.286 97.8627 134.106C97.6667 133.882 97.1907 133.448 96.9107 133.252C100.019 131.628 101.769 128.8 102.623 124.838ZM118.135 130.732H116.679V133H115.489V130.732H110.701V129.682L115.405 122.948H116.679V129.626H118.135V130.732ZM115.489 126.476C115.489 126.233 115.489 126.014 115.489 125.818C115.498 125.613 115.507 125.421 115.517 125.244C115.526 125.067 115.531 124.899 115.531 124.74C115.54 124.572 115.549 124.413 115.559 124.264H115.503C115.428 124.441 115.335 124.633 115.223 124.838C115.111 125.043 115.003 125.216 114.901 125.356L111.905 129.626H115.489V126.476ZM126.664 121.408H127.714V124.6H126.664V121.408ZM123.01 123.998H131.564V125.006H123.01V123.998ZM124.172 126.098L125.11 125.944C125.642 127.806 126.132 130.2 126.244 131.586L125.208 131.81C125.11 130.41 124.676 127.974 124.172 126.098ZM129.282 125.818L130.402 126.014C129.884 128.254 129.072 131.124 128.414 132.86L127.476 132.636C128.134 130.872 128.904 127.904 129.282 125.818ZM122.66 132.468H131.914V133.476H122.66V132.468ZM122.282 121.282L123.276 121.604C122.324 123.956 120.826 126.308 119.286 127.848C119.174 127.61 118.88 127.05 118.684 126.798C120.098 125.482 121.47 123.396 122.282 121.282ZM120.826 124.894L121.82 123.9L121.834 123.914V134.092H120.826V124.894ZM141.336 123.844H145.858V124.824H141.336V123.844ZM141.616 121.24L142.638 121.394C142.232 124.054 141.56 126.63 140.51 128.296C140.356 128.114 139.95 127.736 139.712 127.568C140.706 126.042 141.294 123.662 141.616 121.24ZM144.094 124.362L145.088 124.46C144.514 129.108 143.282 132.202 140.244 134.162C140.146 133.938 139.838 133.504 139.656 133.294C142.498 131.614 143.618 128.632 144.094 124.362ZM141.854 124.726C142.386 128.562 143.548 131.894 145.928 133.308C145.69 133.504 145.368 133.882 145.2 134.134C142.722 132.51 141.56 129.052 140.958 124.866L141.854 124.726ZM136.212 121.24H137.15V128.59H136.212V121.24ZM134.826 122.836V125.174H138.648V122.836H134.826ZM133.93 122.094H139.572V125.916H133.93V122.094ZM134.49 127.274V128.184H138.97V127.274H134.49ZM133.58 126.56H139.908V128.898H133.58V126.56ZM132.978 129.794C134.868 129.794 137.808 129.752 140.65 129.696L140.608 130.494C137.822 130.564 134.924 130.606 133.006 130.634L132.978 129.794ZM135.778 128.674L136.674 128.884C136.086 130.018 135.288 131.418 134.728 132.328L133.86 132.076C134.434 131.18 135.232 129.752 135.778 128.674ZM134.658 131.824L135.176 131.194C136.814 131.754 138.536 132.552 139.558 133.238L138.886 133.896C137.92 133.21 136.282 132.412 134.658 131.824ZM138.298 130.13L139.208 130.284C138.648 132.566 136.912 133.63 133.72 134.176C133.664 133.91 133.482 133.56 133.314 133.35C136.212 133 137.78 132.104 138.298 130.13ZM132.964 123.592H134.308V123.648H139.138V123.592H140.566V124.404H139.138V124.348H134.308V124.404H132.964V123.592ZM151.514 123.452L152.452 122.99C153.39 124.012 154.286 125.398 154.692 126.35L153.684 126.896C153.32 125.93 152.41 124.488 151.514 123.452ZM146.908 131.516C148.336 130.956 150.576 130.004 152.676 129.08L152.914 130.102C150.968 130.998 148.84 131.936 147.286 132.608L146.908 131.516ZM155.308 129.668L156.12 128.982C157.45 130.298 159.186 132.118 160.012 133.266L159.116 134.092C158.332 132.93 156.652 131.04 155.308 129.668ZM157.254 121.968L158.388 122.08C157.674 128.548 156.036 132.118 151.136 134.162C150.982 133.938 150.562 133.476 150.296 133.252C155.14 131.488 156.624 128.058 157.254 121.968ZM148.616 122.01L149.694 121.968L149.932 131.222L148.854 131.264L148.616 122.01ZM166.998 125.776H172.752V126.826H166.998V125.776ZM161.132 132.412H173.704V133.462H161.132V132.412ZM166.396 121.45H167.502V132.972H166.396V121.45ZM176.252 123.494H180.508V132.65H176.252V131.698H179.528V124.432H176.252V123.494ZM175.622 123.494H176.602V133.77H175.622V123.494ZM176.182 127.386H180.046V128.324H176.182V127.386ZM177.764 121.212L178.898 121.422C178.618 122.29 178.268 123.256 177.988 123.886L177.148 123.676C177.386 123.004 177.652 121.94 177.764 121.212ZM182.496 123.452H186.794V124.432H182.496V123.452ZM186.43 123.452H187.41C187.41 123.452 187.41 123.844 187.41 123.998C187.186 130.424 186.99 132.594 186.43 133.28C186.122 133.686 185.8 133.812 185.31 133.854C184.834 133.91 184.008 133.882 183.224 133.84C183.196 133.532 183.07 133.098 182.874 132.818C183.784 132.888 184.624 132.902 184.946 132.902C185.226 132.902 185.394 132.86 185.548 132.678C186.01 132.174 186.234 129.85 186.43 123.676V123.452ZM182.79 121.184L183.798 121.422C183.28 123.508 182.454 125.566 181.488 126.896C181.306 126.728 180.872 126.434 180.62 126.294C181.572 125.062 182.342 123.13 182.79 121.184ZM182.146 127.092L182.958 126.616C183.756 127.61 184.722 128.968 185.17 129.794L184.274 130.354C183.854 129.5 182.916 128.114 182.146 127.092ZM197.336 123.844H201.858V124.824H197.336V123.844ZM197.616 121.24L198.638 121.394C198.232 124.054 197.56 126.63 196.51 128.296C196.356 128.114 195.95 127.736 195.712 127.568C196.706 126.042 197.294 123.662 197.616 121.24ZM200.094 124.362L201.088 124.46C200.514 129.108 199.282 132.202 196.244 134.162C196.146 133.938 195.838 133.504 195.656 133.294C198.498 131.614 199.618 128.632 200.094 124.362ZM197.854 124.726C198.386 128.562 199.548 131.894 201.928 133.308C201.69 133.504 201.368 133.882 201.2 134.134C198.722 132.51 197.56 129.052 196.958 124.866L197.854 124.726ZM192.212 121.24H193.15V128.59H192.212V121.24ZM190.826 122.836V125.174H194.648V122.836H190.826ZM189.93 122.094H195.572V125.916H189.93V122.094ZM190.49 127.274V128.184H194.97V127.274H190.49ZM189.58 126.56H195.908V128.898H189.58V126.56ZM188.978 129.794C190.868 129.794 193.808 129.752 196.65 129.696L196.608 130.494C193.822 130.564 190.924 130.606 189.006 130.634L188.978 129.794ZM191.778 128.674L192.674 128.884C192.086 130.018 191.288 131.418 190.728 132.328L189.86 132.076C190.434 131.18 191.232 129.752 191.778 128.674ZM190.658 131.824L191.176 131.194C192.814 131.754 194.536 132.552 195.558 133.238L194.886 133.896C193.92 133.21 192.282 132.412 190.658 131.824ZM194.298 130.13L195.208 130.284C194.648 132.566 192.912 133.63 189.72 134.176C189.664 133.91 189.482 133.56 189.314 133.35C192.212 133 193.78 132.104 194.298 130.13ZM188.964 123.592H190.308V123.648H195.138V123.592H196.566V124.404H195.138V124.348H190.308V124.404H188.964V123.592ZM205.68 125.3H212.4V126.266H205.68V125.3ZM203.398 128.814H215.466V129.808H203.398V128.814ZM208.872 127.764H209.978V132.818C209.978 133.448 209.824 133.756 209.32 133.924C208.83 134.092 208.088 134.106 206.898 134.106C206.828 133.798 206.618 133.35 206.436 133.056C207.388 133.084 208.298 133.084 208.55 133.07C208.802 133.056 208.872 133 208.872 132.804V127.764ZM212.078 125.3H212.358L212.596 125.244L213.282 125.762C212.358 126.784 210.972 127.876 209.684 128.534C209.558 128.338 209.278 128.072 209.11 127.932C210.202 127.344 211.448 126.294 212.078 125.51V125.3ZM208.844 121.226H209.95V123.48H208.844V121.226ZM203.538 122.766H215.284V126.056H214.206V123.76H204.574V126.056H203.538V122.766ZM224.132 121.282H225.252C225.224 127.68 226.596 133.042 228.304 133.042C228.71 133.042 228.864 132.3 228.948 130.438C229.186 130.676 229.578 130.928 229.872 131.026C229.69 133.448 229.284 134.134 228.22 134.134C225.434 134.134 224.202 127.918 224.132 121.282ZM226.092 121.94L226.708 121.296C227.576 121.66 228.612 122.276 229.13 122.738L228.486 123.48C227.982 123.004 226.96 122.346 226.092 121.94ZM227.926 125.524L228.962 125.776C227.744 129.556 225.63 132.37 222.69 134.134C222.536 133.924 222.116 133.504 221.892 133.308C224.804 131.74 226.82 129.052 227.926 125.524ZM217.356 123.48H229.522V124.516H217.356V123.48ZM217.286 132.09C218.812 131.796 221.192 131.32 223.474 130.83L223.558 131.838C221.416 132.314 219.12 132.818 217.482 133.168L217.286 132.09ZM219.134 126.672V129.122H221.99V126.672H219.134ZM218.168 125.762H223.026V130.018H218.168V125.762ZM231.202 129.122H243.634V130.102H231.202V129.122ZM232.658 125.832H242.262V129.514H241.198V126.77H233.666V129.514H232.658V125.832ZM236.802 124.222H237.894V128.114C237.894 130.494 237.124 132.832 231.58 134.162C231.454 133.924 231.174 133.504 230.95 133.28C236.284 132.09 236.802 130.074 236.802 128.1V124.222ZM238.062 129.472C238.958 131.6 240.96 132.79 243.97 133.196C243.732 133.434 243.452 133.868 243.298 134.162C240.176 133.602 238.16 132.23 237.124 129.71L238.062 129.472ZM231.37 122.542H243.396V123.494H231.37V122.542ZM234.338 121.254H235.374V124.964H234.338V121.254ZM239.378 121.254H240.414V124.964H239.378V121.254ZM254.554 124.152L255.66 124.474C253.896 129.612 250.718 132.496 245.622 134.148C245.51 133.882 245.174 133.378 244.95 133.126C249.948 131.698 252.986 128.954 254.554 124.152ZM248.198 124.222C249.71 128.702 252.86 131.922 257.914 133.098C257.662 133.35 257.326 133.826 257.158 134.134C251.964 132.776 248.884 129.444 247.162 124.544L248.198 124.222ZM245.118 123.62H257.774V124.656H245.118V123.62ZM250.858 121.24H251.936V124.25H250.858V121.24Z" fill="#666666"/>
<path d="M51.2573 125H50.5073V122.138C50.5073 118.696 48.0169 116 44.4795 116C40.9279 116 38.5073 118.753 38.5073 122.138V125H37.7573C36.1028 125 34.7573 126.345 34.7573 128V137C34.7573 138.655 36.1028 140 37.7573 140H51.2573C52.9118 140 54.2573 138.655 54.2573 137V128C54.2573 126.345 52.9118 125 51.2573 125ZM40.0073 122.138C40.0073 119.581 41.7548 117.5 44.4795 117.5C47.1761 117.5 49.0073 119.537 49.0073 122.138V125H40.0073V122.138ZM52.7573 137C52.7573 137.827 52.0842 138.5 51.2573 138.5H37.7573C36.9304 138.5 36.2573 137.827 36.2573 137V128C36.2573 127.173 36.9304 126.5 37.7573 126.5H51.2573C52.0842 126.5 52.7573 127.173 52.7573 128V137ZM44.5073 129.5C43.6789 129.5 43.0073 130.172 43.0073 131C43.0073 131.554 43.311 132.032 43.7573 132.292V134.75C43.7573 135.164 44.0933 135.5 44.5073 135.5C44.9213 135.5 45.2573 135.164 45.2573 134.75V132.292C45.7035 132.032 46.0073 131.553 46.0073 131C46.0073 130.172 45.3357 129.5 44.5073 129.5Z" fill="#00BBB4"/>
<path d="M58.88 197.448L57.904 198.008C57.664 197.464 57.104 196.616 56.592 196.024L57.504 195.528C58.064 196.104 58.624 196.92 58.88 197.448ZM59.264 205.704H56.464V208.376H59.264V205.704ZM60.336 204.728V209.368H56.464V210.104H55.408V204.728H60.336ZM55.2 203.512V202.552H60.592V203.512H55.2ZM55.504 200.328H60.288V201.256H55.504V200.328ZM54.736 199.08V198.104H61.104V199.08H54.736ZM64.176 208.776H67.136C67.968 208.776 68.112 208.36 68.208 206.136C68.496 206.344 68.976 206.552 69.328 206.616C69.152 209.208 68.784 209.896 67.216 209.896H64.08C62.448 209.896 61.968 209.528 61.968 208.024V201.688H67.152V197.624H61.76V196.488H68.32V203.672H67.152V202.824H63.136V208.024C63.136 208.648 63.312 208.776 64.176 208.776ZM80.992 198.136L79.84 198.584C79.632 197.896 79.056 196.76 78.528 195.944L79.6 195.544C80.144 196.36 80.752 197.448 80.992 198.136ZM74.352 195.672L75.488 196.024C75.056 197.192 74.48 198.344 73.856 199.448V210.2H72.672V201.304C72.176 202.008 71.632 202.648 71.088 203.192C70.976 202.936 70.624 202.296 70.4 202.024C71.984 200.488 73.456 198.104 74.352 195.672ZM80.608 208.552H85.088V209.688H74.8V208.552H79.424V204.504H75.744V203.368H79.424V199.864H75.216V198.728H84.864V199.864H80.608V203.368H84.384V204.504H80.608V208.552ZM87.968 198.056V200.088H86.8V196.984H93.008C92.912 196.552 92.768 196.04 92.608 195.64L93.728 195.448C93.92 195.928 94.128 196.52 94.24 196.984H100.272V200.088H99.072V198.056H87.968ZM94.544 199.96L93.92 200.728C93.344 200.168 92.16 199.432 91.168 198.968L91.792 198.28C92.752 198.712 93.952 199.416 94.544 199.96ZM88.464 200.168L89.44 200.6C88.928 201.608 88.224 202.824 87.296 203.592L86.336 203.016C87.264 202.296 88.032 201.128 88.464 200.168ZM95.888 204.472H92.512C91.536 204.472 90.976 204.376 90.688 204.056C89.44 204.584 88.16 205.032 86.88 205.4C86.736 205.144 86.4 204.648 86.176 204.408C87.616 204.04 89.056 203.592 90.384 203.032V202.984V199.912H91.456V202.552C93.504 201.56 95.296 200.328 96.512 198.824L97.52 199.32C96.128 201.016 94.144 202.392 91.952 203.464C92.112 203.496 92.32 203.496 92.576 203.496H95.808C96.576 203.496 96.704 203.272 96.784 201.72C97.04 201.912 97.472 202.072 97.776 202.136C97.616 204.008 97.28 204.472 95.888 204.472ZM97.84 208.376V205.704H99.008V210.2H97.84V209.512H88.144V205.832H89.312V208.376H92.896V204.984H94.08V208.376H97.84ZM97.184 200.84L98.032 200.248C99.024 201.112 100.208 202.328 100.752 203.176L99.84 203.832C99.344 202.984 98.176 201.72 97.184 200.84ZM106.304 207.144V202.36H104.256V207.144H106.304ZM107.344 208.184H104.256V209.496H103.232V204.216C102.992 204.712 102.72 205.176 102.432 205.592C102.32 205.352 101.952 204.792 101.728 204.552C102.896 202.84 103.568 200.232 103.968 197.464H102.112V196.376H107.952V197.464H105.104C104.896 198.808 104.64 200.12 104.304 201.336H107.344V208.184ZM108.08 209.496L107.248 209.016C107.936 208.232 108.256 206.856 108.4 205.544L109.296 205.768C109.136 207.144 108.848 208.632 108.08 209.496ZM109.936 206.04L110.752 205.912C110.944 206.856 111.072 208.056 111.056 208.84L110.176 208.984C110.208 208.184 110.112 206.968 109.936 206.04ZM111.632 205.912L112.4 205.704C112.736 206.456 113.04 207.48 113.152 208.136L112.336 208.376C112.24 207.704 111.952 206.696 111.632 205.912ZM109.712 202.2V203.72H111.92V202.2H109.712ZM111.92 197.336H109.712V198.792H111.92V197.336ZM111.92 201.24V199.752H109.712V201.24H111.92ZM112.976 203.72H116.336C116.336 203.72 116.336 204.056 116.32 204.216C116.144 207.928 115.952 209.304 115.552 209.768C115.296 210.072 115.04 210.184 114.608 210.216C114.24 210.248 113.568 210.248 112.848 210.2C112.832 209.896 112.72 209.464 112.56 209.176C113.232 209.24 113.872 209.256 114.112 209.256C114.368 209.256 114.48 209.224 114.624 209.08C114.88 208.776 115.072 207.656 115.216 204.76H108.624V196.296H116.016V197.336H112.976V198.792H115.648V199.752H112.976V201.24H115.648V202.2H112.976V203.72ZM114.976 207.144L114.288 207.48C114.096 206.952 113.632 206.152 113.216 205.56L113.872 205.288C114.32 205.864 114.768 206.648 114.976 207.144Z" fill="white"/>
<rect x="18" y="190" width="24" height="24" rx="3" fill="white"/>
<path d="M24.6667 202L28.6667 206L35.3334 198" stroke="#00BBB4" stroke-width="2" stroke-linecap="round" stroke-linejoin="round"/>
<rect x="18" y="254" width="311" height="38" rx="19" fill="#F4E2C5"/>
<path d="M145.116 268.632H149.02V269.512H145.116V268.632ZM144.956 278.68H149.948V279.592H144.956V278.68ZM144.236 272.216H149.58V273.016H144.236V272.216ZM143.724 270.392H144.78V273.032C144.78 275.048 144.476 277.944 142.844 279.928C142.684 279.704 142.252 279.32 142.028 279.176C143.516 277.352 143.724 274.84 143.724 273V270.392ZM144.316 270.392H150.092V274.856H144.284V273.96H149.004V271.288H144.316V270.392ZM144.524 275.848H150.332V280.152H149.26V276.76H145.564V280.264H144.524V275.848ZM151.404 267.496H152.556V276.36H151.404V267.496ZM155.004 265.864H156.172V278.696C156.172 279.512 155.964 279.864 155.468 280.056C154.972 280.264 154.108 280.296 152.668 280.28C152.62 279.976 152.428 279.432 152.252 279.08C153.34 279.128 154.3 279.112 154.588 279.096C154.892 279.096 155.004 279 155.004 278.712V265.864ZM146.252 265.72H146.908V265.976H147.292V266.328C146.38 267.624 144.908 269.304 142.796 270.68C142.636 270.408 142.268 270.024 142.028 269.848C144.012 268.664 145.468 267.032 146.252 265.72ZM146.476 265.72H147.34C148.556 266.616 150.076 267.912 150.892 268.76L150.092 269.656C149.34 268.824 147.884 267.416 146.716 266.568H146.476V265.72ZM162.508 268.952H172.86V269.928H162.508V268.952ZM163.452 273.272H171.804V274.184H163.452V273.272ZM162.732 275.464H172.508V276.456H162.732V275.464ZM166.94 265.688H168.108V278.152H166.94V265.688ZM163.66 266.856H171.66V272.072H163.548V271.112H170.476V267.816H163.66V266.856ZM158.156 266.584H161.612V267.656H158.156V266.584ZM161.18 266.584H161.356L161.548 266.52L162.364 266.776C161.628 268.456 160.428 270.936 159.452 272.84L158.364 272.536C159.356 270.664 160.588 268.072 161.18 266.728V266.584ZM159.612 271.144H162.236V272.216H159.468L159.612 271.144ZM161.74 271.144H161.98L162.204 271.112L162.892 271.288C162.412 275.944 161.02 278.808 158.94 280.312C158.748 280.072 158.3 279.64 158.028 279.48C160.06 278.12 161.34 275.512 161.74 271.384V271.144ZM159.66 273.496C160.956 277.912 163.932 278.712 167.996 278.712C168.668 278.712 172.124 278.712 172.972 278.696C172.78 278.968 172.556 279.512 172.476 279.864H167.964C163.34 279.864 160.252 278.888 158.7 273.864L159.66 273.496ZM176.652 265.592H177.692V280.296H176.652V265.592ZM174.556 268.616H179.42V269.688H175.484V277H174.556V268.616ZM178.924 268.616H179.852V275.672C179.852 276.104 179.788 276.44 179.516 276.632C179.228 276.824 178.86 276.856 178.3 276.856C178.284 276.552 178.124 276.088 177.98 275.8C178.364 275.816 178.668 275.816 178.796 275.816C178.892 275.8 178.924 275.768 178.924 275.64V268.616ZM181.756 266.264H188.076V267.256H181.756V266.264ZM181.772 268.488H187.564V269.432H181.772V268.488ZM181.772 270.696H187.564V271.64H181.772V270.696ZM180.044 272.888H188.78V273.912H180.044V272.888ZM179.708 279C181.132 278.808 183.276 278.456 185.356 278.12L185.436 279.128C183.484 279.48 181.468 279.832 179.964 280.104L179.708 279ZM184.668 273.208C185.26 276.104 186.62 278.344 189.084 279.256C188.828 279.496 188.46 279.976 188.3 280.296C185.708 279.16 184.332 276.696 183.676 273.368L184.668 273.208ZM187.932 274.28L188.748 275C187.884 275.8 186.7 276.616 185.82 277.176L185.132 276.488C185.98 275.928 187.228 274.984 187.932 274.28ZM181.26 266.264H182.396V273.4H181.26V266.264ZM181.244 273.352H182.38V279.08L181.244 279.224V273.352ZM191.964 267.176V269.608H194.348V267.176H191.964ZM190.876 266.168H195.484V270.632H190.876V266.168ZM190.14 271.752H196.172V272.808H190.14V271.752ZM191.644 272.232H192.748C192.476 273.56 192.092 275.224 191.804 276.28L190.716 276.072C191.036 275.048 191.404 273.448 191.644 272.232ZM191.772 274.232H194.748V275.256H191.5L191.772 274.232ZM194.3 274.232H195.42C195.42 274.232 195.404 274.552 195.388 274.728C195.132 278.072 194.892 279.384 194.444 279.864C194.172 280.152 193.9 280.248 193.468 280.296C193.116 280.312 192.46 280.312 191.788 280.28C191.772 279.976 191.644 279.512 191.452 279.224C192.14 279.288 192.764 279.288 193.02 279.288C193.26 279.304 193.42 279.272 193.548 279.128C193.868 278.808 194.108 277.576 194.3 274.424V274.232ZM200.332 266.664H204.156V267.656H200.332V266.664ZM197.116 268.744H204.172V269.72H197.116V268.744ZM199.756 265.56H200.908V269.256H199.756V265.56ZM196.604 268.744H197.692V272.84C197.692 275.08 197.468 278.248 195.98 280.376C195.788 280.168 195.34 279.832 195.068 279.72C196.46 277.688 196.604 274.904 196.604 272.84V268.744ZM198.076 271.384L202.812 270.92L202.924 271.752L198.188 272.264L198.076 271.384ZM199.82 269.832H200.892V272.696C200.892 273.032 200.956 273.08 201.404 273.08C201.596 273.08 202.62 273.08 202.892 273.08C203.244 273.08 203.308 272.968 203.356 272.072C203.58 272.216 203.996 272.36 204.284 272.424C204.188 273.656 203.884 273.976 203.02 273.976C202.78 273.976 201.5 273.976 201.26 273.976C200.108 273.976 199.82 273.72 199.82 272.696V269.832ZM203.836 268.744H204.012L204.204 268.696L204.956 268.888C204.764 269.864 204.508 271.016 204.316 271.736L203.388 271.512C203.548 270.84 203.74 269.752 203.836 268.904V268.744ZM198.988 274.68H200.028C199.916 277.4 199.452 279.272 197.5 280.344C197.356 280.072 197.036 279.672 196.796 279.48C198.54 278.584 198.892 277.032 198.988 274.68ZM201.34 274.664H202.38V278.616C202.38 278.728 202.412 278.84 202.492 278.872C202.588 278.92 202.716 278.952 202.876 278.952C203.004 278.952 203.26 278.952 203.452 278.952C203.596 278.952 203.804 278.92 203.884 278.872C203.98 278.824 204.06 278.712 204.092 278.536C204.14 278.28 204.156 277.656 204.156 276.936C204.364 277.128 204.764 277.336 205.068 277.432C205.052 278.184 204.972 278.984 204.892 279.256C204.796 279.56 204.62 279.736 204.38 279.88C204.188 279.976 203.836 280.04 203.532 280.04C203.324 280.04 202.796 280.04 202.62 280.04C202.268 280.04 201.9 279.976 201.66 279.784C201.404 279.56 201.34 279.32 201.34 278.584V274.664Z" fill="black"/>
<defs>
<clipPath id="clip0_231_295">
<rect width="24" height="24" fill="white" transform="translate(32.5073 32)"/>
</clipPath>
<clipPath id="clip1_231_295">
<rect width="24" height="24" fill="white" transform="translate(292.732 116)"/>
</clipPath>
</defs>
</svg>
