<svg width="472" height="455" viewBox="0 0 472 455" fill="none" xmlns="http://www.w3.org/2000/svg">
<mask id="mask0_527_577" style="mask-type:alpha" maskUnits="userSpaceOnUse" x="0" y="0" width="472" height="455">
<rect width="472" height="455" rx="12" fill="url(#paint0_radial_527_577)"/>
</mask>
<g mask="url(#mask0_527_577)">
<path d="M1622.97 31.9995H50.8495C40.4423 31.9995 32.0056 40.4362 32.0056 50.8434V1022.84C32.0056 1033.25 40.4423 1041.69 50.8495 1041.69H1622.97C1633.37 1041.69 1641.81 1033.25 1641.81 1022.84V50.8434C1641.81 40.4362 1633.37 31.9995 1622.97 31.9995Z" stroke="black" stroke-width="1.00949" stroke-miterlimit="10"/>
<g opacity="0.7">
<path d="M411.129 53.7602H405.745V59.1441H403.95V53.7602H398.566V51.9655H403.95V46.5815H405.745V51.9655H411.129V53.7602Z" fill="black"/>
</g>
<path d="M373.854 31.9993H152.497C147.659 31.9993 143.736 35.9216 143.736 40.7601V64.9588C143.736 69.8002 139.811 73.725 134.97 73.725H391.381C386.54 73.725 382.615 69.8002 382.615 64.9588V40.7601C382.615 35.9216 378.693 31.9993 373.854 31.9993Z" stroke="black" stroke-width="1.00949"/>
<g opacity="0.7">
<path d="M361.271 49.8216L360.242 48.7922L356.161 52.8733L352.08 48.7922L351.05 49.8216L355.131 53.9027L351.05 57.9838L352.08 59.0132L356.161 54.9321L360.242 59.0132L361.271 57.9838L357.19 53.9027L361.271 49.8216Z" fill="black"/>
</g>
<path d="M1641.81 73.7246H32.0045V134.967H1641.81V73.7246Z" fill="white" fill-opacity="0.1" stroke="black" stroke-width="1.00949" stroke-miterlimit="10"/>
<path d="M76.1126 103.269H62.7852L68.9068 97.1469L67.3518 95.6028L58.5909 104.364L67.3518 113.124L68.8959 111.58L62.7852 105.459H76.1126V103.269Z" fill="black"/>
<path d="M101.025 103.269H114.353L108.231 97.1469L109.786 95.6028L118.547 104.364L109.786 113.124L108.242 111.58L114.353 105.459H101.025V103.269Z" fill="black"/>
<path d="M158.408 98.1763C156.82 96.5884 154.641 95.6028 152.22 95.6028C147.38 95.6028 143.471 99.5233 143.471 104.364C143.471 109.204 147.38 113.124 152.22 113.124C156.305 113.124 159.711 110.332 160.686 106.554H158.408C157.51 109.105 155.079 110.934 152.22 110.934C148.596 110.934 145.65 107.988 145.65 104.364C145.65 100.739 148.596 97.793 152.22 97.793C154.038 97.793 155.659 98.5486 156.842 99.7423L153.316 103.269H160.981V95.6028L158.408 98.1763Z" fill="black"/>
<path fill-rule="evenodd" clip-rule="evenodd" d="M187.503 104.061C188.119 104.377 188.541 105.018 188.541 105.758V112.294H200.769V105.758C200.769 105.018 201.191 104.377 201.807 104.061L194.655 96.6983L187.503 104.061ZM193.972 94.668C194.346 94.283 194.964 94.283 195.338 94.668L205.326 104.95C205.619 105.252 205.405 105.758 204.984 105.758H202.674V113.247C202.674 113.773 202.248 114.199 201.722 114.199H187.589C187.063 114.199 186.636 113.773 186.636 113.247V105.758H184.326C183.905 105.758 183.691 105.252 183.984 104.95L193.972 94.668Z" fill="black"/>
<rect x="231.826" y="82.879" width="1289.03" height="42.7947" rx="21.3974" stroke="black" stroke-width="1.00949"/>
<g clip-path="url(#clip0_527_577)">
<path d="M258.309 103.523H257.506V101.264C257.506 99.6011 256.068 98.2527 254.294 98.2527C252.52 98.2527 251.081 99.6011 251.081 101.264V103.523H250.278C249.835 103.523 249.475 103.86 249.475 104.276V109.546C249.475 109.962 249.835 110.299 250.278 110.299H258.309C258.753 110.299 259.112 109.962 259.112 109.546V104.276C259.112 103.86 258.753 103.523 258.309 103.523ZM252.788 101.505C252.788 100.707 253.462 100.06 254.294 100.06C255.125 100.06 255.8 100.707 255.8 101.505V103.673H252.788V101.505Z" fill="black"/>
</g>
<g opacity="0.5">
<circle cx="64.9972" cy="53.5358" r="5.38396" fill="black"/>
<circle cx="85.191" cy="53.5358" r="5.38396" fill="black"/>
<circle cx="105.378" cy="53.5358" r="5.38396" fill="black"/>
</g>
<path d="M189.475 47.0229H191.104L194.362 52.5063H194.5L197.758 47.0229H199.387L195.142 53.9288V58.7698H193.72V53.9288L189.475 47.0229ZM210.586 52.8964C210.586 54.1353 210.362 55.206 209.915 56.1084C209.467 57.0108 208.854 57.7067 208.074 58.1962C207.293 58.6857 206.403 58.9304 205.401 58.9304C204.399 58.9304 203.508 58.6857 202.728 58.1962C201.948 57.7067 201.334 57.0108 200.887 56.1084C200.439 55.206 200.216 54.1353 200.216 52.8964C200.216 51.6574 200.439 50.5868 200.887 49.6843C201.334 48.7819 201.948 48.086 202.728 47.5965C203.508 47.1071 204.399 46.8623 205.401 46.8623C206.403 46.8623 207.293 47.1071 208.074 47.5965C208.854 48.086 209.467 48.7819 209.915 49.6843C210.362 50.5868 210.586 51.6574 210.586 52.8964ZM209.209 52.8964C209.209 51.8792 209.039 51.0208 208.699 50.321C208.362 49.6212 207.905 49.0916 207.328 48.7322C206.754 48.3728 206.112 48.193 205.401 48.193C204.689 48.193 204.045 48.3728 203.468 48.7322C202.894 49.0916 202.437 49.6212 202.097 50.321C201.76 51.0208 201.592 51.8792 201.592 52.8964C201.592 53.9135 201.76 54.772 202.097 55.4717C202.437 56.1715 202.894 56.7011 203.468 57.0605C204.045 57.42 204.689 57.5997 205.401 57.5997C206.112 57.5997 206.754 57.42 207.328 57.0605C207.905 56.7011 208.362 56.1715 208.699 55.4717C209.039 54.772 209.209 53.9135 209.209 52.8964ZM220.686 47.0229H222.109V54.8006C222.109 55.6036 221.92 56.3206 221.541 56.9515C221.166 57.5786 220.637 58.0738 219.952 58.4371C219.268 58.7965 218.465 58.9763 217.543 58.9763C216.622 58.9763 215.819 58.7965 215.134 58.4371C214.45 58.0738 213.918 57.5786 213.54 56.9515C213.165 56.3206 212.978 55.6036 212.978 54.8006V47.0229H214.4V54.6859C214.4 55.2595 214.526 55.77 214.779 56.2174C215.031 56.6609 215.39 57.0108 215.857 57.267C216.327 57.5194 216.889 57.6456 217.543 57.6456C218.197 57.6456 218.759 57.5194 219.23 57.267C219.7 57.0108 220.059 56.6609 220.308 56.2174C220.56 55.77 220.686 55.2595 220.686 54.6859V47.0229ZM231.374 49.9597C231.305 49.3784 231.026 48.9272 230.536 48.606C230.047 48.2848 229.446 48.1242 228.735 48.1242C228.215 48.1242 227.76 48.2083 227.37 48.3766C226.984 48.5448 226.682 48.7762 226.464 49.0706C226.25 49.365 226.143 49.6996 226.143 50.0744C226.143 50.3879 226.217 50.6575 226.366 50.8831C226.519 51.1049 226.714 51.2903 226.951 51.4395C227.188 51.5848 227.437 51.7052 227.697 51.8008C227.957 51.8926 228.196 51.9672 228.414 52.0245L229.607 52.3457C229.913 52.426 230.253 52.5369 230.628 52.6784C231.007 52.8199 231.368 53.013 231.712 53.2577C232.06 53.4986 232.347 53.8083 232.572 54.1869C232.798 54.5655 232.911 55.0301 232.911 55.5807C232.911 56.2155 232.744 56.789 232.412 57.3014C232.083 57.8138 231.601 58.2211 230.966 58.5231C230.335 58.8252 229.569 58.9763 228.666 58.9763C227.825 58.9763 227.097 58.8405 226.481 58.569C225.869 58.2975 225.387 57.919 225.036 57.4333C224.688 56.9477 224.491 56.3837 224.445 55.7413H225.913C225.951 56.1849 226.101 56.5519 226.361 56.8426C226.624 57.1293 226.957 57.3435 227.359 57.485C227.764 57.6226 228.2 57.6915 228.666 57.6915C229.209 57.6915 229.697 57.6035 230.129 57.4276C230.561 57.2479 230.903 56.9993 231.156 56.682C231.408 56.3608 231.534 55.986 231.534 55.5578C231.534 55.1677 231.425 54.8503 231.207 54.6056C230.989 54.3609 230.703 54.1621 230.347 54.0091C229.991 53.8561 229.607 53.7223 229.194 53.6076L227.749 53.1946C226.831 52.9308 226.104 52.5541 225.569 52.0647C225.034 51.5752 224.766 50.9347 224.766 50.1432C224.766 49.4855 224.944 48.9119 225.299 48.4225C225.659 47.9292 226.141 47.5468 226.745 47.2753C227.353 47 228.032 46.8623 228.781 46.8623C229.538 46.8623 230.211 46.9981 230.8 47.2696C231.389 47.5373 231.855 47.9043 232.2 48.3708C232.548 48.8374 232.731 49.367 232.75 49.9597H231.374ZM235.25 58.7698V47.0229H236.672V52.254H242.935V47.0229H244.358V58.7698H242.935V53.5158H236.672V58.7698H235.25ZM248.628 47.0229V58.7698H247.206V47.0229H248.628ZM252.903 47.0229V58.7698H251.48V47.0229H252.903ZM263.923 58.7698H260.298V47.0229H264.083C265.223 47.0229 266.198 47.2581 267.008 47.7284C267.819 48.195 268.44 48.866 268.873 49.7417C269.305 50.6135 269.521 51.6574 269.521 52.8734C269.521 54.097 269.303 55.1505 268.867 56.0338C268.431 56.9133 267.796 57.5901 266.963 58.0643C266.129 58.5346 265.116 58.7698 263.923 58.7698ZM261.72 57.5079H263.831C264.802 57.5079 265.607 57.3205 266.246 56.9458C266.884 56.5711 267.36 56.0376 267.674 55.3455C267.987 54.6534 268.144 53.8294 268.144 52.8734C268.144 51.9251 267.989 51.1087 267.68 50.4242C267.37 49.736 266.907 49.2083 266.291 48.8412C265.676 48.4703 264.909 48.2848 263.991 48.2848H261.72V57.5079ZM271.907 58.7698V47.0229H278.996V48.2848H273.329V52.254H278.629V53.5158H273.329V57.5079H279.088V58.7698H271.907ZM287.984 49.9597C287.915 49.3784 287.636 48.9272 287.147 48.606C286.657 48.2848 286.057 48.1242 285.346 48.1242C284.826 48.1242 284.371 48.2083 283.981 48.3766C283.594 48.5448 283.292 48.7762 283.074 49.0706C282.86 49.365 282.753 49.6996 282.753 50.0744C282.753 50.3879 282.828 50.6575 282.977 50.8831C283.13 51.1049 283.325 51.2903 283.562 51.4395C283.799 51.5848 284.047 51.7052 284.307 51.8008C284.568 51.8926 284.807 51.9672 285.024 52.0245L286.217 52.3457C286.523 52.426 286.864 52.5369 287.238 52.6784C287.617 52.8199 287.978 53.013 288.323 53.2577C288.67 53.4986 288.957 53.8083 289.183 54.1869C289.408 54.5655 289.521 55.0301 289.521 55.5807C289.521 56.2155 289.355 56.789 289.022 57.3014C288.693 57.8138 288.212 58.2211 287.577 58.5231C286.946 58.8252 286.179 58.9763 285.277 58.9763C284.436 58.9763 283.707 58.8405 283.092 58.569C282.48 58.2975 281.998 57.919 281.646 57.4333C281.298 56.9477 281.101 56.3837 281.055 55.7413H282.524C282.562 56.1849 282.711 56.5519 282.971 56.8426C283.235 57.1293 283.568 57.3435 283.969 57.485C284.374 57.6226 284.81 57.6915 285.277 57.6915C285.82 57.6915 286.307 57.6035 286.739 57.4276C287.172 57.2479 287.514 56.9993 287.766 56.682C288.019 56.3608 288.145 55.986 288.145 55.5578C288.145 55.1677 288.036 54.8503 287.818 54.6056C287.6 54.3609 287.313 54.1621 286.957 54.0091C286.602 53.8561 286.217 53.7223 285.805 53.6076L284.359 53.1946C283.441 52.9308 282.715 52.5541 282.18 52.0647C281.644 51.5752 281.377 50.9347 281.377 50.1432C281.377 49.4855 281.554 48.9119 281.91 48.4225C282.269 47.9292 282.751 47.5468 283.355 47.2753C283.963 47 284.642 46.8623 285.392 46.8623C286.149 46.8623 286.822 46.9981 287.411 47.2696C287.999 47.5373 288.466 47.9043 288.81 48.3708C289.158 48.8374 289.342 49.367 289.361 49.9597H287.984ZM293.283 47.0229V58.7698H291.86V47.0229H293.283ZM304.165 50.6938C304.038 50.3076 303.872 49.9616 303.666 49.6557C303.463 49.3459 303.22 49.0821 302.937 48.8641C302.658 48.6462 302.341 48.4798 301.985 48.3651C301.629 48.2504 301.239 48.193 300.815 48.193C300.119 48.193 299.486 48.3728 298.916 48.7322C298.347 49.0916 297.894 49.6212 297.557 50.321C297.221 51.0208 297.052 51.8792 297.052 52.8964C297.052 53.9135 297.223 54.772 297.563 55.4717C297.903 56.1715 298.364 56.7011 298.945 57.0605C299.526 57.42 300.18 57.5997 300.907 57.5997C301.58 57.5997 302.172 57.4563 302.685 57.1695C303.201 56.8789 303.603 56.4697 303.889 55.942C304.18 55.4105 304.325 54.7853 304.325 54.0665L304.761 54.1582H301.228V52.8964H305.702V54.1582C305.702 55.1257 305.495 55.9669 305.082 56.682C304.673 57.397 304.107 57.9515 303.385 58.3453C302.666 58.7354 301.84 58.9304 300.907 58.9304C299.867 58.9304 298.953 58.6857 298.165 58.1962C297.381 57.7067 296.769 57.0108 296.33 56.1084C295.894 55.206 295.676 54.1353 295.676 52.8964C295.676 51.9672 295.8 51.1317 296.049 50.3898C296.301 49.6442 296.657 49.0094 297.115 48.4856C297.574 47.9617 298.117 47.5602 298.744 47.2811C299.372 47.0019 300.062 46.8623 300.815 46.8623C301.434 46.8623 302.012 46.956 302.547 47.1434C303.086 47.3269 303.566 47.5889 303.987 47.9292C304.411 48.2657 304.765 48.6691 305.048 49.1394C305.331 49.6059 305.526 50.1241 305.633 50.6938H304.165ZM317.453 47.0229V58.7698H316.076L309.675 49.5467H309.561V58.7698H308.138V47.0229H309.515L315.939 56.269H316.053V47.0229H317.453Z" fill="black"/>
<rect x="159.445" y="41.8722" width="23.335" height="23.335" rx="5.385" fill="black"/>
<g clip-path="url(#clip1_527_577)">
<path d="M181 46.9999H161V59.9999H181V46.9999Z" fill="#F4EEE5"/>
<path d="M166.456 53.1954C167.008 53.1954 167.456 52.7477 167.456 52.1954C167.456 51.6431 167.008 51.1954 166.456 51.1954C165.903 51.1954 165.456 51.6431 165.456 52.1954C165.456 52.7477 165.903 53.1954 166.456 53.1954Z" fill="black"/>
<path d="M175.545 53.1954C176.097 53.1954 176.545 52.7477 176.545 52.1954C176.545 51.6431 176.097 51.1954 175.545 51.1954C174.992 51.1954 174.545 51.6431 174.545 52.1954C174.545 52.7477 174.992 53.1954 175.545 53.1954Z" fill="black"/>
<path d="M171 55.6577L169.509 57.7477H172.491L171 55.6577Z" fill="black"/>
<path d="M173.076 48.0998L173.122 48.0476L173.563 48.4465L174.005 48.0476L174.051 48.0976L173.565 48.5421L173.078 48.0998H173.076ZM173.528 48.9009H173.597V49.3954H173.528V48.9009Z" fill="black" stroke="black" stroke-width="0.1" stroke-miterlimit="10"/>
<path d="M175.493 48.721C175.493 49.1099 175.197 49.421 174.787 49.421C174.377 49.421 174.08 49.1088 174.08 48.721C174.08 48.3332 174.377 48.021 174.787 48.021C175.197 48.021 175.493 48.3332 175.493 48.721ZM175.425 48.721C175.425 48.3721 175.159 48.0854 174.788 48.0854C174.417 48.0854 174.151 48.3721 174.151 48.721C174.151 49.0699 174.417 49.3566 174.788 49.3566C175.159 49.3566 175.425 49.0699 175.425 48.721Z" fill="black" stroke="black" stroke-width="0.1" stroke-miterlimit="10"/>
<path d="M176.632 48.0476H176.701V48.9909C176.701 49.2276 176.507 49.4221 176.251 49.4221C175.996 49.4221 175.801 49.2276 175.801 48.9909V48.0476H175.87V48.9909C175.87 49.1887 176.033 49.3532 176.251 49.3532C176.469 49.3532 176.632 49.1898 176.632 48.9909V48.0476Z" fill="black" stroke="black" stroke-width="0.1" stroke-miterlimit="10"/>
<path d="M177.04 49.0154C177.04 49.2488 177.256 49.3521 177.453 49.3521C177.651 49.3521 177.869 49.2677 177.869 49.0366C177.869 48.9132 177.809 48.7921 177.609 48.7154C177.368 48.6232 177.072 48.5754 177.072 48.3266C177.072 48.1243 177.265 48.021 177.453 48.021C177.642 48.021 177.821 48.121 177.821 48.3266H177.752C177.752 48.1654 177.6 48.0843 177.447 48.0843C177.293 48.0843 177.142 48.1654 177.142 48.3266C177.142 48.5188 177.395 48.5654 177.629 48.6532C177.871 48.7454 177.939 48.8821 177.939 49.0343C177.939 49.2977 177.721 49.421 177.455 49.421C177.249 49.421 176.971 49.3132 176.971 49.0154H177.04Z" fill="black" stroke="black" stroke-width="0.1" stroke-miterlimit="10"/>
<path d="M179.036 48.0476H179.105V48.5421H178.242V48.0476H178.311V48.4732H179.035V48.0476H179.036ZM178.312 49.3943H178.243V48.8998H179.106V49.3943H179.037V48.9687H178.313V49.3943H178.312Z" fill="black" stroke="black" stroke-width="0.1" stroke-miterlimit="10"/>
<path d="M179.49 48.0476H179.559V49.3943H179.49V48.0476Z" fill="black" stroke="black" stroke-width="0.1" stroke-miterlimit="10"/>
<path d="M179.945 48.0476H180.013V49.3943H179.945V48.0476Z" fill="black" stroke="black" stroke-width="0.1" stroke-miterlimit="10"/>
<path d="M162.699 55.5032C162.699 56.0366 161.879 56.0366 161.879 55.5032V55.2921H162.699V55.5032ZM161.921 55.5032C161.921 55.9754 162.657 55.9754 162.657 55.5032V55.3343H161.921V55.5032Z" fill="black" stroke="black" stroke-width="0.1" stroke-miterlimit="10"/>
<path d="M162.657 56.6155V56.1444H162.44V56.4511H162.398V56.1022H162.699V56.6155H162.657ZM161.879 56.6155V56.1022H162.18V56.4511H162.138V56.1444H161.921V56.6155H161.879Z" fill="black" stroke="black" stroke-width="0.1" stroke-miterlimit="10"/>
<path d="M162.11 56.751C161.968 56.751 161.906 56.8821 161.906 57.0032C161.906 57.1243 161.957 57.2565 162.098 57.2565C162.172 57.2565 162.247 57.2199 162.293 57.0987C162.35 56.9521 162.379 56.7721 162.53 56.7721C162.653 56.7721 162.717 56.8887 162.717 57.0043C162.717 57.1199 162.656 57.2276 162.53 57.2276V57.1854C162.629 57.1854 162.678 57.0932 162.678 56.9987C162.678 56.9043 162.629 56.8132 162.53 56.8132C162.413 56.8132 162.385 56.9665 162.331 57.1099C162.275 57.2576 162.192 57.2987 162.099 57.2987C161.939 57.2987 161.863 57.1665 161.863 57.0032C161.863 56.8776 161.929 56.7087 162.11 56.7087V56.751Z" fill="black" stroke="black" stroke-width="0.1" stroke-miterlimit="10"/>
<path d="M162.699 57.4833V57.5255H161.879V57.4833H162.699Z" fill="black" stroke="black" stroke-width="0.1" stroke-miterlimit="10"/>
<path d="M162.289 57.7244C162.526 57.7244 162.716 57.9044 162.716 58.1544C162.716 58.2533 162.685 58.3433 162.627 58.4144L162.597 58.3877C162.647 58.3221 162.677 58.241 162.677 58.1544C162.677 57.9288 162.502 57.7666 162.29 57.7666C162.078 57.7666 161.903 57.9277 161.903 58.1544C161.903 58.2344 161.928 58.3088 161.971 58.3721H162.139V58.1088H162.181V58.4144H161.952C161.895 58.3433 161.863 58.2533 161.863 58.1544C161.863 57.9044 162.053 57.7244 162.29 57.7244H162.289ZM162.398 58.1088H162.44V58.4144H162.398V58.1088Z" fill="black" stroke="black" stroke-width="0.1" stroke-miterlimit="10"/>
<path d="M161.912 59.2377L161.879 59.2111L162.334 58.6555H161.879V58.6133H162.424L161.911 59.2377H161.912ZM162.667 58.6522L162.7 58.6788L162.244 59.2344H162.7V59.2766H162.154L162.668 58.6522H162.667Z" fill="black" stroke="black" stroke-width="0.1" stroke-miterlimit="10"/>
</g>
</g>
<defs>
<radialGradient id="paint0_radial_527_577" cx="0" cy="0" r="1" gradientUnits="userSpaceOnUse" gradientTransform="translate(450.299 227) rotate(90) scale(228 657.699)">
<stop stop-color="#7895B2"/>
<stop offset="1" stop-color="#607992"/>
</radialGradient>
<clipPath id="clip0_527_577">
<rect width="13.1413" height="13.1413" fill="white" transform="translate(247.833 97.7051)"/>
</clipPath>
<clipPath id="clip1_527_577">
<rect width="20" height="13" fill="white" transform="translate(161 46.9999)"/>
</clipPath>
</defs>
</svg>
