<svg width="224" height="136" viewBox="0 0 224 136" fill="none" xmlns="http://www.w3.org/2000/svg">
<g clip-path="url(#clip0_540_1393)">
<path d="M1608.97 17.9995H36.8495C26.4423 17.9995 18.0056 26.4362 18.0056 36.8434V1008.84C18.0056 1019.25 26.4423 1027.69 36.8495 1027.69H1608.97C1619.37 1027.69 1627.81 1019.25 1627.81 1008.84V36.8434C1627.81 26.4362 1619.37 17.9995 1608.97 17.9995Z" stroke="white" stroke-width="1.00949" stroke-miterlimit="10"/>
<path d="M359.854 17.9993H138.497C133.658 17.9993 129.736 21.9216 129.736 26.7601V50.9588C129.736 55.8002 125.811 59.725 120.97 59.725H377.381C372.54 59.725 368.615 55.8002 368.615 50.9588V26.7601C368.615 21.9216 364.692 17.9993 359.854 17.9993Z" stroke="white" stroke-width="1.00949"/>
<path d="M1627.81 59.7246H18.0044V120.967H1627.81V59.7246Z" fill="white" fill-opacity="0.1" stroke="white" stroke-width="1.00949" stroke-miterlimit="10"/>
<path d="M62.1125 89.2685H48.7851L54.9067 83.1469L53.3517 81.6028L44.5908 90.3636L53.3517 99.1245L54.8958 97.5804L48.7851 91.4587H62.1125V89.2685Z" fill="white"/>
<path d="M87.0254 89.2685H100.353L94.2312 83.1469L95.7863 81.6028L104.547 90.3636L95.7863 99.1245L94.2422 97.5804L100.353 91.4587H87.0254V89.2685Z" fill="white"/>
<path d="M144.408 84.1763C142.82 82.5884 140.641 81.6028 138.22 81.6028C133.38 81.6028 129.47 85.5233 129.47 90.3636C129.47 95.204 133.38 99.1245 138.22 99.1245C142.305 99.1245 145.711 96.332 146.686 92.5538H144.408C143.51 95.1054 141.079 96.9343 138.22 96.9343C134.596 96.9343 131.65 93.9884 131.65 90.3636C131.65 86.7388 134.596 83.793 138.22 83.793C140.038 83.793 141.659 84.5486 142.842 85.7423L139.315 89.2685H146.981V81.6028L144.408 84.1763Z" fill="white"/>
<path fill-rule="evenodd" clip-rule="evenodd" d="M173.503 90.0615C174.119 90.3769 174.541 91.0182 174.541 91.758V98.2943H186.769V91.758C186.769 91.0182 187.191 90.3769 187.807 90.0615L180.655 82.6983L173.503 90.0615ZM179.972 80.668C180.346 80.283 180.964 80.283 181.338 80.668L191.326 90.9501C191.619 91.252 191.405 91.758 190.984 91.758H188.674V99.2466C188.674 99.7726 188.248 100.199 187.722 100.199H173.589C173.063 100.199 172.636 99.7726 172.636 99.2466V91.758H170.326C169.905 91.758 169.691 91.252 169.984 90.9501L179.972 80.668Z" fill="white"/>
<rect x="217.826" y="68.879" width="1289.03" height="42.7947" rx="21.3974" stroke="white" stroke-width="1.00949"/>
<g opacity="0.5">
<circle cx="50.997" cy="39.5358" r="5.38396" fill="white"/>
<circle cx="71.1908" cy="39.5358" r="5.38396" fill="white"/>
<circle cx="91.3774" cy="39.5358" r="5.38396" fill="white"/>
</g>
<path d="M175.475 33.0229H177.104L180.362 38.5063H180.5L183.758 33.0229H185.387L181.142 39.9288V44.7698H179.72V39.9288L175.475 33.0229ZM196.586 38.8964C196.586 40.1353 196.362 41.206 195.915 42.1084C195.467 43.0108 194.853 43.7067 194.073 44.1962C193.293 44.6857 192.402 44.9304 191.401 44.9304C190.399 44.9304 189.508 44.6857 188.728 44.1962C187.948 43.7067 187.334 43.0108 186.887 42.1084C186.439 41.206 186.215 40.1353 186.215 38.8964C186.215 37.6574 186.439 36.5868 186.887 35.6843C187.334 34.7819 187.948 34.086 188.728 33.5965C189.508 33.1071 190.399 32.8623 191.401 32.8623C192.402 32.8623 193.293 33.1071 194.073 33.5965C194.853 34.086 195.467 34.7819 195.915 35.6843C196.362 36.5868 196.586 37.6574 196.586 38.8964ZM195.209 38.8964C195.209 37.8792 195.039 37.0208 194.699 36.321C194.362 35.6212 193.905 35.0916 193.328 34.7322C192.754 34.3728 192.112 34.193 191.401 34.193C190.689 34.193 190.045 34.3728 189.468 34.7322C188.894 35.0916 188.437 35.6212 188.097 36.321C187.76 37.0208 187.592 37.8792 187.592 38.8964C187.592 39.9135 187.76 40.772 188.097 41.4717C188.437 42.1715 188.894 42.7011 189.468 43.0605C190.045 43.42 190.689 43.5997 191.401 43.5997C192.112 43.5997 192.754 43.42 193.328 43.0605C193.905 42.7011 194.362 42.1715 194.699 41.4717C195.039 40.772 195.209 39.9135 195.209 38.8964ZM206.686 33.0229H208.109V40.8006C208.109 41.6036 207.92 42.3206 207.541 42.9515C207.166 43.5786 206.637 44.0738 205.952 44.4371C205.268 44.7965 204.465 44.9763 203.543 44.9763C202.622 44.9763 201.819 44.7965 201.134 44.4371C200.45 44.0738 199.918 43.5786 199.54 42.9515C199.165 42.3206 198.977 41.6036 198.977 40.8006V33.0229H200.4V40.6859C200.4 41.2595 200.526 41.77 200.779 42.2174C201.031 42.6609 201.39 43.0108 201.857 43.267C202.327 43.5194 202.889 43.6456 203.543 43.6456C204.197 43.6456 204.759 43.5194 205.229 43.267C205.7 43.0108 206.059 42.6609 206.308 42.2174C206.56 41.77 206.686 41.2595 206.686 40.6859V33.0229ZM217.374 35.9597C217.305 35.3784 217.026 34.9272 216.536 34.606C216.047 34.2848 215.446 34.1242 214.735 34.1242C214.215 34.1242 213.76 34.2083 213.37 34.3766C212.984 34.5448 212.682 34.7762 212.464 35.0706C212.25 35.365 212.142 35.6996 212.142 36.0744C212.142 36.3879 212.217 36.6575 212.366 36.8831C212.519 37.1049 212.714 37.2903 212.951 37.4395C213.188 37.5848 213.437 37.7052 213.697 37.8008C213.957 37.8926 214.196 37.9672 214.414 38.0245L215.607 38.3457C215.913 38.426 216.253 38.5369 216.628 38.6784C217.006 38.8199 217.368 39.013 217.712 39.2577C218.06 39.4986 218.347 39.8083 218.572 40.1869C218.798 40.5655 218.911 41.0301 218.911 41.5807C218.911 42.2155 218.744 42.789 218.412 43.3014C218.083 43.8138 217.601 44.2211 216.966 44.5231C216.335 44.8252 215.569 44.9763 214.666 44.9763C213.825 44.9763 213.097 44.8405 212.481 44.569C211.869 44.2975 211.387 43.919 211.035 43.4333C210.688 42.9477 210.491 42.3837 210.445 41.7413H211.913C211.951 42.1849 212.1 42.5519 212.36 42.8426C212.624 43.1293 212.957 43.3435 213.358 43.485C213.764 43.6226 214.2 43.6915 214.666 43.6915C215.209 43.6915 215.697 43.6035 216.129 43.4276C216.561 43.2479 216.903 42.9993 217.156 42.682C217.408 42.3608 217.534 41.986 217.534 41.5578C217.534 41.1677 217.425 40.8503 217.207 40.6056C216.989 40.3609 216.702 40.1621 216.347 40.0091C215.991 39.8561 215.607 39.7223 215.194 39.6076L213.749 39.1946C212.831 38.9308 212.104 38.5541 211.569 38.0647C211.034 37.5752 210.766 36.9347 210.766 36.1432C210.766 35.4855 210.944 34.9119 211.299 34.4225C211.659 33.9292 212.141 33.5468 212.745 33.2753C213.353 33 214.031 32.8623 214.781 32.8623C215.538 32.8623 216.211 32.9981 216.8 33.2696C217.389 33.5373 217.855 33.9043 218.199 34.3708C218.547 34.8374 218.731 35.367 218.75 35.9597H217.374ZM221.249 44.7698V33.0229H222.672V38.254H228.935V33.0229H230.358V44.7698H228.935V39.5158H222.672V44.7698H221.249ZM234.628 33.0229V44.7698H233.206V33.0229H234.628ZM238.903 33.0229V44.7698H237.48V33.0229H238.903ZM249.922 44.7698H246.297V33.0229H250.083C251.223 33.0229 252.198 33.2581 253.008 33.7284C253.819 34.195 254.44 34.866 254.872 35.7417C255.305 36.6135 255.521 37.6574 255.521 38.8734C255.521 40.097 255.303 41.1505 254.867 42.0338C254.431 42.9133 253.796 43.5901 252.962 44.0643C252.129 44.5346 251.116 44.7698 249.922 44.7698ZM247.72 43.5079H249.831C250.802 43.5079 251.607 43.3205 252.245 42.9458C252.884 42.5711 253.36 42.0376 253.674 41.3455C253.987 40.6534 254.144 39.8294 254.144 38.8734C254.144 37.9251 253.989 37.1087 253.679 36.4242C253.37 35.736 252.907 35.2083 252.291 34.8412C251.676 34.4703 250.909 34.2848 249.991 34.2848H247.72V43.5079ZM257.907 44.7698V33.0229H264.996V34.2848H259.329V38.254H264.629V39.5158H259.329V43.5079H265.088V44.7698H257.907ZM273.984 35.9597C273.915 35.3784 273.636 34.9272 273.147 34.606C272.657 34.2848 272.057 34.1242 271.346 34.1242C270.825 34.1242 270.37 34.2083 269.98 34.3766C269.594 34.5448 269.292 34.7762 269.074 35.0706C268.86 35.365 268.753 35.6996 268.753 36.0744C268.753 36.3879 268.828 36.6575 268.977 36.8831C269.13 37.1049 269.325 37.2903 269.562 37.4395C269.799 37.5848 270.047 37.7052 270.307 37.8008C270.567 37.8926 270.806 37.9672 271.024 38.0245L272.217 38.3457C272.523 38.426 272.864 38.5369 273.238 38.6784C273.617 38.8199 273.978 39.013 274.322 39.2577C274.67 39.4986 274.957 39.8083 275.183 40.1869C275.408 40.5655 275.521 41.0301 275.521 41.5807C275.521 42.2155 275.355 42.789 275.022 43.3014C274.693 43.8138 274.212 44.2211 273.577 44.5231C272.946 44.8252 272.179 44.9763 271.277 44.9763C270.435 44.9763 269.707 44.8405 269.091 44.569C268.48 44.2975 267.998 43.919 267.646 43.4333C267.298 42.9477 267.101 42.3837 267.055 41.7413H268.524C268.562 42.1849 268.711 42.5519 268.971 42.8426C269.235 43.1293 269.567 43.3435 269.969 43.485C270.374 43.6226 270.81 43.6915 271.277 43.6915C271.82 43.6915 272.307 43.6035 272.739 43.4276C273.171 43.2479 273.514 42.9993 273.766 42.682C274.018 42.3608 274.145 41.986 274.145 41.5578C274.145 41.1677 274.036 40.8503 273.818 40.6056C273.6 40.3609 273.313 40.1621 272.957 40.0091C272.602 39.8561 272.217 39.7223 271.804 39.6076L270.359 39.1946C269.441 38.9308 268.715 38.5541 268.179 38.0647C267.644 37.5752 267.376 36.9347 267.376 36.1432C267.376 35.4855 267.554 34.9119 267.91 34.4225C268.269 33.9292 268.751 33.5468 269.355 33.2753C269.963 33 270.642 32.8623 271.391 32.8623C272.149 32.8623 272.822 32.9981 273.41 33.2696C273.999 33.5373 274.466 33.9043 274.81 34.3708C275.158 34.8374 275.341 35.367 275.361 35.9597H273.984ZM279.282 33.0229V44.7698H277.86V33.0229H279.282ZM290.165 36.6938C290.038 36.3076 289.872 35.9616 289.666 35.6557C289.463 35.3459 289.22 35.0821 288.937 34.8641C288.658 34.6462 288.341 34.4798 287.985 34.3651C287.629 34.2504 287.239 34.193 286.815 34.193C286.119 34.193 285.486 34.3728 284.916 34.7322C284.347 35.0916 283.893 35.6212 283.557 36.321C283.22 37.0208 283.052 37.8792 283.052 38.8964C283.052 39.9135 283.222 40.772 283.563 41.4717C283.903 42.1715 284.364 42.7011 284.945 43.0605C285.526 43.42 286.18 43.5997 286.907 43.5997C287.58 43.5997 288.172 43.4563 288.685 43.1695C289.201 42.8789 289.602 42.4697 289.889 41.942C290.18 41.4105 290.325 40.7853 290.325 40.0665L290.761 40.1582H287.228V38.8964H291.702V40.1582C291.702 41.1257 291.495 41.9669 291.082 42.682C290.673 43.397 290.107 43.9515 289.385 44.3453C288.666 44.7354 287.84 44.9304 286.907 44.9304C285.867 44.9304 284.953 44.6857 284.165 44.1962C283.381 43.7067 282.769 43.0108 282.33 42.1084C281.894 41.206 281.676 40.1353 281.676 38.8964C281.676 37.9672 281.8 37.1317 282.048 36.3898C282.301 35.6442 282.656 35.0094 283.115 34.4856C283.574 33.9617 284.117 33.5602 284.744 33.2811C285.371 33.0019 286.062 32.8623 286.815 32.8623C287.434 32.8623 288.012 32.956 288.547 33.1434C289.086 33.3269 289.566 33.5889 289.987 33.9292C290.411 34.2657 290.765 34.6691 291.048 35.1394C291.331 35.6059 291.526 36.1241 291.633 36.6938H290.165ZM303.453 33.0229V44.7698H302.076L295.675 35.5467H295.56V44.7698H294.138V33.0229H295.515L301.939 42.269H302.053V33.0229H303.453Z" fill="white"/>
<rect x="145.445" y="27.8722" width="23.335" height="23.335" rx="5.385" fill="black"/>
<g clip-path="url(#clip1_540_1393)">
<path d="M167 32.9999H147V45.9999H167V32.9999Z" fill="white"/>
<path d="M152.456 39.1954C153.008 39.1954 153.456 38.7477 153.456 38.1954C153.456 37.6431 153.008 37.1954 152.456 37.1954C151.903 37.1954 151.456 37.6431 151.456 38.1954C151.456 38.7477 151.903 39.1954 152.456 39.1954Z" fill="black"/>
<path d="M161.544 39.1954C162.097 39.1954 162.544 38.7477 162.544 38.1954C162.544 37.6431 162.097 37.1954 161.544 37.1954C160.992 37.1954 160.544 37.6431 160.544 38.1954C160.544 38.7477 160.992 39.1954 161.544 39.1954Z" fill="black"/>
<path d="M157 41.6577L155.509 43.7477H158.491L157 41.6577Z" fill="black"/>
<path d="M159.075 34.0998L159.122 34.0476L159.563 34.4465L160.004 34.0476L160.051 34.0976L159.564 34.5421L159.078 34.0998H159.075ZM159.528 34.9009H159.597V35.3954H159.528V34.9009Z" fill="black" stroke="black" stroke-width="0.1" stroke-miterlimit="10"/>
<path d="M161.493 34.721C161.493 35.1099 161.197 35.421 160.787 35.421C160.377 35.421 160.08 35.1088 160.08 34.721C160.08 34.3332 160.377 34.021 160.787 34.021C161.197 34.021 161.493 34.3332 161.493 34.721ZM161.424 34.721C161.424 34.3721 161.159 34.0854 160.788 34.0854C160.417 34.0854 160.151 34.3721 160.151 34.721C160.151 35.0699 160.417 35.3566 160.788 35.3566C161.159 35.3566 161.424 35.0699 161.424 34.721Z" fill="black" stroke="black" stroke-width="0.1" stroke-miterlimit="10"/>
<path d="M162.632 34.0476H162.701V34.9909C162.701 35.2276 162.507 35.4221 162.251 35.4221C161.995 35.4221 161.801 35.2276 161.801 34.9909V34.0476H161.87V34.9909C161.87 35.1887 162.033 35.3532 162.251 35.3532C162.469 35.3532 162.632 35.1898 162.632 34.9909V34.0476Z" fill="black" stroke="black" stroke-width="0.1" stroke-miterlimit="10"/>
<path d="M163.04 35.0154C163.04 35.2488 163.255 35.3521 163.453 35.3521C163.651 35.3521 163.869 35.2677 163.869 35.0366C163.869 34.9132 163.809 34.7921 163.609 34.7154C163.368 34.6232 163.072 34.5754 163.072 34.3266C163.072 34.1243 163.264 34.021 163.453 34.021C163.642 34.021 163.821 34.121 163.821 34.3266H163.752C163.752 34.1654 163.6 34.0843 163.447 34.0843C163.293 34.0843 163.142 34.1654 163.142 34.3266C163.142 34.5188 163.394 34.5654 163.629 34.6532C163.871 34.7454 163.939 34.8821 163.939 35.0343C163.939 35.2977 163.721 35.421 163.454 35.421C163.249 35.421 162.971 35.3132 162.971 35.0154H163.04Z" fill="black" stroke="black" stroke-width="0.1" stroke-miterlimit="10"/>
<path d="M165.036 34.0476H165.104V34.5421H164.242V34.0476H164.311V34.4732H165.034V34.0476H165.036ZM164.312 35.3943H164.243V34.8998H165.106V35.3943H165.037V34.9687H164.313V35.3943H164.312Z" fill="black" stroke="black" stroke-width="0.1" stroke-miterlimit="10"/>
<path d="M165.49 34.0476H165.559V35.3943H165.49V34.0476Z" fill="black" stroke="black" stroke-width="0.1" stroke-miterlimit="10"/>
<path d="M165.944 34.0476H166.013V35.3943H165.944V34.0476Z" fill="black" stroke="black" stroke-width="0.1" stroke-miterlimit="10"/>
<path d="M148.699 41.5032C148.699 42.0366 147.879 42.0366 147.879 41.5032V41.2921H148.699V41.5032ZM147.921 41.5032C147.921 41.9754 148.657 41.9754 148.657 41.5032V41.3343H147.921V41.5032Z" fill="black" stroke="black" stroke-width="0.1" stroke-miterlimit="10"/>
<path d="M148.657 42.6155V42.1444H148.44V42.4511H148.398V42.1022H148.699V42.6155H148.657ZM147.879 42.6155V42.1022H148.18V42.4511H148.138V42.1444H147.921V42.6155H147.879Z" fill="black" stroke="black" stroke-width="0.1" stroke-miterlimit="10"/>
<path d="M148.11 42.751C147.968 42.751 147.906 42.8821 147.906 43.0032C147.906 43.1243 147.957 43.2565 148.098 43.2565C148.172 43.2565 148.247 43.2199 148.293 43.0987C148.35 42.9521 148.379 42.7721 148.53 42.7721C148.653 42.7721 148.717 42.8887 148.717 43.0043C148.717 43.1199 148.656 43.2276 148.53 43.2276V43.1854C148.629 43.1854 148.678 43.0932 148.678 42.9987C148.678 42.9043 148.629 42.8132 148.53 42.8132C148.413 42.8132 148.384 42.9665 148.331 43.1099C148.274 43.2576 148.192 43.2987 148.099 43.2987C147.939 43.2987 147.863 43.1665 147.863 43.0032C147.863 42.8776 147.929 42.7087 148.11 42.7087V42.751Z" fill="black" stroke="black" stroke-width="0.1" stroke-miterlimit="10"/>
<path d="M148.699 43.4833V43.5255H147.879V43.4833H148.699Z" fill="black" stroke="black" stroke-width="0.1" stroke-miterlimit="10"/>
<path d="M148.289 43.7244C148.526 43.7244 148.716 43.9044 148.716 44.1544C148.716 44.2533 148.684 44.3433 148.627 44.4144L148.597 44.3877C148.647 44.3221 148.677 44.241 148.677 44.1544C148.677 43.9288 148.502 43.7666 148.29 43.7666C148.078 43.7666 147.903 43.9277 147.903 44.1544C147.903 44.2344 147.928 44.3088 147.971 44.3721H148.139V44.1088H148.181V44.4144H147.952C147.894 44.3433 147.863 44.2533 147.863 44.1544C147.863 43.9044 148.053 43.7244 148.29 43.7244H148.289ZM148.398 44.1088H148.44V44.4144H148.398V44.1088Z" fill="black" stroke="black" stroke-width="0.1" stroke-miterlimit="10"/>
<path d="M147.912 45.2377L147.879 45.2111L148.334 44.6555H147.879V44.6133H148.424L147.911 45.2377H147.912ZM148.667 44.6522L148.7 44.6788L148.244 45.2344H148.7V45.2766H148.154L148.668 44.6522H148.667Z" fill="black" stroke="black" stroke-width="0.1" stroke-miterlimit="10"/>
</g>
</g>
<defs>
<clipPath id="clip0_540_1393">
<rect width="224" height="136" rx="12" fill="white"/>
</clipPath>
<clipPath id="clip1_540_1393">
<rect width="20" height="13" fill="white" transform="translate(147 32.9999)"/>
</clipPath>
</defs>
</svg>
