<svg width="180" height="117" viewBox="0 0 180 117" fill="none" xmlns="http://www.w3.org/2000/svg">
<g clip-path="url(#clip0_520_807)">
<path d="M180 0H0V117H180V0Z" fill="#F4EEE5"/>
<path d="M49.1 55.76C54.0706 55.76 58.1 51.7306 58.1 46.76C58.1 41.7894 54.0706 37.76 49.1 37.76C44.1294 37.76 40.1 41.7894 40.1 46.76C40.1 51.7306 44.1294 55.76 49.1 55.76Z" fill="black"/>
<path d="M130.9 55.76C135.871 55.76 139.9 51.7306 139.9 46.76C139.9 41.7894 135.871 37.76 130.9 37.76C125.929 37.76 121.9 41.7894 121.9 46.76C121.9 51.7306 125.929 55.76 130.9 55.76Z" fill="black"/>
<path d="M90 77.92L76.58 96.73H103.42L90 77.92Z" fill="black"/>
<path d="M108.68 9.89999L109.1 9.42999L113.07 13.02L117.04 9.42999L117.46 9.87999L113.08 13.88L108.7 9.89999H108.68ZM112.75 17.11H113.37V21.56H112.75V17.11Z" fill="black" stroke="black" stroke-miterlimit="10"/>
<path d="M130.44 15.49C130.44 18.99 127.77 21.79 124.08 21.79C120.39 21.79 117.72 18.98 117.72 15.49C117.72 12 120.39 9.19 124.08 9.19C127.77 9.19 130.44 12 130.44 15.49ZM129.82 15.49C129.82 12.35 127.43 9.77 124.09 9.77C120.75 9.77 118.36 12.35 118.36 15.49C118.36 18.63 120.75 21.21 124.09 21.21C127.43 21.21 129.82 18.63 129.82 15.49Z" fill="black" stroke="black" stroke-miterlimit="10"/>
<path d="M140.69 9.42999H141.31V17.92C141.31 20.05 139.56 21.8 137.26 21.8C134.96 21.8 133.21 20.05 133.21 17.92V9.42999H133.83V17.92C133.83 19.7 135.3 21.18 137.26 21.18C139.22 21.18 140.69 19.71 140.69 17.92V9.42999Z" fill="black" stroke="black" stroke-miterlimit="10"/>
<path d="M144.36 18.14C144.36 20.24 146.3 21.17 148.08 21.17C149.86 21.17 151.82 20.41 151.82 18.33C151.82 17.22 151.28 16.13 149.48 15.44C147.31 14.61 144.65 14.18 144.65 11.94C144.65 10.12 146.38 9.19 148.08 9.19C149.78 9.19 151.39 10.09 151.39 11.94H150.77C150.77 10.49 149.4 9.76 148.02 9.76C146.64 9.76 145.28 10.49 145.28 11.94C145.28 13.67 147.55 14.09 149.66 14.88C151.84 15.71 152.45 16.94 152.45 18.31C152.45 20.68 150.49 21.79 148.09 21.79C146.24 21.79 143.74 20.82 143.74 18.14H144.36Z" fill="black" stroke="black" stroke-miterlimit="10"/>
<path d="M162.32 9.42999H162.94V13.88H155.18V9.42999H155.8V13.26H162.31V9.42999H162.32ZM155.81 21.55H155.19V17.1H162.95V21.55H162.33V17.72H155.82V21.55H155.81Z" fill="black" stroke="black" stroke-miterlimit="10"/>
<path d="M166.41 9.42999H167.03V21.55H166.41V9.42999Z" fill="black" stroke="black" stroke-miterlimit="10"/>
<path d="M170.5 9.42999H171.12V21.55H170.5V9.42999Z" fill="black" stroke="black" stroke-miterlimit="10"/>
<path d="M15.29 76.53C15.29 81.33 7.91 81.33 7.91 76.53V74.63H15.29V76.53ZM8.29 76.53C8.29 80.78 14.91 80.78 14.91 76.53V75.01H8.29V76.53Z" fill="black" stroke="black" stroke-miterlimit="10"/>
<path d="M14.91 86.54V82.3H12.96V85.06H12.58V81.92H15.29V86.54H14.91ZM7.91 86.54V81.92H10.62V85.06H10.24V82.3H8.29V86.54H7.91Z" fill="black" stroke="black" stroke-miterlimit="10"/>
<path d="M9.98999 87.76C8.70999 87.76 8.14999 88.94 8.14999 90.03C8.14999 91.12 8.60999 92.31 9.87999 92.31C10.55 92.31 11.22 91.98 11.64 90.89C12.15 89.57 12.41 87.95 13.77 87.95C14.88 87.95 15.45 89 15.45 90.04C15.45 91.08 14.9 92.05 13.77 92.05V91.67C14.66 91.67 15.1 90.84 15.1 89.99C15.1 89.14 14.66 88.32 13.77 88.32C12.72 88.32 12.46 89.7 11.98 90.99C11.47 92.32 10.73 92.69 9.88999 92.69C8.44999 92.69 7.76999 91.5 7.76999 90.03C7.76999 88.9 8.35999 87.38 9.98999 87.38V87.76Z" fill="black" stroke="black" stroke-miterlimit="10"/>
<path d="M15.29 94.35V94.73H7.91V94.35H15.29Z" fill="black" stroke="black" stroke-miterlimit="10"/>
<path d="M11.6 96.52C13.73 96.52 15.44 98.14 15.44 100.39C15.44 101.28 15.16 102.09 14.64 102.73L14.37 102.49C14.82 101.9 15.09 101.17 15.09 100.39C15.09 98.36 13.52 96.9 11.61 96.9C9.69999 96.9 8.12999 98.35 8.12999 100.39C8.12999 101.11 8.34999 101.78 8.73999 102.35H10.25V99.98H10.63V102.73H8.56999C8.04999 102.09 7.76999 101.28 7.76999 100.39C7.76999 98.14 9.47999 96.52 11.61 96.52H11.6ZM12.58 99.98H12.96V102.73H12.58V99.98Z" fill="black" stroke="black" stroke-miterlimit="10"/>
<path d="M8.21 110.14L7.91 109.9L12.01 104.9H7.91V104.52H12.82L8.2 110.14H8.21ZM15 104.87L15.3 105.11L11.2 110.11H15.3V110.49H10.39L15.01 104.87H15Z" fill="black" stroke="black" stroke-miterlimit="10"/>
</g>
<defs>
<clipPath id="clip0_520_807">
<rect width="180" height="117" fill="white"/>
</clipPath>
</defs>
</svg>
