<svg width="154" height="100" viewBox="0 0 154 100" fill="none" xmlns="http://www.w3.org/2000/svg">
<g clip-path="url(#clip0_547_4709)">
<path d="M153.695 0H0.305054V100H153.695V0Z" fill="#F4EEE5"/>
<path d="M42.1464 47.6582C46.3822 47.6582 49.8159 44.2142 49.8159 39.9659C49.8159 35.7175 46.3822 32.2736 42.1464 32.2736C37.9107 32.2736 34.4769 35.7175 34.4769 39.9659C34.4769 44.2142 37.9107 47.6582 42.1464 47.6582Z" fill="black"/>
<path d="M111.854 47.6582C116.089 47.6582 119.523 44.2142 119.523 39.9659C119.523 35.7175 116.089 32.2736 111.854 32.2736C107.618 32.2736 104.184 35.7175 104.184 39.9659C104.184 44.2142 107.618 47.6582 111.854 47.6582Z" fill="black"/>
<path d="M77 66.5984L65.564 82.6753H88.4361L77 66.5984Z" fill="black"/>
<path d="M92.9185 8.46152L93.2764 8.05981L96.6595 11.1282L100.043 8.05981L100.4 8.44443L96.668 11.8632L92.9355 8.46152H92.9185ZM96.3868 14.6239H96.9151V18.4273H96.3868V14.6239Z" fill="black" stroke="black" stroke-width="0.5" stroke-miterlimit="10"/>
<path d="M111.462 13.2394C111.462 16.2308 109.186 18.624 106.042 18.624C102.897 18.624 100.622 16.2223 100.622 13.2394C100.622 10.2564 102.897 7.85474 106.042 7.85474C109.186 7.85474 111.462 10.2564 111.462 13.2394ZM110.933 13.2394C110.933 10.5556 108.897 8.35046 106.05 8.35046C103.204 8.35046 101.167 10.5556 101.167 13.2394C101.167 15.9231 103.204 18.1282 106.05 18.1282C108.897 18.1282 110.933 15.9231 110.933 13.2394Z" fill="black" stroke="black" stroke-width="0.5" stroke-miterlimit="10"/>
<path d="M120.196 8.05981H120.725V15.3162C120.725 17.1367 119.233 18.6325 117.273 18.6325C115.313 18.6325 113.822 17.1367 113.822 15.3162V8.05981H114.35V15.3162C114.35 16.8376 115.603 18.1025 117.273 18.1025C118.944 18.1025 120.196 16.8461 120.196 15.3162V8.05981Z" fill="black" stroke="black" stroke-width="0.5" stroke-miterlimit="10"/>
<path d="M123.324 15.5043C123.324 17.2992 124.977 18.0941 126.494 18.0941C128.011 18.0941 129.681 17.4445 129.681 15.6667C129.681 14.718 129.221 13.7864 127.687 13.1966C125.838 12.4872 123.571 12.1197 123.571 10.2052C123.571 8.64961 125.045 7.85474 126.494 7.85474C127.942 7.85474 129.314 8.62397 129.314 10.2052H128.786C128.786 8.96585 127.619 8.34192 126.443 8.34192C125.267 8.34192 124.108 8.96585 124.108 10.2052C124.108 11.6838 126.042 12.0428 127.84 12.718C129.698 13.4274 130.218 14.4787 130.218 15.6496C130.218 17.6752 128.548 18.624 126.502 18.624C124.926 18.624 122.795 17.7949 122.795 15.5043H123.324Z" fill="black" stroke="black" stroke-width="0.5" stroke-miterlimit="10"/>
<path d="M138.629 8.05981H139.157V11.8632H132.544V8.05981H133.073V11.3333H138.62V8.05981H138.629ZM133.081 18.4188H132.553V14.6154H139.166V18.4188H138.637V15.1453H133.09V18.4188H133.081Z" fill="black" stroke="black" stroke-width="0.5" stroke-miterlimit="10"/>
<path d="M142.114 8.05981H142.642V18.4188H142.114V8.05981Z" fill="black" stroke="black" stroke-width="0.5" stroke-miterlimit="10"/>
<path d="M145.599 8.05981H146.128V18.4188H145.599V8.05981Z" fill="black" stroke="black" stroke-width="0.5" stroke-miterlimit="10"/>
<path d="M13.3346 65.4103C13.3346 69.5129 7.04565 69.5129 7.04565 65.4103V63.7864H13.3346V65.4103ZM7.36948 65.4103C7.36948 69.0428 13.0108 69.0428 13.0108 65.4103V64.1112H7.36948V65.4103Z" fill="black" stroke="black" stroke-width="0.5" stroke-miterlimit="10"/>
<path d="M13.0108 73.9658V70.3419H11.3491V72.7009H11.0253V70.0171H13.3346V73.9658H13.0108ZM7.04565 73.9658V70.0171H9.35502V72.7009H9.0312V70.3419H7.36948V73.9658H7.04565Z" fill="black" stroke="black" stroke-width="0.5" stroke-miterlimit="10"/>
<path d="M8.8182 75.0086C7.72743 75.0086 7.25021 76.0172 7.25021 76.9488C7.25021 77.8804 7.64221 78.8975 8.72446 78.8975C9.29541 78.8975 9.86636 78.6155 10.2243 77.6838C10.6589 76.5556 10.8804 75.171 12.0394 75.171C12.9853 75.171 13.471 76.0685 13.471 76.9573C13.471 77.8462 13.0023 78.6753 12.0394 78.6753V78.3505C12.7978 78.3505 13.1728 77.6411 13.1728 76.9146C13.1728 76.1881 12.7978 75.4873 12.0394 75.4873C11.1446 75.4873 10.923 76.6667 10.514 77.7693C10.0794 78.9061 9.4488 79.2223 8.73298 79.2223C7.50586 79.2223 6.92639 78.2052 6.92639 76.9488C6.92639 75.983 7.42917 74.6838 8.8182 74.6838V75.0086Z" fill="black" stroke="black" stroke-width="0.5" stroke-miterlimit="10"/>
<path d="M13.3346 80.6411V80.9659H7.04565V80.6411H13.3346Z" fill="black" stroke="black" stroke-width="0.5" stroke-miterlimit="10"/>
<path d="M10.1902 82.4957C12.0053 82.4957 13.4625 83.8803 13.4625 85.8034C13.4625 86.5641 13.2239 87.2564 12.7808 87.8034L12.5507 87.5983C12.9342 87.094 13.1642 86.4701 13.1642 85.8034C13.1642 84.0684 11.8263 82.8205 10.1987 82.8205C8.57107 82.8205 7.23317 84.0598 7.23317 85.8034C7.23317 86.4188 7.42065 86.9915 7.75299 87.4786H9.03976V85.453H9.36359V87.8034H7.60812C7.165 87.2564 6.92639 86.5641 6.92639 85.8034C6.92639 83.8803 8.38359 82.4957 10.1987 82.4957H10.1902ZM11.0253 85.453H11.3491V87.8034H11.0253V85.453Z" fill="black" stroke="black" stroke-width="0.5" stroke-miterlimit="10"/>
<path d="M7.3013 94.1368L7.04565 93.9317L10.5395 89.6582H7.04565V89.3334H11.2298L7.29278 94.1368H7.3013ZM13.0875 89.6325L13.3432 89.8377L9.84928 94.1112H13.3432V94.4359H9.15903L13.096 89.6325H13.0875Z" fill="black" stroke="black" stroke-width="0.5" stroke-miterlimit="10"/>
</g>
<defs>
<clipPath id="clip0_547_4709">
<rect width="153.39" height="100" fill="white" transform="translate(0.305054)"/>
</clipPath>
</defs>
</svg>
