<svg width="430" height="93" viewBox="0 0 430 93" fill="none" xmlns="http://www.w3.org/2000/svg">
<path d="M23.3441 2.04999C80.7441 2.04999 80.7441 90.35 23.3441 90.35H0.644043V2.04999H23.3441ZM23.3441 85.85C74.1441 85.85 74.1441 6.64999 23.3441 6.64999H5.14404V85.85H23.3441Z" fill="black"/>
<path d="M143.144 6.64999H92.4441V29.95H125.444V34.45H87.8441V2.04999H143.144V6.64999ZM143.144 90.35H87.9441V57.95H125.544V62.45H92.5441V85.75H143.144V90.35Z" fill="black"/>
<path d="M157.744 65.55C157.744 80.85 171.844 87.65 184.844 87.65C198.344 87.65 212.044 82.05 212.044 66.95C212.044 58.85 208.144 50.95 195.044 45.85C179.244 39.85 159.844 36.65 159.844 20.35C159.844 7.14998 172.444 0.349976 184.844 0.349976C196.944 0.349976 208.944 6.94998 208.944 20.35H204.444C204.444 9.74998 194.444 4.44997 184.444 4.44997C174.444 4.44997 164.544 9.74998 164.544 20.35C164.544 32.95 181.044 35.95 196.444 41.75C212.344 47.85 216.744 56.75 216.744 66.75C216.744 84.05 202.544 92.05 184.944 92.05C171.444 92.05 153.244 84.95 153.244 65.45L157.744 65.55Z" fill="black"/>
<path d="M236.644 2.04999H241.144V90.35H236.644V2.04999Z" fill="black"/>
<path d="M262.544 46.25C262.544 20.75 281.944 0.349976 308.844 0.349976C319.444 0.349976 329.144 3.74997 336.844 9.94997L333.944 13.25C326.844 7.84998 318.144 4.64997 308.844 4.64997C284.544 4.64997 267.044 23.45 267.044 46.25C267.044 69.05 284.444 87.85 308.844 87.85C317.444 87.85 325.544 85.15 332.344 80.55V62.55H303.944V58.05H336.844V82.65C329.144 88.85 319.444 92.25 308.844 92.25C282.044 92.15 262.544 71.65 262.544 46.25ZM303.944 34.45V29.95H336.844V34.45H303.944Z" fill="black"/>
<path d="M425.544 86.85L422.644 90.35L362.844 41.25V90.35H358.344V31.55L425.544 86.85ZM362.444 5.64999L365.344 2.14999L425.144 51.15V2.04999H429.644V60.85L362.444 5.64999Z" fill="black"/>
</svg>
