<svg width="589" height="126" viewBox="0 0 589 126" fill="none" xmlns="http://www.w3.org/2000/svg">
<path d="M31.123 2.33081C109.822 2.33081 109.822 123.395 31.123 123.395H0V2.33081H31.123ZM31.123 117.225C100.773 117.225 100.773 8.63767 31.123 8.63767H6.16975V117.225H31.123Z" fill="black"/>
<path d="M195.375 8.63767H125.863V40.5833H171.108V46.753H119.556V2.33081H195.375V8.63767ZM195.375 123.395H119.693V78.9728H171.245V85.1426H126V117.088H195.375V123.395Z" fill="black"/>
<path d="M215.393 89.3928C215.393 110.37 234.725 119.693 252.548 119.693C271.058 119.693 289.841 112.015 289.841 91.3123C289.841 80.2068 284.494 69.3754 266.533 62.383C244.871 54.1567 218.272 49.7693 218.272 27.4211C218.272 9.32318 235.547 0 252.548 0C269.138 0 285.591 9.04897 285.591 27.4211H279.421C279.421 12.8879 265.711 5.62133 252 5.62133C238.289 5.62133 224.716 12.8879 224.716 27.4211C224.716 44.6964 247.338 48.8096 268.453 56.7617C290.252 65.1251 296.285 77.3275 296.285 91.0381C296.285 114.757 276.816 125.726 252.686 125.726C234.176 125.726 209.223 115.991 209.223 89.2557L215.393 89.3928Z" fill="black"/>
<path d="M323.569 2.33081H329.739V123.395H323.569V2.33081Z" fill="black"/>
<path d="M359.08 62.9314C359.08 27.9695 385.678 0 422.559 0C437.093 0 450.392 4.66159 460.949 13.1621L456.973 17.6866C447.238 10.2829 435.31 5.89554 422.559 5.89554C389.243 5.89554 365.249 31.6714 365.249 62.9314C365.249 94.1915 389.106 119.967 422.559 119.967C434.35 119.967 445.456 116.266 454.779 109.959V85.2797H415.841V79.1099H460.949V112.838C450.392 121.338 437.093 126 422.559 126C385.815 125.863 359.08 97.7563 359.08 62.9314ZM415.841 46.753V40.5832H460.949V46.753H415.841Z" fill="black"/>
<path d="M582.562 118.596L578.586 123.395L496.596 56.0762V123.395H490.427V42.777L582.562 118.596ZM496.048 7.26661L500.024 2.46792L582.013 69.6496V2.33081H588.183V82.9489L496.048 7.26661Z" fill="black"/>
</svg>
