<svg width="455" height="93" viewBox="0 0 455 93" fill="none" xmlns="http://www.w3.org/2000/svg">
<g clip-path="url(#clip0_4_99)">
<path d="M0 5.56452L3.027 2.16052L31.907 28.2655L60.787 2.16052L63.814 5.43852L31.907 34.5705L0 5.56452ZM29.637 58.0285H34.177V90.4395H29.637V58.0285Z" fill="black"/>
<path d="M158.401 46.2995C158.401 71.7745 138.98 92.2045 112.117 92.2045C85.254 92.2045 65.833 71.7745 65.833 46.2995C65.833 20.8245 85.255 0.394531 112.117 0.394531C138.979 0.394531 158.401 20.8245 158.401 46.2995ZM153.861 46.2995C153.861 23.4725 136.457 4.68153 112.117 4.68153C87.777 4.68153 70.374 23.4725 70.374 46.2995C70.374 69.1255 87.778 87.9165 112.118 87.9165C136.458 87.9165 153.861 69.1255 153.861 46.2995Z" fill="black"/>
<path d="M233.061 2.16052H237.601V63.9555C237.601 79.4685 224.864 92.2055 208.09 92.2055C191.317 92.2055 178.579 79.4685 178.579 63.9555V2.16052H183.119V63.9555C183.119 76.9455 193.839 87.6655 208.09 87.6655C222.341 87.6655 233.061 76.9455 233.061 63.9555V2.16052Z" fill="black"/>
<path d="M259.797 65.5945C259.797 80.8545 273.922 87.6645 286.911 87.6645C300.405 87.6645 314.152 82.1155 314.152 66.9815C314.152 58.9105 310.242 50.9645 297.127 45.9195C281.362 39.8655 261.94 36.7135 261.94 20.4445C261.941 7.20453 274.553 0.394531 286.912 0.394531C299.019 0.394531 311 6.95253 311 20.4465H306.46C306.46 9.85253 296.497 4.55553 286.408 4.55553C276.445 4.55553 266.482 9.85253 266.482 20.4465C266.482 33.0575 283.003 36.0845 298.388 41.8855C314.279 47.9395 318.693 56.8935 318.693 66.8565C318.693 84.1335 304.442 92.2055 286.912 92.2055C273.418 92.2055 255.258 85.1425 255.258 65.5955L259.797 65.5945Z" fill="black"/>
<path d="M390.578 2.16052H395.118V34.5705H338.619V2.16052H343.159V30.0315H390.578V2.16052ZM343.159 90.4395H338.619V58.0285H395.118V90.4395H390.578V62.5685H343.159V90.4395Z" fill="black"/>
<path d="M420.341 2.16052H424.881V90.4395H420.341V2.16052Z" fill="black"/>
<path d="M450.104 2.16052H454.644V90.4395H450.104V2.16052Z" fill="black"/>
</g>
<defs>
<clipPath id="clip0_4_99">
<rect width="454.644" height="91.811" fill="white" transform="translate(0 0.394531)"/>
</clipPath>
</defs>
</svg>
