<svg width="959" height="127" viewBox="0 0 959 127" fill="none" xmlns="http://www.w3.org/2000/svg">
<path d="M5.74402 22.3L8.74402 18.9L37.644 45L66.544 18.9L69.544 22.2L37.644 51.3L5.74402 22.3ZM35.344 74.8H39.844V107.2H35.344V74.8Z" fill="black"/>
<path d="M164.144 63.1C164.144 88.6 144.744 109 117.844 109C90.9441 109 71.5441 88.5 71.5441 63.1C71.5441 37.7 90.9441 17.2 117.844 17.2C144.644 17.1 164.144 37.6 164.144 63.1ZM159.544 63.1C159.544 40.3 142.144 21.5 117.744 21.5C93.3441 21.5 76.0441 40.2 76.0441 63.1C76.0441 86 93.4441 104.7 117.844 104.7C142.144 104.7 159.544 85.9 159.544 63.1Z" fill="black"/>
<path d="M238.744 18.9H243.244V80.7C243.244 96.2 230.544 108.9 213.744 108.9C196.944 108.9 184.244 96.2 184.244 80.7V18.9H188.744V80.7C188.744 93.7 199.444 104.4 213.744 104.4C228.044 104.4 238.744 93.7 238.744 80.7V18.9Z" fill="black"/>
<path d="M265.544 82.4C265.544 97.7 279.644 104.5 292.644 104.5C306.144 104.5 319.844 98.9 319.844 83.8C319.844 75.7 315.944 67.8 302.844 62.7C287.044 56.7 267.644 53.5 267.644 37.2C267.644 24 280.244 17.2 292.644 17.2C304.744 17.2 316.744 23.8 316.744 37.2H312.244C312.244 26.6 302.244 21.3 292.244 21.3C282.244 21.3 272.344 26.6 272.344 37.2C272.344 49.8 288.844 52.8 304.244 58.6C320.144 64.7 324.544 73.6 324.544 83.6C324.544 100.9 310.344 108.9 292.744 108.9C279.244 108.9 261.044 101.8 261.044 82.3L265.544 82.4Z" fill="black"/>
<path d="M396.244 18.9H400.744V51.3H344.244V18.9H348.744V46.8H396.144L396.244 18.9ZM348.844 107.2H344.344V74.8H400.844V107.2H396.344V79.3H348.944L348.844 107.2Z" fill="black"/>
<path d="M426.044 18.9H430.544V107.2H426.044V18.9Z" fill="black"/>
<path d="M455.844 18.9H460.344V107.2H455.844V18.9Z" fill="black"/>
<path d="M539.844 18.9C597.244 18.9 597.244 107.2 539.844 107.2H517.144V18.9H539.844ZM539.844 102.7C590.644 102.7 590.644 23.5 539.844 23.5H521.644V102.7H539.844Z" fill="black"/>
<path d="M659.644 23.5H608.944V46.8H641.944V51.3H604.344V18.9H659.644V23.5ZM659.644 107.2H604.444V74.8H642.044V79.3H609.044V102.6H659.644V107.2Z" fill="black"/>
<path d="M674.244 82.4C674.244 97.7 688.344 104.5 701.344 104.5C714.844 104.5 728.544 98.9 728.544 83.8C728.544 75.7 724.644 67.8 711.544 62.7C695.744 56.7 676.344 53.5 676.344 37.2C676.344 24 688.944 17.2 701.344 17.2C713.444 17.2 725.444 23.8 725.444 37.2H720.944C720.944 26.6 710.944 21.3 700.944 21.3C690.944 21.3 681.044 26.6 681.044 37.2C681.044 49.8 697.544 52.8 712.944 58.6C728.844 64.7 733.244 73.6 733.244 83.6C733.244 100.9 719.044 108.9 701.444 108.9C687.944 108.9 669.744 101.8 669.744 82.3L674.244 82.4Z" fill="black"/>
<path d="M753.144 18.9H757.644V107.2H753.144V18.9Z" fill="black"/>
<path d="M779.044 63.1C779.044 37.6 798.444 17.2 825.344 17.2C835.944 17.2 845.644 20.6 853.344 26.8L850.444 30.1C843.344 24.7 834.644 21.5 825.344 21.5C801.044 21.5 783.544 40.3 783.544 63.1C783.544 85.9 800.944 104.7 825.344 104.7C833.944 104.7 842.044 102 848.844 97.4V79.4H820.444V74.9H853.344V99.5C845.644 105.7 835.944 109.1 825.344 109.1C798.544 109 779.044 88.5 779.044 63.1ZM820.444 51.3V46.8H853.344V51.3H820.444Z" fill="black"/>
<path d="M942.044 103.7L939.144 107.2L879.344 58.1V107.2H874.844V48.4L942.044 103.7ZM878.944 22.5L881.844 19L941.644 68V18.9H946.144V77.7L878.944 22.5Z" fill="black"/>
</svg>
