<svg width="624" height="126" viewBox="0 0 624 126" fill="none" xmlns="http://www.w3.org/2000/svg">
<g clip-path="url(#clip0_20_371)">
<path d="M0 7.09518L4.14863 2.42358L43.7299 38.2497L83.3112 2.42358L87.4599 6.92226L43.7299 46.9026L0 7.09518ZM40.6188 79.096H46.8411V123.576H40.6188V79.096Z" fill="black"/>
<path d="M217.095 62.9993C217.095 97.9608 190.478 125.999 153.661 125.999C116.844 125.999 90.227 97.9608 90.227 62.9993C90.227 28.0378 116.846 0 153.661 0C190.477 0 217.095 28.0378 217.095 62.9993ZM210.873 62.9993C210.873 31.6719 187.02 5.88341 153.661 5.88341C120.302 5.88341 96.4506 31.6719 96.4506 62.9993C96.4506 94.3254 120.304 120.114 153.663 120.114C187.022 120.114 210.873 94.3254 210.873 62.9993Z" fill="black"/>
<path d="M319.42 2.42358H325.642V87.2301C325.642 108.52 308.186 126 285.196 126C262.208 126 244.75 108.52 244.75 87.2301V2.42358H250.973V87.2301C250.973 105.057 265.665 119.769 285.196 119.769C304.728 119.769 319.42 105.057 319.42 87.2301V2.42358Z" fill="black"/>
<path d="M356.063 89.4795C356.063 110.422 375.422 119.768 393.224 119.768C411.718 119.768 430.559 112.153 430.559 91.383C430.559 80.3065 425.2 69.4015 407.225 62.4778C385.619 54.1694 359 49.8436 359 27.5163C359.002 9.34594 376.287 0 393.225 0C409.819 0 426.239 9.0001 426.239 27.5191H420.017C420.017 12.98 406.362 5.71049 392.535 5.71049C378.88 5.71049 365.225 12.98 365.225 27.5191C365.225 44.8262 387.868 48.9804 408.954 56.9416C430.733 65.25 436.783 77.5384 436.783 91.2114C436.783 114.922 417.251 126 393.225 126C374.731 126 349.842 116.307 349.842 89.4809L356.063 89.4795Z" fill="black"/>
<path d="M535.304 2.42358H541.526V46.9026H464.092V2.42358H470.314V40.6733H535.304V2.42358ZM470.314 123.576H464.092V79.096H541.526V123.576H535.304V85.3266H470.314V123.576Z" fill="black"/>
<path d="M576.096 2.42358H582.318V123.576H576.096V2.42358Z" fill="black"/>
<path d="M616.887 2.42358H623.109V123.576H616.887V2.42358Z" fill="black"/>
</g>
<defs>
<clipPath id="clip0_20_371">
<rect width="623.109" height="126" fill="white"/>
</clipPath>
</defs>
</svg>
