<svg width="960" height="127" viewBox="0 0 960 127" fill="none" xmlns="http://www.w3.org/2000/svg">
<g opacity="0.3">
<path d="M5.94397 22.3L8.94397 18.9L37.844 45L66.744 18.9L69.744 22.2L37.844 51.3L5.94397 22.3ZM35.544 74.8H40.044V107.2H35.544V74.8Z" fill="#AEBDCA"/>
<path d="M164.344 63.1C164.344 88.6 144.944 109 118.044 109C91.144 109 71.744 88.5 71.744 63.1C71.744 37.7 91.144 17.2 118.044 17.2C144.844 17.1 164.344 37.6 164.344 63.1ZM159.744 63.1C159.744 40.3 142.344 21.5 117.944 21.5C93.544 21.5 76.244 40.2 76.244 63.1C76.244 86 93.644 104.7 118.044 104.7C142.344 104.7 159.744 85.9 159.744 63.1Z" fill="#AEBDCA"/>
<path d="M238.944 18.9H243.444V80.7C243.444 96.2 230.744 108.9 213.944 108.9C197.144 108.9 184.444 96.2 184.444 80.7V18.9H188.944V80.7C188.944 93.7 199.644 104.4 213.944 104.4C228.244 104.4 238.944 93.7 238.944 80.7V18.9Z" fill="#AEBDCA"/>
<path d="M265.744 82.4C265.744 97.7 279.844 104.5 292.844 104.5C306.344 104.5 320.044 98.9 320.044 83.8C320.044 75.7 316.144 67.8 303.044 62.7C287.244 56.7 267.844 53.5 267.844 37.2C267.844 24 280.444 17.2 292.844 17.2C304.944 17.2 316.944 23.8 316.944 37.2H312.444C312.444 26.6 302.444 21.3 292.444 21.3C282.444 21.3 272.544 26.6 272.544 37.2C272.544 49.8 289.044 52.8 304.444 58.6C320.344 64.7 324.744 73.6 324.744 83.6C324.744 100.9 310.544 108.9 292.944 108.9C279.444 108.9 261.244 101.8 261.244 82.3L265.744 82.4Z" fill="#AEBDCA"/>
<path d="M396.444 18.9H400.944V51.3H344.444V18.9H348.944V46.8H396.344L396.444 18.9ZM349.044 107.2H344.544V74.8H401.044V107.2H396.544V79.3H349.144L349.044 107.2Z" fill="#AEBDCA"/>
<path d="M426.244 18.9H430.744V107.2H426.244V18.9Z" fill="#AEBDCA"/>
<path d="M456.044 18.9H460.544V107.2H456.044V18.9Z" fill="#AEBDCA"/>
<path d="M540.044 18.9C597.444 18.9 597.444 107.2 540.044 107.2H517.344V18.9H540.044ZM540.044 102.7C590.844 102.7 590.844 23.5 540.044 23.5H521.844V102.7H540.044Z" fill="#AEBDCA"/>
<path d="M659.844 23.5H609.144V46.8H642.144V51.3H604.544V18.9H659.844V23.5ZM659.844 107.2H604.644V74.8H642.244V79.3H609.244V102.6H659.844V107.2Z" fill="#AEBDCA"/>
<path d="M674.444 82.4C674.444 97.7 688.544 104.5 701.544 104.5C715.044 104.5 728.744 98.9 728.744 83.8C728.744 75.7 724.844 67.8 711.744 62.7C695.944 56.7 676.544 53.5 676.544 37.2C676.544 24 689.144 17.2 701.544 17.2C713.644 17.2 725.644 23.8 725.644 37.2H721.144C721.144 26.6 711.144 21.3 701.144 21.3C691.144 21.3 681.244 26.6 681.244 37.2C681.244 49.8 697.744 52.8 713.144 58.6C729.044 64.7 733.444 73.6 733.444 83.6C733.444 100.9 719.244 108.9 701.644 108.9C688.144 108.9 669.944 101.8 669.944 82.3L674.444 82.4Z" fill="#AEBDCA"/>
<path d="M753.344 18.9H757.844V107.2H753.344V18.9Z" fill="#AEBDCA"/>
<path d="M779.244 63.1C779.244 37.6 798.644 17.2 825.544 17.2C836.144 17.2 845.844 20.6 853.544 26.8L850.644 30.1C843.544 24.7 834.844 21.5 825.544 21.5C801.244 21.5 783.744 40.3 783.744 63.1C783.744 85.9 801.144 104.7 825.544 104.7C834.144 104.7 842.244 102 849.044 97.4V79.4H820.644V74.9H853.544V99.5C845.844 105.7 836.144 109.1 825.544 109.1C798.744 109 779.244 88.5 779.244 63.1ZM820.644 51.3V46.8H853.544V51.3H820.644Z" fill="#AEBDCA"/>
<path d="M942.244 103.7L939.344 107.2L879.544 58.1V107.2H875.044V48.4L942.244 103.7ZM879.144 22.5L882.044 19L941.844 68V18.9H946.344V77.7L879.144 22.5Z" fill="#AEBDCA"/>
</g>
</svg>
