<?xml version="1.0" encoding="utf-8"?>
<!-- Generator: Adobe Illustrator 16.0.0, SVG Export Plug-In . SVG Version: 6.00 Build 0)  -->
<!DOCTYPE svg PUBLIC "-//W3C//DTD SVG 1.1//EN" "http://www.w3.org/Graphics/SVG/1.1/DTD/svg11.dtd">
<svg version="1.1" id="圖層_1" xmlns="http://www.w3.org/2000/svg" xmlns:xlink="http://www.w3.org/1999/xlink" x="0px" y="0px"
	 width="512px" height="512px" viewBox="0 0 512 512" enable-background="new 0 0 512 512" xml:space="preserve">
<path fill="#FFFFFF" d="M256,10.667c-141.12,0-256,93.824-256,209.131C0,323.072,91.093,409.6,214.08,426.048
	c8.341,1.771,19.69,5.547,22.57,12.672c2.56,6.464,1.686,16.448,0.811,23.189l-3.498,21.889c-0.961,6.464-5.12,25.45,22.378,13.845
	c27.542-11.563,147.541-87.552,201.302-149.738C494.421,307.371,512,265.835,512,219.797C512,104.491,397.119,10.667,256,10.667z
	 M155.797,288.363h-50.901c-7.359,0-13.439-6.123-13.439-13.505V172.438c0-7.403,6.08-13.525,13.439-13.525
	c7.424,0,13.44,6.123,13.44,13.525v88.896h37.461c7.424,0,13.419,6.079,13.419,13.524C169.216,282.24,163.2,288.363,155.797,288.363
	z M208.406,274.858c0,7.382-6.017,13.505-13.462,13.505c-7.359,0-13.376-6.123-13.376-13.505V172.438
	c0-7.403,6.017-13.525,13.44-13.525c7.381,0,13.397,6.123,13.397,13.525V274.858z M330.88,274.858c0,5.803-3.712,10.944-9.217,12.8
	c-1.365,0.448-2.837,0.662-4.245,0.662c-4.501,0-8.341-1.941-10.88-5.377l-52.117-71.21v63.104c0,7.381-5.952,13.504-13.461,13.504
	c-7.382,0-13.354-6.123-13.354-13.504v-102.4c0-5.803,3.69-10.944,9.173-12.779c1.28-0.491,2.901-0.704,4.139-0.704
	c4.16,0,8,2.24,10.561,5.461L304,235.904v-63.467c0-7.403,6.016-13.525,13.439-13.525c7.36,0,13.44,6.123,13.44,13.525V274.858z
	 M413.119,210.112c7.445,0,13.44,6.123,13.44,13.547c0,7.403-5.995,13.525-13.44,13.525H375.68v24.15h37.439
	c7.445,0,13.44,6.079,13.44,13.524c0,7.382-5.995,13.505-13.44,13.505h-50.901c-7.359,0-13.376-6.123-13.376-13.505V172.438
	c0-7.403,6.017-13.525,13.44-13.525h50.901c7.381,0,13.376,6.123,13.376,13.525c0,7.488-5.995,13.525-13.44,13.525H375.68v24.149
	H413.119z"/>
</svg>
