<?xml version="1.0" encoding="utf-8"?>
<!-- Generator: Adobe Illustrator 16.0.0, SVG Export Plug-In . SVG Version: 6.00 Build 0)  -->
<!DOCTYPE svg PUBLIC "-//W3C//DTD SVG 1.0//EN" "http://www.w3.org/TR/2001/REC-SVG-20010904/DTD/svg10.dtd">
<svg version="1.0" id="圖層_1" xmlns="http://www.w3.org/2000/svg" xmlns:xlink="http://www.w3.org/1999/xlink" x="0px" y="0px"
	 width="472.3px" height="377.909px" viewBox="0 0 472.3 377.909" style="enable-background:new 0 0 472.3 377.909;"
	 xml:space="preserve">
<g>
	<path d="M5.044,258.611l3.027-3.404l28.88,26.105l28.88-26.105l3.027,3.278l-31.907,29.132L5.044,258.611z M34.681,311.075h4.54
		v32.411h-4.54V311.075z"/>
	<path d="M163.445,299.347c0,25.475-19.421,45.905-46.284,45.905s-46.284-20.431-46.284-45.905
		c0-25.476,19.421-45.905,46.284-45.905S163.445,273.871,163.445,299.347z M158.905,299.347c0-22.827-17.404-41.618-41.744-41.618
		s-41.744,18.791-41.744,41.618c0,22.826,17.404,41.617,41.744,41.617S158.905,322.173,158.905,299.347z"/>
	<path d="M238.105,255.207h4.54v61.795c0,15.513-12.737,28.25-29.511,28.25c-16.773,0-29.511-12.737-29.511-28.25v-61.795h4.54
		v61.795c0,12.99,10.72,23.71,24.971,23.71s24.971-10.72,24.971-23.71V255.207z"/>
	<path d="M264.842,318.642c0,15.26,14.125,22.07,27.114,22.07c13.494,0,27.241-5.549,27.241-20.683
		c0-8.071-3.91-16.017-17.025-21.062c-15.765-6.054-35.187-9.206-35.187-25.475c0-13.242,12.612-20.052,24.971-20.052
		c12.107,0,24.088,6.558,24.088,20.052h-4.54c0-10.594-9.963-15.891-20.052-15.891c-9.963,0-19.926,5.297-19.926,15.891
		c0,12.611,16.521,15.638,31.906,21.439c15.891,6.054,20.305,15.008,20.305,24.971c0,17.277-14.251,25.349-31.781,25.349
		c-13.494,0-31.654-7.063-31.654-26.61H264.842z"/>
	<path d="M395.622,255.207h4.54v32.41h-56.499v-32.41h4.54v27.871h47.419V255.207z M348.203,343.486h-4.54v-32.411h56.499v32.411
		h-4.54v-27.871h-47.419V343.486z"/>
	<path d="M425.386,255.207h4.54v88.279h-4.54V255.207z"/>
	<path d="M455.148,255.207h4.54v88.279h-4.54V255.207z"/>
</g>
<g>
	<path d="M196.174,194.791l-2.435,3.788c-5.683-4.329-20.969-14.07-28.275-17.722l2.3-3.519
		C174.664,181.127,191.439,191.274,196.174,194.791z M215.655,166.246l-2.706,3.517c-5.411-4.599-20.698-15.017-27.598-19.075
		l2.3-3.382C194.686,151.364,210.92,162.593,215.655,166.246z"/>
</g>
<path d="M272.827,175.322c7.662-13.498,11.664-32.74,12.827-41.008c0.406-2.436,0.947-4.6,1.353-5.547l-2.976-2.029
	c-1.082,0.406-2.841,0.812-7.305,0.812h-37.068v-14.881c0-1.049,0.05-2.725,0.175-4.45h34.92c2.977,0,3.788,0,5.276,0.135
	c-0.136-1.895-0.271-3.652-0.271-7.306V69.246c0-2.57,0.271-11.634,0.541-13.527h-5.006c0.136,1.894,0.406,10.957,0.406,13.527
	v34.914h-35.851V70.465c0-4.871,0.405-9.335,0.676-11.635h-5.005c0.135,2.841,0.271,6.764,0.271,11.904v33.426h-37.744V66.812
	c0-5.682,0.271-8.552,0.541-11.122h-5.006c0.136,2.57,0.406,5.44,0.406,11.258v37.081c-0.013-0.001-0.022-0.003-0.035-0.004v4.464
	c2.194-0.146,3.346-0.228,3.827-0.27h37.674c0.096,1.726,0.146,3.401,0.146,4.45v14.881h-30.98c-4.329,0-8.252-0.271-11.499-0.541
	l4.464,4.6h0.185l-0.065,0.063c8.117,8.523,22.457,20.563,36.797,29.492v42.505c-3.118,1.395-6.248,2.552-9.319,3.43
	c-2.977,0.946-5.953,1.758-8.793,2.164l3.517,3.924c5.229-1.475,10.078-3.219,14.596-5.175v13.624c0,4.194-0.271,9.2-0.542,11.094
	h5.141c-0.271-1.894-0.541-6.899-0.541-11.094v-15.486c14.438-7.013,24.96-16.433,31.92-27.027
	c7.539,3.053,15.378,5.875,23.14,8.287l2.706-4.464C288.52,180.943,280.541,178.305,272.827,175.322z M238.56,201.698v-38.1
	c7.907,4.729,17.636,9.537,28.096,13.942C260.051,187.421,249.599,195.993,238.56,201.698z M268.956,173.788
	c-12.21-4.959-23.544-10.685-32.154-16.007c-12.189-7.528-24.791-17.587-32.696-26.173h77.491
	C280.82,142.209,276.208,160.821,268.956,173.788z"/>
<g>
	<path d="M180.739,77.878v3.2h-46.178v-3.2H180.739z"/>
</g>
<g>
	<path d="M337.739,77.878v3.2h-46.179v-3.2H337.739z"/>
</g>
<polygon points="319.107,32.147 274.767,32.147 274.767,15.999 270.635,15.999 270.635,32.147 241.34,32.147 241.34,36.279 
	270.635,36.279 270.635,50.427 274.767,50.427 274.767,36.279 319.107,36.279 "/>
<polygon points="154.59,32.147 198.93,32.147 198.93,15.999 203.062,15.999 203.062,32.147 232.357,32.147 232.357,36.279 
	203.062,36.279 203.062,50.427 198.93,50.427 198.93,36.279 154.59,36.279 "/>
</svg>
