<?xml version="1.0" encoding="utf-8"?>
<!-- Generator: Adobe Illustrator 16.0.0, SVG Export Plug-In . SVG Version: 6.00 Build 0)  -->
<!DOCTYPE svg PUBLIC "-//W3C//DTD SVG 1.1//EN" "http://www.w3.org/Graphics/SVG/1.1/DTD/svg11.dtd">
<svg version="1.1" id="圖層_1" xmlns="http://www.w3.org/2000/svg" xmlns:xlink="http://www.w3.org/1999/xlink" x="0px" y="0px"
	 width="454.644px" height="91.811px" viewBox="0 0 454.644 91.811" style="enable-background:new 0 0 454.644 91.811;"
	 xml:space="preserve">
<g>
	<path d="M0-298.053l3.027-3.404l28.88,26.105l28.88-26.105l3.027,3.278l-31.907,29.132L0-298.053z M29.637-245.589h4.54v32.411
		h-4.54V-245.589z"/>
	<path d="M158.401-257.317c0,25.475-19.421,45.905-46.284,45.905s-46.284-20.431-46.284-45.905
		c0-25.476,19.421-45.905,46.284-45.905S158.401-282.793,158.401-257.317z M153.861-257.317c0-22.827-17.404-41.618-41.744-41.618
		s-41.744,18.791-41.744,41.618c0,22.826,17.404,41.617,41.744,41.617S153.861-234.491,153.861-257.317z"/>
	<path d="M233.061-301.457h4.54v61.795c0,15.513-12.737,28.25-29.511,28.25c-16.773,0-29.511-12.737-29.511-28.25v-61.795h4.54
		v61.795c0,12.99,10.72,23.71,24.971,23.71s24.971-10.72,24.971-23.71V-301.457z"/>
	<path d="M259.797-238.022c0,15.26,14.125,22.07,27.114,22.07c13.494,0,27.241-5.549,27.241-20.683
		c0-8.071-3.91-16.017-17.025-21.062c-15.765-6.054-35.187-9.206-35.187-25.475c0-13.242,12.612-20.052,24.971-20.052
		c12.107,0,24.088,6.558,24.088,20.052h-4.54c0-10.594-9.963-15.891-20.052-15.891c-9.963,0-19.926,5.297-19.926,15.891
		c0,12.611,16.521,15.638,31.906,21.439c15.891,6.054,20.305,15.008,20.305,24.971c0,17.277-14.251,25.349-31.781,25.349
		c-13.494,0-31.654-7.063-31.654-26.61H259.797z"/>
	<path d="M390.578-301.457h4.54v32.41h-56.499v-32.41h4.54v27.871h47.419V-301.457z M343.159-213.178h-4.54v-32.411h56.499v32.411
		h-4.54v-27.871h-47.419V-213.178z"/>
	<path d="M420.341-301.457h4.54v88.279h-4.54V-301.457z"/>
	<path d="M450.104-301.457h4.54v88.279h-4.54V-301.457z"/>
</g>
<g>
	<path d="M0,5.17l3.027-3.404l28.88,26.105l28.88-26.105l3.027,3.278L31.907,34.176L0,5.17z M29.637,57.634h4.54v32.411h-4.54
		V57.634z"/>
	<path d="M158.401,45.905c0,25.475-19.421,45.905-46.284,45.905S65.833,71.38,65.833,45.905C65.833,20.43,85.255,0,112.117,0
		S158.401,20.43,158.401,45.905z M153.861,45.905c0-22.827-17.404-41.618-41.744-41.618S70.374,23.078,70.374,45.905
		c0,22.826,17.404,41.617,41.744,41.617S153.861,68.731,153.861,45.905z"/>
	<path d="M233.061,1.766h4.54v61.795c0,15.513-12.737,28.25-29.511,28.25c-16.773,0-29.511-12.737-29.511-28.25V1.766h4.54v61.795
		c0,12.99,10.72,23.71,24.971,23.71s24.971-10.72,24.971-23.71V1.766z"/>
	<path d="M259.797,65.2c0,15.26,14.125,22.07,27.114,22.07c13.494,0,27.241-5.549,27.241-20.683c0-8.071-3.91-16.017-17.025-21.062
		c-15.765-6.054-35.187-9.206-35.187-25.475C261.941,6.81,274.553,0,286.912,0C299.019,0,311,6.558,311,20.052h-4.54
		c0-10.594-9.963-15.891-20.052-15.891c-9.963,0-19.926,5.297-19.926,15.891c0,12.611,16.521,15.638,31.906,21.439
		c15.891,6.054,20.305,15.008,20.305,24.971c0,17.277-14.251,25.349-31.781,25.349c-13.494,0-31.654-7.063-31.654-26.61H259.797z"/>
	<path d="M390.578,1.766h4.54v32.41h-56.499V1.766h4.54v27.871h47.419V1.766z M343.159,90.045h-4.54V57.634h56.499v32.411h-4.54
		V62.174h-47.419V90.045z"/>
	<path d="M420.341,1.766h4.54v88.279h-4.54V1.766z"/>
	<path d="M450.104,1.766h4.54v88.279h-4.54V1.766z"/>
</g>
<g>
	<path d="M191.129-361.873l-2.435,3.788c-5.683-4.329-20.969-14.07-28.275-17.722l2.3-3.519
		C169.62-375.537,186.395-365.39,191.129-361.873z M210.61-390.418l-2.706,3.517c-5.411-4.599-20.698-15.017-27.598-19.075
		l2.3-3.382C189.642-405.3,205.875-394.071,210.61-390.418z"/>
</g>
<path d="M267.783-381.342c7.662-13.498,11.664-32.74,12.827-41.008c0.406-2.436,0.947-4.6,1.353-5.547l-2.976-2.029
	c-1.082,0.406-2.841,0.812-7.305,0.812h-37.068v-14.881c0-1.049,0.05-2.725,0.175-4.45h34.92c2.977,0,3.788,0,5.276,0.135
	c-0.136-1.895-0.271-3.652-0.271-7.306v-31.802c0-2.57,0.271-11.634,0.541-13.527h-5.006c0.136,1.894,0.406,10.957,0.406,13.527
	v34.914h-35.851v-33.695c0-4.871,0.405-9.335,0.676-11.635h-5.005c0.135,2.841,0.271,6.764,0.271,11.904v33.426h-37.744v-37.349
	c0-5.682,0.271-8.552,0.541-11.122h-5.006c0.136,2.57,0.406,5.44,0.406,11.258v37.081c-0.013-0.001-0.022-0.003-0.035-0.004v4.464
	c2.194-0.146,3.346-0.228,3.827-0.27h37.674c0.096,1.726,0.146,3.401,0.146,4.45v14.881h-30.98c-4.329,0-8.252-0.271-11.499-0.541
	l4.464,4.6h0.185l-0.065,0.063c8.117,8.523,22.457,20.563,36.797,29.492v42.505c-3.118,1.395-6.248,2.552-9.319,3.43
	c-2.977,0.946-5.953,1.758-8.793,2.164l3.517,3.924c5.229-1.475,10.078-3.219,14.596-5.175v13.624c0,4.194-0.271,9.2-0.542,11.094
	h5.141c-0.271-1.894-0.541-6.899-0.541-11.094v-15.486c14.438-7.013,24.96-16.433,31.92-27.027
	c7.539,3.053,15.378,5.875,23.14,8.287l2.706-4.464C283.475-375.721,275.497-378.359,267.783-381.342z M233.516-354.966v-38.1
	c7.907,4.729,17.636,9.537,28.096,13.942C255.006-369.243,244.555-360.671,233.516-354.966z M263.911-382.876
	c-12.21-4.959-23.544-10.685-32.154-16.007c-12.189-7.528-24.791-17.587-32.696-26.173h77.491
	C275.776-414.455,271.164-395.843,263.911-382.876z"/>
<g>
	<path d="M175.694-478.786v3.2h-46.178v-3.2H175.694z"/>
</g>
<g>
	<path d="M332.695-478.786v3.2h-46.179v-3.2H332.695z"/>
</g>
<polygon points="314.063,-524.517 269.723,-524.517 269.723,-540.665 265.591,-540.665 265.591,-524.517 236.295,-524.517 
	236.295,-520.385 265.591,-520.385 265.591,-506.237 269.723,-506.237 269.723,-520.385 314.063,-520.385 "/>
<polygon points="149.545,-524.517 193.886,-524.517 193.886,-540.665 198.018,-540.665 198.018,-524.517 227.313,-524.517 
	227.313,-520.385 198.018,-520.385 198.018,-506.237 193.886,-506.237 193.886,-520.385 149.545,-520.385 "/>
<g>
</g>
<g>
</g>
<g>
</g>
<g>
</g>
<g>
</g>
<g>
</g>
</svg>
