<?xml version="1.0" encoding="utf-8"?>
<!-- Generator: Adobe Illustrator 25.2.3, SVG Export Plug-In . SVG Version: 6.00 Build 0)  -->
<svg version="1.1" id="圖層_1" xmlns="http://www.w3.org/2000/svg" xmlns:xlink="http://www.w3.org/1999/xlink" x="0px" y="0px"
	 viewBox="0 0 958.2 126.6" style="enable-background:new 0 0 958.2 126.6;" xml:space="preserve">
<style type="text/css">
	.st0{fill:none;stroke:#000000;stroke-miterlimit:10;}
</style>
<g>
	<path class="st0" d="M5.1,22.3l3-3.4L37,45l28.9-26.1l3,3.3L37,51.3L5.1,22.3z M34.7,74.8h4.5v32.4h-4.5V74.8z"/>
	<path class="st0" d="M163.5,63.1c0,25.5-19.4,45.9-46.3,45.9S70.9,88.5,70.9,63.1s19.4-45.9,46.3-45.9
		C144,17.1,163.5,37.6,163.5,63.1z M158.9,63.1c0-22.8-17.4-41.6-41.8-41.6S75.4,40.2,75.4,63.1s17.4,41.6,41.8,41.6
		C141.5,104.7,158.9,85.9,158.9,63.1z"/>
	<path class="st0" d="M238.1,18.9h4.5v61.8c0,15.5-12.7,28.2-29.5,28.2s-29.5-12.7-29.5-28.2V18.9h4.5v61.8c0,13,10.7,23.7,25,23.7
		s25-10.7,25-23.7V18.9z"/>
	<path class="st0" d="M264.9,82.4c0,15.3,14.1,22.1,27.1,22.1c13.5,0,27.2-5.6,27.2-20.7c0-8.1-3.9-16-17-21.1
		c-15.8-6-35.2-9.2-35.2-25.5c0-13.2,12.6-20,25-20c12.1,0,24.1,6.6,24.1,20h-4.5c0-10.6-10-15.9-20-15.9c-10,0-19.9,5.3-19.9,15.9
		c0,12.6,16.5,15.6,31.9,21.4c15.9,6.1,20.3,15,20.3,25c0,17.3-14.2,25.3-31.8,25.3c-13.5,0-31.7-7.1-31.7-26.6L264.9,82.4
		L264.9,82.4z"/>
	<path class="st0" d="M395.6,18.9h4.5v32.4h-56.5V18.9h4.5v27.9h47.4L395.6,18.9L395.6,18.9z M348.2,107.2h-4.5V74.8h56.5v32.4h-4.5
		V79.3h-47.4L348.2,107.2L348.2,107.2z"/>
	<path class="st0" d="M425.4,18.9h4.5v88.3h-4.5V18.9z"/>
	<path class="st0" d="M455.2,18.9h4.5v88.3h-4.5V18.9z"/>
	<path class="st0" d="M539.2,18.9c57.4,0,57.4,88.3,0,88.3h-22.7V18.9H539.2z M539.2,102.7c50.8,0,50.8-79.2,0-79.2H521v79.2H539.2z
		"/>
	<path class="st0" d="M659,23.5h-50.7v23.3h33v4.5h-37.6V18.9H659V23.5z M659,107.2h-55.2V74.8h37.6v4.5h-33v23.3H659V107.2z"/>
	<path class="st0" d="M673.6,82.4c0,15.3,14.1,22.1,27.1,22.1c13.5,0,27.2-5.6,27.2-20.7c0-8.1-3.9-16-17-21.1
		c-15.8-6-35.2-9.2-35.2-25.5c0-13.2,12.6-20,25-20c12.1,0,24.1,6.6,24.1,20h-4.5c0-10.6-10-15.9-20-15.9c-10,0-19.9,5.3-19.9,15.9
		c0,12.6,16.5,15.6,31.9,21.4c15.9,6.1,20.3,15,20.3,25c0,17.3-14.2,25.3-31.8,25.3c-13.5,0-31.7-7.1-31.7-26.6L673.6,82.4
		L673.6,82.4z"/>
	<path class="st0" d="M752.5,18.9h4.5v88.3h-4.5V18.9z"/>
	<path class="st0" d="M778.4,63.1c0-25.5,19.4-45.9,46.3-45.9c10.6,0,20.3,3.4,28,9.6l-2.9,3.3c-7.1-5.4-15.8-8.6-25.1-8.6
		c-24.3,0-41.8,18.8-41.8,41.6s17.4,41.6,41.8,41.6c8.6,0,16.7-2.7,23.5-7.3v-18h-28.4v-4.5h32.9v24.6c-7.7,6.2-17.4,9.6-28,9.6
		C797.9,109,778.4,88.5,778.4,63.1z M819.8,51.3v-4.5h32.9v4.5H819.8z"/>
	<path class="st0" d="M941.4,103.7l-2.9,3.5l-59.8-49.1v49.1h-4.5V48.4L941.4,103.7z M878.3,22.5l2.9-3.5L941,68V18.9h4.5v58.8
		L878.3,22.5z"/>
</g>
</svg>
