<svg width="472" height="455" viewBox="0 0 472 455" fill="none" xmlns="http://www.w3.org/2000/svg">
<mask id="mask0_530_873" style="mask-type:alpha" maskUnits="userSpaceOnUse" x="0" y="0" width="472" height="455">
<rect width="472" height="455" rx="12" fill="url(#paint0_radial_530_873)"/>
</mask>
<g mask="url(#mask0_530_873)">
<rect x="24.5" y="-465.5" width="422.855" height="882.815" rx="65.4329" stroke="black"/>
<rect x="24" y="-466" width="423.855" height="883.815" rx="65.9329" fill="white" fill-opacity="0.15"/>
<g filter="url(#filter0_b_530_873)">
<rect x="70.9341" y="267.982" width="330.079" height="97.3087" rx="24.6179" stroke="#7895B2"/>
<g filter="url(#filter1_dd_530_873)">
<rect x="83.2571" y="282.442" width="68.21" height="68.21" rx="17.95" fill="#101010"/>
<g clip-path="url(#clip0_530_873)">
<path d="M144.426 299.064H89.1951V334.964H144.426V299.064Z" fill="white"/>
<path d="M104.261 316.173C105.786 316.173 107.022 314.937 107.022 313.412C107.022 311.887 105.786 310.65 104.261 310.65C102.736 310.65 101.499 311.887 101.499 313.412C101.499 314.937 102.736 316.173 104.261 316.173Z" fill="#7895B2"/>
<path d="M129.36 316.173C130.885 316.173 132.122 314.937 132.122 313.412C132.122 311.887 130.885 310.65 129.36 310.65C127.835 310.65 126.599 311.887 126.599 313.412C126.599 314.937 127.835 316.173 129.36 316.173Z" fill="#7895B2"/>
<path d="M116.81 322.973L112.693 328.744H120.928L116.81 322.973Z" fill="#7895B2"/>
<path d="M122.542 302.102L122.671 301.957L123.889 303.059L125.107 301.957L125.236 302.096L123.892 303.323L122.548 302.102H122.542ZM123.791 304.314H123.981V305.679H123.791V304.314Z" fill="#7895B2" stroke="#7895B2" stroke-width="0.2" stroke-miterlimit="10"/>
<path d="M129.219 303.817C129.219 304.891 128.4 305.75 127.268 305.75C126.135 305.75 125.316 304.888 125.316 303.817C125.316 302.746 126.135 301.884 127.268 301.884C128.4 301.884 129.219 302.746 129.219 303.817ZM129.029 303.817C129.029 302.853 128.296 302.062 127.271 302.062C126.246 302.062 125.513 302.853 125.513 303.817C125.513 304.78 126.246 305.572 127.271 305.572C128.296 305.572 129.029 304.78 129.029 303.817Z" fill="#7895B2" stroke="#7895B2" stroke-width="0.2" stroke-miterlimit="10"/>
<path d="M132.364 301.957H132.554V304.563C132.554 305.216 132.017 305.753 131.312 305.753C130.606 305.753 130.069 305.216 130.069 304.563V301.957H130.259V304.563C130.259 305.109 130.71 305.563 131.312 305.563C131.913 305.563 132.364 305.112 132.364 304.563V301.957Z" fill="#7895B2" stroke="#7895B2" stroke-width="0.2" stroke-miterlimit="10"/>
<path d="M133.49 304.63C133.49 305.274 134.086 305.56 134.632 305.56C135.178 305.56 135.779 305.327 135.779 304.688C135.779 304.348 135.614 304.013 135.061 303.802C134.395 303.547 133.579 303.415 133.579 302.728C133.579 302.169 134.11 301.884 134.632 301.884C135.153 301.884 135.647 302.16 135.647 302.728H135.457C135.457 302.283 135.037 302.059 134.613 302.059C134.19 302.059 133.773 302.283 133.773 302.728C133.773 303.258 134.469 303.387 135.117 303.63C135.785 303.884 135.973 304.262 135.973 304.682C135.973 305.409 135.371 305.75 134.635 305.75C134.067 305.75 133.3 305.452 133.3 304.63H133.49Z" fill="#7895B2" stroke="#7895B2" stroke-width="0.2" stroke-miterlimit="10"/>
<path d="M139.001 301.957H139.191V303.323H136.81V301.957H137.001V303.133H138.998V301.957H139.001ZM137.004 305.676H136.813V304.311H139.194V305.676H139.004V304.501H137.007V305.676H137.004Z" fill="#7895B2" stroke="#7895B2" stroke-width="0.2" stroke-miterlimit="10"/>
<path d="M140.256 301.957H140.446V305.676H140.256V301.957Z" fill="#7895B2" stroke="#7895B2" stroke-width="0.2" stroke-miterlimit="10"/>
<path d="M141.511 301.957H141.701V305.676H141.511V301.957Z" fill="#7895B2" stroke="#7895B2" stroke-width="0.2" stroke-miterlimit="10"/>
<path d="M93.8865 322.546C93.8865 324.019 91.6221 324.019 91.6221 322.546V321.963H93.8865V322.546ZM91.7387 322.546C91.7387 323.85 93.7699 323.85 93.7699 322.546V322.08H91.7387V322.546Z" fill="#7895B2" stroke="#7895B2" stroke-width="0.2" stroke-miterlimit="10"/>
<path d="M93.7699 325.618V324.317H93.1716V325.164H93.055V324.2H93.8865V325.618H93.7699ZM91.6221 325.618V324.2H92.4536V325.164H92.337V324.317H91.7387V325.618H91.6221Z" fill="#7895B2" stroke="#7895B2" stroke-width="0.2" stroke-miterlimit="10"/>
<path d="M92.2603 325.992C91.8675 325.992 91.6957 326.354 91.6957 326.689C91.6957 327.023 91.8368 327.388 92.2265 327.388C92.4321 327.388 92.6377 327.287 92.7666 326.952C92.9231 326.547 93.0028 326.05 93.4201 326.05C93.7607 326.05 93.9356 326.373 93.9356 326.692C93.9356 327.011 93.7669 327.308 93.4201 327.308V327.192C93.6932 327.192 93.8282 326.937 93.8282 326.676C93.8282 326.415 93.6932 326.164 93.4201 326.164C93.0979 326.164 93.0182 326.587 92.8709 326.983C92.7144 327.391 92.4873 327.505 92.2296 327.505C91.7878 327.505 91.5791 327.14 91.5791 326.689C91.5791 326.342 91.7601 325.875 92.2603 325.875V325.992Z" fill="#7895B2" stroke="#7895B2" stroke-width="0.2" stroke-miterlimit="10"/>
<path d="M93.8865 328.014V328.131H91.6221V328.014H93.8865Z" fill="#7895B2" stroke="#7895B2" stroke-width="0.2" stroke-miterlimit="10"/>
<path d="M92.7543 328.68C93.4079 328.68 93.9325 329.177 93.9325 329.867C93.9325 330.14 93.8466 330.389 93.6871 330.585L93.6042 330.512C93.7423 330.331 93.8252 330.107 93.8252 329.867C93.8252 329.245 93.3434 328.797 92.7574 328.797C92.1713 328.797 91.6896 329.241 91.6896 329.867C91.6896 330.088 91.7571 330.294 91.8767 330.469H92.3401V329.742H92.4567V330.585H91.8246C91.665 330.389 91.5791 330.14 91.5791 329.867C91.5791 329.177 92.1038 328.68 92.7574 328.68H92.7543ZM93.055 329.742H93.1716V330.585H93.055V329.742Z" fill="#7895B2" stroke="#7895B2" stroke-width="0.2" stroke-miterlimit="10"/>
<path d="M91.7141 332.859L91.6221 332.785L92.8801 331.251H91.6221V331.135H93.1286L91.7111 332.859H91.7141ZM93.7975 331.242L93.8896 331.316L92.6316 332.85H93.8896V332.966H92.383L93.8006 331.242H93.7975Z" fill="#7895B2" stroke="#7895B2" stroke-width="0.2" stroke-miterlimit="10"/>
</g>
<g filter="url(#filter2_ii_530_873)">
<rect x="162.153" y="282.442" width="68.3884" height="68.3884" rx="15.0399" fill="url(#paint1_linear_530_873)"/>
<rect x="162.153" y="282.442" width="68.3884" height="68.3884" rx="15.0399" fill="url(#paint2_linear_530_873)" fill-opacity="0.1" style="mix-blend-mode:soft-light"/>
</g>
<g filter="url(#filter3_dd_530_873)">
<g filter="url(#filter4_iii_530_873)">
<path d="M196.343 337.072C210.876 337.072 222.657 327.205 222.657 315.033C222.657 302.861 210.876 292.994 196.343 292.994C181.811 292.994 170.03 302.861 170.03 315.033C170.03 322.645 174.636 329.355 181.642 333.315L181.65 333.332C182.452 333.911 183.36 335.737 180.582 338.408C177.109 341.747 183.253 339.744 185.123 338.609C185.609 338.314 186.054 338.019 186.469 337.744C187.652 336.96 188.525 336.338 189.464 336.338C189.485 336.338 189.583 336.343 189.613 336.349C189.635 336.353 189.656 336.357 189.673 336.358C191.803 336.824 194.039 337.072 196.343 337.072Z" fill="white"/>
</g>
<mask id="mask1_530_873" style="mask-type:alpha" maskUnits="userSpaceOnUse" x="170" y="292" width="53" height="49">
<path d="M196.345 337.072C210.878 337.072 222.659 327.205 222.659 315.033C222.659 302.861 210.878 292.993 196.345 292.993C181.813 292.993 170.032 302.861 170.032 315.033C170.032 322.644 174.639 329.354 181.645 333.314L181.653 333.332C182.454 333.911 183.362 335.736 180.584 338.408C177.111 341.747 183.256 339.743 185.126 338.608C185.611 338.313 186.056 338.018 186.471 337.743C187.654 336.96 188.527 336.337 189.467 336.337C189.488 336.337 189.586 336.343 189.616 336.348C189.638 336.352 189.659 336.356 189.676 336.358C191.806 336.824 194.041 337.072 196.345 337.072Z" fill="white"/>
</mask>
<g mask="url(#mask1_530_873)">
<g filter="url(#filter5_f_530_873)">
<path d="M180.385 339.009C183.43 336.071 182.767 334.223 182.055 333.666C183.123 332.705 184.147 333.266 184.526 333.666C184.37 334.891 183.524 337.687 181.387 339.076C179.25 340.465 179.828 339.61 180.385 339.009Z" fill="white"/>
</g>
<g filter="url(#filter6_f_530_873)">
<path d="M181.72 338.676C183.216 337.821 184.459 335.492 184.459 334.268L186.195 335.002C185.875 336.979 182.989 338.208 181.72 338.676Z" fill="url(#paint3_linear_530_873)" fill-opacity="0.08"/>
</g>
</g>
</g>
<g filter="url(#filter7_ii_530_873)">
<rect x="241.227" y="282.442" width="68.3884" height="68.3884" rx="15.0399" fill="url(#paint4_linear_530_873)"/>
<rect x="241.227" y="282.442" width="68.3884" height="68.3884" rx="15.0399" fill="url(#paint5_linear_530_873)" fill-opacity="0.1" style="mix-blend-mode:soft-light"/>
</g>
<g filter="url(#filter8_dd_530_873)">
<g filter="url(#filter9_iiii_530_873)">
<path d="M257.528 333.467H279.862C284.045 333.467 286.543 331.063 286.543 326.918V306.378C286.543 302.211 284.254 299.807 280.07 299.807H257.528C253.531 299.807 250.846 302.211 250.846 306.378V326.918C250.846 331.063 253.344 333.467 257.528 333.467ZM287.641 322.751L295.217 329.28C295.925 329.902 296.758 330.296 297.507 330.296C299.131 330.296 300.192 329.115 300.192 327.415V305.859C300.192 304.16 299.131 302.978 297.507 302.978C296.758 302.978 295.925 303.372 295.217 303.994L287.641 310.502V322.751Z" fill="white"/>
<path d="M257.528 333.467H279.862C284.045 333.467 286.543 331.063 286.543 326.918V306.378C286.543 302.211 284.254 299.807 280.07 299.807H257.528C253.531 299.807 250.846 302.211 250.846 306.378V326.918C250.846 331.063 253.344 333.467 257.528 333.467ZM287.641 322.751L295.217 329.28C295.925 329.902 296.758 330.296 297.507 330.296C299.131 330.296 300.192 329.115 300.192 327.415V305.859C300.192 304.16 299.131 302.978 297.507 302.978C296.758 302.978 295.925 303.372 295.217 303.994L287.641 310.502V322.751Z" fill="url(#paint6_linear_530_873)"/>
</g>
</g>
<g filter="url(#filter10_ii_530_873)">
<rect x="320.301" y="282.442" width="68.3884" height="68.3884" rx="15.0399" fill="url(#paint7_linear_530_873)"/>
<rect x="320.301" y="282.442" width="68.3884" height="68.3884" rx="15.0399" fill="url(#paint8_linear_530_873)" fill-opacity="0.2" style="mix-blend-mode:soft-light"/>
</g>
<g filter="url(#filter11_ddi_530_873)">
<g filter="url(#filter12_i_530_873)">
<path fill-rule="evenodd" clip-rule="evenodd" d="M357.865 308.718C356.707 310.777 356.71 313.291 357.874 315.346L369.492 335.866C370.474 337.6 372.682 338.202 374.408 337.205C376.118 336.218 376.709 334.034 375.73 332.319L373.003 327.544H376.669C378.654 327.544 380.264 325.935 380.264 323.95C380.264 321.965 378.654 320.356 376.669 320.356H368.899L360.783 306.144C360.457 305.573 359.633 305.575 359.31 306.149L357.865 308.718Z" fill="white"/>
</g>
<g filter="url(#filter13_i_530_873)">
<path d="M360.994 294.513C359.275 293.52 357.077 294.109 356.084 295.829L355.364 297.076L354.73 295.978C353.738 294.259 351.54 293.67 349.82 294.663C348.101 295.655 347.512 297.853 348.505 299.573L351.2 304.242L351.24 304.219L339.91 323.843L346.135 327.437L362.31 299.423C363.302 297.704 362.713 295.505 360.994 294.513Z" fill="white"/>
</g>
<g filter="url(#filter14_i_530_873)">
<path d="M357.639 320.356C358.849 320.356 359.965 321.009 360.558 322.064L362.982 326.373C363.277 326.897 362.898 327.545 362.297 327.545L334.438 327.545C332.453 327.545 330.844 325.936 330.844 323.951C330.844 321.965 332.453 320.356 334.438 320.356H357.639Z" fill="white"/>
</g>
<g filter="url(#filter15_i_530_873)">
<path d="M343.873 330.456L340.741 335.867C339.74 337.596 337.53 338.192 335.795 337.201C334.053 336.206 333.448 333.987 334.443 332.245L336.035 329.459C336.167 329.229 336.347 329.027 336.581 328.902C338.847 327.687 343.02 327.897 343.873 330.456Z" fill="white"/>
</g>
</g>
</g>
</g>
</g>
<defs>
<filter id="filter0_b_530_873" x="0.103981" y="197.152" width="471.739" height="238.969" filterUnits="userSpaceOnUse" color-interpolation-filters="sRGB">
<feFlood flood-opacity="0" result="BackgroundImageFix"/>
<feGaussianBlur in="BackgroundImageFix" stdDeviation="35.1651"/>
<feComposite in2="SourceAlpha" operator="in" result="effect1_backgroundBlur_530_873"/>
<feBlend mode="normal" in="SourceGraphic" in2="effect1_backgroundBlur_530_873" result="shape"/>
</filter>
<filter id="filter1_dd_530_873" x="72.7729" y="276.451" width="326.401" height="89.3567" filterUnits="userSpaceOnUse" color-interpolation-filters="sRGB">
<feFlood flood-opacity="0" result="BackgroundImageFix"/>
<feColorMatrix in="SourceAlpha" type="matrix" values="0 0 0 0 0 0 0 0 0 0 0 0 0 0 0 0 0 0 127 0" result="hardAlpha"/>
<feOffset dy="1.49773"/>
<feGaussianBlur stdDeviation="0.748867"/>
<feColorMatrix type="matrix" values="0 0 0 0 0 0 0 0 0 0 0 0 0 0 0 0 0 0 0.17 0"/>
<feBlend mode="normal" in2="BackgroundImageFix" result="effect1_dropShadow_530_873"/>
<feColorMatrix in="SourceAlpha" type="matrix" values="0 0 0 0 0 0 0 0 0 0 0 0 0 0 0 0 0 0 127 0" result="hardAlpha"/>
<feOffset dy="4.4932"/>
<feGaussianBlur stdDeviation="5.24207"/>
<feColorMatrix type="matrix" values="0 0 0 0 0 0 0 0 0 0 0 0 0 0 0 0 0 0 0.1 0"/>
<feBlend mode="normal" in2="effect1_dropShadow_530_873" result="effect2_dropShadow_530_873"/>
<feBlend mode="normal" in="SourceGraphic" in2="effect2_dropShadow_530_873" result="shape"/>
</filter>
<filter id="filter2_ii_530_873" x="161.606" y="281.895" width="69.4822" height="69.4822" filterUnits="userSpaceOnUse" color-interpolation-filters="sRGB">
<feFlood flood-opacity="0" result="BackgroundImageFix"/>
<feBlend mode="normal" in="SourceGraphic" in2="BackgroundImageFix" result="shape"/>
<feColorMatrix in="SourceAlpha" type="matrix" values="0 0 0 0 0 0 0 0 0 0 0 0 0 0 0 0 0 0 127 0" result="hardAlpha"/>
<feOffset dx="0.546906" dy="0.546906"/>
<feGaussianBlur stdDeviation="0.273453"/>
<feComposite in2="hardAlpha" operator="arithmetic" k2="-1" k3="1"/>
<feColorMatrix type="matrix" values="0 0 0 0 1 0 0 0 0 1 0 0 0 0 1 0 0 0 0.2 0"/>
<feBlend mode="normal" in2="shape" result="effect1_innerShadow_530_873"/>
<feColorMatrix in="SourceAlpha" type="matrix" values="0 0 0 0 0 0 0 0 0 0 0 0 0 0 0 0 0 0 127 0" result="hardAlpha"/>
<feOffset dx="-0.546906" dy="-0.546906"/>
<feGaussianBlur stdDeviation="0.273453"/>
<feComposite in2="hardAlpha" operator="arithmetic" k2="-1" k3="1"/>
<feColorMatrix type="matrix" values="0 0 0 0 0 0 0 0 0 0 0 0 0 0 0 0 0 0 0.05 0"/>
<feBlend mode="normal" in2="effect1_innerShadow_530_873" result="effect2_innerShadow_530_873"/>
</filter>
<filter id="filter3_dd_530_873" x="164.014" y="291.627" width="64.6589" height="59.2871" filterUnits="userSpaceOnUse" color-interpolation-filters="sRGB">
<feFlood flood-opacity="0" result="BackgroundImageFix"/>
<feColorMatrix in="SourceAlpha" type="matrix" values="0 0 0 0 0 0 0 0 0 0 0 0 0 0 0 0 0 0 127 0" result="hardAlpha"/>
<feOffset dy="1.36726"/>
<feGaussianBlur stdDeviation="1.09381"/>
<feColorMatrix type="matrix" values="0 0 0 0 0 0 0 0 0 0 0 0 0 0 0 0 0 0 0.2 0"/>
<feBlend mode="normal" in2="BackgroundImageFix" result="effect1_dropShadow_530_873"/>
<feColorMatrix in="SourceAlpha" type="matrix" values="0 0 0 0 0 0 0 0 0 0 0 0 0 0 0 0 0 0 127 0" result="hardAlpha"/>
<feOffset dy="4.6487"/>
<feGaussianBlur stdDeviation="3.00798"/>
<feColorMatrix type="matrix" values="0 0 0 0 0 0 0 0 0 0 0 0 0 0 0 0 0 0 0.2 0"/>
<feBlend mode="normal" in2="effect1_dropShadow_530_873" result="effect2_dropShadow_530_873"/>
<feBlend mode="normal" in="SourceGraphic" in2="effect2_dropShadow_530_873" result="shape"/>
</filter>
<filter id="filter4_iii_530_873" x="165.928" y="285.337" width="58.096" height="54.9119" filterUnits="userSpaceOnUse" color-interpolation-filters="sRGB">
<feFlood flood-opacity="0" result="BackgroundImageFix"/>
<feBlend mode="normal" in="SourceGraphic" in2="BackgroundImageFix" result="shape"/>
<feColorMatrix in="SourceAlpha" type="matrix" values="0 0 0 0 0 0 0 0 0 0 0 0 0 0 0 0 0 0 127 0" result="hardAlpha"/>
<feOffset dx="-4.1018" dy="-7.65669"/>
<feGaussianBlur stdDeviation="6.15269"/>
<feComposite in2="hardAlpha" operator="arithmetic" k2="-1" k3="1"/>
<feColorMatrix type="matrix" values="0 0 0 0 0.058087 0 0 0 0 0.191667 0 0 0 0 0.0399306 0 0 0 0.25 0"/>
<feBlend mode="normal" in2="shape" result="effect1_innerShadow_530_873"/>
<feColorMatrix in="SourceAlpha" type="matrix" values="0 0 0 0 0 0 0 0 0 0 0 0 0 0 0 0 0 0 127 0" result="hardAlpha"/>
<feOffset dx="1.91417" dy="-1.91417"/>
<feGaussianBlur stdDeviation="0.683632"/>
<feComposite in2="hardAlpha" operator="arithmetic" k2="-1" k3="1"/>
<feColorMatrix type="matrix" values="0 0 0 0 1 0 0 0 0 1 0 0 0 0 1 0 0 0 0.45 0"/>
<feBlend mode="normal" in2="effect1_innerShadow_530_873" result="effect2_innerShadow_530_873"/>
<feColorMatrix in="SourceAlpha" type="matrix" values="0 0 0 0 0 0 0 0 0 0 0 0 0 0 0 0 0 0 127 0" result="hardAlpha"/>
<feOffset dx="-1.36726" dy="-4.92215"/>
<feGaussianBlur stdDeviation="3.41816"/>
<feComposite in2="hardAlpha" operator="arithmetic" k2="-1" k3="1"/>
<feColorMatrix type="matrix" values="0 0 0 0 0.81 0 0 0 0 1 0 0 0 0 0.8 0 0 0 1 0"/>
<feBlend mode="normal" in2="effect2_innerShadow_530_873" result="effect3_innerShadow_530_873"/>
</filter>
<filter id="filter5_f_530_873" x="178.502" y="331.768" width="7.39078" height="9.4249" filterUnits="userSpaceOnUse" color-interpolation-filters="sRGB">
<feFlood flood-opacity="0" result="BackgroundImageFix"/>
<feBlend mode="normal" in="SourceGraphic" in2="BackgroundImageFix" result="shape"/>
<feGaussianBlur stdDeviation="0.683632" result="effect1_foregroundBlur_530_873"/>
</filter>
<filter id="filter6_f_530_873" x="180.353" y="332.901" width="7.20914" height="7.14237" filterUnits="userSpaceOnUse" color-interpolation-filters="sRGB">
<feFlood flood-opacity="0" result="BackgroundImageFix"/>
<feBlend mode="normal" in="SourceGraphic" in2="BackgroundImageFix" result="shape"/>
<feGaussianBlur stdDeviation="0.683632" result="effect1_foregroundBlur_530_873"/>
</filter>
<filter id="filter7_ii_530_873" x="240.68" y="281.895" width="69.4822" height="69.4822" filterUnits="userSpaceOnUse" color-interpolation-filters="sRGB">
<feFlood flood-opacity="0" result="BackgroundImageFix"/>
<feBlend mode="normal" in="SourceGraphic" in2="BackgroundImageFix" result="shape"/>
<feColorMatrix in="SourceAlpha" type="matrix" values="0 0 0 0 0 0 0 0 0 0 0 0 0 0 0 0 0 0 127 0" result="hardAlpha"/>
<feOffset dx="0.546906" dy="0.546906"/>
<feGaussianBlur stdDeviation="0.273453"/>
<feComposite in2="hardAlpha" operator="arithmetic" k2="-1" k3="1"/>
<feColorMatrix type="matrix" values="0 0 0 0 1 0 0 0 0 1 0 0 0 0 1 0 0 0 0.2 0"/>
<feBlend mode="normal" in2="shape" result="effect1_innerShadow_530_873"/>
<feColorMatrix in="SourceAlpha" type="matrix" values="0 0 0 0 0 0 0 0 0 0 0 0 0 0 0 0 0 0 127 0" result="hardAlpha"/>
<feOffset dx="-0.546906" dy="-0.546906"/>
<feGaussianBlur stdDeviation="0.273453"/>
<feComposite in2="hardAlpha" operator="arithmetic" k2="-1" k3="1"/>
<feColorMatrix type="matrix" values="0 0 0 0 0 0 0 0 0 0 0 0 0 0 0 0 0 0 0.05 0"/>
<feBlend mode="normal" in2="effect1_innerShadow_530_873" result="effect2_innerShadow_530_873"/>
</filter>
<filter id="filter8_dd_530_873" x="244.83" y="298.44" width="61.3776" height="45.6918" filterUnits="userSpaceOnUse" color-interpolation-filters="sRGB">
<feFlood flood-opacity="0" result="BackgroundImageFix"/>
<feColorMatrix in="SourceAlpha" type="matrix" values="0 0 0 0 0 0 0 0 0 0 0 0 0 0 0 0 0 0 127 0" result="hardAlpha"/>
<feOffset dy="1.36726"/>
<feGaussianBlur stdDeviation="1.09381"/>
<feColorMatrix type="matrix" values="0 0 0 0 0 0 0 0 0 0 0 0 0 0 0 0 0 0 0.2 0"/>
<feBlend mode="normal" in2="BackgroundImageFix" result="effect1_dropShadow_530_873"/>
<feColorMatrix in="SourceAlpha" type="matrix" values="0 0 0 0 0 0 0 0 0 0 0 0 0 0 0 0 0 0 127 0" result="hardAlpha"/>
<feOffset dy="4.6487"/>
<feGaussianBlur stdDeviation="3.00798"/>
<feColorMatrix type="matrix" values="0 0 0 0 0 0 0 0 0 0 0 0 0 0 0 0 0 0 0.2 0"/>
<feBlend mode="normal" in2="effect1_dropShadow_530_873" result="effect2_dropShadow_530_873"/>
<feBlend mode="normal" in="SourceGraphic" in2="effect2_dropShadow_530_873" result="shape"/>
</filter>
<filter id="filter9_iiii_530_873" x="250.846" y="292.151" width="49.3457" height="41.3166" filterUnits="userSpaceOnUse" color-interpolation-filters="sRGB">
<feFlood flood-opacity="0" result="BackgroundImageFix"/>
<feBlend mode="normal" in="SourceGraphic" in2="BackgroundImageFix" result="shape"/>
<feColorMatrix in="SourceAlpha" type="matrix" values="0 0 0 0 0 0 0 0 0 0 0 0 0 0 0 0 0 0 127 0" result="hardAlpha"/>
<feOffset dy="-7.65669"/>
<feGaussianBlur stdDeviation="6.83633"/>
<feComposite in2="hardAlpha" operator="arithmetic" k2="-1" k3="1"/>
<feColorMatrix type="matrix" values="0 0 0 0 0 0 0 0 0 0 0 0 0 0 0 0 0 0 0.2 0"/>
<feBlend mode="normal" in2="shape" result="effect1_innerShadow_530_873"/>
<feColorMatrix in="SourceAlpha" type="matrix" values="0 0 0 0 0 0 0 0 0 0 0 0 0 0 0 0 0 0 127 0" result="hardAlpha"/>
<feOffset dy="-2.0509"/>
<feGaussianBlur stdDeviation="0.683632"/>
<feComposite in2="hardAlpha" operator="arithmetic" k2="-1" k3="1"/>
<feColorMatrix type="matrix" values="0 0 0 0 1 0 0 0 0 1 0 0 0 0 1 0 0 0 0.45 0"/>
<feBlend mode="normal" in2="effect1_innerShadow_530_873" result="effect2_innerShadow_530_873"/>
<feColorMatrix in="SourceAlpha" type="matrix" values="0 0 0 0 0 0 0 0 0 0 0 0 0 0 0 0 0 0 127 0" result="hardAlpha"/>
<feOffset dy="-3.41816"/>
<feGaussianBlur stdDeviation="2.73453"/>
<feComposite in2="hardAlpha" operator="arithmetic" k2="-1" k3="1"/>
<feColorMatrix type="matrix" values="0 0 0 0 0.476471 0 0 0 0 0.9 0 0 0 0 0.45 0 0 0 1 0"/>
<feBlend mode="normal" in2="effect2_innerShadow_530_873" result="effect3_innerShadow_530_873"/>
<feColorMatrix in="SourceAlpha" type="matrix" values="0 0 0 0 0 0 0 0 0 0 0 0 0 0 0 0 0 0 127 0" result="hardAlpha"/>
<feOffset dy="-1.36726"/>
<feGaussianBlur stdDeviation="1.36726"/>
<feComposite in2="hardAlpha" operator="arithmetic" k2="-1" k3="1"/>
<feColorMatrix type="matrix" values="0 0 0 0 1 0 0 0 0 1 0 0 0 0 1 0 0 0 0.3 0"/>
<feBlend mode="normal" in2="effect3_innerShadow_530_873" result="effect4_innerShadow_530_873"/>
</filter>
<filter id="filter10_ii_530_873" x="319.754" y="281.895" width="69.4822" height="69.4822" filterUnits="userSpaceOnUse" color-interpolation-filters="sRGB">
<feFlood flood-opacity="0" result="BackgroundImageFix"/>
<feBlend mode="normal" in="SourceGraphic" in2="BackgroundImageFix" result="shape"/>
<feColorMatrix in="SourceAlpha" type="matrix" values="0 0 0 0 0 0 0 0 0 0 0 0 0 0 0 0 0 0 127 0" result="hardAlpha"/>
<feOffset dx="0.546906" dy="0.546906"/>
<feGaussianBlur stdDeviation="0.273453"/>
<feComposite in2="hardAlpha" operator="arithmetic" k2="-1" k3="1"/>
<feColorMatrix type="matrix" values="0 0 0 0 1 0 0 0 0 1 0 0 0 0 1 0 0 0 0.2 0"/>
<feBlend mode="normal" in2="shape" result="effect1_innerShadow_530_873"/>
<feColorMatrix in="SourceAlpha" type="matrix" values="0 0 0 0 0 0 0 0 0 0 0 0 0 0 0 0 0 0 127 0" result="hardAlpha"/>
<feOffset dx="-0.546906" dy="-0.546906"/>
<feGaussianBlur stdDeviation="0.273453"/>
<feComposite in2="hardAlpha" operator="arithmetic" k2="-1" k3="1"/>
<feColorMatrix type="matrix" values="0 0 0 0 0 0 0 0 0 0 0 0 0 0 0 0 0 0 0.05 0"/>
<feBlend mode="normal" in2="effect1_innerShadow_530_873" result="effect2_innerShadow_530_873"/>
</filter>
<filter id="filter11_ddi_530_873" x="324.828" y="292.663" width="61.4516" height="55.6875" filterUnits="userSpaceOnUse" color-interpolation-filters="sRGB">
<feFlood flood-opacity="0" result="BackgroundImageFix"/>
<feColorMatrix in="SourceAlpha" type="matrix" values="0 0 0 0 0 0 0 0 0 0 0 0 0 0 0 0 0 0 127 0" result="hardAlpha"/>
<feOffset dy="1.36726"/>
<feGaussianBlur stdDeviation="1.09381"/>
<feColorMatrix type="matrix" values="0 0 0 0 0 0 0 0 0 0 0 0 0 0 0 0 0 0 0.4 0"/>
<feBlend mode="normal" in2="BackgroundImageFix" result="effect1_dropShadow_530_873"/>
<feColorMatrix in="SourceAlpha" type="matrix" values="0 0 0 0 0 0 0 0 0 0 0 0 0 0 0 0 0 0 127 0" result="hardAlpha"/>
<feOffset dy="4.6487"/>
<feGaussianBlur stdDeviation="3.00798"/>
<feColorMatrix type="matrix" values="0 0 0 0 0 0 0 0 0 0 0 0 0 0 0 0 0 0 0.2 0"/>
<feBlend mode="normal" in2="effect1_dropShadow_530_873" result="effect2_dropShadow_530_873"/>
<feBlend mode="normal" in="SourceGraphic" in2="effect2_dropShadow_530_873" result="shape"/>
<feColorMatrix in="SourceAlpha" type="matrix" values="0 0 0 0 0 0 0 0 0 0 0 0 0 0 0 0 0 0 127 0" result="hardAlpha"/>
<feOffset dy="-0.820359"/>
<feGaussianBlur stdDeviation="0.683632"/>
<feComposite in2="hardAlpha" operator="arithmetic" k2="-1" k3="1"/>
<feColorMatrix type="matrix" values="0 0 0 0 0.3 0 0 0 0 0.604785 0 0 0 0 1 0 0 0 0.3 0"/>
<feBlend mode="normal" in2="shape" result="effect3_innerShadow_530_873"/>
</filter>
<filter id="filter12_i_530_873" x="356.999" y="303.529" width="23.2646" height="34.1569" filterUnits="userSpaceOnUse" color-interpolation-filters="sRGB">
<feFlood flood-opacity="0" result="BackgroundImageFix"/>
<feBlend mode="normal" in="SourceGraphic" in2="BackgroundImageFix" result="shape"/>
<feColorMatrix in="SourceAlpha" type="matrix" values="0 0 0 0 0 0 0 0 0 0 0 0 0 0 0 0 0 0 127 0" result="hardAlpha"/>
<feOffset dy="-2.18762"/>
<feGaussianBlur stdDeviation="1.36726"/>
<feComposite in2="hardAlpha" operator="arithmetic" k2="-1" k3="1"/>
<feColorMatrix type="matrix" values="0 0 0 0 0 0 0 0 0 0 0 0 0 0 0 0 0 0 0.25 0"/>
<feBlend mode="normal" in2="shape" result="effect1_innerShadow_530_873"/>
</filter>
<filter id="filter13_i_530_873" x="339.91" y="291.843" width="22.8818" height="35.5942" filterUnits="userSpaceOnUse" color-interpolation-filters="sRGB">
<feFlood flood-opacity="0" result="BackgroundImageFix"/>
<feBlend mode="normal" in="SourceGraphic" in2="BackgroundImageFix" result="shape"/>
<feColorMatrix in="SourceAlpha" type="matrix" values="0 0 0 0 0 0 0 0 0 0 0 0 0 0 0 0 0 0 127 0" result="hardAlpha"/>
<feOffset dy="-2.18762"/>
<feGaussianBlur stdDeviation="1.36726"/>
<feComposite in2="hardAlpha" operator="arithmetic" k2="-1" k3="1"/>
<feColorMatrix type="matrix" values="0 0 0 0 0 0 0 0 0 0 0 0 0 0 0 0 0 0 0.25 0"/>
<feBlend mode="normal" in2="shape" result="effect1_innerShadow_530_873"/>
</filter>
<filter id="filter14_i_530_873" x="330.844" y="318.169" width="32.2407" height="9.37616" filterUnits="userSpaceOnUse" color-interpolation-filters="sRGB">
<feFlood flood-opacity="0" result="BackgroundImageFix"/>
<feBlend mode="normal" in="SourceGraphic" in2="BackgroundImageFix" result="shape"/>
<feColorMatrix in="SourceAlpha" type="matrix" values="0 0 0 0 0 0 0 0 0 0 0 0 0 0 0 0 0 0 127 0" result="hardAlpha"/>
<feOffset dy="-2.18762"/>
<feGaussianBlur stdDeviation="1.36726"/>
<feComposite in2="hardAlpha" operator="arithmetic" k2="-1" k3="1"/>
<feColorMatrix type="matrix" values="0 0 0 0 0 0 0 0 0 0 0 0 0 0 0 0 0 0 0.25 0"/>
<feBlend mode="normal" in2="shape" result="effect1_innerShadow_530_873"/>
</filter>
<filter id="filter15_i_530_873" x="333.964" y="325.997" width="9.90918" height="11.6831" filterUnits="userSpaceOnUse" color-interpolation-filters="sRGB">
<feFlood flood-opacity="0" result="BackgroundImageFix"/>
<feBlend mode="normal" in="SourceGraphic" in2="BackgroundImageFix" result="shape"/>
<feColorMatrix in="SourceAlpha" type="matrix" values="0 0 0 0 0 0 0 0 0 0 0 0 0 0 0 0 0 0 127 0" result="hardAlpha"/>
<feOffset dy="-2.18762"/>
<feGaussianBlur stdDeviation="1.36726"/>
<feComposite in2="hardAlpha" operator="arithmetic" k2="-1" k3="1"/>
<feColorMatrix type="matrix" values="0 0 0 0 0 0 0 0 0 0 0 0 0 0 0 0 0 0 0.25 0"/>
<feBlend mode="normal" in2="shape" result="effect1_innerShadow_530_873"/>
</filter>
<radialGradient id="paint0_radial_530_873" cx="0" cy="0" r="1" gradientUnits="userSpaceOnUse" gradientTransform="translate(450.299 227) rotate(90) scale(228 657.699)">
<stop stop-color="#7895B2"/>
<stop offset="1" stop-color="#607992"/>
</radialGradient>
<linearGradient id="paint1_linear_530_873" x1="196.347" y1="282.442" x2="196.347" y2="350.83" gradientUnits="userSpaceOnUse">
<stop stop-color="#83F180"/>
<stop offset="1" stop-color="#5BC34E"/>
</linearGradient>
<linearGradient id="paint2_linear_530_873" x1="196.347" y1="282.442" x2="196.347" y2="350.83" gradientUnits="userSpaceOnUse">
<stop offset="0.151042" stop-color="white"/>
<stop offset="1" stop-opacity="0.1"/>
</linearGradient>
<linearGradient id="paint3_linear_530_873" x1="184.993" y1="334.268" x2="182.188" y2="338.676" gradientUnits="userSpaceOnUse">
<stop/>
<stop offset="1"/>
</linearGradient>
<linearGradient id="paint4_linear_530_873" x1="275.421" y1="282.442" x2="275.421" y2="350.83" gradientUnits="userSpaceOnUse">
<stop stop-color="#83F180"/>
<stop offset="1" stop-color="#5BC34E"/>
</linearGradient>
<linearGradient id="paint5_linear_530_873" x1="275.421" y1="282.442" x2="275.421" y2="350.83" gradientUnits="userSpaceOnUse">
<stop offset="0.151042" stop-color="white"/>
<stop offset="1" stop-opacity="0.1"/>
</linearGradient>
<linearGradient id="paint6_linear_530_873" x1="275.557" y1="287.719" x2="275.557" y2="325.987" gradientUnits="userSpaceOnUse">
<stop offset="0.00520833" stop-color="white" stop-opacity="0.08"/>
<stop offset="0.0851933" stop-opacity="0.08"/>
<stop offset="0.336988" stop-color="white" stop-opacity="0.1"/>
<stop offset="0.660917" stop-color="white" stop-opacity="0.1"/>
<stop offset="1" stop-opacity="0.1"/>
</linearGradient>
<linearGradient id="paint7_linear_530_873" x1="354.495" y1="282.442" x2="354.495" y2="350.83" gradientUnits="userSpaceOnUse">
<stop stop-color="#1BB3F3"/>
<stop offset="1" stop-color="#186CE6"/>
</linearGradient>
<linearGradient id="paint8_linear_530_873" x1="354.495" y1="282.442" x2="354.495" y2="350.83" gradientUnits="userSpaceOnUse">
<stop offset="0.328125" stop-color="white"/>
<stop offset="1" stop-opacity="0.1"/>
</linearGradient>
<clipPath id="clip0_530_873">
<rect width="55.2308" height="35.9" fill="white" transform="translate(89.1951 299.064)"/>
</clipPath>
</defs>
</svg>
