<?xml version="1.0" encoding="utf-8"?>
<!-- Generator: Adobe Illustrator 16.0.0, SVG Export Plug-In . SVG Version: 6.00 Build 0)  -->
<!DOCTYPE svg PUBLIC "-//W3C//DTD SVG 1.1//EN" "http://www.w3.org/Graphics/SVG/1.1/DTD/svg11.dtd">
<svg version="1.1" id="Capa_1" xmlns="http://www.w3.org/2000/svg" xmlns:xlink="http://www.w3.org/1999/xlink" x="0px" y="0px"
	 width="841.889px" height="595.281px" viewBox="0 0 841.889 595.281" enable-background="new 0 0 841.889 595.281"
	 xml:space="preserve">
<g>
	<g>
		<g>
			<path fill="#E03E7B" d="M387.208,194.255c1.089,2.177,2.177,4.353,3.266,5.986c1.088,1.632,2.72,3.265,3.809,4.897
				c1.632,1.632,3.265,3.265,5.441,4.897c1.632,1.088,3.809,2.72,6.529,3.265c2.177,1.088,4.354,1.632,7.074,2.176
				c2.72,0.544,4.896,0.544,7.073,0.544s4.896,0,7.073-0.544c2.177-0.544,4.354-1.088,5.985-2.176h0.545
				c2.176-1.088,4.353-2.177,6.529-3.809c1.632-1.088,3.265-2.721,4.897-4.353l0.544-0.544c1.632-1.633,2.721-3.265,3.809-4.897
				s2.177-3.265,2.721-5.441c0-0.544,0-0.544,0.544-1.088c1.089-2.177,1.633-4.897,2.177-7.074c0.544-2.177,0.544-4.897,0.544-7.074
				c0-2.177,0-4.897-0.544-7.074c-0.544-2.177-1.088-4.353-2.177-7.074c-1.632-3.809-3.809-7.074-6.529-9.794
				c-0.544-0.544-0.544-0.544-1.088-1.088c-1.633-1.632-3.266-2.721-5.441-4.353c-2.177-1.088-3.81-2.176-5.985-3.265
				c-2.177-1.088-4.354-1.632-6.53-2.177c-2.721-0.544-4.896-0.544-7.073-0.544s-4.897,0-7.073,0.544
				c-2.177,0.544-4.354,1.088-6.53,2.177h-0.544c-2.177,1.088-4.353,2.176-5.985,3.265c-2.177,1.632-3.809,2.721-5.441,4.353
				s-3.265,3.265-4.353,4.897c-1.089,1.632-2.177,3.809-3.266,5.985c-1.088,2.176-1.632,4.353-2.176,6.529
				c-0.545,2.721-0.545,4.897-0.545,7.074c0,2.177,0,4.897,0.545,7.074C385.576,189.902,386.664,192.079,387.208,194.255z"/>
			<path fill="#E03E7B" d="M462.843,393.408h-12.516V260.095c0-7.618-5.985-14.147-14.147-14.147h-57.133
				c-7.618,0-14.147,5.985-14.147,14.147v29.383c0,7.618,5.985,14.148,14.147,14.148h11.427v90.324h-11.427
				c-7.618,0-14.147,5.986-14.147,14.148v29.383c0,7.617,5.985,14.148,14.147,14.148h83.796c7.617,0,14.147-5.986,14.147-14.148
				v-29.383C476.99,399.937,470.46,393.408,462.843,393.408z"/>
			<path fill="#E03E7B" d="M420.945,0c-164.327,0-297.64,133.313-297.64,297.64c0,164.328,133.313,297.641,297.64,297.641
				c164.328,0,297.64-133.313,297.64-297.641C718.584,133.313,585.273,0,420.945,0z M420.945,556.103
				c-142.563,0-258.463-115.9-258.463-258.463s115.9-258.462,258.463-258.462s258.463,115.9,258.463,258.462
				S563.507,556.103,420.945,556.103z"/>
		</g>
	</g>
</g>
</svg>
