<?xml version="1.0" encoding="utf-8"?>
<!-- Generator: Adobe Illustrator 16.0.0, SVG Export Plug-In . SVG Version: 6.00 Build 0)  -->
<!DOCTYPE svg PUBLIC "-//W3C//DTD SVG 1.1//EN" "http://www.w3.org/Graphics/SVG/1.1/DTD/svg11.dtd">
<svg version="1.1" id="Capa_1" xmlns="http://www.w3.org/2000/svg" xmlns:xlink="http://www.w3.org/1999/xlink" x="0px" y="0px"
	 width="64.668px" height="64.668px" viewBox="0 0 64.668 64.668" enable-background="new 0 0 64.668 64.668" xml:space="preserve">
<g>
	<path fill="#1D2088" d="M47.493,30.297c0-0.385-0.138-0.668-0.411-0.847c-0.27-0.18-0.844-0.367-1.725-0.563
		c-1.614-0.359-2.695-0.751-3.244-1.172c-0.543-0.417-0.815-1.067-0.815-1.95c0-0.99,0.36-1.776,1.072-2.357
		c0.721-0.581,1.692-0.871,2.909-0.871c1.14,0,2.076,0.301,2.781,0.901c0.729,0.603,1.119,1.413,1.197,2.436H47.18
		c-0.039-0.486-0.244-0.872-0.632-1.153c-0.394-0.287-0.896-0.43-1.51-0.43c-0.548,0-0.968,0.119-1.272,0.359
		c-0.307,0.236-0.457,0.57-0.457,0.994c0,0.307,0.155,0.543,0.479,0.708c0.313,0.167,0.979,0.364,1.998,0.591
		c1.487,0.334,2.479,0.717,2.976,1.154c0.506,0.43,0.744,1.121,0.744,2.077c0,0.957-0.374,1.717-1.124,2.279
		c-0.753,0.563-1.776,0.844-3.063,0.844c-1.293,0-2.297-0.297-3.028-0.896c-0.728-0.595-1.115-1.445-1.163-2.545h2.053
		c0.027,0.542,0.225,0.958,0.59,1.25c0.369,0.292,0.885,0.439,1.551,0.439c0.68,0,1.216-0.109,1.595-0.332
		C47.302,30.988,47.493,30.685,47.493,30.297z M31.244,33.018h1.019l1.596-8.032l1.644,8.032h1.021h1.017l2.838-10.205h-1.081
		h-1.074l-1.699,7.404H36.52l-1.471-7.404h-1.141H32.78l-1.46,7.468l-1.703-7.468h-1.112h-1.112l2.846,10.205H31.244z
		 M26.513,32.107v-0.901H20.9v-2.661h4.995v-0.878v-0.876H20.9v-2.165h5.382v-0.909v-0.902H18.77v10.203h7.743V32.107L26.513,32.107
		z M8.396,22.815v10.203h1.003h0.994v-7.354l4.21,7.354h1.06h1.059V22.815h-1h-0.993v7.162l-4.097-7.162H9.513H8.396z M63.618,0
		v41.589h-6.812v6.631H42.355l-9.816,9.817v-0.171l-6.812,6.802V48.22H1.05V6.633h6.812V0H63.618z M54.068,9.373H10.607H9.23H7.862
		H3.8v36.104h24.673v12.568l4.062-4.063l1.369-1.367l1.375-1.369l5.768-5.77h0.174h1.93h1.943h8.975v-3.892v-1.371v-1.373V9.373
		L54.068,9.373z M60.869,2.742H10.604v3.892h46.201v32.211h4.061L60.869,2.742L60.869,2.742z"/>
</g>
</svg>
