<?xml version="1.0" encoding="utf-8"?>
<!-- Generator: Adobe Illustrator 16.0.0, SVG Export Plug-In . SVG Version: 6.00 Build 0)  -->
<!DOCTYPE svg PUBLIC "-//W3C//DTD SVG 1.1//EN" "http://www.w3.org/Graphics/SVG/1.1/DTD/svg11.dtd">
<svg version="1.1" id="Capa_1" xmlns="http://www.w3.org/2000/svg" xmlns:xlink="http://www.w3.org/1999/xlink" x="0px" y="0px"
	 width="841.889px" height="595.281px" viewBox="0 0 841.889 595.281" enable-background="new 0 0 841.889 595.281"
	 xml:space="preserve">
<g>
	<g>
		<path fill="#EA5413" d="M607.437,166.233c-6.366-37.825-25.095-72.344-53.738-98.54c-31.827-29.134-73.201-45.169-116.29-45.169
			c-33.295,0-65.733,9.548-93.521,27.542C320.752,65,301.533,85.197,287.947,108.945c-5.876-1.102-11.996-1.713-18.117-1.713
			c-52.024,0-94.378,42.354-94.378,94.378c0,6.732,0.734,13.22,1.959,19.585c-33.663,24.482-54.105,63.898-54.105,105.885
			c0,33.908,12.608,66.836,35.621,92.91c23.625,26.686,54.84,42.477,88.136,44.313c0.367,0,0.611,0,0.979,0h105.272
			c9.182,0,16.525-7.346,16.525-16.525c0-9.182-7.344-16.525-16.525-16.525H248.531c-50.066-3.061-92.175-50.678-92.175-104.295
			c0-34.641,18.606-66.958,48.597-84.462c6.978-4.039,9.915-12.485,7.222-20.075c-2.448-6.61-3.672-13.587-3.672-21.054
			c0-33.785,27.542-61.328,61.327-61.328c7.223,0,14.322,1.224,20.933,3.672c8.079,2.938,17.015-0.734,20.688-8.446
			c22.891-48.597,72.344-79.934,126.082-79.934c72.222,0,131.835,54.105,138.69,125.838c0.734,7.467,6.365,13.465,13.71,14.689
			c54.473,9.303,95.603,59.614,95.603,117.024c0,60.838-47.862,113.719-106.864,118.248h-90.217
			c-9.181,0-16.525,7.344-16.525,16.525s7.345,16.525,16.525,16.525h90.829c0.367,0,0.734,0,1.224,0
			c37.335-2.693,72.222-19.83,98.173-48.475c25.829-28.398,39.906-64.877,39.906-102.824
			C718.462,244.208,671.579,183.125,607.437,166.233z"/>
		<path fill="#EA5413" d="M520.158,342.748c6.487-6.486,6.487-16.893,0-23.379l-87.523-87.524c-3.061-3.06-7.345-4.896-11.629-4.896
			s-8.568,1.714-11.629,4.896l-87.523,87.524c-6.487,6.486-6.487,16.893,0,23.379c3.183,3.184,7.467,4.896,11.629,4.896
			s8.446-1.59,11.629-4.896l59.369-59.368v272.853c0,9.18,7.345,16.525,16.525,16.525s16.525-7.346,16.525-16.525V283.379
			l59.368,59.368C503.266,349.236,513.67,349.236,520.158,342.748z"/>
	</g>
</g>
</svg>
