<?xml version="1.0" encoding="utf-8"?>
<!-- Generator: Adobe Illustrator 16.0.0, SVG Export Plug-In . SVG Version: 6.00 Build 0)  -->
<!DOCTYPE svg PUBLIC "-//W3C//DTD SVG 1.1//EN" "http://www.w3.org/Graphics/SVG/1.1/DTD/svg11.dtd" [
	<!ENTITY st0 "opacity:0.5;fill:#1EAC8D;">
	<!ENTITY st1 "fill:#1EAC8D;">
]>
<svg version="1.1" id="圖層_1" xmlns="http://www.w3.org/2000/svg" xmlns:xlink="http://www.w3.org/1999/xlink" x="0px" y="0px"
	 width="841.89px" height="595.28px" viewBox="0 0 841.89 595.28" style="enable-background:new 0 0 841.89 595.28;"
	 xml:space="preserve">
<g>
	<g>
		<polygon style="&st1;" points="412.86,338.682 409.094,237.936 468.099,200.807 470.744,270.466 437.973,291.094 439.143,322.142 
			498.224,284.962 493.796,168.742 480.133,161.534 394.769,215.17 333.112,182.641 392.104,145.511 426.37,163.588 
			452.653,147.037 390.92,114.469 292.484,176.419 293.076,191.851 382.219,238.966 384.871,308.619 323.214,276.096 
			321.739,237.389 294.259,222.893 296.924,292.641 399.794,346.912 		"/>
		<polygon style="&st1;" points="399.959,250.499 403.395,342.37 410.9,337.651 407.465,245.772 		"/>
		<polygon style="&st1;" points="439.932,292.132 440.263,301.005 465.528,285.096 465.197,276.229 		"/>
		<polygon style="&st1;" points="383.834,130.283 433.8,156.642 448.813,147.184 391.01,116.683 294.45,177.456 294.787,186.329 		
			"/>
	</g>
	<path style="&st0;" d="M521.301,378.373c-6.387,0-12.874,0.051-19.337,0.179c46.741,0.434,97.261,3.002,95.669,12.862
		c-1.934,11.87-142.6,31.868-259.069,32.224v4.428c87.807-0.84,243.091-13.485,281.905-33.104
		C634.145,383.742,581.323,378.373,521.301,378.373"/>
	<path style="&st1;" d="M255.737,277.756c-25.692,20.507-59.577,74.475-24.077,105.871
		c118.098,81.535,352.029-61.319,354.561-137.491c1.642-49.47-35.863-62.446-83.634-64.627
		c68.851-6.348,126.762,21.385,106.979,82.495c-34.477,106.47-215.968,169.813-302.039,166.365
		C132.366,423.334,219.512,303.193,255.737,277.756L255.737,277.756z"/>
	<path style="&st1;" d="M550.74,291.985c24.273-51.136-1.463-72.783-38.09-81.637l4.644-17.912
		C614.859,211.138,559.85,293.206,550.74,291.985L550.74,291.985z"/>
	<path style="&st1;" d="M279.47,265.345l3.079,19.127c-22.353,20.763-35.87,44.081-32.995,68
		c6.501,30.456,47.383,43.229,85.04,45.417C286.238,406.133,159.305,367.916,279.47,265.345L279.47,265.345z"/>
</g>
</svg>
