<?xml version="1.0" encoding="utf-8"?>
<!-- Generator: Adobe Illustrator 22.0.1, SVG Export Plug-In . SVG Version: 6.00 Build 0)  -->
<svg version="1.1" id="圖層_1" xmlns="http://www.w3.org/2000/svg" xmlns:xlink="http://www.w3.org/1999/xlink" x="0px" y="0px"
	 viewBox="0 0 428.5 363.3" style="enable-background:new 0 0 428.5 363.3;" xml:space="preserve">
<style type="text/css">
	.st0{fill:#CD5248;}
	.st1{fill:#DBD8DD;}
	.st2{fill:#DD584D;}
	.st3{fill:#FEDA6F;}
	.st4{fill:#EDEDED;}
</style>
<title>ad</title>
<path class="st0" d="M41.3,268.5l33.2,84.6c3.4,8.2,12.7,12.2,21,8.8c8.1-3.3,12.1-12.4,9-20.6l-33.2-84.6L41.3,268.5z"/>
<path class="st1" d="M15.6,232.8l-12.9,5.1c-2.2,0.8-3.3,3.3-2.4,5.4c0,0,0,0,0,0l12.5,31.8c0.8,2.2,3.3,3.2,5.4,2.4c0,0,0,0,0.1,0
	l13-5.1c2.2-0.8,3.2-3.3,2.4-5.4c0,0,0,0,0,0l-12.6-31.8C20.2,233,17.8,232,15.6,232.8z"/>
<path class="st1" d="M90.9,257.4v0.1l-19.3,4.9l-28.5,7.9l-10.6,10.2c-4.3,1.7-9.2-0.5-10.8-4.8c0,0,0,0,0,0L6.5,237
	c-1.7-4.3,0.3-9.1,4.6-10.9c0,0,0.1,0,0.1,0l58.4-22.9C150.7,153.5,184,60.5,184,60.5L271.8,284C271.8,284,184.1,238.6,90.9,257.4z"
	/>
<path class="st2" d="M11.3,226.1c-4.3,1.7-6.4,6.6-4.7,10.9c0,0,0,0,0,0l15.1,38.7c1.7,4.3,6.5,6.5,10.9,4.8c0,0,0,0,0,0L91,257.5
	l-21.3-54.3L11.3,226.1z"/>
<g>
	<path class="st3" d="M384.8,54.1c-1.6-3-4.2-5.3-7.4-6.7c-2.1-0.8-5.5-1.2-10.1-1.2H355v45h12.6c3.1,0.1,6.2-0.3,9.2-1.1
		c2-0.6,3.8-1.6,5.3-3.1c2-2.1,3.5-4.7,4.3-7.4c1.1-3.7,1.6-7.5,1.5-11.4C387.8,62.1,386.8,57.4,384.8,54.1z"/>
	<path class="st3" d="M340.8,0c-48.4,0-87.7,33.7-87.7,75.3c0,30,20.5,55.9,50.2,67.9c-3.9,10.8-11.3,22.4-25.8,29.1
		c0,0,34,0.6,56-22.1c2.4,0.2,4.8,0.3,7.3,0.3c48.4,0,87.7-33.7,87.7-75.3S389.3,0,340.8,0z M332,98.2l-6.9-17.9h-24.6L294,98.2
		h-8.3l22.6-59h8.4l24.1,59H332z M394.3,80.3c-0.8,3.1-2.2,6-4,8.6c-1.5,2.1-3.3,3.9-5.4,5.3c-2.1,1.4-4.5,2.4-7,3
		c-3.1,0.7-6.3,1-9.5,1l-21.3,0.1v-59h20.3c3.5-0.1,7,0.2,10.5,0.8c3.2,0.7,6.1,2.1,8.6,4.2c3.2,2.7,5.6,6.2,7,10.1
		c1.6,4.5,2.4,9.2,2.3,14C396,72.4,395.4,76.4,394.3,80.3z"/>
	<path class="st3" d="M312.4,45.5c-0.8,3.8-1.8,7.6-3.2,11.3L302.8,74h20l-6.2-16.3C314.7,52.7,313.3,48.7,312.4,45.5z"/>
</g>
<path class="st4" d="M186.3,58.1c-6.1,2.4-9.2,9.3-6.8,15.5c0,0,0,0,0,0l80.1,204.1c2.4,6.1,9.3,9.2,15.5,6.8
	c6.1-2.4,9.2-9.3,6.8-15.5L201.7,64.8C199.3,58.7,192.4,55.7,186.3,58.1z"/>
</svg>
