<svg id="圖層_1" data-name="圖層 1" xmlns="http://www.w3.org/2000/svg" viewBox="0 0 512 512"><defs><style>.cls-1,.cls-3{fill:none;stroke:#999;stroke-miterlimit:10;}.cls-1{stroke-width:40px;}.cls-2{fill:#999;}.cls-2,.cls-3{fill-rule:evenodd;}.cls-3{stroke-width:5px;}</style></defs><circle class="cls-1" cx="258.71" cy="255.27" r="234.2"/><path class="cls-2" d="M414,372.56a37.16,37.16,0,0,0,0-74.31h-55.2V181.55a37.1,37.1,0,0,0-16.88-31.17,37,37,0,0,0-55,18.63c-.09.28-.18.56-.28.84s-.14.42-.2.63l-.09.27-.2-.06L218.06,322.61a37,37,0,0,0,64.59,35.88l4.6-7.1,5.18,6.69a36.94,36.94,0,0,0,29.36,14.48Z"/><path class="cls-2" d="M146.25,166.57l-71,155.9a37.21,37.21,0,0,0,18.33,49.26,37,37,0,0,0,49.05-18.34l38.29-84,25.19,53.8a46.55,46.55,0,0,1,2.44-6.42l37.34-83.52-31.53-67.41a37.06,37.06,0,0,0-47.06-18.77l-.34.14c-.26.11-.51.21-.74.29l-.84.33-.75.34A36.68,36.68,0,0,0,146.25,166.57Z"/><path class="cls-3" d="M129.09,104.66q1.86-1.6,3.78-3.17"/><path class="cls-3" d="M125.58,107.76q1.73-1.58,3.51-3.1"/><path class="cls-3" d="M69.43,315.91a198.95,198.95,0,0,1,56.15-208.15"/><path class="cls-3" d="M128.93,405.75a200.33,200.33,0,0,1-24-24.59"/><path class="cls-3" d="M415.09,377.88A198.35,198.35,0,0,1,272,453.54"/><path class="cls-3" d="M457.42,255.27a199.24,199.24,0,0,1-6.82,51.8"/><path class="cls-3" d="M209.85,62.62a199.05,199.05,0,0,1,220,91.53"/></svg>