<?xml version="1.0" encoding="utf-8"?>
<!-- Generator: Adobe Illustrator 25.2.0, SVG Export Plug-In . SVG Version: 6.00 Build 0)  -->
<svg version="1.1" id="圖層_1" xmlns="http://www.w3.org/2000/svg" xmlns:xlink="http://www.w3.org/1999/xlink" x="0px" y="0px"
	 viewBox="0 0 226.8 196.3" style="enable-background:new 0 0 226.8 196.3;" xml:space="preserve">
<style type="text/css">
	.st0{fill-rule:evenodd;clip-rule:evenodd;fill:#D92817;}
	.st1{fill-rule:evenodd;clip-rule:evenodd;fill:#F6AB00;}
	.st2{fill-rule:evenodd;clip-rule:evenodd;fill:#3FAF37;}
	.st3{fill-rule:evenodd;clip-rule:evenodd;fill:#549B35;}
	.st4{fill-rule:evenodd;clip-rule:evenodd;fill:#6CBB5A;}
</style>
<g>
	
		<image style="overflow:visible;opacity:0.75;" width="1088" height="961" xlink:href="D9361B8F.png"  transform="matrix(0.24 0 0 0.24 -14.3501 -14.2732)">
	</image>
	<g>
		<g>
			<g>
				<path class="st0" d="M16.8,163.2v16.6c0,1.5,0.1,2.5,0.2,3.2c0.1,0.6,0.3,1,0.7,1.2c0.2,0.1,0.6,0.2,1,0.4
					c1.2,0.4,1.8,1,1.8,1.8c0,0.5-0.2,1-0.5,1.2c-0.3,0.3-0.9,0.4-1.6,0.4h-6.8c-0.7,0-1.3-0.1-1.7-0.4c-0.4-0.3-0.6-0.6-0.6-1.1
					c0-0.7,0.5-1.3,1.5-1.6c0.3-0.1,0.6-0.2,0.7-0.3c0.3-0.3,0.6-0.7,0.7-1.4c0.1-0.7,0.2-2.2,0.2-4.6v-16.4c0-0.9-0.1-1.5-0.2-1.8
					c-0.1-0.3-0.4-0.5-0.7-0.7c-0.2-0.1-0.4-0.1-0.6-0.2c-1.1-0.4-1.6-0.9-1.6-1.7c0-0.7,0.2-1.1,0.7-1.4c0.5-0.3,1.2-0.4,2.2-0.4
					h7.2c1,0,1.7,0.2,2.1,0.5c0.4,0.3,0.9,1.2,1.4,2.5l5.4,13.7l5.8-14.2c0.4-1.1,0.8-1.8,1.2-2.1c0.3-0.3,0.8-0.4,1.4-0.4H44
					c0.9,0,1.6,0.1,2,0.5c0.4,0.3,0.6,0.8,0.6,1.5c0,0.8-0.5,1.3-1.5,1.6c-0.2,0.1-0.3,0.1-0.4,0.1c-0.4,0.2-0.7,0.4-0.8,0.6
					c-0.1,0.3-0.2,0.7-0.2,1.4v19.8c0,1.1,0.1,1.9,0.3,2.3c0.2,0.5,0.5,0.8,1.1,1.1c0.1,0,0.2,0.1,0.3,0.1c0.8,0.4,1.2,0.9,1.2,1.5
					c0,0.6-0.2,1-0.6,1.2c-0.4,0.2-1.1,0.4-2,0.4h-8.7c-0.7,0-1.2-0.1-1.5-0.3c-0.3-0.2-0.5-0.6-0.5-1c0-0.7,0.4-1.2,1.3-1.7
					c0.3-0.1,0.5-0.3,0.6-0.3c0.3-0.2,0.4-0.5,0.6-0.9c0.1-0.4,0.2-1.1,0.2-2.1v-17.8l-7.1,17.7c-0.4,1-0.7,1.7-1.1,2
					c-0.4,0.4-0.8,0.6-1.3,0.6c-0.5,0-1-0.2-1.3-0.6c-0.4-0.4-0.8-1.1-1.2-2.2L16.8,163.2z"/>
				<path class="st0" d="M61.9,187.5c-0.3,0.1-0.7,0.3-1.1,0.3c-0.4,0.1-0.8,0.1-1.2,0.1c-2.1,0-3.7-1-4.8-3c-1.1-2-2.2-6-3.3-11.9
					c-0.1-0.3-0.1-0.7-0.2-1.2c-0.1-0.7-0.2-1.2-0.3-1.3c-0.1-0.1-0.2-0.2-0.3-0.3c-0.5-0.5-0.8-1-0.8-1.4c0-0.5,0.2-0.9,0.5-1.2
					c0.3-0.2,0.8-0.4,1.5-0.4h6.5c0.7,0,1.2,0.1,1.5,0.3c0.3,0.2,0.5,0.6,0.5,1c0,0.5-0.2,0.8-0.5,1.1c-0.1,0.1-0.1,0.1-0.2,0.2
					c-0.4,0.3-0.6,0.7-0.7,1c-0.1,0.3-0.2,0.7-0.2,1.2c0,0.9,0.1,2.1,0.4,3.5c0.3,1.4,0.7,2.9,1.2,4.4c0.5,1.4,0.9,2.4,1.3,2.9
					c0.3,0.5,0.7,0.8,1.2,0.8c0.3,0,0.7-0.2,0.9-0.5c0.3-0.3,0.5-0.9,0.8-1.7c0.6-1.7,1-3.4,1.3-5c0.3-1.6,0.5-3.1,0.5-4.3
					c0-0.4-0.1-0.8-0.2-1.1c-0.1-0.3-0.3-0.6-0.5-0.7c-0.1-0.1-0.3-0.2-0.5-0.3c-0.7-0.5-1-1-1-1.5c0-0.5,0.1-0.8,0.4-1
					c0.3-0.2,0.7-0.3,1.4-0.3h4.3c0.7,0,1.2,0.1,1.5,0.3c0.3,0.2,0.5,0.6,0.5,1c0,0.4-0.3,0.8-0.8,1.2c-0.2,0.1-0.3,0.3-0.4,0.3
					c-0.2,0.2-0.4,0.7-0.5,1.6c0,0.2-0.1,0.4-0.1,0.5c-1.3,7.6-3.2,13.5-5.9,17.7c-2.7,4.2-5.8,6.3-9.3,6.3c-1.1,0-2-0.2-2.6-0.7
					c-0.6-0.5-1-1.1-1-1.9c0-0.7,0.2-1.3,0.7-1.7c0.5-0.5,1.1-0.7,1.9-0.7c0.3,0,0.8,0.1,1.5,0.2c0.6,0.1,1.1,0.2,1.4,0.2
					c0.8,0,1.6-0.3,2.3-0.9C60.1,190.3,60.9,189.2,61.9,187.5z"/>
				<g>
					<path class="st1" d="M90.6,176.5c-1.7,0-3.1,0.5-4.2,1.5c-1.1,1-1.6,2.2-1.6,3.8c0,1,0.2,1.7,0.7,2.2c0.5,0.5,1.1,0.8,2,0.8
						c1.1,0,1.9-0.4,2.4-1.1c0.5-0.7,0.7-1.9,0.7-3.7V176.5L90.6,176.5z M91.6,185.6c-0.9,0.9-1.9,1.6-3,2.1
						c-1.2,0.5-2.4,0.7-3.8,0.7c-2.3,0-4.1-0.6-5.5-1.7c-1.4-1.2-2-2.7-2-4.6c0-2.6,1.1-4.7,3.3-6.1c2.2-1.5,5.5-2.3,9.9-2.6
						c-0.1-1.1-0.4-2-1-2.6c-0.6-0.6-1.3-0.9-2.3-0.9c-0.5,0-1,0.1-1.5,0.3c-0.5,0.2-1,0.5-1.7,1c-0.1,0.1-0.2,0.2-0.4,0.3
						c-1,0.7-1.9,1.1-2.8,1.1c-0.7,0-1.3-0.2-1.6-0.5c-0.4-0.4-0.6-0.9-0.6-1.6c0-1.1,0.8-1.9,2.4-2.6c1.6-0.7,3.7-1.1,6.3-1.1
						c3.6,0,6.2,0.7,7.9,2.1c1.7,1.4,2.5,3.6,2.5,6.5v7.8c0,0.7,0.1,1.1,0.2,1.4c0.1,0.3,0.4,0.5,0.9,0.8c0,0,0.1,0.1,0.2,0.1
						c0.5,0.3,0.8,0.7,0.8,1.1c0,0.4-0.1,0.7-0.4,1c-0.3,0.2-0.7,0.3-1.2,0.3h-5.2c-0.5,0-0.9-0.1-1.1-0.3c-0.2-0.2-0.4-0.5-0.4-0.9
						L91.6,185.6z"/>
					<path class="st1" d="M110.4,170.2c0.9-1.1,1.9-1.9,3.1-2.5c1.2-0.5,2.5-0.8,4.1-0.8c2.5,0,4.4,0.7,5.6,2.2
						c1.2,1.5,1.9,3.7,1.9,6.7v8c0,0.5,0.1,0.9,0.2,1.1c0.1,0.2,0.3,0.5,0.7,0.7c0,0,0.1,0.1,0.1,0.1c0.6,0.4,0.9,0.8,0.9,1.2
						c0,0.4-0.1,0.6-0.3,0.8c-0.2,0.2-0.6,0.2-1.2,0.2h-7.8c-0.6,0-1-0.1-1.2-0.2c-0.2-0.1-0.3-0.4-0.3-0.8c0-0.3,0.3-0.7,0.8-1.2
						c0.5-0.5,0.8-1.1,0.8-1.9v-8.8c0-1.7-0.2-2.9-0.6-3.6c-0.4-0.7-1.1-1-2-1c-1.1,0-1.9,0.4-2.5,1.3c-0.6,0.9-0.9,2.1-0.9,3.6v8.5
						c0,0.8,0.3,1.4,0.8,1.9c0.5,0.5,0.8,0.9,0.8,1.2c0,0.4-0.1,0.6-0.3,0.8c-0.2,0.2-0.6,0.2-1.2,0.2h-7.8c-0.6,0-1-0.1-1.2-0.2
						c-0.2-0.1-0.3-0.4-0.3-0.8c0-0.4,0.3-0.8,0.9-1.2c0,0,0.1-0.1,0.1-0.1c0.3-0.2,0.6-0.5,0.7-0.7c0.1-0.2,0.2-0.6,0.2-1.1v-11.3
						c0-0.4,0-0.8-0.1-1c-0.1-0.2-0.2-0.4-0.4-0.5c-0.1-0.1-0.3-0.1-0.5-0.2c-0.7-0.3-1-0.6-1-1c0-0.3,0.1-0.5,0.3-0.8
						c0.2-0.2,0.5-0.5,0.8-0.7c0.9-0.5,1.9-0.9,2.8-1.2c1-0.3,1.8-0.5,2.4-0.5c0.6,0,1.1,0.3,1.4,0.8
						C110.1,167.9,110.3,168.8,110.4,170.2z"/>
				</g>
				<path class="st2" d="M135.5,187.8c-0.7,0-1.2-0.1-1.5-0.3c-0.3-0.2-0.5-0.6-0.5-1c0-0.6,0.4-1.1,1.3-1.5
					c0.1-0.1,0.2-0.1,0.3-0.1c0.4-0.2,0.6-0.4,0.8-0.6c0.1-0.2,0.2-0.6,0.2-1.2v-22.7c0-0.3,0-0.5-0.1-0.7c-0.1-0.2-0.3-0.3-0.5-0.4
					c-0.1,0-0.2-0.1-0.3-0.2c-0.9-0.5-1.4-1-1.4-1.7c0-0.5,0.2-0.9,0.5-1.2c0.4-0.3,0.9-0.4,1.6-0.4h9.3c0.6,0,1,0.1,1.4,0.4
					c0.3,0.3,0.5,0.7,0.5,1.2c0,0.7-0.4,1.2-1.2,1.5c-0.2,0.1-0.4,0.1-0.5,0.2c-0.4,0.2-0.7,0.4-0.9,0.7c-0.1,0.2-0.2,0.7-0.2,1.5
					v21.2c0,1,0.2,1.6,0.6,1.9c0.4,0.3,1.3,0.4,2.8,0.4c1.7,0,3.1-0.1,4.2-0.4c1-0.3,1.9-0.7,2.6-1.3c0.3-0.3,0.7-0.7,1.2-1.2
					c0.7-0.8,1.3-1.3,1.8-1.3c0.5,0,0.9,0.1,1.2,0.4c0.3,0.3,0.4,0.6,0.4,1.1c0,0.5-0.1,1-0.2,1.6c-0.1,0.6-0.3,1.4-0.5,2.2
					c-0.3,0.9-0.6,1.5-0.9,1.8c-0.3,0.3-0.8,0.4-1.4,0.4H135.5z"/>
				<path class="st2" d="M174.7,170.6v13.2c0,0.8,0.3,1.4,0.8,1.9c0.6,0.5,0.8,0.9,0.8,1.2c0,0.4-0.1,0.6-0.3,0.8
					c-0.2,0.2-0.6,0.2-1.2,0.2H167c-0.6,0-1-0.1-1.2-0.2c-0.2-0.1-0.3-0.4-0.3-0.8c0-0.4,0.3-0.8,0.9-1.2c0,0,0.1-0.1,0.1-0.1
					c0.3-0.2,0.6-0.5,0.7-0.7c0.1-0.2,0.2-0.6,0.2-1.1v-11.3c0-0.4-0.1-0.8-0.2-1c-0.1-0.3-0.3-0.4-0.5-0.5
					c-0.1-0.1-0.3-0.1-0.5-0.2c-0.6-0.3-0.9-0.6-0.9-1.1c0-0.3,0.1-0.5,0.3-0.7c0.2-0.2,0.4-0.4,0.8-0.6c0.9-0.4,2-0.8,3.2-1.1
					c1.3-0.3,2.3-0.5,3.2-0.5c0.8,0,1.3,0.2,1.5,0.6C174.5,167.7,174.7,168.8,174.7,170.6L174.7,170.6z M170.6,164.5
					c-1.4,0-2.5-0.3-3.2-0.8c-0.7-0.6-1.1-1.4-1.1-2.4c0-1,0.4-1.8,1.1-2.4c0.7-0.6,1.8-0.8,3.1-0.8c1.3,0,2.4,0.3,3.1,0.8
					c0.7,0.6,1.1,1.4,1.1,2.4c0,1.1-0.3,1.9-1.1,2.4C173.1,164.2,172,164.5,170.6,164.5z"/>
				<path class="st2" d="M183.3,170.8h-1.7c-0.5,0-0.9-0.1-1.1-0.4c-0.3-0.3-0.4-0.7-0.4-1.2c0-0.6,0.1-1,0.4-1.4
					c0.3-0.3,0.7-0.5,1.2-0.5h1.7v-2.5c0-3,0.7-5.4,2.1-7.1c1.4-1.7,3.3-2.6,5.6-2.6c1.5,0,2.6,0.3,3.5,0.8c0.8,0.6,1.3,1.4,1.3,2.4
					c0,0.7-0.2,1.3-0.7,1.8c-0.4,0.5-1,0.7-1.7,0.7c-0.8,0-1.3-0.3-1.7-0.9c-0.4-0.6-0.6-0.9-0.7-0.9c-0.2,0-0.4,0.3-0.5,0.9
					c-0.1,0.6-0.1,2.3-0.1,5v2.6h2.4c0.6,0,1.1,0.1,1.4,0.4c0.3,0.3,0.5,0.7,0.5,1.3c0,0.6-0.1,1.1-0.4,1.4
					c-0.3,0.3-0.7,0.5-1.3,0.5h-2.4v12c0,0.7,0.1,1.1,0.2,1.4c0.1,0.2,0.3,0.5,0.7,0.7c0.1,0,0.1,0.1,0.2,0.1c0.9,0.5,1.3,1,1.3,1.5
					c0,0.5-0.1,0.8-0.5,1c-0.3,0.2-0.9,0.3-1.7,0.3h-7.9c-0.5,0-0.9-0.1-1.2-0.3c-0.2-0.2-0.4-0.5-0.4-0.9c0-0.6,0.3-1.1,1-1.5
					c0.2-0.2,0.4-0.3,0.6-0.4c0.1-0.1,0.2-0.3,0.3-0.5c0.1-0.2,0.1-0.7,0.1-1.2V170.8z"/>
				<path class="st2" d="M203.7,181.6c0.1,1.5,0.7,2.7,1.6,3.5c0.9,0.9,2.1,1.3,3.5,1.3c0.9,0,1.8-0.2,2.6-0.5
					c0.9-0.3,1.7-0.8,2.5-1.4c0.1-0.1,0.3-0.3,0.6-0.5c0.7-0.7,1.3-1,1.9-1c0.3,0,0.6,0.1,0.8,0.4c0.2,0.2,0.3,0.5,0.3,0.9
					c0,1.3-1,2.5-3.1,3.7c-2.1,1.2-4.5,1.8-7.3,1.8c-3.4,0-6.2-1-8.1-2.9c-2-1.9-3-4.5-3-7.8c0-3.4,1.1-6,3.2-8.1c2.2-2,5-3,8.7-3
					c2.7,0,4.9,0.6,6.5,1.7c1.7,1.1,2.5,2.6,2.5,4.4c0,2.1-1.1,3.8-3.3,5C211.5,180.5,208.1,181.3,203.7,181.6L203.7,181.6z
					 M203.5,178.4c2.1-0.2,3.7-0.7,4.9-1.5c1.2-0.8,1.8-1.9,1.8-3.1c0-0.8-0.2-1.4-0.7-1.9c-0.4-0.5-1-0.7-1.8-0.7
					c-1.3,0-2.3,0.6-3.1,1.8c-0.8,1.2-1.2,2.8-1.2,4.9V178.4z"/>
			</g>
			<g>
				<path class="st0" d="M107.8,55.3L88.9,14.9C83.3,3,69.4-2.4,57.3,2.3c-0.2,0.1-0.4,0.2-0.6,0.2c-0.3,0.1-0.6,0.2-0.9,0.4
					C55.8,3,55.7,3,55.7,3c-5.3,2.4-9.8,6.6-12.4,12.4l-41,90.1C-3.5,118,2,132.9,14.5,138.6c12.5,5.7,27.2,0.2,33-12.3l19-41.8
					l17.8,38.2c-1.7-5.6-1.4-11.8,1.2-17.6L107.8,55.3z"/>
				<path class="st1" d="M97.8,138.1c-12.5-5.7-18-20.5-12.3-33.1l39.7-88.6c-0.9,2.6-1.4,5.5-1.4,8.5v88.9c0,5.7,1.9,11,5.2,15.2
					C122.3,139.3,109.1,143.3,97.8,138.1z"/>
				<path class="st3" d="M173.5,30.5V25c0-8.8-4.5-16.5-11.3-20.9c-16.6-10.7-38.4,1-38.4,20.9v88.9c0,5.7,1.9,11,5.2,15.2
					c0.7-1,1.3-2.2,1.8-3.3l41-90.1C172.6,34,173.1,32.3,173.5,30.5z"/>
				<path class="st4" d="M201.9,89h-28.4c0-19.5,0-85.2,0-58.5c-0.4,1.7-0.9,3.5-1.7,5.2l-41,90.1c-0.5,1.2-1.1,2.3-1.8,3.3
					c4.5,5.9,11.7,9.7,19.7,9.7h53.3c13.7,0,24.9-11.2,24.9-25C226.8,100.2,215.6,89,201.9,89z"/>
			</g>
		</g>
	</g>
</g>
<g>
	<g>
		<path class="st0" d="M435,163.2v16.6c0,1.5,0.1,2.5,0.2,3.2c0.1,0.6,0.3,1,0.7,1.2c0.2,0.1,0.6,0.2,1,0.4c1.2,0.4,1.8,1,1.8,1.8
			c0,0.5-0.2,1-0.5,1.2c-0.3,0.3-0.9,0.4-1.6,0.4h-6.8c-0.7,0-1.3-0.1-1.7-0.4c-0.4-0.3-0.6-0.6-0.6-1.1c0-0.7,0.5-1.3,1.5-1.6
			c0.3-0.1,0.6-0.2,0.7-0.3c0.3-0.3,0.6-0.7,0.7-1.4c0.1-0.7,0.2-2.2,0.2-4.6v-16.4c0-0.9-0.1-1.5-0.2-1.8c-0.1-0.3-0.4-0.5-0.7-0.7
			c-0.2-0.1-0.4-0.1-0.6-0.2c-1.1-0.4-1.6-0.9-1.6-1.7c0-0.7,0.2-1.1,0.7-1.4c0.5-0.3,1.2-0.4,2.2-0.4h7.2c1,0,1.7,0.2,2.1,0.5
			c0.4,0.3,0.9,1.2,1.4,2.5l5.4,13.7l5.8-14.2c0.4-1.1,0.8-1.8,1.2-2.1c0.3-0.3,0.8-0.4,1.4-0.4h7.4c0.9,0,1.6,0.1,2,0.5
			c0.4,0.3,0.6,0.8,0.6,1.5c0,0.8-0.5,1.3-1.5,1.6c-0.2,0.1-0.3,0.1-0.4,0.1c-0.4,0.2-0.7,0.4-0.8,0.6c-0.1,0.3-0.2,0.7-0.2,1.4
			v19.8c0,1.1,0.1,1.9,0.3,2.3c0.2,0.5,0.5,0.8,1.1,1.1c0.1,0,0.2,0.1,0.3,0.1c0.8,0.4,1.2,0.9,1.2,1.5c0,0.6-0.2,1-0.6,1.2
			c-0.4,0.2-1.1,0.4-2,0.4h-8.7c-0.7,0-1.2-0.1-1.5-0.3c-0.3-0.2-0.5-0.6-0.5-1c0-0.7,0.4-1.2,1.3-1.7c0.3-0.1,0.5-0.3,0.6-0.3
			c0.3-0.2,0.4-0.5,0.6-0.9c0.1-0.4,0.2-1.1,0.2-2.1v-17.8l-7.1,17.7c-0.4,1-0.7,1.7-1.1,2c-0.4,0.4-0.8,0.6-1.3,0.6
			c-0.5,0-1-0.2-1.3-0.6c-0.4-0.4-0.8-1.1-1.2-2.2L435,163.2z"/>
		<path class="st0" d="M480.1,187.5c-0.3,0.1-0.7,0.3-1.1,0.3c-0.4,0.1-0.8,0.1-1.2,0.1c-2.1,0-3.7-1-4.8-3c-1.1-2-2.2-6-3.3-11.9
			c-0.1-0.3-0.1-0.7-0.2-1.2c-0.1-0.7-0.2-1.2-0.3-1.3c-0.1-0.1-0.2-0.2-0.3-0.3c-0.5-0.5-0.8-1-0.8-1.4c0-0.5,0.2-0.9,0.5-1.2
			c0.3-0.2,0.8-0.4,1.5-0.4h6.5c0.7,0,1.2,0.1,1.5,0.3c0.3,0.2,0.5,0.6,0.5,1c0,0.5-0.2,0.8-0.5,1.1c-0.1,0.1-0.1,0.1-0.2,0.2
			c-0.4,0.3-0.6,0.7-0.7,1c-0.1,0.3-0.2,0.7-0.2,1.2c0,0.9,0.1,2.1,0.4,3.5c0.3,1.4,0.7,2.9,1.2,4.4c0.5,1.4,0.9,2.4,1.3,2.9
			c0.3,0.5,0.7,0.8,1.2,0.8c0.3,0,0.7-0.2,0.9-0.5c0.3-0.3,0.5-0.9,0.8-1.7c0.6-1.7,1-3.4,1.3-5c0.3-1.6,0.5-3.1,0.5-4.3
			c0-0.4-0.1-0.8-0.2-1.1c-0.1-0.3-0.3-0.6-0.5-0.7c-0.1-0.1-0.3-0.2-0.5-0.3c-0.7-0.5-1-1-1-1.5c0-0.5,0.1-0.8,0.4-1
			c0.3-0.2,0.7-0.3,1.4-0.3h4.3c0.7,0,1.2,0.1,1.5,0.3c0.3,0.2,0.5,0.6,0.5,1c0,0.4-0.3,0.8-0.8,1.2c-0.2,0.1-0.3,0.3-0.4,0.3
			c-0.2,0.2-0.4,0.7-0.5,1.6c0,0.2-0.1,0.4-0.1,0.5c-1.3,7.6-3.2,13.5-5.9,17.7c-2.7,4.2-5.8,6.3-9.3,6.3c-1.1,0-2-0.2-2.6-0.7
			c-0.6-0.5-1-1.1-1-1.9c0-0.7,0.2-1.3,0.7-1.7c0.5-0.5,1.1-0.7,1.9-0.7c0.3,0,0.8,0.1,1.5,0.2c0.6,0.1,1.1,0.2,1.4,0.2
			c0.8,0,1.6-0.3,2.3-0.9C478.3,190.3,479.1,189.2,480.1,187.5z"/>
		<g>
			<path class="st1" d="M508.8,176.5c-1.7,0-3.1,0.5-4.2,1.5c-1.1,1-1.6,2.2-1.6,3.8c0,1,0.2,1.7,0.7,2.2c0.5,0.5,1.1,0.8,2,0.8
				c1.1,0,1.9-0.4,2.4-1.1c0.5-0.7,0.7-1.9,0.7-3.7V176.5L508.8,176.5z M509.7,185.6c-0.9,0.9-1.9,1.6-3,2.1
				c-1.2,0.5-2.4,0.7-3.8,0.7c-2.3,0-4.1-0.6-5.5-1.7c-1.4-1.2-2-2.7-2-4.6c0-2.6,1.1-4.7,3.3-6.1c2.2-1.5,5.5-2.3,9.9-2.6
				c-0.1-1.1-0.4-2-1-2.6c-0.6-0.6-1.3-0.9-2.3-0.9c-0.5,0-1,0.1-1.5,0.3c-0.5,0.2-1,0.5-1.7,1c-0.1,0.1-0.2,0.2-0.4,0.3
				c-1,0.7-1.9,1.1-2.8,1.1c-0.7,0-1.3-0.2-1.6-0.5c-0.4-0.4-0.6-0.9-0.6-1.6c0-1.1,0.8-1.9,2.4-2.6c1.6-0.7,3.7-1.1,6.3-1.1
				c3.6,0,6.2,0.7,7.9,2.1c1.7,1.4,2.5,3.6,2.5,6.5v7.8c0,0.7,0.1,1.1,0.2,1.4c0.1,0.3,0.4,0.5,0.9,0.8c0,0,0.1,0.1,0.2,0.1
				c0.5,0.3,0.8,0.7,0.8,1.1c0,0.4-0.1,0.7-0.4,1c-0.3,0.2-0.7,0.3-1.2,0.3h-5.2c-0.5,0-0.9-0.1-1.1-0.3c-0.2-0.2-0.4-0.5-0.4-0.9
				L509.7,185.6z"/>
			<path class="st1" d="M528.6,170.2c0.9-1.1,1.9-1.9,3.1-2.5c1.2-0.5,2.5-0.8,4.1-0.8c2.5,0,4.4,0.7,5.6,2.2
				c1.2,1.5,1.9,3.7,1.9,6.7v8c0,0.5,0.1,0.9,0.2,1.1c0.1,0.2,0.3,0.5,0.7,0.7c0,0,0.1,0.1,0.1,0.1c0.6,0.4,0.9,0.8,0.9,1.2
				c0,0.4-0.1,0.6-0.3,0.8c-0.2,0.2-0.6,0.2-1.2,0.2h-7.8c-0.6,0-1-0.1-1.2-0.2c-0.2-0.1-0.3-0.4-0.3-0.8c0-0.3,0.3-0.7,0.8-1.2
				c0.5-0.5,0.8-1.1,0.8-1.9v-8.8c0-1.7-0.2-2.9-0.6-3.6c-0.4-0.7-1.1-1-2-1c-1.1,0-1.9,0.4-2.5,1.3c-0.6,0.9-0.9,2.1-0.9,3.6v8.5
				c0,0.8,0.3,1.4,0.8,1.9c0.5,0.5,0.8,0.9,0.8,1.2c0,0.4-0.1,0.6-0.3,0.8c-0.2,0.2-0.6,0.2-1.2,0.2h-7.8c-0.6,0-1-0.1-1.2-0.2
				c-0.2-0.1-0.3-0.4-0.3-0.8c0-0.4,0.3-0.8,0.9-1.2c0,0,0.1-0.1,0.1-0.1c0.3-0.2,0.6-0.5,0.7-0.7c0.1-0.2,0.2-0.6,0.2-1.1v-11.3
				c0-0.4,0-0.8-0.1-1c-0.1-0.2-0.2-0.4-0.4-0.5c-0.1-0.1-0.3-0.1-0.5-0.2c-0.7-0.3-1-0.6-1-1c0-0.3,0.1-0.5,0.3-0.8
				c0.2-0.2,0.5-0.5,0.8-0.7c0.9-0.5,1.9-0.9,2.8-1.2c1-0.3,1.8-0.5,2.4-0.5c0.6,0,1.1,0.3,1.4,0.8
				C528.3,167.9,528.5,168.8,528.6,170.2z"/>
		</g>
		<path class="st2" d="M553.7,187.8c-0.7,0-1.2-0.1-1.5-0.3c-0.3-0.2-0.5-0.6-0.5-1c0-0.6,0.4-1.1,1.3-1.5c0.1-0.1,0.2-0.1,0.3-0.1
			c0.4-0.2,0.6-0.4,0.8-0.6c0.1-0.2,0.2-0.6,0.2-1.2v-22.7c0-0.3,0-0.5-0.1-0.7c-0.1-0.2-0.3-0.3-0.5-0.4c-0.1,0-0.2-0.1-0.3-0.2
			c-0.9-0.5-1.4-1-1.4-1.7c0-0.5,0.2-0.9,0.5-1.2c0.4-0.3,0.9-0.4,1.6-0.4h9.3c0.6,0,1,0.1,1.4,0.4c0.3,0.3,0.5,0.7,0.5,1.2
			c0,0.7-0.4,1.2-1.2,1.5c-0.2,0.1-0.4,0.1-0.5,0.2c-0.4,0.2-0.7,0.4-0.9,0.7c-0.1,0.2-0.2,0.7-0.2,1.5v21.2c0,1,0.2,1.6,0.6,1.9
			c0.4,0.3,1.3,0.4,2.8,0.4c1.7,0,3.1-0.1,4.2-0.4c1-0.3,1.9-0.7,2.6-1.3c0.3-0.3,0.7-0.7,1.2-1.2c0.7-0.8,1.3-1.3,1.8-1.3
			c0.5,0,0.9,0.1,1.2,0.4c0.3,0.3,0.4,0.6,0.4,1.1c0,0.5-0.1,1-0.2,1.6c-0.1,0.6-0.3,1.4-0.5,2.2c-0.3,0.9-0.6,1.5-0.9,1.8
			c-0.3,0.3-0.8,0.4-1.4,0.4H553.7z"/>
		<path class="st2" d="M592.8,170.6v13.2c0,0.8,0.3,1.4,0.8,1.9c0.6,0.5,0.8,0.9,0.8,1.2c0,0.4-0.1,0.6-0.3,0.8
			c-0.2,0.2-0.6,0.2-1.2,0.2h-7.8c-0.6,0-1-0.1-1.2-0.2c-0.2-0.1-0.3-0.4-0.3-0.8c0-0.4,0.3-0.8,0.9-1.2c0,0,0.1-0.1,0.1-0.1
			c0.3-0.2,0.6-0.5,0.7-0.7c0.1-0.2,0.2-0.6,0.2-1.1v-11.3c0-0.4-0.1-0.8-0.2-1c-0.1-0.3-0.3-0.4-0.5-0.5c-0.1-0.1-0.3-0.1-0.5-0.2
			c-0.6-0.3-0.9-0.6-0.9-1.1c0-0.3,0.1-0.5,0.3-0.7c0.2-0.2,0.4-0.4,0.8-0.6c0.9-0.4,2-0.8,3.2-1.1c1.3-0.3,2.3-0.5,3.2-0.5
			c0.8,0,1.3,0.2,1.5,0.6C592.7,167.7,592.8,168.8,592.8,170.6L592.8,170.6z M588.8,164.5c-1.4,0-2.5-0.3-3.2-0.8
			c-0.7-0.6-1.1-1.4-1.1-2.4c0-1,0.4-1.8,1.1-2.4c0.7-0.6,1.8-0.8,3.1-0.8c1.3,0,2.4,0.3,3.1,0.8c0.7,0.6,1.1,1.4,1.1,2.4
			c0,1.1-0.3,1.9-1.1,2.4C591.3,164.2,590.2,164.5,588.8,164.5z"/>
		<path class="st2" d="M601.5,170.8h-1.7c-0.5,0-0.9-0.1-1.1-0.4c-0.3-0.3-0.4-0.7-0.4-1.2c0-0.6,0.1-1,0.4-1.4
			c0.3-0.3,0.7-0.5,1.2-0.5h1.7v-2.5c0-3,0.7-5.4,2.1-7.1c1.4-1.7,3.3-2.6,5.6-2.6c1.5,0,2.6,0.3,3.5,0.8c0.8,0.6,1.3,1.4,1.3,2.4
			c0,0.7-0.2,1.3-0.7,1.8c-0.4,0.5-1,0.7-1.7,0.7c-0.8,0-1.3-0.3-1.7-0.9c-0.4-0.6-0.6-0.9-0.7-0.9c-0.2,0-0.4,0.3-0.5,0.9
			c-0.1,0.6-0.1,2.3-0.1,5v2.6h2.4c0.6,0,1.1,0.1,1.4,0.4c0.3,0.3,0.5,0.7,0.5,1.3c0,0.6-0.1,1.1-0.4,1.4c-0.3,0.3-0.7,0.5-1.3,0.5
			h-2.4v12c0,0.7,0.1,1.1,0.2,1.4c0.1,0.2,0.3,0.5,0.7,0.7c0.1,0,0.1,0.1,0.2,0.1c0.9,0.5,1.3,1,1.3,1.5c0,0.5-0.1,0.8-0.5,1
			c-0.3,0.2-0.9,0.3-1.7,0.3H601c-0.5,0-0.9-0.1-1.2-0.3c-0.2-0.2-0.4-0.5-0.4-0.9c0-0.6,0.3-1.1,1-1.5c0.2-0.2,0.4-0.3,0.6-0.4
			c0.1-0.1,0.2-0.3,0.3-0.5c0.1-0.2,0.1-0.7,0.1-1.2V170.8z"/>
		<path class="st2" d="M621.9,181.6c0.1,1.5,0.7,2.7,1.6,3.5c0.9,0.9,2.1,1.3,3.5,1.3c0.9,0,1.8-0.2,2.6-0.5
			c0.9-0.3,1.7-0.8,2.5-1.4c0.1-0.1,0.3-0.3,0.6-0.5c0.7-0.7,1.3-1,1.9-1c0.3,0,0.6,0.1,0.8,0.4c0.2,0.2,0.3,0.5,0.3,0.9
			c0,1.3-1,2.5-3.1,3.7c-2.1,1.2-4.5,1.8-7.3,1.8c-3.4,0-6.2-1-8.1-2.9c-2-1.9-3-4.5-3-7.8c0-3.4,1.1-6,3.2-8.1c2.2-2,5-3,8.7-3
			c2.7,0,4.9,0.6,6.5,1.7c1.7,1.1,2.5,2.6,2.5,4.4c0,2.1-1.1,3.8-3.3,5C629.6,180.5,626.3,181.3,621.9,181.6L621.9,181.6z
			 M621.6,178.4c2.1-0.2,3.7-0.7,4.9-1.5c1.2-0.8,1.8-1.9,1.8-3.1c0-0.8-0.2-1.4-0.7-1.9c-0.4-0.5-1-0.7-1.8-0.7
			c-1.3,0-2.3,0.6-3.1,1.8c-0.8,1.2-1.2,2.8-1.2,4.9V178.4z"/>
	</g>
	<g>
		<path class="st0" d="M526,55.3l-18.9-40.4c-5.6-12-19.5-17.4-31.6-12.6c-0.2,0.1-0.4,0.2-0.6,0.2c-0.3,0.1-0.6,0.2-0.9,0.4
			C474,3,473.9,3,473.9,3c-5.3,2.4-9.8,6.6-12.4,12.4l-41,90.1c-5.7,12.5-0.2,27.3,12.3,33.1c12.5,5.7,27.2,0.2,33-12.3l19-41.8
			l17.8,38.2c-1.7-5.6-1.4-11.8,1.2-17.6L526,55.3z"/>
		<path class="st1" d="M516,138.1c-12.5-5.7-18-20.5-12.3-33.1l39.7-88.6c-0.9,2.6-1.4,5.5-1.4,8.5v88.9c0,5.7,1.9,11,5.2,15.2
			C540.5,139.3,527.3,143.3,516,138.1z"/>
		<path class="st3" d="M591.7,30.5V25c0-8.8-4.5-16.5-11.3-20.9c-16.6-10.7-38.4,1-38.4,20.9v88.9c0,5.7,1.9,11,5.2,15.2
			c0.7-1,1.3-2.2,1.8-3.3l41-90.1C590.7,34,591.3,32.3,591.7,30.5z"/>
		<path class="st4" d="M620.1,89h-28.4c0-19.5,0-85.2,0-58.5c-0.4,1.7-0.9,3.5-1.7,5.2l-41,90.1c-0.5,1.2-1.1,2.3-1.8,3.3
			c4.5,5.9,11.7,9.7,19.7,9.7h53.3c13.7,0,24.9-11.2,24.9-25C645,100.2,633.8,89,620.1,89z"/>
	</g>
</g>
<g>
	<path class="st0" d="M870.9,88.3L852,47.9c-5.6-12-19.5-17.4-31.6-12.6c-0.2,0.1-0.4,0.2-0.6,0.2c-0.3,0.1-0.6,0.2-0.9,0.4
		c-0.1,0-0.1,0.1-0.2,0.1c-5.3,2.4-9.8,6.6-12.4,12.4l-41,90.1c-5.7,12.5-0.2,27.3,12.3,33.1c12.5,5.7,27.2,0.2,33-12.3l19-41.8
		l17.8,38.2c-1.7-5.6-1.4-11.8,1.2-17.6L870.9,88.3z"/>
	<path class="st1" d="M860.9,171.1c-12.5-5.7-18-20.5-12.3-33.1l39.7-88.6c-0.9,2.6-1.4,5.5-1.4,8.5v88.9c0,5.7,1.9,11,5.2,15.2
		C885.4,172.2,872.2,176.3,860.9,171.1z"/>
	<path class="st3" d="M936.6,63.4v-5.5c0-8.8-4.5-16.5-11.3-20.9c-16.6-10.7-38.4,1-38.4,20.9v88.9c0,5.7,1.9,11,5.2,15.2
		c0.7-1,1.3-2.2,1.8-3.3l41-90.1C935.6,66.9,936.2,65.2,936.6,63.4z"/>
	<path class="st4" d="M965,121.9h-28.4c0-19.5,0-85.2,0-58.5c-0.4,1.7-0.9,3.5-1.7,5.2l-41,90.1c-0.5,1.2-1.1,2.3-1.8,3.3
		c4.5,5.9,11.7,9.7,19.7,9.7H965c13.7,0,24.9-11.2,24.9-25C989.8,133.1,978.7,121.9,965,121.9z"/>
</g>
</svg>
