<?xml version="1.0" encoding="utf-8"?>
<!-- Generator: Adobe Illustrator 22.0.1, SVG Export Plug-In . SVG Version: 6.00 Build 0)  -->
<svg version="1.1" id="圖層_1" xmlns="http://www.w3.org/2000/svg" xmlns:xlink="http://www.w3.org/1999/xlink" x="0px" y="0px"
	 viewBox="0 0 200 200" style="enable-background:new 0 0 200 200;" xml:space="preserve">
<g id="quickmark" transform="translate(40,40)">
	<rect x="-40" y="-40" width="8" height="8"/>
	<rect x="-32" y="-40" width="8" height="8"/>
	<rect x="-24" y="-40" width="8" height="8"/>
	<rect x="-16" y="-40" width="8" height="8"/>
	<rect x="-8" y="-40" width="8" height="8"/>
	<rect y="-40" width="8" height="8"/>
	<rect x="8" y="-40" width="8" height="8"/>
	<rect x="24" y="-40" width="8" height="8"/>
	<rect x="40" y="-40" width="8" height="8"/>
	<rect x="56" y="-40" width="8" height="8"/>
	<rect x="72" y="-40" width="8" height="8"/>
	<rect x="104" y="-40" width="8" height="8"/>
	<rect x="112" y="-40" width="8" height="8"/>
	<rect x="120" y="-40" width="8" height="8"/>
	<rect x="128" y="-40" width="8" height="8"/>
	<rect x="136" y="-40" width="8" height="8"/>
	<rect x="144" y="-40" width="8" height="8"/>
	<rect x="152" y="-40" width="8" height="8"/>
	<rect x="-40" y="-32" width="8" height="8"/>
	<rect x="8" y="-32" width="8" height="8"/>
	<rect x="24" y="-32" width="8" height="8"/>
	<rect x="40" y="-32" width="8" height="8"/>
	<rect x="48" y="-32" width="8" height="8"/>
	<rect x="64" y="-32" width="8" height="8"/>
	<rect x="88" y="-32" width="8" height="8"/>
	<rect x="104" y="-32" width="8" height="8"/>
	<rect x="152" y="-32" width="8" height="8"/>
	<rect x="-40" y="-24" width="8" height="8"/>
	<rect x="-24" y="-24" width="8" height="8"/>
	<rect x="-16" y="-24" width="8" height="8"/>
	<rect x="-8" y="-24" width="8" height="8"/>
	<rect x="8" y="-24" width="8" height="8"/>
	<rect x="24" y="-24" width="8" height="8"/>
	<rect x="32" y="-24" width="8" height="8"/>
	<rect x="40" y="-24" width="8" height="8"/>
	<rect x="48" y="-24" width="8" height="8"/>
	<rect x="64" y="-24" width="8" height="8"/>
	<rect x="72" y="-24" width="8" height="8"/>
	<rect x="104" y="-24" width="8" height="8"/>
	<rect x="120" y="-24" width="8" height="8"/>
	<rect x="128" y="-24" width="8" height="8"/>
	<rect x="136" y="-24" width="8" height="8"/>
	<rect x="152" y="-24" width="8" height="8"/>
	<rect x="-40" y="-16" width="8" height="8"/>
	<rect x="-24" y="-16" width="8" height="8"/>
	<rect x="-16" y="-16" width="8" height="8"/>
	<rect x="-8" y="-16" width="8" height="8"/>
	<rect x="8" y="-16" width="8" height="8"/>
	<rect x="32" y="-16" width="8" height="8"/>
	<rect x="48" y="-16" width="8" height="8"/>
	<rect x="56" y="-16" width="8" height="8"/>
	<rect x="72" y="-16" width="8" height="8"/>
	<rect x="80" y="-16" width="8" height="8"/>
	<rect x="88" y="-16" width="8" height="8"/>
	<rect x="104" y="-16" width="8" height="8"/>
	<rect x="120" y="-16" width="8" height="8"/>
	<rect x="128" y="-16" width="8" height="8"/>
	<rect x="136" y="-16" width="8" height="8"/>
	<rect x="152" y="-16" width="8" height="8"/>
	<rect x="-40" y="-8" width="8" height="8"/>
	<rect x="-24" y="-8" width="8" height="8"/>
	<rect x="-16" y="-8" width="8" height="8"/>
	<rect x="-8" y="-8" width="8" height="8"/>
	<rect x="8" y="-8" width="8" height="8"/>
	<rect x="24" y="-8" width="8" height="8"/>
	<rect x="56" y="-8" width="8" height="8"/>
	<rect x="64" y="-8" width="8" height="8"/>
	<rect x="72" y="-8" width="8" height="8"/>
	<rect x="88" y="-8" width="8" height="8"/>
	<rect x="104" y="-8" width="8" height="8"/>
	<rect x="120" y="-8" width="8" height="8"/>
	<rect x="128" y="-8" width="8" height="8"/>
	<rect x="136" y="-8" width="8" height="8"/>
	<rect x="152" y="-8" width="8" height="8"/>
	<rect x="-40" width="8" height="8"/>
	<rect x="8" width="8" height="8"/>
	<rect x="64" width="8" height="8"/>
	<rect x="72" width="8" height="8"/>
	<rect x="104" width="8" height="8"/>
	<rect x="152" width="8" height="8"/>
	<rect x="-40" y="8" width="8" height="8"/>
	<rect x="-32" y="8" width="8" height="8"/>
	<rect x="-24" y="8" width="8" height="8"/>
	<rect x="-16" y="8" width="8" height="8"/>
	<rect x="-8" y="8" width="8" height="8"/>
	<rect y="8" width="8" height="8"/>
	<rect x="8" y="8" width="8" height="8"/>
	<rect x="24" y="8" width="8" height="8"/>
	<rect x="40" y="8" width="8" height="8"/>
	<rect x="56" y="8" width="8" height="8"/>
	<rect x="72" y="8" width="8" height="8"/>
	<rect x="88" y="8" width="8" height="8"/>
	<rect x="104" y="8" width="8" height="8"/>
	<rect x="112" y="8" width="8" height="8"/>
	<rect x="120" y="8" width="8" height="8"/>
	<rect x="128" y="8" width="8" height="8"/>
	<rect x="136" y="8" width="8" height="8"/>
	<rect x="144" y="8" width="8" height="8"/>
	<rect x="152" y="8" width="8" height="8"/>
	<rect x="40" y="16" width="8" height="8"/>
	<rect x="48" y="16" width="8" height="8"/>
	<rect x="72" y="16" width="8" height="8"/>
	<rect x="80" y="16" width="8" height="8"/>
	<rect x="-40" y="24" width="8" height="8"/>
	<rect x="-16" y="24" width="8" height="8"/>
	<rect x="-8" y="24" width="8" height="8"/>
	<rect y="24" width="8" height="8"/>
	<rect x="8" y="24" width="8" height="8"/>
	<rect x="16" y="24" width="8" height="8"/>
	<rect x="24" y="24" width="8" height="8"/>
	<rect x="40" y="24" width="8" height="8"/>
	<rect x="64" y="24" width="8" height="8"/>
	<rect x="72" y="24" width="8" height="8"/>
	<rect x="80" y="24" width="8" height="8"/>
	<rect x="88" y="24" width="8" height="8"/>
	<rect x="96" y="24" width="8" height="8"/>
	<rect x="120" y="24" width="8" height="8"/>
	<rect x="136" y="24" width="8" height="8"/>
	<rect x="144" y="24" width="8" height="8"/>
	<rect x="152" y="24" width="8" height="8"/>
	<rect x="-32" y="32" width="8" height="8"/>
	<rect x="-16" y="32" width="8" height="8"/>
	<rect x="-8" y="32" width="8" height="8"/>
	<rect x="16" y="32" width="8" height="8"/>
	<rect x="24" y="32" width="8" height="8"/>
	<rect x="72" y="32" width="8" height="8"/>
	<rect x="80" y="32" width="8" height="8"/>
	<rect x="112" y="32" width="8" height="8"/>
	<rect x="120" y="32" width="8" height="8"/>
	<rect x="128" y="32" width="8" height="8"/>
	<rect x="136" y="32" width="8" height="8"/>
	<rect x="144" y="32" width="8" height="8"/>
	<rect x="-32" y="40" width="8" height="8"/>
	<rect x="-16" y="40" width="8" height="8"/>
	<rect y="40" width="8" height="8"/>
	<rect x="8" y="40" width="8" height="8"/>
	<rect x="32" y="40" width="8" height="8"/>
	<rect x="40" y="40" width="8" height="8"/>
	<rect x="48" y="40" width="8" height="8"/>
	<rect x="72" y="40" width="8" height="8"/>
	<rect x="80" y="40" width="8" height="8"/>
	<rect x="112" y="40" width="8" height="8"/>
	<rect x="128" y="40" width="8" height="8"/>
	<rect x="152" y="40" width="8" height="8"/>
	<rect x="-24" y="48" width="8" height="8"/>
	<rect x="-16" y="48" width="8" height="8"/>
	<rect x="24" y="48" width="8" height="8"/>
	<rect x="56" y="48" width="8" height="8"/>
	<rect x="72" y="48" width="8" height="8"/>
	<rect x="80" y="48" width="8" height="8"/>
	<rect x="112" y="48" width="8" height="8"/>
	<rect x="128" y="48" width="8" height="8"/>
	<rect x="136" y="48" width="8" height="8"/>
	<rect x="144" y="48" width="8" height="8"/>
	<rect x="152" y="48" width="8" height="8"/>
	<rect x="-40" y="56" width="8" height="8"/>
	<rect x="-24" y="56" width="8" height="8"/>
	<rect x="-16" y="56" width="8" height="8"/>
	<rect x="8" y="56" width="8" height="8"/>
	<rect x="16" y="56" width="8" height="8"/>
	<rect x="48" y="56" width="8" height="8"/>
	<rect x="64" y="56" width="8" height="8"/>
	<rect x="72" y="56" width="8" height="8"/>
	<rect x="88" y="56" width="8" height="8"/>
	<rect x="104" y="56" width="8" height="8"/>
	<rect x="112" y="56" width="8" height="8"/>
	<rect x="152" y="56" width="8" height="8"/>
	<rect x="-32" y="64" width="8" height="8"/>
	<rect x="-16" y="64" width="8" height="8"/>
	<rect x="-8" y="64" width="8" height="8"/>
	<rect y="64" width="8" height="8"/>
	<rect x="24" y="64" width="8" height="8"/>
	<rect x="32" y="64" width="8" height="8"/>
	<rect x="40" y="64" width="8" height="8"/>
	<rect x="56" y="64" width="8" height="8"/>
	<rect x="80" y="64" width="8" height="8"/>
	<rect x="120" y="64" width="8" height="8"/>
	<rect x="144" y="64" width="8" height="8"/>
	<rect y="72" width="8" height="8"/>
	<rect x="8" y="72" width="8" height="8"/>
	<rect x="16" y="72" width="8" height="8"/>
	<rect x="24" y="72" width="8" height="8"/>
	<rect x="32" y="72" width="8" height="8"/>
	<rect x="72" y="72" width="8" height="8"/>
	<rect x="80" y="72" width="8" height="8"/>
	<rect x="96" y="72" width="8" height="8"/>
	<rect x="120" y="72" width="8" height="8"/>
	<rect x="128" y="72" width="8" height="8"/>
	<rect x="136" y="72" width="8" height="8"/>
	<rect x="144" y="72" width="8" height="8"/>
	<rect x="152" y="72" width="8" height="8"/>
	<rect x="-32" y="80" width="8" height="8"/>
	<rect x="-24" y="80" width="8" height="8"/>
	<rect x="-8" y="80" width="8" height="8"/>
	<rect y="80" width="8" height="8"/>
	<rect x="16" y="80" width="8" height="8"/>
	<rect x="24" y="80" width="8" height="8"/>
	<rect x="32" y="80" width="8" height="8"/>
	<rect x="56" y="80" width="8" height="8"/>
	<rect x="64" y="80" width="8" height="8"/>
	<rect x="72" y="80" width="8" height="8"/>
	<rect x="96" y="80" width="8" height="8"/>
	<rect x="112" y="80" width="8" height="8"/>
	<rect x="128" y="80" width="8" height="8"/>
	<rect x="136" y="80" width="8" height="8"/>
	<rect x="152" y="80" width="8" height="8"/>
	<rect x="-32" y="88" width="8" height="8"/>
	<rect x="-8" y="88" width="8" height="8"/>
	<rect x="8" y="88" width="8" height="8"/>
	<rect x="32" y="88" width="8" height="8"/>
	<rect x="40" y="88" width="8" height="8"/>
	<rect x="48" y="88" width="8" height="8"/>
	<rect x="56" y="88" width="8" height="8"/>
	<rect x="80" y="88" width="8" height="8"/>
	<rect x="88" y="88" width="8" height="8"/>
	<rect x="96" y="88" width="8" height="8"/>
	<rect x="104" y="88" width="8" height="8"/>
	<rect x="112" y="88" width="8" height="8"/>
	<rect x="120" y="88" width="8" height="8"/>
	<rect x="136" y="88" width="8" height="8"/>
	<rect x="144" y="88" width="8" height="8"/>
	<rect x="24" y="96" width="8" height="8"/>
	<rect x="48" y="96" width="8" height="8"/>
	<rect x="88" y="96" width="8" height="8"/>
	<rect x="120" y="96" width="8" height="8"/>
	<rect x="136" y="96" width="8" height="8"/>
	<rect x="144" y="96" width="8" height="8"/>
	<rect x="-40" y="104" width="8" height="8"/>
	<rect x="-32" y="104" width="8" height="8"/>
	<rect x="-24" y="104" width="8" height="8"/>
	<rect x="-16" y="104" width="8" height="8"/>
	<rect x="-8" y="104" width="8" height="8"/>
	<rect y="104" width="8" height="8"/>
	<rect x="8" y="104" width="8" height="8"/>
	<rect x="24" y="104" width="8" height="8"/>
	<rect x="40" y="104" width="8" height="8"/>
	<rect x="56" y="104" width="8" height="8"/>
	<rect x="64" y="104" width="8" height="8"/>
	<rect x="72" y="104" width="8" height="8"/>
	<rect x="88" y="104" width="8" height="8"/>
	<rect x="104" y="104" width="8" height="8"/>
	<rect x="120" y="104" width="8" height="8"/>
	<rect x="152" y="104" width="8" height="8"/>
	<rect x="-40" y="112" width="8" height="8"/>
	<rect x="8" y="112" width="8" height="8"/>
	<rect x="24" y="112" width="8" height="8"/>
	<rect x="32" y="112" width="8" height="8"/>
	<rect x="48" y="112" width="8" height="8"/>
	<rect x="64" y="112" width="8" height="8"/>
	<rect x="80" y="112" width="8" height="8"/>
	<rect x="88" y="112" width="8" height="8"/>
	<rect x="120" y="112" width="8" height="8"/>
	<rect x="-40" y="120" width="8" height="8"/>
	<rect x="-24" y="120" width="8" height="8"/>
	<rect x="-16" y="120" width="8" height="8"/>
	<rect x="-8" y="120" width="8" height="8"/>
	<rect x="8" y="120" width="8" height="8"/>
	<rect x="24" y="120" width="8" height="8"/>
	<rect x="40" y="120" width="8" height="8"/>
	<rect x="48" y="120" width="8" height="8"/>
	<rect x="64" y="120" width="8" height="8"/>
	<rect x="80" y="120" width="8" height="8"/>
	<rect x="88" y="120" width="8" height="8"/>
	<rect x="96" y="120" width="8" height="8"/>
	<rect x="104" y="120" width="8" height="8"/>
	<rect x="112" y="120" width="8" height="8"/>
	<rect x="120" y="120" width="8" height="8"/>
	<rect x="152" y="120" width="8" height="8"/>
	<rect x="-40" y="128" width="8" height="8"/>
	<rect x="-24" y="128" width="8" height="8"/>
	<rect x="-16" y="128" width="8" height="8"/>
	<rect x="-8" y="128" width="8" height="8"/>
	<rect x="8" y="128" width="8" height="8"/>
	<rect x="24" y="128" width="8" height="8"/>
	<rect x="32" y="128" width="8" height="8"/>
	<rect x="56" y="128" width="8" height="8"/>
	<rect x="64" y="128" width="8" height="8"/>
	<rect x="88" y="128" width="8" height="8"/>
	<rect x="96" y="128" width="8" height="8"/>
	<rect x="104" y="128" width="8" height="8"/>
	<rect x="144" y="128" width="8" height="8"/>
	<rect x="152" y="128" width="8" height="8"/>
	<rect x="-40" y="136" width="8" height="8"/>
	<rect x="-24" y="136" width="8" height="8"/>
	<rect x="-16" y="136" width="8" height="8"/>
	<rect x="-8" y="136" width="8" height="8"/>
	<rect x="8" y="136" width="8" height="8"/>
	<rect x="32" y="136" width="8" height="8"/>
	<rect x="48" y="136" width="8" height="8"/>
	<rect x="64" y="136" width="8" height="8"/>
	<rect x="88" y="136" width="8" height="8"/>
	<rect x="96" y="136" width="8" height="8"/>
	<rect x="120" y="136" width="8" height="8"/>
	<rect x="128" y="136" width="8" height="8"/>
	<rect x="136" y="136" width="8" height="8"/>
	<rect x="144" y="136" width="8" height="8"/>
	<rect x="152" y="136" width="8" height="8"/>
	<rect x="-40" y="144" width="8" height="8"/>
	<rect x="8" y="144" width="8" height="8"/>
	<rect x="32" y="144" width="8" height="8"/>
	<rect x="40" y="144" width="8" height="8"/>
	<rect x="48" y="144" width="8" height="8"/>
	<rect x="56" y="144" width="8" height="8"/>
	<rect x="64" y="144" width="8" height="8"/>
	<rect x="104" y="144" width="8" height="8"/>
	<rect x="112" y="144" width="8" height="8"/>
	<rect x="120" y="144" width="8" height="8"/>
	<rect x="136" y="144" width="8" height="8"/>
	<rect x="144" y="144" width="8" height="8"/>
	<rect x="152" y="144" width="8" height="8"/>
	<rect x="-40" y="152" width="8" height="8"/>
	<rect x="-32" y="152" width="8" height="8"/>
	<rect x="-24" y="152" width="8" height="8"/>
	<rect x="-16" y="152" width="8" height="8"/>
	<rect x="-8" y="152" width="8" height="8"/>
	<rect y="152" width="8" height="8"/>
	<rect x="8" y="152" width="8" height="8"/>
	<rect x="24" y="152" width="8" height="8"/>
	<rect x="32" y="152" width="8" height="8"/>
	<rect x="48" y="152" width="8" height="8"/>
	<rect x="56" y="152" width="8" height="8"/>
	<rect x="64" y="152" width="8" height="8"/>
	<rect x="88" y="152" width="8" height="8"/>
	<rect x="128" y="152" width="8" height="8"/>
	<rect x="152" y="152" width="8" height="8"/>
</g>
</svg>
