<?xml version="1.0" encoding="utf-8"?>
<!-- Generator: Adobe Illustrator 25.2.3, SVG Export Plug-In . SVG Version: 6.00 Build 0)  -->
<svg version="1.1" id="圖層_1" focusable="false" xmlns="http://www.w3.org/2000/svg" xmlns:xlink="http://www.w3.org/1999/xlink"
	 x="0px" y="0px" viewBox="0 0 576 512" style="enable-background:new 0 0 576 512;" xml:space="preserve">
<style type="text/css">
	.st0{fill:#999999;}
	.st1{fill-rule:evenodd;clip-rule:evenodd;fill:#999999;}
</style>
<path class="st0" d="M528,256c0,26.5,21.5,48,48,48v96c0,26.5-21.5,48-48,48H48c-26.5,0-48-21.5-48-48v-96c26.5,0,48-21.5,48-48
	s-21.5-48-48-48v-96c0-26.5,21.5-48,48-48h480c26.5,0,48,21.5,48,48v96C549.5,208,528,229.5,528,256z M480,152c0-13.3-10.7-24-24-24
	H120c-13.3,0-24,10.7-24,24v208c0,13.3,10.7,24,24,24h336c13.3,0,24-10.7,24-24V152z"/>
<g>
	<path class="st1" d="M282.3,238l-25.2-53.9c-7.5-16-26-23.2-42.1-16.8c-0.3,0.1-0.5,0.2-0.8,0.3c-0.4,0.2-0.8,0.3-1.2,0.5
		c-0.1,0-0.1,0.1-0.2,0.1c-7.1,3.2-13.1,8.8-16.5,16.5l-54.7,120.2c-7.6,16.7-0.3,36.5,16.4,44.1s36.3,0.3,43.9-16.4l25.3-55.7
		l23.8,50.9c-2.3-7.5-1.9-15.8,1.6-23.4L282.3,238z"/>
	<path class="st1" d="M269,348.4c-16.7-7.6-24-27.4-16.4-44.1l52.9-118.2c-1.2,3.5-1.9,7.3-1.9,11.4v118.6c0,7.6,2.6,14.7,6.9,20.3
		C301.6,349.9,284.1,355.3,269,348.4z"/>
	<path class="st1" d="M369.9,204.9v-7.4c0-11.7-6-22-15.1-27.9c-22.1-14.3-51.2,1.4-51.2,27.9v118.6c0,7.6,2.6,14.7,6.9,20.3
		c0.9-1.4,1.7-2.9,2.4-4.4l54.7-120.2C368.6,209.5,369.4,207.2,369.9,204.9z"/>
	<path class="st1" d="M407.8,282.8h-37.9c0-26,0-113.6,0-78c-0.5,2.3-1.2,4.6-2.3,6.9L312.9,332c-0.7,1.6-1.5,3.1-2.4,4.4
		c6.1,7.9,15.6,13,26.3,13h71c18.3,0,33.2-14.9,33.2-33.3C440.9,297.7,426.1,282.8,407.8,282.8z"/>
</g>
</svg>
