<?xml version="1.0" encoding="utf-8"?>
<!-- Generator: Adobe Illustrator 25.2.3, SVG Export Plug-In . SVG Version: 6.00 Build 0)  -->
<svg version="1.1" id="圖層_1" focusable="false" xmlns="http://www.w3.org/2000/svg" xmlns:xlink="http://www.w3.org/1999/xlink"
	 x="0px" y="0px" viewBox="0 0 576 512" style="enable-background:new 0 0 576 512;" xml:space="preserve">
<style type="text/css">
	.st0{fill:#999999;}
</style>
<path class="st0" d="M528,256c0,26.5,21.5,48,48,48v96c0,26.5-21.5,48-48,48H48c-26.5,0-48-21.5-48-48v-96c26.5,0,48-21.5,48-48
	s-21.5-48-48-48v-96c0-26.5,21.5-48,48-48h480c26.5,0,48,21.5,48,48v96C549.5,208,528,229.5,528,256z M480,152c0-13.3-10.7-24-24-24
	H120c-13.3,0-24,10.7-24,24v208c0,13.3,10.7,24,24,24h336c13.3,0,24-10.7,24-24V152z"/>
<path class="st0" d="M163.1,242.3c19.7,0,35.7-16,35.7-35.7s-16-35.7-35.7-35.7s-35.7,16-35.7,35.7S143.4,242.3,163.1,242.3z
	 M412.9,242.3c19.7,0,35.7-16,35.7-35.7s-16-35.7-35.7-35.7s-35.7,16-35.7,35.7S393.3,242.3,412.9,242.3z M430.8,260.2h-35.7
	c-9.8,0-18.7,4-25.2,10.4c22.5,12.3,38.4,34.6,41.9,61h36.8c9.9,0,17.8-8,17.8-17.8v-17.8C466.5,276.2,450.5,260.2,430.8,260.2z
	 M288,260.2c34.5,0,62.5-27.9,62.5-62.5s-27.9-62.5-62.5-62.5s-62.5,27.9-62.5,62.5S253.5,260.2,288,260.2z M330.8,278h-4.6
	c-11.6,5.6-24.5,8.9-38.2,8.9s-26.6-3.3-38.2-8.9h-4.6c-35.5,0-64.3,28.8-64.3,64.3v16.1c0,14.8,12,26.8,26.8,26.8h160.6
	c14.8,0,26.8-12,26.8-26.8v-16.1C395.1,306.8,366.3,278,330.8,278z M206.1,270.6c-6.5-6.4-15.3-10.4-25.2-10.4h-35.7
	c-19.7,0-35.7,16-35.7,35.7v17.8c0,9.9,8,17.8,17.8,17.8h36.8C167.6,305.2,183.6,282.9,206.1,270.6L206.1,270.6z"/>
</svg>
