<?xml version="1.0" encoding="utf-8"?>
<!-- Generator: Adobe Illustrator 25.2.3, SVG Export Plug-In . SVG Version: 6.00 Build 0)  -->
<svg version="1.1" id="圖層_1" focusable="false" xmlns="http://www.w3.org/2000/svg" xmlns:xlink="http://www.w3.org/1999/xlink"
	 x="0px" y="0px" viewBox="0 0 576 512" style="enable-background:new 0 0 576 512;" xml:space="preserve">
<style type="text/css">
	.st0{fill:#999999;}
</style>
<path class="st0" d="M528,256c0,26.5,21.5,48,48,48v96c0,26.5-21.5,48-48,48H48c-26.5,0-48-21.5-48-48v-96c26.5,0,48-21.5,48-48
	s-21.5-48-48-48v-96c0-26.5,21.5-48,48-48h480c26.5,0,48,21.5,48,48v96C549.5,208,528,229.5,528,256z M480,152c0-13.3-10.7-24-24-24
	H120c-13.3,0-24,10.7-24,24v208c0,13.3,10.7,24,24,24h336c13.3,0,24-10.7,24-24V152z"/>
<path class="st0" d="M365.6,230.3c-33-58.6-129.9-71.4-129.9-71.4s44.7,48.8-12.4,87.4c-36.1,24.4-50.4,56-34.9,90.6
	c11.8,26.5,36.9,37.3,63.9,41.3c-12.9-24.4-2.9-54.1-1.8-57.3c25.2,38.2,72.9,0,49-41.5c31.4,6.8,36.1,61.3,12,95.3
	c35.6-11.2,59.3-39.3,65.8-64.4C384,284,378.8,253.7,365.6,230.3L365.6,230.3z"/>
</svg>
