<?xml version="1.0" encoding="utf-8"?>
<!-- Generator: Adobe Illustrator 25.2.3, SVG Export Plug-In . SVG Version: 6.00 Build 0)  -->
<svg version="1.1" id="圖層_1" focusable="false" xmlns="http://www.w3.org/2000/svg" xmlns:xlink="http://www.w3.org/1999/xlink"
	 x="0px" y="0px" viewBox="0 0 576 512" style="enable-background:new 0 0 576 512;" xml:space="preserve">
<style type="text/css">
	.st0{fill:#999999;}
	.st1{enable-background:new    ;}
</style>
<path class="st0" d="M528,256c0,26.5,21.5,48,48,48v96c0,26.5-21.5,48-48,48H48c-26.5,0-48-21.5-48-48v-96c26.5,0,48-21.5,48-48
	s-21.5-48-48-48v-96c0-26.5,21.5-48,48-48h480c26.5,0,48,21.5,48,48v96C549.5,208,528,229.5,528,256z M480,152c0-13.3-10.7-24-24-24
	H120c-13.3,0-24,10.7-24,24v208c0,13.3,10.7,24,24,24h336c13.3,0,24-10.7,24-24V152z"/>
<g class="st1">
	<path class="st0" d="M264,358.1H143.9v-25.8h44.6V184.9l-45.8,12.4v-27.1l76.8-20.1v182.3H264V358.1z"/>
	<path class="st0" d="M291.3,260c0-35.8,6.1-63,18.4-81.5c12.2-18.5,30-27.8,53.3-27.8c44.3,0,66.5,34.8,66.5,104.4
		c0,34.1-6.1,60.3-18.2,78.8c-12.1,18.4-29.7,27.7-52.7,27.7c-22.2,0-39-8.7-50.3-26.1C297,318,291.3,292.9,291.3,260z M322.8,258.8
		c0,52,12.6,78,37.8,78c24.8,0,37.3-26.5,37.3-79.5c0-54.4-12.2-81.6-36.5-81.6C335.6,175.5,322.8,203.3,322.8,258.8z"/>
</g>
</svg>
