<svg width="200" height="200" viewBox="0 0 200 200" fill="none" xmlns="http://www.w3.org/2000/svg">
<path d="M150 66.6667V50C150 45.5798 148.244 41.3405 145.118 38.2149C141.993 35.0893 137.754 33.3334 133.333 33.3334H33.3333C28.913 33.3334 24.6738 35.0893 21.5482 38.2149C18.4226 41.3405 16.6666 45.5798 16.6666 50V108.333C16.6666 112.754 18.4226 116.993 21.5482 120.118C24.6738 123.244 28.913 125 33.3333 125H100M83.3333 158.333V125.333V151.583M58.3333 158.333H100M150 100H166.667C175.871 100 183.333 107.462 183.333 116.667V166.667C183.333 175.871 175.871 183.333 166.667 183.333H150C140.795 183.333 133.333 175.871 133.333 166.667V116.667C133.333 107.462 140.795 100 150 100Z" stroke="#CCB28C" stroke-width="6" stroke-linecap="round" stroke-linejoin="round"/>
</svg>
